<svg xmlns="http://www.w3.org/2000/svg" width="42" height="42" viewBox="0 0 42 42" fill="none"><path d="M14.9207 29.102C15.216 29.423 15.3872 29.8388 15.4034 30.2747C15.4196 30.7106 15.2799 31.138 15.0092 31.48C14.7386 31.8221 14.3548 32.0565 13.9269 32.141C13.499 32.2255 13.055 32.1546 12.6746 31.941L12.8938 31.287C13.5048 31.6643 14.0402 31.6463 14.4463 31.2295C14.5578 31.1326 14.6482 31.0139 14.7119 30.8807C14.7757 30.7474 14.8113 30.6025 14.8167 30.4549C14.8221 30.3073 14.7971 30.1602 14.7433 30.0227C14.6895 29.8852 14.608 29.7601 14.5038 29.6554C14.1445 29.296 13.6665 29.2314 13.0663 29.4793L12.3476 29.7632C11.5785 30.0831 10.964 29.9824 10.4681 29.4865C9.90745 28.9259 9.93619 28.0239 10.6082 27.3303C10.8098 27.1002 11.0758 26.9358 11.3717 26.8583C11.6676 26.7808 11.98 26.7937 12.2685 26.8954L12.132 27.5495C11.938 27.475 11.7272 27.4558 11.5229 27.4938C11.3187 27.5319 11.1289 27.6258 10.9748 27.7651C10.8888 27.8395 10.8193 27.9311 10.7708 28.034C10.7223 28.1369 10.6958 28.2488 10.6931 28.3625C10.6904 28.4762 10.7115 28.5892 10.7551 28.6943C10.7986 28.7994 10.8637 28.8942 10.946 28.9726C11.2299 29.2601 11.6181 29.2889 12.1392 29.0804L12.9729 28.757C13.7635 28.491 14.4068 28.5881 14.9207 29.102Z" fill="black"></path><path d="M13.6057 32.4695C13.231 32.4641 12.8652 32.3546 12.5492 32.1533C12.5007 32.1242 12.4637 32.0796 12.4441 32.0267C12.4245 31.9737 12.4235 31.9157 12.4414 31.8622L12.6606 31.2117C12.672 31.1767 12.6912 31.1447 12.7167 31.1181C12.7423 31.0915 12.7735 31.0711 12.8081 31.0583C12.8427 31.0455 12.8797 31.0407 12.9164 31.0442C12.9531 31.0478 12.9885 31.0596 13.0199 31.0787C13.5338 31.395 13.9435 31.3878 14.267 31.0572C14.357 30.9844 14.4307 30.8934 14.4832 30.7901C14.5357 30.6869 14.5658 30.5738 14.5716 30.4581C14.5774 30.3424 14.5587 30.2268 14.5167 30.1189C14.4747 30.011 14.4104 29.9131 14.3281 29.8317C14.1412 29.6484 13.8214 29.4328 13.1529 29.7059L12.4342 29.9934C11.5825 30.3528 10.8565 30.2342 10.2779 29.6628C9.59871 28.9872 9.6562 27.9378 10.4145 27.1687C10.6536 26.8992 10.9682 26.7079 11.3175 26.6194C11.6667 26.531 12.0345 26.5496 12.3731 26.6728C12.4299 26.6925 12.4776 26.7321 12.5073 26.7844C12.537 26.8366 12.5468 26.8978 12.5348 26.9567L12.3731 27.6108C12.3669 27.6436 12.3537 27.6746 12.3345 27.7019C12.3153 27.7292 12.2904 27.752 12.2617 27.7689C12.2331 27.7868 12.201 27.7986 12.1676 27.8036C12.1342 27.8085 12.1002 27.8065 12.0676 27.7976C11.9149 27.7347 11.7476 27.7161 11.5848 27.7441C11.4221 27.7721 11.2705 27.8455 11.1476 27.9558C11.0232 28.0688 10.9483 28.2263 10.9392 28.3942C10.9382 28.4719 10.9538 28.5489 10.9847 28.6201C11.0157 28.6913 11.0614 28.7552 11.1189 28.8075C11.259 28.9512 11.4782 29.0842 12.0496 28.8614L12.8798 28.538C13.771 28.2217 14.5113 28.3547 15.0863 28.9261C15.2811 29.1076 15.4372 29.3265 15.5453 29.5699C15.6534 29.8132 15.7112 30.0758 15.7152 30.342C15.7071 30.6223 15.6428 30.898 15.5261 31.153C15.4094 31.4079 15.2428 31.6369 15.036 31.8262C14.8527 32.0236 14.6317 32.1822 14.386 32.2926C14.1403 32.4031 13.875 32.4633 13.6057 32.4695ZM12.9768 31.8226C13.2618 31.959 13.5838 31.9978 13.893 31.9328C14.2022 31.8679 14.4814 31.7028 14.6874 31.4633C14.846 31.321 14.9747 31.1486 15.066 30.9561C15.1573 30.7636 15.2094 30.5548 15.2193 30.342C15.2184 30.1394 15.1759 29.9391 15.0942 29.7536C15.0126 29.5681 14.8937 29.4014 14.7449 29.2639C14.3065 28.8219 13.771 28.7356 13.0667 28.9836L12.2437 29.307C11.6184 29.555 11.1404 29.5011 10.781 29.1453C10.678 29.0427 10.5967 28.9204 10.5422 28.7857C10.4876 28.6509 10.4608 28.5065 10.4635 28.3611C10.4662 28.2158 10.4983 28.0724 10.5578 27.9398C10.6173 27.8071 10.703 27.6879 10.8098 27.5892C10.9582 27.444 11.1401 27.3375 11.3394 27.2792C11.5387 27.2209 11.7493 27.2126 11.9526 27.255L11.9885 27.0717C11.7694 27.0354 11.5446 27.056 11.3357 27.1315C11.1268 27.2071 10.9407 27.3349 10.7954 27.503C10.2384 28.0672 10.1809 28.8219 10.6553 29.2998C11.1296 29.7778 11.5932 29.7958 12.2653 29.5226L12.984 29.2351C13.6776 28.9512 14.2562 29.0267 14.6946 29.4687C14.8247 29.5943 14.9271 29.7456 14.9952 29.913C15.0634 30.0805 15.0958 30.2603 15.0903 30.441C15.0849 30.6217 15.0418 30.7992 14.9638 30.9623C14.8857 31.1253 14.7745 31.2703 14.6371 31.3878C14.4365 31.5983 14.1716 31.7362 13.8841 31.7798C13.5966 31.8234 13.3027 31.7702 13.0487 31.6286L12.9768 31.8226Z" fill="black"></path><path d="M20.7252 25.573L20.2005 26.0977L18.4324 25.379L16.8512 26.9638L17.5699 28.7319L17.0452 29.2638L14.6626 23.2012L20.7252 25.573ZM16.5745 26.414L17.8682 25.1166L15.712 24.2649L16.5745 26.414Z" fill="black"></path><path d="M17.0448 29.5081H16.9945C16.9539 29.501 16.9159 29.4833 16.8843 29.4568C16.8528 29.4303 16.8288 29.3959 16.8148 29.3571L14.4322 23.2945C14.4152 23.2498 14.4115 23.2012 14.4215 23.1545C14.4315 23.1077 14.4548 23.0649 14.4886 23.0311C14.5224 22.9973 14.5653 22.974 14.612 22.964C14.6587 22.954 14.7073 22.9577 14.752 22.9746L20.8218 25.3501C20.8607 25.3645 20.8953 25.3885 20.9223 25.42C20.9494 25.4514 20.968 25.4892 20.9764 25.5298C20.9835 25.5697 20.981 25.6107 20.9691 25.6494C20.9573 25.6882 20.9363 25.7236 20.9081 25.7526L20.3834 26.2773C20.3499 26.3124 20.3064 26.3364 20.2589 26.346C20.2113 26.3557 20.162 26.3505 20.1174 26.3312L18.4823 25.6699L17.1311 27.0212L17.7851 28.642C17.8025 28.6871 17.8063 28.7363 17.7961 28.7835C17.7859 28.8308 17.7621 28.874 17.7276 28.9079L17.2065 29.4326C17.1635 29.4764 17.106 29.5032 17.0448 29.5081ZM15.097 23.6359L17.1382 28.8181L17.2784 28.6779L16.6279 27.0571C16.6086 27.0126 16.6035 26.9632 16.6131 26.9157C16.6227 26.8681 16.6467 26.8247 16.6818 26.7912L18.2631 25.21C18.2974 25.175 18.3415 25.1511 18.3896 25.1415C18.4376 25.1319 18.4875 25.137 18.5326 25.156L20.1498 25.8065L20.2792 25.6699L15.097 23.6359ZM16.5812 26.6582H16.5309C16.4906 26.6505 16.4529 26.6325 16.4214 26.6061C16.39 26.5797 16.3658 26.5457 16.3512 26.5073L15.4995 24.351C15.4817 24.3063 15.4773 24.2573 15.4868 24.2101C15.4964 24.1628 15.5196 24.1194 15.5534 24.0851C15.5869 24.05 15.6304 24.026 15.6779 24.0164C15.7255 24.0067 15.7748 24.0119 15.8193 24.0312L17.9756 24.8793C18.0138 24.8942 18.0477 24.9185 18.074 24.9499C18.1004 24.9813 18.1185 25.0188 18.1265 25.059C18.135 25.0992 18.1336 25.1408 18.1223 25.1803C18.111 25.2197 18.0903 25.2558 18.0618 25.2854L16.7645 26.5792C16.7406 26.6056 16.7111 26.6264 16.6782 26.6401C16.6452 26.6538 16.6097 26.66 16.574 26.6582H16.5812ZM16.1679 24.7068L16.6711 25.9718L17.4329 25.21L16.1679 24.7068Z" fill="black"></path><path d="M17.9761 20.2003L18.4612 19.7188L22.5257 23.7833L22.0406 24.2648L17.9761 20.2003Z" fill="black"></path><path d="M22.0407 24.5128C22.0085 24.5134 21.9766 24.5073 21.9469 24.4949C21.9172 24.4825 21.8904 24.4642 21.8682 24.441L17.8036 20.3765C17.7793 20.3533 17.7599 20.3254 17.7466 20.2945C17.7334 20.2636 17.7266 20.2304 17.7266 20.1968C17.7266 20.1632 17.7334 20.1299 17.7466 20.099C17.7599 20.0681 17.7793 20.0403 17.8036 20.0171L18.2888 19.5607C18.3117 19.5359 18.3395 19.516 18.3704 19.5025C18.4013 19.4889 18.4347 19.4819 18.4685 19.4819C18.5022 19.4819 18.5356 19.4889 18.5666 19.5025C18.5975 19.516 18.6253 19.5359 18.6482 19.5607L22.7127 23.6252C22.737 23.6484 22.7564 23.6762 22.7697 23.7071C22.7829 23.738 22.7898 23.7713 22.7898 23.8049C22.7898 23.8385 22.7829 23.8718 22.7697 23.9026C22.7564 23.9335 22.737 23.9614 22.7127 23.9846L22.2275 24.4697C22.2011 24.4895 22.1708 24.5036 22.1386 24.511C22.1065 24.5184 22.0731 24.5191 22.0407 24.5128ZM18.3283 20.2004L22.0407 23.9163L22.1772 23.7833L18.4613 20.0674L18.3283 20.2004Z" fill="black"></path><path d="M21.4295 17.6703L20.2795 18.8167L19.8159 18.3532L22.5939 15.5752L23.0611 16.0388L21.9147 17.1852L25.5084 20.7789L25.0232 21.2641L21.4295 17.6703Z" fill="black"></path><path d="M25.0267 21.5156C24.9945 21.5161 24.9626 21.51 24.9329 21.4977C24.9032 21.4853 24.8764 21.4669 24.8542 21.4437L21.4293 18.0189L20.4554 18.9928C20.4325 19.0176 20.4048 19.0374 20.3738 19.051C20.3429 19.0646 20.3095 19.0715 20.2757 19.0715C20.242 19.0715 20.2086 19.0646 20.1776 19.051C20.1467 19.0374 20.1189 19.0176 20.0961 18.9928L19.6325 18.5292C19.6076 18.5063 19.5878 18.4785 19.5743 18.4476C19.5607 18.4167 19.5537 18.3833 19.5537 18.3495C19.5537 18.3158 19.5607 18.2824 19.5743 18.2514C19.5878 18.2205 19.6076 18.1927 19.6325 18.1698L22.4356 15.3991C22.4585 15.3742 22.4862 15.3544 22.5172 15.3409C22.5481 15.3273 22.5815 15.3203 22.6153 15.3203C22.649 15.3203 22.6824 15.3273 22.7134 15.3409C22.7443 15.3544 22.7721 15.3742 22.795 15.3991L23.2585 15.8627C23.2834 15.8855 23.3032 15.9133 23.3167 15.9442C23.3303 15.9752 23.3373 16.0086 23.3373 16.0423C23.3373 16.0761 23.3303 16.1095 23.3167 16.1404C23.3032 16.1714 23.2834 16.1991 23.2585 16.222L22.2882 17.1923L25.7131 20.6172C25.7591 20.6642 25.785 20.7274 25.7849 20.7933C25.7853 20.8254 25.7791 20.8572 25.7667 20.8869C25.7544 20.9165 25.7361 20.9434 25.7131 20.9658L25.2279 21.4509C25.2016 21.4765 25.1698 21.4957 25.1349 21.5069C25.1 21.5181 25.0629 21.5211 25.0267 21.5156ZM21.4329 17.4223C21.4976 17.4229 21.5595 17.4487 21.6054 17.4942L25.0303 20.919L25.1668 20.7861L21.742 17.3612C21.7172 17.3384 21.6973 17.3106 21.6838 17.2796C21.6702 17.2487 21.6632 17.2153 21.6632 17.1816C21.6632 17.1478 21.6702 17.1144 21.6838 17.0835C21.6973 17.0525 21.7172 17.0248 21.742 17.0019L22.7123 16.028L22.5973 15.913L20.1679 18.3423L20.2793 18.4825L21.2532 17.5086C21.2753 17.4832 21.3023 17.4624 21.3325 17.4476C21.3628 17.4328 21.3957 17.4242 21.4293 17.4223H21.4329Z" fill="black"></path><path d="M23.9595 14.2205L26.1157 12.0642L26.5613 12.5098L24.8902 14.1701L26.0582 15.3345L27.7185 13.6742L28.1641 14.1198L26.5002 15.7801L28.0527 17.3326L29.7166 15.6723L30.1623 16.1179L28.006 18.2742L23.9595 14.2205Z" fill="black"></path><path d="M28.0135 18.5222C27.9488 18.5216 27.8869 18.4958 27.841 18.4503L23.7873 14.3929C23.7624 14.3701 23.7426 14.3423 23.729 14.3114C23.7155 14.2804 23.7085 14.247 23.7085 14.2133C23.7085 14.1795 23.7155 14.1461 23.729 14.1152C23.7426 14.0842 23.7624 14.0565 23.7873 14.0336L25.9435 11.8773C25.9664 11.8525 25.9942 11.8327 26.0251 11.8191C26.056 11.8056 26.0894 11.7986 26.1232 11.7986C26.1569 11.7986 26.1903 11.8056 26.2213 11.8191C26.2522 11.8327 26.28 11.8525 26.3029 11.8773L26.7485 12.323C26.7733 12.3458 26.7931 12.3736 26.8067 12.4046C26.8202 12.4355 26.8272 12.4689 26.8272 12.5026C26.8272 12.5364 26.8202 12.5698 26.8067 12.6007C26.7931 12.6317 26.7733 12.6594 26.7485 12.6823L25.2391 14.1701L26.0585 14.9859L27.5427 13.4981C27.5661 13.4742 27.5941 13.4552 27.6249 13.4422C27.6558 13.4293 27.6889 13.4226 27.7224 13.4226C27.7559 13.4226 27.789 13.4293 27.8198 13.4422C27.8507 13.4552 27.8786 13.4742 27.9021 13.4981L28.3477 13.9437C28.3721 13.9669 28.3914 13.9948 28.4047 14.0257C28.418 14.0565 28.4248 14.0898 28.4248 14.1234C28.4248 14.157 28.418 14.1903 28.4047 14.2212C28.3914 14.2521 28.3721 14.2799 28.3477 14.3031L26.8635 15.7873L28.0638 16.9912L29.5516 15.5034C29.575 15.4795 29.603 15.4605 29.6338 15.4476C29.6647 15.4346 29.6978 15.4279 29.7313 15.4279C29.7647 15.4279 29.7979 15.4346 29.8287 15.4476C29.8596 15.4605 29.8875 15.4795 29.911 15.5034L30.3422 15.967C30.367 15.9899 30.3869 16.0177 30.4004 16.0486C30.414 16.0795 30.421 16.1129 30.421 16.1467C30.421 16.1805 30.414 16.2139 30.4004 16.2448C30.3869 16.2757 30.367 16.3035 30.3422 16.3264L28.186 18.4826C28.1352 18.5163 28.0739 18.5303 28.0135 18.5222ZM24.3083 14.2097L28.0135 17.9148L29.8103 16.1179L29.7169 16.0209L28.2291 17.5087C28.2057 17.5326 28.1777 17.5516 28.1469 17.5646C28.116 17.5775 28.0829 17.5842 28.0494 17.5842C28.0159 17.5842 27.9828 17.5775 27.952 17.5646C27.9211 17.5516 27.8932 17.5326 27.8697 17.5087L26.328 15.967C26.3032 15.9441 26.2834 15.9163 26.2698 15.8854C26.2563 15.8545 26.2493 15.8211 26.2493 15.7873C26.2493 15.7536 26.2563 15.7202 26.2698 15.6892C26.2834 15.6583 26.3032 15.6305 26.328 15.6076L27.8266 14.1306L27.7332 14.0336L26.2454 15.5214C26.2225 15.5462 26.1947 15.566 26.1638 15.5796C26.1328 15.5931 26.0994 15.6001 26.0657 15.6001C26.0319 15.6001 25.9985 15.5931 25.9676 15.5796C25.9367 15.566 25.9089 15.5462 25.886 15.5214L24.718 14.3534C24.6932 14.3305 24.6734 14.3028 24.6598 14.2718C24.6463 14.2409 24.6393 14.2075 24.6393 14.1737C24.6393 14.14 24.6463 14.1066 24.6598 14.0756C24.6734 14.0447 24.6932 14.0169 24.718 13.994L26.2058 12.5062L26.1088 12.4128L24.3083 14.2097Z" fill="black"></path><path d="M30.5184 11.4712L27.4673 10.7273L28.0495 10.1452L30.4609 10.8172L29.7421 8.43454L30.2956 7.8811L31.0862 10.9861L34.5002 11.8055L33.936 12.3733L31.1868 11.6222L31.9882 14.3211L31.4384 14.8889L30.5184 11.4712Z" fill="black"></path><path d="M31.4377 15.1187H31.3731C31.3311 15.1069 31.2929 15.0845 31.2621 15.0536C31.2312 15.0228 31.2088 14.9846 31.197 14.9426L30.3165 11.6831L27.3912 10.9644C27.3485 10.9544 27.3092 10.9332 27.2775 10.9028C27.2458 10.8725 27.2229 10.8341 27.2111 10.7919C27.1993 10.7496 27.1992 10.7049 27.2106 10.6625C27.2221 10.6202 27.2447 10.5817 27.2762 10.5511L27.8584 9.96532C27.8896 9.93486 27.9283 9.91318 27.9706 9.90245C28.0129 9.89172 28.0572 9.89234 28.0992 9.90423L30.0829 10.4541L29.5079 8.49908C29.4961 8.45654 29.4955 8.41166 29.5062 8.36883C29.5169 8.32599 29.5386 8.28667 29.569 8.2547L30.1225 7.70127C30.1539 7.67108 30.1924 7.64932 30.2345 7.63801C30.2766 7.6267 30.3209 7.62621 30.3632 7.63658C30.4056 7.64876 30.4441 7.67172 30.475 7.70321C30.5058 7.7347 30.528 7.77365 30.5393 7.81627L31.294 10.7775L34.5607 11.5609C34.6033 11.5723 34.6423 11.5944 34.6738 11.6253C34.7052 11.6562 34.7282 11.6947 34.7404 11.737C34.7522 11.7793 34.7525 11.8239 34.7411 11.8663C34.7297 11.9087 34.7071 11.9472 34.6757 11.9778L34.1115 12.542C34.081 12.5725 34.043 12.5942 34.0012 12.605C33.9595 12.6157 33.9157 12.6151 33.8743 12.6031L31.5528 11.9706L32.2284 14.2455C32.2405 14.2883 32.2409 14.3335 32.2295 14.3765C32.2181 14.4195 32.1954 14.4586 32.1637 14.4898L31.6103 15.0433C31.588 15.0668 31.5613 15.0856 31.5317 15.0986C31.502 15.1115 31.4701 15.1184 31.4377 15.1187ZM27.9375 10.5763L30.5753 11.2159C30.6182 11.2266 30.6575 11.2485 30.6891 11.2795C30.7207 11.3105 30.7434 11.3493 30.7549 11.392L31.5635 14.382L31.7109 14.2311L30.9526 11.6723C30.9411 11.6304 30.9408 11.5861 30.9518 11.544C30.9629 11.5019 30.9848 11.4634 31.0154 11.4325C31.046 11.4015 31.0842 11.3792 31.1261 11.3677C31.1681 11.3561 31.2124 11.3559 31.2545 11.3669L33.8635 12.0856L34.0145 11.9347L31.0317 11.2159C30.9883 11.205 30.9487 11.1825 30.917 11.1509C30.8854 11.1192 30.8629 11.0796 30.852 11.0363L30.1656 8.35173L30.0254 8.49548L30.701 10.7488C30.7125 10.7907 30.7128 10.835 30.7018 10.8771C30.6908 10.9192 30.6689 10.9577 30.6383 10.9886C30.6077 11.0196 30.5695 11.0419 30.5275 11.0535C30.4855 11.065 30.4413 11.0652 30.3992 11.0542L28.1243 10.4217L27.9375 10.5763Z" fill="black"></path><path d="M35.9445 7.67274C35.5962 7.67274 35.2558 7.56947 34.9662 7.37597C34.6766 7.18248 34.4509 6.90746 34.3176 6.58569C34.1843 6.26392 34.1495 5.90986 34.2174 5.56827C34.2854 5.22668 34.4531 4.91291 34.6994 4.66664C34.9456 4.42037 35.2594 4.25266 35.601 4.18472C35.9426 4.11677 36.2966 4.15164 36.6184 4.28492C36.9402 4.4182 37.2152 4.64391 37.4087 4.93349C37.6022 5.22307 37.7054 5.56353 37.7054 5.91181C37.7054 6.37884 37.5199 6.82674 37.1897 7.15698C36.8594 7.48722 36.4116 7.67274 35.9445 7.67274ZM35.9445 5.33681C35.8308 5.33681 35.7196 5.37054 35.6251 5.43372C35.5305 5.4969 35.4568 5.5867 35.4133 5.69177C35.3698 5.79684 35.3584 5.91245 35.3806 6.02399C35.4028 6.13553 35.4575 6.23798 35.5379 6.3184C35.6183 6.39881 35.7208 6.45357 35.8323 6.47576C35.9439 6.49795 36.0595 6.48656 36.1646 6.44304C36.2696 6.39952 36.3594 6.32582 36.4226 6.23126C36.4858 6.1367 36.5195 6.02553 36.5195 5.91181C36.5195 5.75931 36.4589 5.61306 36.3511 5.50523C36.2433 5.39739 36.097 5.33681 35.9445 5.33681Z" fill="black"></path><path d="M16.6033 41.9963C15.9416 41.9988 15.2861 41.8698 14.6747 41.6169C14.0634 41.364 13.5083 40.9921 13.0419 40.5229L1.47363 28.9439C0.532175 28.0006 0.00341797 26.7224 0.00341797 25.3897C0.00341797 24.057 0.532175 22.7787 1.47363 21.8355L21.0236 2.31068C21.7465 1.58069 22.6075 1.00199 23.5565 0.608335C24.5055 0.21468 25.5234 0.0139569 26.5507 0.0178786H37.6913C38.8293 0.0178786 39.9207 0.469956 40.7254 1.27466C41.5302 2.07936 41.9822 3.17078 41.9822 4.3088V15.4494C41.9846 16.4756 41.7842 17.4921 41.3926 18.4406C41.001 19.3891 40.4258 20.2509 39.7002 20.9765L20.1395 40.5265C19.6765 40.9931 19.1256 41.3634 18.5186 41.6157C17.9116 41.868 17.2606 41.9973 16.6033 41.9963ZM26.5507 1.55959C25.7298 1.55868 24.9168 1.71979 24.1583 2.03368C23.3998 2.34758 22.7106 2.80808 22.1304 3.3888L2.56971 22.9423C1.9232 23.5928 1.56032 24.4726 1.56032 25.3897C1.56032 26.3067 1.9232 27.1866 2.56971 27.837L14.1487 39.416C14.8086 40.0458 15.6857 40.3973 16.5979 40.3973C17.51 40.3973 18.3872 40.0458 19.047 39.416L38.6077 19.8661C39.1891 19.2863 39.65 18.5973 39.9639 17.8387C40.2779 17.0801 40.4386 16.2668 40.4369 15.4458V4.30521C40.4369 3.57893 40.1484 2.8824 39.6348 2.36885C39.1213 1.85529 38.4248 1.56678 37.6985 1.56678H26.5579L26.5507 1.55959Z" fill="black"></path></svg>