<svg xmlns="http://www.w3.org/2000/svg" width="40" height="35" viewBox="0 0 40 35" fill="none"><g clip-path="url(#clip0_102_1771)"><path d="M20.009 34.3998C17.5201 34.3998 15.0926 34.0751 13.3431 33.5104C12.0065 33.0784 10.4133 32.3047 10.4133 31.0737L13.2035 16.9193L10.4133 5.67322C10.385 5.55099 10.4024 5.42251 10.4621 5.31251C10.5219 5.20251 10.6198 5.11878 10.7369 5.07745L14.6015 3.7758V1.30239C14.6015 1.1691 14.6538 1.04126 14.7469 0.947009C14.8401 0.852755 14.9664 0.799805 15.0981 0.799805H24.9004C25.0321 0.799805 25.1585 0.852755 25.2516 0.947009C25.3448 1.04126 25.3971 1.1691 25.3971 1.30239V3.7758L29.2616 5.07745C29.3802 5.11654 29.4795 5.20002 29.5391 5.31079C29.5988 5.42156 29.6143 5.55123 29.5825 5.67322L26.8118 16.9052L29.6021 30.9607C29.5922 31.1971 29.5361 31.4291 29.4369 31.6433C29.3378 31.8576 29.1976 32.0498 29.0245 32.2087C27.7075 33.5386 24.1694 34.3998 20.009 34.3998ZM11.3871 31.1838V31.2064C11.3871 31.6666 12.2995 32.1975 13.8035 32.6323C15.8291 33.1663 17.916 33.4246 20.009 33.4003C22.1084 33.4296 24.2016 33.1635 26.2286 32.6097C27.7242 32.1579 28.6199 31.5819 28.6199 31.0652V31.0313L24.5182 10.3095H22.6152V11.933C22.6152 12.6302 22.3415 13.2988 21.8543 13.7918C21.3671 14.2847 20.7064 14.5617 20.0174 14.5617C19.3285 14.5617 18.6677 14.2847 18.1805 13.7918C17.6934 13.2988 17.4197 12.6302 17.4197 11.933V10.3095H15.5167L11.3871 31.1838ZM15.6032 4.13439C15.6026 4.23949 15.5698 4.34182 15.5093 4.42727C15.4489 4.51273 15.3637 4.57712 15.2656 4.61157L11.4987 5.87933L13.4519 13.8276H13.8062L14.6154 9.70804C14.639 9.59442 14.7003 9.4924 14.7891 9.41895C14.878 9.34549 14.989 9.30502 15.1037 9.30427H17.4085V7.68074C17.4306 6.99811 17.7141 6.35091 18.1992 5.87593C18.6842 5.40095 19.3327 5.1354 20.0077 5.1354C20.6826 5.1354 21.3311 5.40095 21.8162 5.87593C22.3012 6.35091 22.5847 6.99811 22.6068 7.68074V9.30427H24.9116C25.0264 9.3045 25.1377 9.34477 25.2267 9.41832C25.3156 9.49186 25.3768 9.59418 25.3999 9.70804L26.2091 13.8219H26.5634L28.5166 5.87933L24.7497 4.61157C24.6512 4.57785 24.5655 4.51364 24.505 4.42802C24.4444 4.3424 24.4119 4.23969 24.4121 4.13439V1.79933H15.6032V4.13439ZM20.009 6.05157C19.7981 6.05194 19.5893 6.09439 19.3946 6.1765C19.1999 6.25861 19.0231 6.37876 18.8744 6.53008C18.7256 6.6814 18.6078 6.86092 18.5277 7.05836C18.4476 7.25581 18.4067 7.4673 18.4074 7.68074V11.916C18.3984 12.1348 18.4332 12.3531 18.5097 12.5578C18.5862 12.7626 18.7028 12.9496 18.8525 13.1076C19.0023 13.2655 19.1821 13.3912 19.381 13.4771C19.58 13.563 19.7941 13.6073 20.0104 13.6073C20.2268 13.6073 20.4409 13.563 20.6399 13.4771C20.8388 13.3912 21.0186 13.2655 21.1683 13.1076C21.3181 12.9496 21.4347 12.7626 21.5112 12.5578C21.5877 12.3531 21.6225 12.1348 21.6135 11.916V7.68074C21.6148 7.46686 21.574 7.25485 21.4935 7.05707C21.413 6.8593 21.2944 6.6797 21.1447 6.52874C20.8429 6.22469 20.4349 6.05324 20.009 6.05157V6.05157Z" fill="black"></path><path d="M20.0083 31.5624C16.4451 31.5624 14.3245 30.8819 13.7609 30.6758C13.651 30.6345 13.5593 30.555 13.5021 30.4515C13.4448 30.3481 13.4258 30.2274 13.4483 30.1111L14.6844 23.8852C14.707 23.7716 14.7676 23.6693 14.8561 23.5957C14.9445 23.5222 15.0554 23.4818 15.17 23.4814H24.8606C24.9755 23.4817 25.0868 23.5219 25.1757 23.5955C25.2647 23.669 25.3258 23.7714 25.3489 23.8852L26.5822 30.1111C26.6048 30.2274 26.5858 30.3481 26.5285 30.4515C26.4713 30.555 26.3796 30.6345 26.2697 30.6758C25.7117 30.8819 23.605 31.5624 20.0083 31.5624ZM14.5031 29.8682L14.6789 29.9275C16.4188 30.3825 18.2115 30.5972 20.0083 30.5657C21.8029 30.5927 23.5931 30.3791 25.3322 29.9304L25.5136 29.8682L24.4505 24.4781H15.569L14.5031 29.8682Z" fill="black"></path></g><defs><clipPath id="clip0_102_1771"><rect width="40" height="34.4" fill="white"></rect></clipPath></defs></svg>