<svg xmlns="http://www.w3.org/2000/svg" width="44" height="44" viewBox="0 0 44 44" fill="none"><path d="M41.3475 0H2.13251C1.85246 0 1.57516 0.0551591 1.31643 0.162328C1.0577 0.269497 0.822616 0.426577 0.624593 0.624599C0.426571 0.822621 0.269489 1.05771 0.16232 1.31644C0.0551515 1.57516 0 1.85247 0 2.13251V41.3475C0 41.6275 0.0551515 41.9048 0.16232 42.1636C0.269489 42.4223 0.426571 42.6574 0.624593 42.8554C0.822616 43.0534 1.0577 43.2105 1.31643 43.3177C1.57516 43.4248 1.85246 43.48 2.13251 43.48H41.3475C41.9131 43.48 42.4555 43.2553 42.8554 42.8554C43.2553 42.4555 43.48 41.9131 43.48 41.3475V2.13251C43.48 1.56694 43.2553 1.02452 42.8554 0.624599C42.4555 0.224675 41.9131 0 41.3475 0ZM42.119 41.3475C42.119 41.5521 42.0377 41.7483 41.893 41.893C41.7483 42.0377 41.5521 42.119 41.3475 42.119H2.13251C1.9279 42.119 1.73167 42.0377 1.58699 41.893C1.44231 41.7483 1.36102 41.5521 1.36102 41.3475V2.13251C1.36102 1.9279 1.44231 1.73167 1.58699 1.58699C1.73167 1.44231 1.9279 1.36102 2.13251 1.36102H41.3475C41.5521 1.36102 41.7483 1.44231 41.893 1.58699C42.0377 1.73167 42.119 1.9279 42.119 2.13251V41.3475Z" fill="black"></path><path d="M3.58443 10.0948C3.67567 10.0948 3.76602 10.0767 3.85018 10.0414C3.93435 10.0062 4.01066 9.95452 4.07467 9.88949C4.13869 9.82447 4.18912 9.74735 4.22304 9.66264C4.25695 9.57793 4.27367 9.48732 4.27222 9.39608V7.94044C4.25963 7.76808 4.18227 7.60688 4.0557 7.48922C3.92912 7.37155 3.76271 7.30615 3.58989 7.30615C3.41707 7.30615 3.25066 7.37155 3.12409 7.48922C2.99751 7.60688 2.92015 7.76808 2.90756 7.94044V9.39608C2.90611 9.48641 2.92248 9.57613 2.95571 9.66013C2.98895 9.74413 3.03841 9.82076 3.10126 9.88564C3.16412 9.95053 3.23914 10.0024 3.32204 10.0383C3.40495 10.0742 3.4941 10.0934 3.58443 10.0948Z" fill="black"></path><path d="M3.58434 14.4328C3.7655 14.4328 3.93936 14.3613 4.06813 14.2339C4.19691 14.1065 4.27022 13.9334 4.27213 13.7523V12.2966C4.25954 12.1243 4.18218 11.9631 4.05561 11.8454C3.92903 11.7278 3.76262 11.6624 3.5898 11.6624C3.41699 11.6624 3.25057 11.7278 3.124 11.8454C2.99742 11.9631 2.92007 12.1243 2.90747 12.2966V13.7523C2.90935 13.9316 2.98115 14.103 3.10758 14.2301C3.23402 14.3572 3.40508 14.43 3.58434 14.4328Z" fill="black"></path><path d="M3.58435 18.7887C3.67481 18.7892 3.76447 18.7717 3.84813 18.7373C3.93179 18.7029 4.00781 18.6523 4.07178 18.5883C4.13574 18.5244 4.18638 18.4484 4.22077 18.3647C4.25516 18.281 4.27263 18.1914 4.27214 18.1009V16.6453C4.25955 16.4729 4.18219 16.3117 4.05562 16.194C3.92904 16.0764 3.76263 16.011 3.58981 16.011C3.417 16.011 3.25058 16.0764 3.12401 16.194C2.99743 16.3117 2.92008 16.4729 2.90748 16.6453V18.1009C2.90651 18.2817 2.97716 18.4556 3.104 18.5845C3.23083 18.7134 3.40353 18.7868 3.58435 18.7887Z" fill="black"></path><path d="M3.58434 23.1484C3.7655 23.1484 3.93936 23.0769 4.06813 22.9495C4.19691 22.8221 4.27022 22.649 4.27213 22.4679V21.0122C4.25954 20.8399 4.18218 20.6787 4.05561 20.561C3.92903 20.4433 3.76262 20.3779 3.5898 20.3779C3.41699 20.3779 3.25057 20.4433 3.124 20.561C2.99742 20.6787 2.92007 20.8399 2.90747 21.0122V22.4679C2.90935 22.6471 2.98115 22.8186 3.10758 22.9457C3.23402 23.0728 3.40508 23.1455 3.58434 23.1484Z" fill="black"></path><path d="M3.58434 27.5044C3.76364 27.5045 3.93588 27.4345 4.06436 27.3094C4.19283 27.1843 4.26739 27.014 4.27213 26.8348V25.3792C4.25954 25.2068 4.18218 25.0456 4.05561 24.9279C3.92903 24.8103 3.76262 24.7449 3.5898 24.7449C3.41699 24.7449 3.25057 24.8103 3.124 24.9279C2.99742 25.0456 2.92007 25.2068 2.90747 25.3792V26.8348C2.91214 27.0122 2.98518 27.1809 3.11132 27.3057C3.23745 27.4304 3.40693 27.5016 3.58434 27.5044Z" fill="black"></path><path d="M3.58434 31.8604C3.7655 31.8604 3.93936 31.789 4.06813 31.6616C4.19691 31.5341 4.27022 31.3611 4.27213 31.1799V29.7461C4.25954 29.5737 4.18218 29.4125 4.05561 29.2949C3.92903 29.1772 3.76262 29.1118 3.5898 29.1118C3.41699 29.1118 3.25057 29.1772 3.124 29.2949C2.99742 29.4125 2.92007 29.5737 2.90747 29.7461V31.2017C2.91488 31.3772 2.98913 31.5432 3.11498 31.6656C3.24083 31.7881 3.40875 31.8578 3.58434 31.8604Z" fill="black"></path><path d="M3.58434 36.2162C3.67418 36.2167 3.76324 36.1995 3.84643 36.1656C3.92962 36.1316 4.00531 36.0816 4.06918 36.0184C4.13305 35.9552 4.18385 35.8801 4.21867 35.7973C4.25349 35.7144 4.27166 35.6256 4.27213 35.5357V34.0801C4.25954 33.9077 4.18218 33.7465 4.05561 33.6289C3.92903 33.5112 3.76262 33.4458 3.5898 33.4458C3.41699 33.4458 3.25057 33.5112 3.124 33.6289C2.99742 33.7465 2.92007 33.9077 2.90747 34.0801V35.5357C2.90842 35.7153 2.97992 35.8873 3.10655 36.0146C3.23318 36.1419 3.40478 36.2143 3.58434 36.2162Z" fill="black"></path><path d="M9.39607 2.90405H7.94043C7.76807 2.91665 7.60687 2.994 7.48921 3.12058C7.37154 3.24715 7.30615 3.41357 7.30615 3.58638C7.30615 3.7592 7.37154 3.92561 7.48921 4.05219C7.60687 4.17876 7.76807 4.25612 7.94043 4.26872H9.39607C9.56843 4.25612 9.72964 4.17876 9.84731 4.05219C9.96497 3.92561 10.0304 3.7592 10.0304 3.58638C10.0304 3.41357 9.96497 3.24715 9.84731 3.12058C9.72964 2.994 9.56843 2.91665 9.39607 2.90405Z" fill="black"></path><path d="M12.3005 4.27238H13.7562C13.9285 4.25978 14.0898 4.18243 14.2074 4.05585C14.3251 3.92928 14.3905 3.76286 14.3905 3.59005C14.3905 3.41723 14.3251 3.25082 14.2074 3.12424C14.0898 2.99767 13.9285 2.92031 13.7562 2.90771H12.3005C12.1282 2.92031 11.967 2.99767 11.8493 3.12424C11.7317 3.25082 11.6663 3.41723 11.6663 3.59005C11.6663 3.76286 11.7317 3.92928 11.8493 4.05585C11.967 4.18243 12.1282 4.25978 12.3005 4.27238Z" fill="black"></path><path d="M16.6455 4.27238H18.1012C18.2735 4.25978 18.4347 4.18243 18.5524 4.05585C18.67 3.92928 18.7354 3.76286 18.7354 3.59005C18.7354 3.41723 18.67 3.25082 18.5524 3.12424C18.4347 2.99767 18.2735 2.92031 18.1012 2.90771H16.6455C16.4732 2.92031 16.312 2.99767 16.1943 3.12424C16.0766 3.25082 16.0112 3.41723 16.0112 3.59005C16.0112 3.76286 16.0766 3.92928 16.1943 4.05585C16.312 4.18243 16.4732 4.25978 16.6455 4.27238Z" fill="black"></path><path d="M21.0127 4.27238H22.4683C22.6407 4.25978 22.8019 4.18243 22.9196 4.05585C23.0372 3.92928 23.1026 3.76286 23.1026 3.59005C23.1026 3.41723 23.0372 3.25082 22.9196 3.12424C22.8019 2.99767 22.6407 2.92031 22.4683 2.90771H21.0127C20.8403 2.92031 20.6791 2.99767 20.5615 3.12424C20.4438 3.25082 20.3784 3.41723 20.3784 3.59005C20.3784 3.76286 20.4438 3.92928 20.5615 4.05585C20.6791 4.18243 20.8403 4.25978 21.0127 4.27238Z" fill="black"></path><path d="M25.3787 4.27238H26.8343C27.0067 4.25978 27.1679 4.18243 27.2855 4.05585C27.4032 3.92928 27.4686 3.76286 27.4686 3.59005C27.4686 3.41723 27.4032 3.25082 27.2855 3.12424C27.1679 2.99767 27.0067 2.92031 26.8343 2.90771H25.3787C25.2063 2.92031 25.0451 2.99767 24.9275 3.12424C24.8098 3.25082 24.7444 3.41723 24.7444 3.59005C24.7444 3.76286 24.8098 3.92928 24.9275 4.05585C25.0451 4.18243 25.2063 4.25978 25.3787 4.27238Z" fill="black"></path><path d="M31.18 2.90405H29.7243C29.5429 2.90695 29.37 2.98181 29.2438 3.11216C29.1175 3.24251 29.0482 3.41767 29.0511 3.59912C29.054 3.78057 29.1289 3.95344 29.2592 4.07969C29.3896 4.20595 29.5647 4.27525 29.7462 4.27236H31.2018C31.3742 4.25976 31.5354 4.1824 31.653 4.05583C31.7707 3.92925 31.8361 3.76284 31.8361 3.59002C31.8361 3.41721 31.7707 3.25079 31.653 3.12422C31.5354 2.99764 31.3742 2.92029 31.2018 2.90769L31.18 2.90405Z" fill="black"></path><path d="M35.536 2.90405H34.0803C33.908 2.91665 33.7468 2.994 33.6291 3.12058C33.5114 3.24715 33.446 3.41357 33.446 3.58638C33.446 3.7592 33.5114 3.92561 33.6291 4.05219C33.7468 4.17876 33.908 4.25612 34.0803 4.26872H35.536C35.7083 4.25612 35.8695 4.17876 35.9872 4.05219C36.1049 3.92561 36.1703 3.7592 36.1703 3.58638C36.1703 3.41357 36.1049 3.24715 35.9872 3.12058C35.8695 2.994 35.7083 2.91665 35.536 2.90405Z" fill="black"></path><path d="M9.39607 39.2078H7.94043C7.76807 39.2204 7.60687 39.2977 7.48921 39.4243C7.37154 39.5509 7.30615 39.7173 7.30615 39.8901C7.30615 40.0629 7.37154 40.2293 7.48921 40.3559C7.60687 40.4825 7.76807 40.5598 7.94043 40.5724H9.39607C9.56843 40.5598 9.72964 40.4825 9.84731 40.3559C9.96497 40.2293 10.0304 40.0629 10.0304 39.8901C10.0304 39.7173 9.96497 39.5509 9.84731 39.4243C9.72964 39.2977 9.56843 39.2204 9.39607 39.2078Z" fill="black"></path><path d="M13.7516 39.2078H12.2959C12.1236 39.2204 11.9623 39.2977 11.8447 39.4243C11.727 39.5509 11.6616 39.7173 11.6616 39.8901C11.6616 40.0629 11.727 40.2293 11.8447 40.3559C11.9623 40.4825 12.1236 40.5598 12.2959 40.5724H13.7516C13.9239 40.5598 14.0851 40.4825 14.2028 40.3559C14.3204 40.2293 14.3858 40.0629 14.3858 39.8901C14.3858 39.7173 14.3204 39.5509 14.2028 39.4243C14.0851 39.2977 13.9239 39.2204 13.7516 39.2078Z" fill="black"></path><path d="M18.1012 39.2078H16.6455C16.4732 39.2204 16.312 39.2977 16.1943 39.4243C16.0766 39.5509 16.0112 39.7173 16.0112 39.8901C16.0112 40.0629 16.0766 40.2293 16.1943 40.3559C16.312 40.4825 16.4732 40.5598 16.6455 40.5724H18.1012C18.2735 40.5598 18.4347 40.4825 18.5524 40.3559C18.67 40.2293 18.7354 40.0629 18.7354 39.8901C18.7354 39.7173 18.67 39.5509 18.5524 39.4243C18.4347 39.2977 18.2735 39.2204 18.1012 39.2078Z" fill="black"></path><path d="M22.4683 39.2078H21.0127C20.8403 39.2204 20.6791 39.2977 20.5615 39.4243C20.4438 39.5509 20.3784 39.7173 20.3784 39.8901C20.3784 40.0629 20.4438 40.2293 20.5615 40.3559C20.6791 40.4825 20.8403 40.5598 21.0127 40.5724H22.4683C22.6407 40.5598 22.8019 40.4825 22.9196 40.3559C23.0372 40.2293 23.1026 40.0629 23.1026 39.8901C23.1026 39.7173 23.0372 39.5509 22.9196 39.4243C22.8019 39.2977 22.6407 39.2204 22.4683 39.2078Z" fill="black"></path><path d="M26.8343 39.2078H25.3787C25.2063 39.2204 25.0451 39.2977 24.9275 39.4243C24.8098 39.5509 24.7444 39.7173 24.7444 39.8901C24.7444 40.0629 24.8098 40.2293 24.9275 40.3559C25.0451 40.4825 25.2063 40.5598 25.3787 40.5724H26.8343C27.0067 40.5598 27.1679 40.4825 27.2855 40.3559C27.4032 40.2293 27.4686 40.0629 27.4686 39.8901C27.4686 39.7173 27.4032 39.5509 27.2855 39.4243C27.1679 39.2977 27.0067 39.2204 26.8343 39.2078Z" fill="black"></path><path d="M31.1805 39.2078H29.7249C29.5525 39.2204 29.3913 39.2977 29.2736 39.4243C29.156 39.5509 29.0906 39.7173 29.0906 39.8901C29.0906 40.0629 29.156 40.2293 29.2736 40.3559C29.3913 40.4825 29.5525 40.5598 29.7249 40.5724H31.1805C31.3529 40.5598 31.5141 40.4825 31.6317 40.3559C31.7494 40.2293 31.8148 40.0629 31.8148 39.8901C31.8148 39.7173 31.7494 39.5509 31.6317 39.4243C31.5141 39.2977 31.3529 39.2204 31.1805 39.2078Z" fill="black"></path><path d="M35.536 39.2078H34.0803C33.908 39.2204 33.7468 39.2977 33.6291 39.4243C33.5114 39.5509 33.446 39.7173 33.446 39.8901C33.446 40.0629 33.5114 40.2293 33.6291 40.3559C33.7468 40.4825 33.908 40.5598 34.0803 40.5724H35.536C35.7083 40.5598 35.8695 40.4825 35.9872 40.3559C36.1049 40.2293 36.1703 40.0629 36.1703 39.8901C36.1703 39.7173 36.1049 39.5509 35.9872 39.4243C35.8695 39.2977 35.7083 39.2204 35.536 39.2078Z" fill="black"></path><path d="M5.0402 2.90405H3.58456C3.40467 2.90595 3.23268 2.97825 3.10546 3.10546C2.97825 3.23268 2.90595 3.40467 2.90405 3.58456V5.04021C2.91665 5.21256 2.99401 5.37377 3.12058 5.49143C3.24715 5.60909 3.41357 5.67449 3.58638 5.67449C3.7592 5.67449 3.92561 5.60909 4.05219 5.49143C4.17876 5.37377 4.25612 5.21256 4.26872 5.04021V4.27236H5.0402C5.21256 4.25976 5.37378 4.1824 5.49144 4.05583C5.6091 3.92925 5.67449 3.76284 5.67449 3.59002C5.67449 3.41721 5.6091 3.25079 5.49144 3.12422C5.37378 2.99764 5.21256 2.92029 5.0402 2.90769V2.90405Z" fill="black"></path><path d="M5.03998 39.2078H4.27213V38.4363C4.25954 38.2639 4.18218 38.1027 4.05561 37.9851C3.92903 37.8674 3.76262 37.802 3.5898 37.802C3.41699 37.802 3.25057 37.8674 3.124 37.9851C2.99742 38.1027 2.92007 38.2639 2.90747 38.4363V39.8919C2.90936 40.0718 2.98167 40.2438 3.10888 40.371C3.2361 40.4982 3.40809 40.5705 3.58798 40.5724H5.04362C5.21598 40.5598 5.37718 40.4825 5.49485 40.3559C5.61251 40.2293 5.67791 40.0629 5.67791 39.8901C5.67791 39.7173 5.61251 39.5509 5.49485 39.4243C5.37718 39.2977 5.21598 39.2204 5.04362 39.2078H5.03998Z" fill="black"></path><path d="M39.8956 33.4033C39.7144 33.4033 39.5405 33.4748 39.4118 33.6022C39.283 33.7296 39.2097 33.9027 39.2078 34.0838V35.5395C39.2204 35.7118 39.2977 35.873 39.4243 35.9907C39.5509 36.1084 39.7173 36.1738 39.8901 36.1738C40.0629 36.1738 40.2293 36.1084 40.3559 35.9907C40.4825 35.873 40.5598 35.7118 40.5724 35.5395V34.0838C40.5706 33.9046 40.4987 33.7331 40.3723 33.606C40.2459 33.4789 40.0748 33.4062 39.8956 33.4033Z" fill="black"></path><path d="M39.8956 29.0474C39.8044 29.0474 39.7141 29.0655 39.6299 29.1007C39.5457 29.136 39.4694 29.1876 39.4054 29.2527C39.3414 29.3177 39.291 29.3948 39.257 29.4795C39.2231 29.5642 39.2064 29.6548 39.2079 29.7461V31.2017C39.2204 31.3741 39.2978 31.5353 39.4244 31.6529C39.551 31.7706 39.7174 31.836 39.8902 31.836C40.063 31.836 40.2294 31.7706 40.356 31.6529C40.4826 31.5353 40.5599 31.3741 40.5725 31.2017V29.7461C40.574 29.6557 40.5576 29.566 40.5244 29.482C40.4911 29.398 40.4417 29.3214 40.3788 29.2565C40.316 29.1916 40.2409 29.1398 40.158 29.1039C40.0751 29.068 39.986 29.0488 39.8956 29.0474Z" fill="black"></path><path d="M39.8956 24.6914C39.8051 24.6909 39.7155 24.7084 39.6318 24.7428C39.5481 24.7772 39.4721 24.8278 39.4081 24.8918C39.3442 24.9558 39.2935 25.0318 39.2591 25.1154C39.2248 25.1991 39.2073 25.2887 39.2078 25.3792V26.8348C39.2204 27.0072 39.2977 27.1684 39.4243 27.2861C39.5509 27.4037 39.7173 27.4691 39.8901 27.4691C40.0629 27.4691 40.2293 27.4037 40.3559 27.2861C40.4825 27.1684 40.5598 27.0072 40.5724 26.8348V25.3792C40.5734 25.1984 40.5028 25.0245 40.3759 24.8956C40.2491 24.7668 40.0764 24.6933 39.8956 24.6914Z" fill="black"></path><path d="M39.8956 20.3318C39.7144 20.3318 39.5405 20.4032 39.4118 20.5307C39.283 20.6581 39.2097 20.8311 39.2078 21.0123V22.4679C39.2204 22.6403 39.2977 22.8015 39.4243 22.9192C39.5509 23.0368 39.7173 23.1022 39.8901 23.1022C40.0629 23.1022 40.2293 23.0368 40.3559 22.9192C40.4825 22.8015 40.5598 22.6403 40.5724 22.4679V21.0123C40.5706 20.833 40.4987 20.6616 40.3723 20.5345C40.2459 20.4073 40.0748 20.3346 39.8956 20.3318Z" fill="black"></path><path d="M39.8956 15.9756C39.7163 15.9755 39.544 16.0455 39.4155 16.1706C39.2871 16.2956 39.2125 16.4659 39.2078 16.6452V18.1008C39.2204 18.2732 39.2977 18.4344 39.4243 18.552C39.5509 18.6697 39.7173 18.7351 39.8901 18.7351C40.0629 18.7351 40.2293 18.6697 40.3559 18.552C40.4825 18.4344 40.5598 18.2732 40.5724 18.1008V16.6452C40.5678 16.4678 40.4947 16.2991 40.3686 16.1743C40.2424 16.0495 40.073 15.9783 39.8956 15.9756Z" fill="black"></path><path d="M39.8956 11.6196C39.7144 11.6196 39.5405 11.6911 39.4118 11.8185C39.283 11.9459 39.2097 12.119 39.2078 12.3001V13.7558C39.2204 13.9281 39.2977 14.0893 39.4243 14.207C39.5509 14.3247 39.7173 14.3901 39.8901 14.3901C40.0629 14.3901 40.2293 14.3247 40.3559 14.207C40.4825 14.0893 40.5598 13.9281 40.5724 13.7558V12.3001C40.5706 12.1209 40.4987 11.9494 40.3723 11.8223C40.2459 11.6952 40.0748 11.6225 39.8956 11.6196Z" fill="black"></path><path d="M39.8956 7.26368C39.8057 7.2632 39.7167 7.28042 39.6335 7.31436C39.5503 7.3483 39.4746 7.3983 39.4107 7.46149C39.3469 7.52468 39.296 7.59983 39.2612 7.68266C39.2264 7.76548 39.2082 7.85435 39.2078 7.94419V9.39983C39.2204 9.57219 39.2977 9.7334 39.4243 9.85106C39.5509 9.96872 39.7173 10.0341 39.8901 10.0341C40.0629 10.0341 40.2293 9.96872 40.3559 9.85106C40.4825 9.7334 40.5598 9.57219 40.5724 9.39983V7.94419C40.5715 7.76463 40.5 7.59264 40.3733 7.46532C40.2467 7.33801 40.0751 7.26559 39.8956 7.26368Z" fill="black"></path><path d="M39.8951 37.752C39.7146 37.7529 39.5416 37.8248 39.4137 37.9521C39.2857 38.0794 39.2129 38.2519 39.211 38.4325V39.2076H38.4395C38.2671 39.2202 38.1059 39.2975 37.9882 39.4241C37.8706 39.5507 37.8052 39.7171 37.8052 39.8899C37.8052 40.0627 37.8706 40.2292 37.9882 40.3557C38.1059 40.4823 38.2671 40.5597 38.4395 40.5723H39.8951C40.075 40.5704 40.247 40.4981 40.3742 40.3708C40.5014 40.2436 40.5737 40.0716 40.5756 39.8917V38.4361C40.5747 38.2556 40.5028 38.0827 40.3755 37.9547C40.2482 37.8267 40.0756 37.7539 39.8951 37.752Z" fill="black"></path><path d="M39.8951 2.90405H38.4395C38.2671 2.91665 38.1059 2.994 37.9882 3.12058C37.8706 3.24715 37.8052 3.41357 37.8052 3.58638C37.8052 3.7592 37.8706 3.92561 37.9882 4.05219C38.1059 4.17876 38.2671 4.25612 38.4395 4.26872H39.2073V5.04021C39.2199 5.21256 39.2973 5.37377 39.4238 5.49143C39.5504 5.60909 39.7168 5.67449 39.8896 5.67449C40.0625 5.67449 40.2289 5.60909 40.3554 5.49143C40.482 5.37377 40.5594 5.21256 40.572 5.04021V3.58456C40.5701 3.40529 40.4983 3.23383 40.3719 3.10672C40.2454 2.97961 40.0744 2.90689 39.8951 2.90405Z" fill="black"></path></svg>