<svg xmlns="http://www.w3.org/2000/svg" width="61" height="49" viewBox="0 0 61 49" fill="none"><path d="M42.3616 49H18.1674C13.7704 48.9977 9.52332 47.42 6.21304 44.5592C2.90276 41.6984 0.753724 37.7485 0.16417 33.4413C-0.425383 29.1341 0.584533 24.7617 3.00672 21.1342C5.4289 17.5067 9.09914 14.8701 13.3374 13.7128C14.8365 9.46426 17.7116 5.82312 21.5169 3.35385C25.3222 0.884588 29.8452 -0.274912 34.3849 0.0550774C38.9245 0.385066 43.2273 2.18613 46.6263 5.17907C50.0252 8.17201 52.3305 12.1897 53.1848 16.6093C56.2546 18.8607 58.5281 22.0117 59.6818 25.614C60.8356 29.2163 60.8109 33.0864 59.6112 36.674C58.4115 40.2616 56.098 43.384 52.9997 45.5969C49.9013 47.8098 46.176 49.0006 42.3536 49H42.3616ZM32.8747 2.76742C29.0392 2.75077 25.3014 3.96236 22.2207 6.22088C19.14 8.47941 16.882 11.6634 15.7847 15.2964L15.5471 16.0682L14.7422 16.2473C11.062 17.079 7.82071 19.2214 5.63696 22.2653C3.4532 25.3093 2.47998 29.0416 2.90309 32.7498C3.32621 36.4579 5.11601 39.8822 7.93083 42.3688C10.7457 44.8554 14.3883 46.2303 18.1634 46.2308H42.3575C45.6337 46.2331 48.8248 45.1996 51.4643 43.2813C54.1039 41.363 56.0535 38.6604 57.0284 35.5686C58.0032 32.4768 57.9522 29.1578 56.8826 26.0967C55.8131 23.0357 53.7811 20.393 51.0837 18.5549L50.5927 18.2167L50.4961 17.6279C49.8416 13.4773 47.7041 9.69608 44.4712 6.96973C41.2384 4.24339 37.1242 2.7525 32.8747 2.76742Z" fill="white"></path><path d="M22.2984 33.6209C18.0887 33.6209 15.3726 31.2584 15.3726 27.5648C15.3726 23.7256 18.2694 21.1425 22.5824 21.1425C23.6976 21.1026 24.8087 21.2881 25.8366 21.6859C25.8751 21.7036 25.9058 21.7327 25.9238 21.7685C25.9418 21.8043 25.946 21.8446 25.9356 21.8828L25.3415 23.9934C25.3357 24.0181 25.3237 24.0412 25.3066 24.061C25.2894 24.0808 25.2675 24.0967 25.2426 24.1076C25.2172 24.1196 25.1893 24.1263 25.1608 24.1273C25.1351 24.1309 25.109 24.1309 25.0833 24.1273C24.3328 23.8435 23.5279 23.7003 22.7159 23.7059C20.3054 23.7059 18.8032 25.1314 18.8032 27.4231C18.8032 29.7148 20.2753 31.089 22.7374 31.089C23.538 31.0873 24.3325 30.9622 25.0876 30.7189C25.1118 30.7148 25.1366 30.7148 25.1608 30.7189C25.1921 30.7198 25.2228 30.7265 25.2512 30.7386C25.2748 30.7515 25.2953 30.7686 25.3115 30.7889C25.3278 30.8092 25.3395 30.8322 25.3459 30.8567L25.7763 32.9358C25.7843 32.9733 25.7785 33.0122 25.7598 33.0464C25.7411 33.0805 25.7106 33.1081 25.673 33.1248C24.5957 33.4949 23.4482 33.6636 22.2984 33.6209Z" fill="white"></path><path d="M41.4723 36.4945C41.4303 36.4945 41.39 36.4768 41.3604 36.4452C41.3307 36.4136 41.314 36.3707 41.314 36.326V35.1772C41.3145 35.1539 41.3196 35.131 41.3289 35.1099C41.3382 35.0888 41.3515 35.07 41.368 35.0547L42.3611 34.0973C44.0452 32.4928 44.8009 31.6274 44.8224 30.7466C44.8224 30.4364 44.7145 29.728 43.7177 29.728C43.1502 29.7533 42.6068 29.9797 42.174 30.3713C42.1458 30.3935 42.1118 30.4056 42.0768 30.4058H42.0301C42.0071 30.3989 41.9859 30.3862 41.9684 30.3689C41.9509 30.3516 41.9375 30.3301 41.9293 30.3063L41.4219 28.9353C41.408 28.9016 41.4054 28.8637 41.4146 28.8282C41.4238 28.7926 41.4442 28.7615 41.4723 28.74C42.2331 28.1589 43.1484 27.8517 44.0848 27.8631C45.8444 27.8631 46.9383 28.9085 46.9383 30.5973C46.9383 32.0103 45.9704 33.1438 45.0204 34.0705L44.4734 34.6028H46.9204C46.9624 34.6028 47.0026 34.6206 47.0323 34.6522C47.062 34.6838 47.0787 34.7266 47.0787 34.7713V36.3414C47.0787 36.3861 47.062 36.4289 47.0323 36.4605C47.0026 36.4921 46.9624 36.5099 46.9204 36.5099L41.4723 36.4945Z" fill="white"></path><path d="M33.008 33.6274C29.4117 33.6274 26.9019 31.0963 26.9019 27.4709C26.9019 23.7431 29.4959 21.1372 33.2185 21.1372C36.9412 21.1372 39.3921 23.5975 39.3921 27.2622C39.3921 31.116 36.8654 33.6274 33.008 33.6274ZM33.1385 23.5975C31.033 23.5975 30.2792 25.6562 30.2792 27.4197C30.2792 29.6989 31.4077 31.1711 33.1554 31.1711C35.2609 31.1711 35.9937 29.1123 35.9937 27.3488C35.9937 25.479 35.1094 23.5975 33.1385 23.5975Z" fill="white"></path></svg>