<svg xmlns="http://www.w3.org/2000/svg" width="46" height="50" viewBox="0 0 46 50" fill="none"><path d="M10.7084 49.131C10.503 49.1181 10.3064 49.0428 10.1449 48.9151C9.98343 48.7874 9.86484 48.6135 9.80499 48.4165C9.74715 48.1734 9.78419 47.9174 9.90857 47.7007C10.0329 47.484 10.2353 47.3229 10.4743 47.2502C12.6467 46.4043 14.2646 45.2257 15.283 43.7392L15.3857 43.5749L15.2091 43.5051C13.9351 43.0732 12.7822 42.344 11.8459 41.378C11.4174 40.9265 11.085 40.3927 10.869 39.8089C10.653 39.2252 10.5578 38.6036 10.5893 37.9819V37.8916L10.5195 37.8505C7.64989 35.9146 5.23376 33.38 3.43741 30.4211C1.64106 27.4621 0.507138 24.1491 0.113681 20.71C-0.338032 16.4393 0.565391 12.2876 2.66381 9.00652C5.02504 5.31068 8.93031 2.52237 13.6938 1.12206C16.14 0.393997 18.6771 0.0165497 21.2292 0.000993049C23.9635 -0.0256003 26.6767 0.48216 29.2164 1.49575C33.855 3.42468 37.8448 6.64073 40.7145 10.7641C43.5146 14.6883 45.1823 19.3065 45.5355 24.1143C45.8435 29.2145 44.3857 33.7933 41.3264 37.3782C37.84 41.456 32.6247 44.039 26.6498 44.6632C25.5944 44.781 24.5333 44.8399 23.4714 44.8397C21.6311 44.8443 19.7954 44.6585 17.9933 44.2854C17.7757 44.2402 17.5827 44.1827 17.3527 44.1375L17.2501 44.1088L17.1926 44.1991C15.9237 46.3099 13.8376 47.9442 10.9671 49.0489C10.8909 49.1012 10.8009 49.1298 10.7084 49.131ZM18.3424 41.3903C18.2726 41.6695 18.1822 41.9447 18.096 42.2116L18.0385 42.3717L18.1987 42.4046C19.9272 42.7769 21.6909 42.9614 23.4591 42.9549C24.0422 42.9549 24.6417 42.9549 25.2249 42.8974C31.1998 42.536 36.3575 40.1748 39.7824 36.2531C44.6485 30.6518 45.7778 20.1228 38.4272 10.8544C35.1913 6.74795 31.171 3.9309 26.7976 2.64146C24.9309 2.0921 22.9945 1.81547 21.0486 1.82016C17.8246 1.83138 14.6385 2.51532 11.694 3.82824C7.54232 5.68026 4.46656 8.71085 3.0375 12.3697C1.62838 16.0863 1.48404 20.1637 2.62685 23.9706C3.99286 28.7664 6.93546 32.9618 10.9794 35.8794L11.1109 35.982L11.1807 35.8342C11.8829 34.5242 12.9465 33.781 14.1538 33.7194H14.318C14.9226 33.7348 15.5164 33.8825 16.0577 34.1521C16.599 34.4217 17.0747 34.8066 17.4513 35.2798C18.308 36.4153 18.7212 37.8243 18.6134 39.2426V39.3617L18.7325 39.3904C19.5766 39.584 20.4326 39.7212 21.2949 39.8011C21.5627 39.8291 21.8088 39.9609 21.9807 40.1681C22.1526 40.3753 22.2366 40.6415 22.2148 40.9098C22.2187 41.013 22.2016 41.1159 22.1644 41.2123C22.1272 41.3086 22.0707 41.3964 21.9985 41.4702C21.9262 41.544 21.8397 41.6023 21.7441 41.6415C21.6486 41.6807 21.546 41.7 21.4428 41.6983H21.3401C20.3505 41.5956 19.4019 41.4642 18.4656 41.2876L18.3342 41.2589L18.3424 41.3903ZM12.7904 39.5259C13.1193 40.0167 13.5371 40.4415 14.0224 40.7784C14.6641 41.2023 15.3532 41.5496 16.0756 41.8133L16.2234 41.8707L16.2686 41.727C16.3548 41.4642 16.4411 41.185 16.4986 40.9262L16.5273 40.7948L16.3959 40.7497C16.1043 40.6634 15.858 40.5731 15.6239 40.4869C14.7113 40.1559 13.8211 39.7664 12.9588 39.3206L12.4906 39.0578L12.7904 39.5259ZM14.3673 35.6042C14.0725 35.6021 13.7848 35.6942 13.546 35.8671C13.195 36.1339 12.9237 36.4918 12.7617 36.9019L12.7042 37.0169L12.8192 37.0908C14.0062 37.7738 15.2545 38.3444 16.5478 38.795L16.7532 38.8689V38.6513C16.7532 38.4624 16.7244 38.2735 16.708 38.0969C16.656 37.6574 16.5075 37.2347 16.2733 36.8592C16.039 36.4837 15.7247 36.1645 15.3529 35.9245C15.0643 35.7172 14.7221 35.5975 14.3673 35.5796V35.6042Z" fill="black"></path></svg>