<svg xmlns="http://www.w3.org/2000/svg" width="46" height="45" viewBox="0 0 46 45" fill="none"><path d="M4.54321 45.0001C3.33828 45.0001 2.18269 44.5207 1.33068 43.6673C0.478658 42.814 0 41.6566 0 40.4498C0 39.243 0.478658 38.0857 1.33068 37.2323C2.18269 36.379 3.33828 35.8996 4.54321 35.8996H14.3111L14.1975 35.6342C13.8302 34.7974 13.724 33.8689 13.8929 32.9706C14.0618 32.0723 14.4979 31.2461 15.144 30.6005L27.6189 18.1062C28.5844 17.1393 30.3543 16.3999 31.7173 16.3999H46V18.8646H31.7173C31.0074 18.8646 29.8621 19.3386 29.3605 19.841L16.8856 32.3447C16.4952 32.7369 16.2765 33.2684 16.2773 33.8222C16.2782 34.3759 16.4987 34.9067 16.8903 35.2976C17.2819 35.6886 17.8126 35.9077 18.3655 35.9068C18.9184 35.9059 19.4483 35.6851 19.8387 35.2929L29.9 25.216L31.6416 26.9603L21.5708 37.0371C21.151 37.4617 20.6512 37.7985 20.1004 38.0279C19.5496 38.2574 18.9587 38.3749 18.3621 38.3738H4.54321C3.99095 38.3738 3.46131 38.5935 3.0708 38.9846C2.68029 39.3757 2.46091 39.9062 2.46091 40.4593C2.46091 41.0124 2.68029 41.5429 3.0708 41.934C3.46131 42.3251 3.99095 42.5448 4.54321 42.5448H23.0095L41.2107 29.8326H46V32.2973H41.9774L23.7761 45.0001H4.54321Z" fill="white"></path><path d="M9.8816 26.4198C8.05057 26.4207 6.25534 25.9118 4.69638 24.95C3.13742 23.9881 1.87612 22.6112 1.05334 20.9729C0.230552 19.3346 -0.121328 17.4995 0.0369957 15.6725C0.195319 13.8455 0.857613 12.0985 1.94991 10.6267L9.8816 0L17.8038 10.6267C18.8956 12.0979 19.5578 13.844 19.7165 15.6701C19.8752 17.4963 19.5242 19.3307 18.7025 20.9686C17.8809 22.6066 16.621 23.9837 15.0634 24.9463C13.5058 25.9088 11.7118 26.419 9.8816 26.4198ZM3.9281 12.0961C2.96915 13.3751 2.45396 14.9331 2.46102 16.5325C2.46102 18.5037 3.24283 20.394 4.63446 21.7878C6.02609 23.1816 7.91354 23.9646 9.8816 23.9646C11.8497 23.9646 13.7371 23.1816 15.1287 21.7878C16.5204 20.394 17.3022 18.5037 17.3022 16.5325C17.3092 14.9331 16.7941 13.3751 15.8351 12.0961L9.8816 4.11418L3.9281 12.0961Z" fill="white"></path></svg>