<svg xmlns="http://www.w3.org/2000/svg" width="34" height="34" viewBox="0 0 34 34" fill="none"><path d="M33.9934 33.9942H21.9645C21.8531 32.6855 22.1692 31.3759 22.8653 30.262C23.5614 29.1482 24.5999 28.2901 25.8251 27.8165C25.4027 27.3255 25.1887 26.6889 25.229 26.0424C25.2045 25.9111 25.1458 25.7887 25.0587 25.6875C24.6484 25.1637 24.3534 24.5591 24.1929 23.9133C24.1151 23.4942 24.1257 23.0633 24.2242 22.6485C24.3227 22.2337 24.5068 21.8441 24.7648 21.5046C25.0227 21.1652 25.3488 20.8834 25.722 20.6773C26.0953 20.4713 26.5075 20.3456 26.9322 20.3082C27.7051 20.2383 28.4833 20.2538 29.2528 20.3543C29.7365 20.4318 30.1942 20.6252 30.587 20.9178C30.9798 21.2105 31.296 21.5938 31.5086 22.035C31.7212 22.4763 31.8239 22.9624 31.808 23.452C31.7922 23.9416 31.6581 24.42 31.4173 24.8466C31.3489 24.9777 31.2707 25.1035 31.1831 25.2227C30.877 25.6027 30.6982 26.0695 30.6722 26.5569C30.5897 26.9894 30.4451 27.4077 30.2428 27.7988C30.7723 28.105 31.2851 28.439 31.7793 28.7994C32.9853 29.752 33.7638 31.1444 33.9438 32.6707C33.9558 32.725 33.9749 32.7775 34.0005 32.8268L33.9934 33.9942ZM23.1 32.8801H32.8189C32.9005 30.7085 30.4593 28.512 27.979 28.512C24.9132 28.512 23.1319 31.1094 23.1 32.8801V32.8801ZM29.6041 25.6166C29.6041 25.4001 29.6041 25.1837 29.6041 24.9672C29.6216 24.8162 29.5872 24.6636 29.5066 24.5347C29.426 24.4058 29.304 24.308 29.1606 24.2575C28.8057 24.105 28.4935 23.9027 28.1493 23.7608C28.0378 23.7098 27.9113 23.7022 27.7944 23.7395C27.395 23.9073 27.0084 24.1042 26.6377 24.3285C26.5525 24.3862 26.48 24.4607 26.4245 24.5473C26.369 24.6339 26.3317 24.7309 26.3148 24.8324C26.2846 25.3559 26.2846 25.8808 26.3148 26.4043C26.3258 26.6792 26.4428 26.9391 26.6412 27.1296C26.8397 27.3202 27.1042 27.4264 27.3793 27.4262C27.7661 27.4262 28.1564 27.4262 28.5432 27.4262C28.8232 27.419 29.0898 27.3046 29.2879 27.1065C29.486 26.9084 29.6005 26.6418 29.6077 26.3617C29.6112 26.0956 29.6041 25.8685 29.6041 25.6166V25.6166ZM30.5373 24.0482C31.0873 22.8737 30.1612 21.4437 28.827 21.3905C28.2557 21.3656 27.6844 21.3905 27.1132 21.3905C26.6996 21.4047 26.3013 21.5498 25.9754 21.8049C25.6496 22.0599 25.4131 22.4118 25.2999 22.8098C25.1736 23.1793 25.1824 23.5817 25.3248 23.9453C25.7009 23.6863 26.0558 23.413 26.439 23.1788C26.7477 22.9908 27.1061 22.8772 27.4077 22.6785C27.5689 22.5559 27.7658 22.4895 27.9683 22.4895C28.1708 22.4895 28.3678 22.5559 28.529 22.6785C29.2102 23.1221 30.0796 23.2711 30.5373 24.0482V24.0482Z" fill="black"></path><path d="M10.9644 0C10.9644 3.25266 10.9644 6.50533 10.9644 9.75799C10.9597 9.78807 10.9526 9.81773 10.9431 9.8467H0V0H10.9644ZM1.12128 1.11419V8.74671H9.84315V1.11773H7.66801V3.26449H3.28223V1.11419H1.12128ZM6.56447 1.11419H4.41416V2.17869H6.56447V1.11419Z" fill="black"></path><path d="M33.9932 6.65015C33.9399 6.89498 33.8938 7.13982 33.8406 7.38111C33.5957 8.45295 33.0625 9.43747 32.2986 10.2283C31.5347 11.019 30.5693 11.586 29.5065 11.8679C28.4438 12.1498 27.3243 12.1359 26.2689 11.8277C25.2135 11.5194 24.2624 10.9286 23.5185 10.1191C22.7745 9.30957 22.2659 8.3121 22.0477 7.2345C21.8295 6.15691 21.91 5.04016 22.2804 4.00498C22.6508 2.96979 23.2972 2.05553 24.1495 1.36101C25.0018 0.666492 26.0278 0.218132 27.1164 0.0643891C27.1936 0.0485211 27.2695 0.0271771 27.3435 0.000518799H28.5784C28.6406 0.0254383 28.7047 0.0456035 28.77 0.060841C31.3 0.486644 32.9499 1.93083 33.7377 4.35791C33.8512 4.71274 33.9009 5.06758 33.9825 5.42241L33.9932 6.65015ZM27.9432 10.965C28.9189 10.9691 29.874 10.684 30.6878 10.1457C31.5016 9.60727 32.1375 8.83976 32.5153 7.94011C32.893 7.04046 32.9957 6.04903 32.8102 5.09107C32.6247 4.13312 32.1595 3.25162 31.4733 2.55796C30.787 1.8643 29.9106 1.3896 28.9547 1.19383C27.9988 0.998055 27.0063 1.09 26.1026 1.45805C25.199 1.82609 24.4247 2.45373 23.8776 3.26165C23.3304 4.06957 23.0351 5.02153 23.0287 5.99725C23.0231 7.30729 23.5373 8.56607 24.4587 9.4974C25.38 10.4287 26.6332 10.9565 27.9432 10.965V10.965Z" fill="black"></path><path d="M24.1218 16.9967C24.1218 18.4059 23.7039 19.7834 22.921 20.9552C22.1381 22.1269 21.0253 23.0401 19.7234 23.5794C18.4214 24.1187 16.9888 24.2598 15.6067 23.9849C14.2245 23.7099 12.9549 23.0313 11.9585 22.0349C10.962 21.0384 10.2834 19.7688 10.0085 18.3867C9.73357 17.0046 9.87467 15.5719 10.414 14.27C10.9532 12.9681 11.8665 11.8553 13.0382 11.0723C14.2099 10.2894 15.5875 9.87155 16.9967 9.87155C18.8855 9.87437 20.6962 10.626 22.0318 11.9616C23.3674 13.2972 24.119 15.1078 24.1218 16.9967V16.9967ZM19.2109 16.436C19.1186 15.6838 19.0299 14.9705 18.9483 14.2786H15.0451L14.7967 16.436H19.2109ZM14.7861 17.5644L15.0415 19.7218H18.9447L19.1896 17.5644H14.7861ZM13.6932 17.5644H11.0035C11.0579 18.2766 11.252 18.9711 11.5748 19.6083C11.5983 19.6428 11.6287 19.672 11.6641 19.694C11.6996 19.716 11.7393 19.7303 11.7806 19.736C12.4903 19.736 13.1999 19.736 13.9096 19.736L13.6932 17.5644ZM13.9132 14.2609C13.2035 14.2609 12.4938 14.2609 11.7842 14.2609C11.738 14.2683 11.6941 14.2862 11.656 14.3133C11.6178 14.3404 11.5864 14.3759 11.5642 14.417C11.2483 15.0442 11.0613 15.7283 11.0142 16.4289H13.6967L13.9132 14.2609ZM23.0928 16.4396C22.9989 15.7371 22.7776 15.0578 22.4399 14.4347C22.4186 14.3638 22.3228 14.268 22.2589 14.268C21.5492 14.268 20.8076 14.268 20.0802 14.268C20.1547 15.0238 20.2292 15.7334 20.3002 16.4467L23.0928 16.4396ZM20.0767 19.7395C20.8076 19.7395 21.496 19.7395 22.2057 19.7395C22.2471 19.7328 22.2865 19.7172 22.3214 19.694C22.3563 19.6707 22.3858 19.6403 22.4079 19.6047C22.728 18.9709 22.9186 18.2797 22.9686 17.5715H20.286L20.0767 19.7395ZM15.3574 20.8537C15.5392 21.5572 15.8928 22.2046 16.3864 22.7379C16.4592 22.8283 16.5514 22.9012 16.656 22.9512C16.7607 23.0013 16.8753 23.0273 16.9914 23.0273C17.1074 23.0273 17.222 23.0013 17.3267 22.9512C17.4314 22.9012 17.5235 22.8283 17.5964 22.7379C18.0966 22.1957 18.456 21.5389 18.6431 20.8253H15.549C15.4957 20.836 15.4425 20.8431 15.3574 20.8502V20.8537ZM18.6041 13.1502C18.4482 12.4718 18.1263 11.8426 17.6673 11.3193C17.206 10.8615 16.7838 10.8544 16.3332 11.3193C15.8703 11.8484 15.5363 12.4775 15.3574 13.1573L18.6041 13.1502ZM14.8783 11.3761C13.8972 11.746 13.0299 12.3662 12.3625 13.1751C12.9587 13.1751 13.4696 13.1751 13.9806 13.1751C14.0315 13.1722 14.0811 13.1576 14.1254 13.1324C14.1698 13.1071 14.2076 13.0719 14.2361 13.0296C14.4561 12.4796 14.6548 11.9367 14.8677 11.3583L14.8783 11.3761ZM12.359 20.8537C13.0272 21.6558 13.8949 22.2677 14.8748 22.6279C14.6583 22.0602 14.4596 21.5208 14.2396 20.9921C14.2103 20.9504 14.1722 20.9154 14.1281 20.8897C14.0841 20.864 14.0349 20.8481 13.9841 20.8431C13.4732 20.8289 12.9622 20.836 12.359 20.836V20.8537ZM19.1009 22.6492C20.0838 22.2793 20.9499 21.6532 21.6096 20.836C21.0134 20.836 20.4954 20.836 19.9738 20.836C19.9234 20.8418 19.8752 20.8597 19.8332 20.8881C19.7912 20.9165 19.7566 20.9546 19.7325 20.9992C19.5302 21.5279 19.3351 22.0602 19.1257 22.6315L19.1009 22.6492ZM19.1257 11.4044C19.3315 11.9438 19.5373 12.4938 19.7538 13.0367C19.7723 13.0679 19.7975 13.0945 19.8275 13.1148C19.8576 13.135 19.8918 13.1484 19.9276 13.1538C20.4705 13.1538 21.0099 13.1538 21.5705 13.1538C20.9558 12.3322 20.1018 11.7211 19.1257 11.4044V11.4044Z" fill="black"></path><path d="M0.0114746 26.4748L1.34211 26.017C1.16114 25.6622 0.98727 25.3074 0.816949 24.9525C0.795048 24.9233 0.779214 24.8901 0.77038 24.8547C0.761545 24.8193 0.75989 24.7825 0.765512 24.7464C0.771135 24.7104 0.78392 24.6758 0.803115 24.6448C0.822309 24.6137 0.847529 24.5869 0.877276 24.5657C1.4805 23.9767 2.06952 23.3699 2.67984 22.7916C2.73033 22.7547 2.78913 22.7309 2.85103 22.7222C2.91293 22.7136 2.97601 22.7203 3.03467 22.7419C3.38951 22.8909 3.74435 23.0754 4.09918 23.2564L4.55337 21.9329H7.53045L7.99174 23.2599C8.34657 23.0754 8.70141 22.9051 9.05624 22.7419C9.11496 22.7206 9.17799 22.714 9.23983 22.7227C9.30167 22.7314 9.36046 22.755 9.41108 22.7916C10.0214 23.377 10.6104 23.9838 11.2136 24.5657C11.2427 24.5871 11.2673 24.614 11.2857 24.645C11.3042 24.676 11.3163 24.7104 11.3213 24.7461C11.3262 24.7818 11.324 24.8182 11.3146 24.853C11.3053 24.8879 11.2891 24.9205 11.2669 24.949C11.0895 25.279 10.9298 25.6196 10.7453 25.9922L12.0759 26.4535V29.4518L10.7453 29.906C10.9262 30.2609 11.1001 30.6157 11.2704 30.9705C11.2918 30.9996 11.3071 31.0326 11.3157 31.0677C11.3242 31.1027 11.3257 31.1391 11.3201 31.1747C11.3145 31.2103 11.3019 31.2445 11.283 31.2752C11.2641 31.306 11.2393 31.3326 11.2101 31.3538C10.614 31.9357 10.0214 32.5247 9.43592 33.1279C9.41254 33.1591 9.3832 33.1854 9.3496 33.2051C9.316 33.2249 9.27882 33.2378 9.2402 33.243C9.20159 33.2483 9.1623 33.2459 9.12463 33.2359C9.08696 33.2259 9.05166 33.2085 9.02076 33.1847C8.69077 33.0073 8.35012 32.8476 7.99174 32.6702L7.53755 33.9973H4.56047L4.10273 32.6737C3.72661 32.8583 3.39306 33.0286 3.03823 33.1918C2.97918 33.2123 2.91606 33.2181 2.85426 33.2088C2.79247 33.1996 2.73384 33.1755 2.68339 33.1386C2.07307 32.5496 1.48404 31.9428 0.880822 31.3644C0.851617 31.3427 0.827031 31.3155 0.808502 31.2842C0.789974 31.2529 0.777876 31.2182 0.772919 31.1822C0.767962 31.1462 0.770244 31.1095 0.779633 31.0744C0.789022 31.0393 0.805326 31.0064 0.827593 30.9776C1.00501 30.6476 1.18243 30.307 1.3492 29.938L0.0185674 29.4767L0.0114746 26.4748ZM9.02076 23.9909L8.0698 24.4486C7.88093 24.5147 7.67446 24.5097 7.48899 24.4346C7.30352 24.3595 7.15175 24.2195 7.06207 24.0406C6.94497 23.7106 6.91303 23.2458 6.67884 23.0896C6.44465 22.9335 5.96917 23.0364 5.61433 23.0293C5.59242 23.0222 5.56883 23.0222 5.54691 23.0293C5.45111 23.0967 5.31272 23.1464 5.27014 23.2387C5.15305 23.4977 5.08208 23.778 4.98982 24.0477C4.90128 24.2192 4.75596 24.3547 4.57866 24.4311C4.40135 24.5075 4.20305 24.5199 4.01757 24.4664C3.66274 24.3138 3.3079 24.0051 3.01339 24.0654C2.71887 24.1257 2.46694 24.548 2.20081 24.8141C2.15468 24.8603 2.10856 24.9135 2.05178 24.9774C2.20791 25.2967 2.36759 25.609 2.52371 25.9248C2.58979 26.1136 2.58481 26.3201 2.50971 26.5056C2.43461 26.691 2.29452 26.8428 2.11565 26.9325C1.7821 27.0496 1.31727 27.0815 1.16114 27.3157C1.00501 27.5499 1.10792 28.0254 1.09727 28.3802C1.09727 28.4051 1.09727 28.4335 1.09727 28.4476C1.16469 28.547 1.21437 28.6854 1.30662 28.728C1.56565 28.8415 1.84598 28.9125 2.1121 29.0083C2.29177 29.0961 2.43275 29.2471 2.50803 29.4324C2.58332 29.6177 2.58764 29.8242 2.52016 30.0125C2.37113 30.3283 2.06242 30.6796 2.11565 30.9528C2.16888 31.226 2.58758 31.478 2.82532 31.7512C2.84798 31.7895 2.87864 31.8224 2.91522 31.8477C2.95179 31.8731 2.99341 31.8902 3.03722 31.8979C3.08103 31.9057 3.126 31.9039 3.16904 31.8926C3.21209 31.8814 3.25219 31.861 3.28661 31.8328C3.51644 31.7015 3.75336 31.583 3.99628 31.478C4.18404 31.4107 4.39004 31.4151 4.57472 31.4904C4.75941 31.5657 4.90976 31.7066 4.99692 31.886C5.11756 32.2196 5.14595 32.6844 5.38369 32.8405C5.62143 32.9967 6.09337 32.8937 6.4482 32.9044C6.46949 32.9044 6.50143 32.9044 6.51562 32.9044C6.61498 32.837 6.75336 32.7873 6.79594 32.695C6.91304 32.4254 6.98755 32.1344 7.08691 31.8576C7.18222 31.6961 7.32797 31.5704 7.50173 31.4999C7.67548 31.4294 7.8676 31.4179 8.04851 31.4673C8.3856 31.6199 8.75818 31.9286 9.0527 31.8683C9.34721 31.808 9.60979 31.3963 9.85818 31.116C9.8957 31.0659 9.92075 31.0076 9.93124 30.9459C9.94173 30.8842 9.93736 30.8209 9.9185 30.7612C9.8085 30.4844 9.65947 30.2289 9.52818 29.9593C9.47992 29.7786 9.49272 29.5871 9.5646 29.4144C9.63647 29.2418 9.76339 29.0978 9.9256 29.0047C10.2804 28.8805 10.7453 28.8486 10.9085 28.6073C11.0717 28.366 10.9617 27.8977 10.9688 27.5073C10.9688 27.5073 10.9688 27.4825 10.9688 27.4754C10.9014 27.376 10.8517 27.2341 10.7595 27.1951C10.4898 27.0744 10.1988 26.9999 9.9185 26.9041C9.76164 26.8066 9.64058 26.6609 9.57342 26.4888C9.50626 26.3168 9.49661 26.1276 9.54592 25.9496C9.6985 25.6232 10.0179 25.2612 9.96108 24.9774C9.9043 24.6935 9.4856 24.4274 9.22302 24.1577C9.15205 24.0938 9.09173 24.0477 9.02076 23.9838V23.9909Z" fill="black"></path><path d="M5.50598 10.9827H6.57049V20.8081H5.50598V10.9827Z" fill="black"></path><path d="M13.1747 28.4862V27.4217H23.0285V28.4862H13.1747Z" fill="black"></path><path d="M12.079 6.55499V5.49048H20.8187V6.55499H12.079Z" fill="black"></path><path d="M28.4868 19.1763H27.4223V13.1867H28.4868V19.1763Z" fill="black"></path><path d="M27.4208 3.26846V2.20395H28.4853V3.26846C28.7347 3.27158 28.9802 3.33172 29.2028 3.44427C29.4254 3.55681 29.6194 3.71879 29.7698 3.91781C29.9552 4.24332 30.1154 4.5826 30.2488 4.93264H29.0601C28.975 4.49619 28.6698 4.37555 28.2546 4.40038C27.9814 4.41813 27.7082 4.40038 27.435 4.40038C27.3632 4.40038 27.2921 4.41452 27.2259 4.44198C27.1596 4.46944 27.0993 4.50969 27.0486 4.56044C26.9978 4.61118 26.9576 4.67142 26.9301 4.73772C26.9027 4.80401 26.8885 4.87507 26.8885 4.94683C26.8885 5.01859 26.9027 5.08965 26.9301 5.15595C26.9576 5.22225 26.9978 5.28249 27.0486 5.33323C27.0993 5.38397 27.1596 5.42422 27.2259 5.45168C27.2921 5.47915 27.3632 5.49328 27.435 5.49328C27.765 5.49328 28.095 5.49328 28.4285 5.49328C28.6436 5.47557 28.86 5.5004 29.0654 5.56633C29.2709 5.63227 29.4614 5.73803 29.6259 5.87757C29.7905 6.01711 29.926 6.1877 30.0247 6.3796C30.1233 6.57151 30.1832 6.78096 30.2009 6.99601C30.2186 7.21106 30.1938 7.42749 30.1279 7.63294C30.0619 7.8384 29.9562 8.02886 29.8166 8.19344C29.6771 8.35802 29.5065 8.49351 29.3146 8.59217C29.1227 8.69082 28.9132 8.75071 28.6982 8.76842L28.4995 8.7968V9.86131H27.435V8.7968C27.1844 8.79423 26.9378 8.73438 26.7139 8.62183C26.49 8.50928 26.2949 8.34702 26.1434 8.14745C25.9636 7.82847 25.8082 7.49634 25.6785 7.15391H26.853C26.9382 7.59036 27.2434 7.71101 27.6585 7.68262C27.9317 7.68262 28.205 7.68262 28.4782 7.68262C28.5499 7.68262 28.621 7.66848 28.6873 7.64102C28.7536 7.61356 28.8138 7.57331 28.8646 7.52257C28.9153 7.47183 28.9556 7.41159 28.983 7.34529C29.0105 7.27899 29.0246 7.20793 29.0246 7.13617C29.0246 7.06441 29.0105 6.99335 28.983 6.92705C28.9556 6.86076 28.9153 6.80052 28.8646 6.74977C28.8138 6.69903 28.7536 6.65878 28.6873 6.63132C28.621 6.60386 28.5499 6.58972 28.4782 6.58972C28.1588 6.58972 27.8395 6.58972 27.5201 6.58972C27.0844 6.62125 26.654 6.47839 26.3236 6.19259C25.9932 5.90678 25.7899 5.50142 25.7584 5.0657C25.7268 4.62998 25.8697 4.19958 26.1555 3.86919C26.4413 3.53879 26.8467 3.33547 27.2824 3.30394L27.4208 3.26846Z" fill="black"></path><path d="M6.01799 30.7009C5.47666 30.6981 4.9483 30.535 4.49961 30.2321C4.05093 29.9292 3.70203 29.5002 3.49698 28.9992C3.29193 28.4982 3.23991 27.9477 3.34749 27.4172C3.45507 26.8867 3.71743 26.3999 4.10145 26.0183C4.48547 25.6368 4.97392 25.3776 5.50514 25.2734C6.03636 25.1693 6.58653 25.2249 7.08619 25.4332C7.58585 25.6414 8.01259 25.9931 8.31255 26.4437C8.6125 26.8944 8.77221 27.4238 8.77152 27.9651C8.7687 28.6929 8.47712 29.3898 7.96083 29.9028C7.44455 30.4157 6.74577 30.7028 6.01799 30.7009V30.7009ZM6.01799 26.3187C5.69381 26.3201 5.3773 26.4174 5.1083 26.5983C4.8393 26.7792 4.62983 27.0356 4.50626 27.3353C4.38269 27.635 4.35055 27.9646 4.41389 28.2825C4.47722 28.6004 4.63319 28.8925 4.86217 29.122C5.09115 29.3515 5.3829 29.5081 5.70069 29.5721C6.01849 29.6361 6.34812 29.6047 6.64808 29.4817C6.94805 29.3588 7.20494 29.1499 7.38642 28.8813C7.56791 28.6127 7.66587 28.2964 7.66798 27.9722C7.66892 27.5352 7.49647 27.1157 7.18847 26.8057C6.88047 26.4957 6.46207 26.3205 6.02508 26.3187H6.01799Z" fill="black"></path></svg>