<svg xmlns="http://www.w3.org/2000/svg" width="46" height="63" viewBox="0 0 46 63" fill="none"><path d="M24.6333 0H26.224C26.5261 0.276466 26.8863 0.481005 27.2778 0.598464C27.6693 0.715923 28.0821 0.743277 28.4856 0.678494C28.8009 0.652006 29.1176 0.707502 29.4054 0.839641C30.5356 1.22911 31.5791 1.83706 32.4771 2.62921C32.5735 2.7348 32.661 2.84827 32.7387 2.96846C32.8617 3.19807 33.0686 3.37065 33.3158 3.44978C33.563 3.5289 33.8312 3.50838 34.0636 3.39252C34.3195 3.29463 34.5938 3.25497 34.8668 3.27641C35.1398 3.29786 35.4047 3.37988 35.6423 3.51655C35.88 3.65323 36.0846 3.84116 36.2413 4.06682C36.398 4.29249 36.5031 4.55027 36.5488 4.82162C36.5746 4.93082 36.6252 5.03253 36.6966 5.11886C36.768 5.20519 36.8582 5.27383 36.9603 5.31938C37.0623 5.36492 37.1735 5.38618 37.285 5.38149C37.3966 5.37681 37.5057 5.34628 37.6036 5.29233C38.3884 4.92763 39.2196 5.16087 39.3799 6.14046C39.4812 6.75959 39.6289 7.37026 39.7597 7.98091C39.7597 8.04876 39.8356 8.15902 39.8862 8.16326C40.266 8.21415 40.3082 8.617 40.574 8.79087C40.6569 8.85555 40.7256 8.93681 40.7757 9.02951C40.8258 9.1222 40.8563 9.22432 40.8652 9.32944C40.9538 9.85528 41.1985 10.0461 41.709 10.1139C42.1928 10.1573 42.6526 10.3448 43.0297 10.6525C43.2563 10.835 43.4257 11.0792 43.5177 11.356C43.6098 11.6328 43.6205 11.9303 43.5486 12.2131C43.3292 12.9425 43.7216 13.392 44.0381 13.8881C44.1375 14.0162 44.1963 14.1713 44.2068 14.3334C44.2068 14.6896 44.2068 15.0458 44.2068 15.3978C44.2068 15.7498 43.9284 15.9703 43.7216 16.2035C43.232 16.6839 42.6603 17.0717 42.0339 17.3485C41.0919 17.7926 40.1271 18.1862 39.1436 18.5274C38.6246 18.7395 38.1141 18.9515 37.5952 19.1593C37.0129 19.3713 36.4095 19.5197 35.8357 19.7445C35.3336 19.9396 34.8526 20.1686 34.3294 20.3339C33.8478 20.4369 33.3832 20.6082 32.9497 20.8428C32.4307 21.1778 31.8315 21.1906 31.2999 21.4577C30.456 21.8818 29.6122 22.1871 28.7388 22.5603C28.3844 22.7214 28.051 22.9207 27.7092 23.1158C26.8061 23.6199 25.939 24.1867 25.1143 24.812C24.3336 25.3913 23.6657 26.1101 23.1439 26.9324C22.8959 27.373 22.7842 27.878 22.8233 28.3827C22.8429 30.6161 22.8626 32.851 22.8823 35.0872C22.8823 36.177 22.8823 37.2711 22.9414 38.3567C23.0005 39.2897 23.127 40.2226 23.2705 41.1471C23.3886 41.9104 23.4055 42.6822 23.5195 43.4455C23.6545 44.6731 23.6968 45.9093 23.646 47.1433C23.6343 47.7851 23.532 48.4218 23.3422 49.0347C23.276 49.3106 23.1166 49.5549 22.8911 49.7258C22.6656 49.8968 22.3881 49.9837 22.1059 49.9719C21.8263 49.9533 21.5596 49.8465 21.3437 49.6669C21.1278 49.4872 20.9738 49.2438 20.9034 48.9711C20.7281 48.3808 20.64 47.7678 20.6418 47.1518C20.606 45.9171 20.6356 44.6813 20.7304 43.4498C20.8317 42.4532 20.9625 41.4566 21.0933 40.4813C21.2241 39.5059 21.2916 38.4203 21.3338 37.3856C21.452 34.5571 21.3971 31.7243 21.414 28.9043C21.414 28.6032 21.4351 28.3021 21.4435 28.0053C21.4336 27.4007 21.1971 26.8222 20.7811 26.3854C20.4236 25.9206 20.0192 25.4943 19.5743 25.1132C18.9542 24.6336 18.3061 24.1918 17.6335 23.7901C16.5763 23.1461 15.4686 22.5901 14.3213 22.1277C13.4141 21.7461 12.4816 21.4365 11.5745 21.0633C10.7897 20.741 9.95005 20.5545 9.20322 20.1855C8.08088 19.6342 6.86994 19.3374 5.73072 18.8412C4.73917 18.4172 3.68857 18.0652 2.68859 17.6538C1.78143 17.2806 0.832071 16.8481 0.249802 15.9576C0.0858172 15.6497 0 15.306 0 14.9568C0 14.6076 0.0858172 14.2638 0.249802 13.956C0.671736 13.3623 0.983967 12.7856 0.671736 12.0053C0.51984 11.6109 1.1443 10.6356 1.57046 10.4702C1.88898 10.3137 2.23388 10.2188 2.58728 10.1903C2.77438 10.1845 2.95432 10.1164 3.09868 9.99665C3.24304 9.87689 3.34365 9.71228 3.38474 9.52874C3.5329 9.02594 3.85846 8.59472 4.30036 8.31592C4.40749 8.25633 4.49539 8.16716 4.55371 8.05895C4.61203 7.95074 4.63834 7.828 4.62948 7.70526C4.61254 7.02124 4.76473 6.34371 5.07248 5.73337C5.22942 5.492 5.46816 5.316 5.74437 5.23803C6.02057 5.16005 6.31554 5.18537 6.57458 5.30931C6.69145 5.38017 6.82366 5.42146 6.9599 5.42969C7.09614 5.43791 7.23234 5.41281 7.3568 5.35652C7.48126 5.30023 7.59026 5.21442 7.67449 5.10649C7.75872 4.99855 7.81565 4.8717 7.84039 4.7368C7.92066 4.32921 8.14352 3.96399 8.4686 3.70729C8.79368 3.45058 9.19946 3.31935 9.61249 3.33739C9.84739 3.32091 10.0823 3.36931 10.2918 3.47734C10.481 3.59123 10.7071 3.62615 10.9216 3.57464C11.1361 3.52312 11.322 3.38924 11.4395 3.20169C11.8614 2.47654 12.5576 2.14577 13.1779 1.69626C13.7071 1.37094 14.2739 1.11176 14.8656 0.92446C15.319 0.765623 15.8012 0.707734 16.2791 0.754823C16.5855 0.763945 16.8904 0.709542 17.175 0.594996C17.4596 0.48045 17.7176 0.308239 17.9331 0.0890631H19.663C19.8782 0.356224 20.2115 0.457976 20.4647 0.67425C20.7756 0.930974 21.031 1.24886 21.2153 1.60836C21.3996 1.96787 21.5088 2.36144 21.5363 2.76491C21.6182 3.39688 21.7337 4.02398 21.8824 4.64352C21.8824 4.75378 21.8823 4.91067 22.068 4.89371C22.1249 4.87969 22.1764 4.84871 22.2155 4.80482C22.2547 4.76094 22.2797 4.7062 22.2874 4.64777C22.3827 4.36267 22.4561 4.07059 22.5068 3.77417C22.6004 2.92405 22.8223 2.09324 23.165 1.31035C23.3 0.996539 23.6165 0.826919 23.8781 0.627609C24.1397 0.428298 24.4013 0.190829 24.6333 0ZM22.165 48.2586C22.8064 47.2621 22.7853 43.7551 22.165 42.8984C21.4941 43.7466 21.4941 47.4614 22.165 48.2586Z" fill="white"></path><path d="M45.7754 61.2127C45.6989 61.4317 45.5525 61.6195 45.3586 61.7469C45.1648 61.8744 44.9344 61.9344 44.703 61.9177C44.1584 61.8924 43.9473 61.5251 43.7447 61.1282C43.542 60.7314 43.8671 60.4654 44.0697 60.1995C44.198 60.0601 44.3643 59.961 44.548 59.9146C44.7317 59.8681 44.9249 59.8761 45.1041 59.9377C45.2796 59.9956 45.4354 60.1014 45.554 60.2431C45.6726 60.3848 45.7493 60.5569 45.7754 60.7398V61.2127Z" fill="white"></path><path d="M35.935 57.1597C35.935 55.7327 35.935 54.3099 35.935 52.8872C35.935 52.579 36.0997 52.5072 36.3572 52.5072H39.0254C40.178 52.5072 41.3264 52.5072 42.4789 52.5072C42.8293 52.5072 42.9855 52.6296 42.9644 52.9885C42.9644 53.1954 42.9644 53.4107 42.9644 53.6134C42.9644 54.1707 42.9644 54.2002 42.4114 54.1959C41.0013 54.1959 39.5912 54.2593 38.1895 54.158C37.9151 54.158 37.7673 54.2128 37.7673 54.521C37.7673 55.0403 37.7673 55.5639 37.7673 56.0832C37.7673 56.4082 37.9699 56.3745 38.1599 56.3576C39.3463 56.2689 40.5369 56.328 41.7274 56.3153C42.3396 56.3153 42.3734 56.3449 42.3692 56.9528C42.3692 58.2194 42.5042 58.0421 41.2546 58.0463C40.2329 58.0463 39.2154 58.0463 38.1937 58.0463C37.8855 58.0463 37.742 58.1054 37.7715 58.4685C37.8011 58.9245 37.7715 59.3846 37.7715 59.8448C37.7715 60.1488 37.8771 60.305 38.1937 60.3008C39.6418 60.3008 41.0941 60.3008 42.5422 60.2754C42.8504 60.2754 43.0109 60.3852 43.0024 60.6976C42.994 61.0101 43.0024 61.2465 43.0024 61.542C43.0024 61.8375 42.8842 61.9642 42.5802 61.9642C41.7359 61.9642 40.8915 61.9642 40.0471 61.9642C38.8312 61.9642 37.6153 61.9642 36.3994 61.9642C36.0448 61.9642 35.9139 61.8502 35.9181 61.4871C35.9181 60.0644 35.9181 58.6374 35.9181 57.2104L35.935 57.1597Z" fill="white"></path><path d="M19.1651 61.9262C19.0089 61.9262 18.8527 61.9262 18.6965 61.9262C18.6177 61.9362 18.5377 61.9304 18.4611 61.9092C18.3845 61.8881 18.3129 61.8519 18.2504 61.8028C18.188 61.7537 18.1359 61.6926 18.0973 61.6232C18.0586 61.5538 18.0341 61.4774 18.0252 61.3985C17.8721 60.9425 17.6931 60.4957 17.489 60.0601C17.4644 59.9701 17.4082 59.892 17.3306 59.8401C17.2531 59.7881 17.1595 59.7659 17.0669 59.7773H13.3812C13.2836 59.7693 13.1866 59.7976 13.1087 59.8569C13.0307 59.9161 12.9774 60.002 12.959 60.0981C12.7809 60.6348 12.565 61.1582 12.313 61.6644C12.281 61.736 12.2296 61.7972 12.1648 61.8412C12.0999 61.8852 12.024 61.9102 11.9457 61.9135C11.5236 61.9135 11.0591 61.9135 10.6158 61.9135C10.5061 61.9135 10.3668 61.9135 10.333 61.7573C10.3842 61.6783 10.4253 61.5932 10.4554 61.504C10.6062 61.2329 10.7361 60.9506 10.8438 60.6596C11.1943 59.8702 11.532 59.0722 11.8824 58.2827C12.3975 57.1133 12.9168 55.948 13.4318 54.7786C13.7063 54.1537 13.9934 53.512 14.2509 52.8956C14.3776 52.5874 14.5338 52.3806 14.9095 52.4734C15.0496 52.4917 15.1915 52.4917 15.3317 52.4734C16.1423 52.4143 16.176 52.617 16.4336 53.3178C16.5222 53.5373 16.5898 53.74 16.6911 53.9722C17.3877 55.4583 18.0379 56.9655 18.6627 58.4811C19.0849 59.5028 19.562 60.495 20.0137 61.4998C20.153 61.7995 20.0644 61.9473 19.7351 61.96H19.1483L19.1651 61.9262ZM15.205 58.1012H16.1043C16.6869 58.1012 16.6742 58.1012 16.4505 57.603C16.0747 56.7586 15.7201 55.9143 15.357 55.0699C15.3275 54.9981 15.3232 54.9052 15.2219 54.9137C15.1206 54.9221 15.1459 55.0023 15.1206 55.0614C14.7237 56.0029 14.3311 56.9444 13.9216 57.8774C13.8287 58.0843 13.8794 58.1223 14.0736 58.1223L15.205 58.1012Z" fill="white"></path><path d="M1.10799 57.2821V53.1573C1.10799 52.5916 1.18398 52.5198 1.74127 52.5198C2.77562 52.5198 3.80997 52.5198 4.84433 52.5198C5.5795 52.5119 6.30505 52.6875 6.95526 53.0307C7.45564 53.3358 7.86096 53.7745 8.1256 54.2974C8.39024 54.8204 8.50372 55.4068 8.45327 55.9907C8.40282 56.5746 8.1904 57.1329 7.83999 57.6027C7.48957 58.0725 7.01504 58.4351 6.46973 58.6499C5.57048 59.0721 4.62056 58.9793 3.67486 58.9962C2.83049 58.9962 2.95294 58.8864 2.95294 59.7308C2.95294 60.3303 2.95294 60.934 2.95294 61.5377C2.95294 61.8079 2.84739 61.9219 2.58564 61.9177C2.231 61.9177 1.87636 61.9177 1.52595 61.9177C1.17553 61.9177 1.10376 61.791 1.10376 61.4702C1.10376 60.7651 1.10376 60.0559 1.10376 59.3592L1.10799 57.2821ZM2.96979 55.8086C2.96979 56.2308 2.96979 56.6192 2.96979 57.0288C2.96979 57.1596 2.9698 57.3243 3.13868 57.32C3.98305 57.32 4.86122 57.4298 5.69715 57.1301C6.02747 56.963 6.29106 56.6884 6.44453 56.3515C6.598 56.0147 6.63221 55.6356 6.54152 55.2767C6.31777 54.6307 5.82381 54.4618 5.27496 54.3141C4.63746 54.1325 3.97463 54.2803 3.32447 54.2297C3.03738 54.2297 2.95294 54.3352 2.95716 54.5927C2.97405 54.9812 2.96979 55.3864 2.96979 55.7917V55.8086Z" fill="white"></path><path d="M27.7355 62.0697C27.0829 62.0912 26.4332 61.9728 25.8303 61.7223C25.2273 61.4718 24.6849 61.095 24.2397 60.6174C23.5234 59.8695 23.0776 58.9035 22.9732 57.8732C22.8499 56.8482 23.0182 55.8093 23.4587 54.8757C23.6877 54.3756 24.0251 53.9328 24.4466 53.5795C25.1297 53.0126 25.9441 52.6263 26.8152 52.4559C27.6864 52.2855 28.5864 52.3365 29.4327 52.6043C30.0798 52.8315 30.6837 53.167 31.2185 53.5964C31.2634 53.6247 31.3017 53.6625 31.3306 53.707C31.3596 53.7516 31.3786 53.8019 31.3862 53.8545C31.3938 53.907 31.3899 53.9606 31.3748 54.0115C31.3597 54.0625 31.3337 54.1095 31.2987 54.1495C31.0442 54.4812 30.7617 54.7906 30.4543 55.0741C30.3108 55.2303 30.1926 55.1247 30.0575 55.015C29.4024 54.4106 28.5465 54.0706 27.6553 54.0608C27.0577 54.0952 26.4847 54.3102 26.012 54.6773C25.5393 55.0444 25.1893 55.5464 25.0082 56.1169C24.8598 56.5825 24.8079 57.0736 24.8559 57.5599C24.9038 58.0463 25.0504 58.5177 25.2868 58.9455C25.6155 59.5155 26.1322 59.9536 26.7483 60.1847C27.3645 60.4157 28.0417 60.4254 28.6642 60.212C29.2104 60.0551 29.7046 59.7548 30.0955 59.3424C30.1324 59.3003 30.1786 59.2674 30.2305 59.2464C30.2824 59.2253 30.3384 59.2167 30.3942 59.2213C30.45 59.2258 30.504 59.2433 30.5518 59.2724C30.5996 59.3015 30.64 59.3413 30.6696 59.3888C30.8258 59.6886 31.0918 59.811 31.3114 60.0643C31.5309 60.3176 31.514 60.4865 31.2861 60.6723C30.7541 61.0945 30.2855 61.5631 29.5973 61.7615C28.9963 61.9596 28.3683 62.0636 27.7355 62.0697Z" fill="white"></path><path d="M8.19166 62.1457C7.92322 62.1339 7.66803 62.0259 7.47268 61.8414C7.27733 61.6569 7.15486 61.4082 7.12775 61.1409C7.15322 60.8628 7.2753 60.6025 7.47273 60.405C7.67017 60.2076 7.93052 60.0855 8.20857 60.0601C8.48514 60.0601 8.75039 60.17 8.94595 60.3655C9.14152 60.5611 9.25136 60.8263 9.25136 61.1029C9.25136 61.3795 9.14152 61.6447 8.94595 61.8402C8.75039 62.0358 8.48514 62.1457 8.20857 62.1457H8.19166Z" fill="white"></path><path d="M34.3969 60.9256C34.3209 61.5631 34.0971 61.943 33.3921 61.9683C33.1201 61.9654 32.8589 61.8621 32.6586 61.6781C32.4583 61.4942 32.333 61.2427 32.307 60.972C32.3212 60.698 32.4415 60.4403 32.6425 60.2535C32.8435 60.0667 33.1093 59.9655 33.3836 59.9714C33.5128 59.9675 33.6415 59.989 33.7623 60.0348C33.8832 60.0807 33.9939 60.1499 34.088 60.2385C34.1821 60.3271 34.2578 60.4334 34.3108 60.5513C34.3638 60.6692 34.393 60.7964 34.3969 60.9256Z" fill="white"></path><path d="M22.9304 61.0439C22.9516 61.749 22.5083 61.9939 21.9383 62.0572C21.6632 62.0495 21.4021 61.9341 21.211 61.736C21.02 61.5378 20.9143 61.2727 20.9166 60.9975C20.9424 60.7347 21.0597 60.4893 21.248 60.3041C21.4362 60.1189 21.6836 60.0057 21.9468 59.9843C22.0824 59.9845 22.2165 60.0126 22.3408 60.067C22.4651 60.1213 22.5769 60.2006 22.6692 60.3C22.7615 60.3994 22.8323 60.5168 22.8773 60.6448C22.9222 60.7728 22.9403 60.9087 22.9304 61.0439Z" fill="white"></path></svg>