<svg xmlns="http://www.w3.org/2000/svg" width="60" height="66" viewBox="0 0 60 66" fill="none"><path d="M40.0319 27.6483C42.8586 27.6681 45.6277 26.8742 47.988 25.3672C50.3482 23.8603 52.1933 21.7082 53.2892 19.1839C54.3851 16.6597 54.6825 13.877 54.1435 11.1888C53.6046 8.50056 52.2537 6.02798 50.2622 4.08461C48.2706 2.14123 45.7281 0.814598 42.9572 0.273036C40.1862 -0.268525 37.3117 -0.000642627 34.6981 1.04269C32.0846 2.08602 29.8498 3.85779 28.2771 6.1333C26.7045 8.40881 25.8649 11.0856 25.8648 13.824C25.8553 17.476 27.3415 20.9825 29.9975 23.5742C32.6534 26.1659 36.2622 27.631 40.0319 27.6483ZM40.0319 3.04425C42.2381 3.02445 44.4006 3.64016 46.2448 4.81322C48.0891 5.98629 49.5319 7.66379 50.3902 9.63276C51.2484 11.6017 51.4834 13.7733 51.0652 15.8719C50.647 17.9705 49.5946 19.9013 48.0415 21.4193C46.4884 22.9374 44.5047 23.9741 42.3422 24.3979C40.1798 24.8216 37.9361 24.6134 35.8961 23.7995C33.856 22.9856 32.1117 21.6029 30.8844 19.8268C29.6571 18.0506 29.0023 15.9613 29.0031 13.824C28.9923 10.9784 30.1477 8.24496 32.2155 6.22385C34.2833 4.20275 37.0946 3.05919 40.0319 3.04425Z" fill="white"></path><path d="M45.1457 31.2163H34.2326C30.3438 31.2362 26.6216 32.8088 23.8826 35.5891C21.1435 38.3694 19.6111 42.1305 19.6216 46.0472V66.0001H59.7566V46.0472C59.7683 42.1301 58.2363 38.3684 55.497 35.5879C52.7577 32.8073 49.0348 31.235 45.1457 31.2163ZM56.6825 62.9039H22.6958V46.0472C22.6841 42.9513 23.8922 39.9771 26.055 37.7772C28.2178 35.5773 31.1588 34.3312 34.2326 34.3125H45.1457C48.2195 34.3312 51.1604 35.5773 53.3233 37.7772C55.4861 39.9771 56.6942 42.9513 56.6825 46.0472V62.9039Z" fill="white"></path><path d="M21.3681 31.6577V26.0322C21.379 25.8348 21.3499 25.6373 21.2828 25.4516C21.2157 25.266 21.1118 25.0962 20.9776 24.9525C20.8435 24.8089 20.6817 24.6945 20.5024 24.6163C20.3231 24.5381 20.1298 24.4978 19.9346 24.4978C19.7393 24.4978 19.5461 24.5381 19.3667 24.6163C19.1874 24.6945 19.0257 24.8089 18.8915 24.9525C18.7573 25.0962 18.6535 25.266 18.5864 25.4516C18.5192 25.6373 18.4902 25.8348 18.5011 26.0322V30.2581C16.9275 30.3166 14.665 30.6586 12.807 31.9457C14.0071 30.5956 15.7096 28.2194 15.7096 25.4157C15.7096 21.1313 11.7624 17.8326 11.5935 17.6931L10.7045 16.946L9.81548 17.6931C9.64657 17.8326 5.70383 21.1313 5.70383 25.4157C5.70383 28.2239 7.41072 30.6181 8.61088 31.9502C6.75286 30.6631 4.48589 30.3166 2.90791 30.2581V26.0322C2.90791 25.6467 2.75664 25.277 2.48739 25.0044C2.21813 24.7318 1.85296 24.5786 1.47217 24.5786C1.09139 24.5786 0.726199 24.7318 0.456945 25.0044C0.187691 25.277 0.0364257 25.6467 0.0364257 26.0322V31.6577C-0.0213596 32.3417 -0.314724 37.1121 2.53009 39.9923C4.51702 42.004 7.39738 42.472 9.28652 42.5396V45.0057C9.30693 45.3767 9.46685 45.7256 9.73345 45.9809C10 46.2362 10.3531 46.3785 10.72 46.3785C11.087 46.3785 11.44 46.2362 11.7066 45.9809C11.9732 45.7256 12.1332 45.3767 12.1536 45.0057V42.5396C14.0471 42.472 16.9231 42.004 18.91 39.9923C21.7237 37.1301 21.4259 32.3597 21.3681 31.6577ZM9.23763 39.6323C7.23292 39.5423 5.49936 38.9257 4.5259 37.9356C3.22796 36.626 2.9168 34.4839 2.85457 33.1653C4.85927 33.2553 6.59284 33.8718 7.5663 34.8574C8.86424 36.1895 9.1754 38.3317 9.23763 39.6503V39.6323ZM12.8381 25.4157C12.8381 27.2743 11.5668 29.016 10.6867 29.9836C9.79769 29.0115 8.53976 27.2833 8.53976 25.4157C8.53976 23.548 9.81103 21.8154 10.6911 20.8433C11.5713 21.8334 12.8381 23.5571 12.8381 25.4337V25.4157ZM18.5233 33.1653C18.461 34.4839 18.1499 36.626 16.8519 37.9356C15.874 38.9257 14.1405 39.5423 12.1358 39.6323C12.198 38.3137 12.5092 36.176 13.8116 34.8574C14.785 33.9078 16.5141 33.2733 18.5233 33.1833V33.1653Z" fill="white"></path></svg>