<svg xmlns="http://www.w3.org/2000/svg" width="35" height="45" viewBox="0 0 35 45" fill="none"><path d="M33.8491 0.000510665H0.858628C0.745871 0.000510665 0.634222 0.0227197 0.530049 0.0658696C0.425876 0.10902 0.331213 0.172265 0.251483 0.251996C0.171752 0.331727 0.108522 0.426381 0.0653724 0.530554C0.0222224 0.634727 0 0.746379 0 0.859136V41.4107C0 42.0978 0.272961 42.7567 0.758807 43.2425C1.24465 43.7284 1.90359 44.0013 2.59068 44.0013H32.1466C32.8337 44.0013 33.4927 43.7284 33.9785 43.2425C34.4644 42.7567 34.7373 42.0978 34.7373 41.4107V0.859136C34.7374 0.743844 34.7142 0.62972 34.6692 0.523569C34.6242 0.417417 34.5583 0.321414 34.4754 0.241284C34.3926 0.161153 34.2944 0.098538 34.1868 0.0571716C34.0791 0.0158051 33.9643 -0.00346493 33.8491 0.000510665ZM32.9905 1.72146V6.23294H1.71726V1.72146H32.9905ZM32.9905 41.4107C32.9905 41.6384 32.9 41.8568 32.739 42.0178C32.5779 42.1788 32.3595 42.2693 32.1318 42.2693H4.65212L26.0511 20.8851C26.198 20.7208 26.2765 20.5065 26.2703 20.2862C26.2642 20.0659 26.1739 19.8563 26.0181 19.7005C25.8623 19.5447 25.6527 19.4544 25.4324 19.4483C25.2121 19.4421 24.9978 19.5206 24.8335 19.6675L2.25761 42.2434C2.09376 42.1823 1.95245 42.0727 1.85259 41.9292C1.75272 41.7857 1.69906 41.6151 1.69876 41.4403V7.99461H32.972V41.4107H32.9905Z" fill="black"></path><path d="M22.9538 12.2027L8.72355 26.4366C8.64408 26.5173 8.58129 26.6128 8.53875 26.7178C8.49621 26.8227 8.47475 26.935 8.47561 27.0483C8.47647 27.1615 8.49963 27.2735 8.54376 27.3777C8.58789 27.482 8.65213 27.5766 8.73281 27.6561C8.81349 27.7355 8.90903 27.7983 9.01397 27.8409C9.11892 27.8834 9.23121 27.9049 9.34445 27.904C9.45769 27.9031 9.56964 27.88 9.67393 27.8359C9.77822 27.7917 9.87281 27.7275 9.95227 27.6468L24.1825 13.4166C24.3435 13.2551 24.4337 13.0363 24.4334 12.8083C24.433 12.5803 24.3421 12.3618 24.1807 12.2008C24.0192 12.0398 23.8004 11.9496 23.5724 11.95C23.3444 11.9503 23.1258 12.0412 22.9649 12.2027H22.9538Z" fill="black"></path><path d="M7.11347 28.4018C6.88639 28.4013 6.66828 28.4904 6.5065 28.6497C6.34536 28.8114 6.25488 29.0303 6.25488 29.2585C6.25488 29.4868 6.34536 29.7057 6.5065 29.8674C6.60767 29.9637 6.73079 30.0338 6.86521 30.0718C6.99963 30.1097 7.1413 30.1143 7.27789 30.0851C7.41448 30.056 7.54189 29.9939 7.64907 29.9043C7.75625 29.8148 7.83998 29.7004 7.89296 29.5712C7.94595 29.4419 7.9666 29.3017 7.95314 29.1627C7.93968 29.0237 7.89251 28.89 7.81571 28.7734C7.73891 28.6567 7.63483 28.5605 7.51245 28.4932C7.39008 28.4259 7.25312 28.3894 7.11347 28.387V28.4018Z" fill="black"></path></svg>