<svg xmlns="http://www.w3.org/2000/svg" width="57" height="55" viewBox="0 0 57 55" fill="none"><path d="M55.8933 11.9207C55.597 11.788 55.2687 11.7436 54.9478 11.7928C54.6268 11.842 54.3269 11.9827 54.0839 12.1981L40.3995 24.632V13.4411C40.4002 13.1227 40.3104 12.8106 40.1406 12.5413C39.9708 12.2719 39.728 12.0564 39.4403 11.9197C39.1527 11.7831 38.8322 11.731 38.5161 11.7695C38.2 11.808 37.9014 11.9356 37.655 12.1373L22.1688 24.8448V13.407C22.1712 13.0909 22.0843 12.7805 21.9182 12.5115C21.7522 12.2425 21.5136 12.0259 21.2299 11.8865C20.9499 11.7469 20.6361 11.6892 20.3247 11.7202C20.0133 11.7511 19.7171 11.8694 19.4699 12.0613L15.452 15.1555V2.04887C15.4551 1.50915 15.2438 0.990275 14.8647 0.606146C14.4855 0.222017 13.9695 0.00401926 13.4298 0H6.52293C5.98287 0.00401908 5.4664 0.221895 5.08665 0.605914C4.70691 0.989934 4.49486 1.5088 4.49689 2.04887V23.598L0.114056 26.9773L0 27.0648V52.6547C0.000122048 52.9342 0.0571619 53.2108 0.167603 53.4677C0.278044 53.7245 0.4396 53.9561 0.642432 54.1485C0.829461 54.3253 1.0498 54.463 1.29062 54.5538C1.53144 54.6445 1.7879 54.6863 2.04506 54.6769L54.8822 55C55.4212 54.996 55.9367 54.7785 56.3158 54.3952C56.6948 54.0119 56.9065 53.494 56.9045 52.9549V13.4602C56.9032 13.1332 56.8069 12.8136 56.6274 12.5403C56.4479 12.267 56.1929 12.0517 55.8933 11.9207ZM12.7113 2.73306V6.67113H7.23756V2.73306H12.7113ZM12.7113 9.40044V17.2614L7.23756 21.5035V9.40424L12.7113 9.40044ZM20.3898 28.5814C20.677 28.719 20.9975 28.7714 21.3135 28.7323C21.6295 28.6932 21.9276 28.5643 22.1726 28.361L37.6664 15.6307V26.9964C37.6667 27.326 37.7632 27.6484 37.9442 27.9239C38.1251 28.1995 38.3827 28.4161 38.6851 28.5472C38.9819 28.6752 39.3094 28.7141 39.6279 28.6595C39.9464 28.6048 40.2422 28.4589 40.4793 28.2394L54.1637 15.8207V52.2707L2.7255 51.9552V28.4104L19.4509 15.5318V27.0534C19.4468 27.3732 19.5345 27.6875 19.7036 27.9591C19.8727 28.2306 20.1162 28.4479 20.405 28.5852L20.3898 28.5814Z" fill="white"></path><path d="M14.7141 33.2076V42.4864C14.7141 43.0554 14.9398 43.6011 15.3418 44.0037C15.7437 44.4064 16.2891 44.6331 16.858 44.6341H21.6437C22.2054 44.6265 22.7423 44.4018 23.1419 44.0071C23.5416 43.6124 23.773 43.0783 23.7877 42.5168V33.2076C23.7866 32.6393 23.5604 32.0946 23.1586 31.6928C22.7567 31.2909 22.212 31.0647 21.6437 31.0637H16.858C16.2897 31.0647 15.745 31.2909 15.3431 31.6928C14.9413 32.0946 14.7151 32.6393 14.7141 33.2076ZM21.0583 33.793V41.9048H17.4434V33.793H21.0583Z" fill="white"></path><path d="M28.7674 44.6379H33.5532C34.1221 44.6369 34.6675 44.4102 35.0694 44.0075C35.4714 43.6049 35.6971 43.0592 35.6971 42.4902V33.2076C35.6961 32.6393 35.4699 32.0946 35.0681 31.6928C34.6662 31.2909 34.1215 31.0647 33.5532 31.0637H28.7674C28.1992 31.0647 27.6544 31.2909 27.2526 31.6928C26.8507 32.0946 26.6245 32.6393 26.6235 33.2076V42.4864C26.623 42.7685 26.6781 43.0478 26.7856 43.3086C26.893 43.5693 27.0508 43.8064 27.2499 44.0062C27.449 44.206 27.6855 44.3646 27.9458 44.473C28.2062 44.5814 28.4854 44.6374 28.7674 44.6379ZM32.9488 33.7968V41.9086H29.3338V33.7968H32.9488Z" fill="white"></path><path d="M41.0226 44.6379H45.8083C46.3717 44.636 46.9119 44.4131 47.3128 44.0172C47.7137 43.6213 47.9432 43.084 47.9522 42.5206V33.2076C47.9512 32.6393 47.725 32.0946 47.3232 31.6928C46.9213 31.2909 46.3766 31.0647 45.8083 31.0637H41.0226C40.4543 31.0647 39.9096 31.2909 39.5077 31.6928C39.1059 32.0946 38.8797 32.6393 38.8787 33.2076V42.4864C38.8782 42.7685 38.9332 43.0478 39.0407 43.3086C39.1482 43.5693 39.306 43.8064 39.505 44.0062C39.7041 44.206 39.9406 44.3646 40.201 44.473C40.4614 44.5814 40.7405 44.6374 41.0226 44.6379ZM41.608 41.9086V33.7968H45.2229V41.9086H41.608Z" fill="white"></path></svg>