<svg xmlns="http://www.w3.org/2000/svg" width="38" height="29" viewBox="0 0 38 29" fill="none"><path d="M30.3334 22.833C30.2508 22.8331 30.169 22.8168 30.0927 22.7851C30.0164 22.7534 29.9472 22.7069 29.8889 22.6483L25.5502 18.3096C25.492 18.2515 25.4458 18.1824 25.4143 18.1064C25.3828 18.0304 25.3666 17.9489 25.3666 17.8667C25.3666 17.7844 25.3828 17.7029 25.4143 17.6269C25.4458 17.5509 25.492 17.4818 25.5502 17.4237C25.6084 17.3655 25.6774 17.3193 25.7534 17.2878C25.8294 17.2563 25.9109 17.2401 25.9932 17.2401C26.0754 17.2401 26.1569 17.2563 26.2329 17.2878C26.3089 17.3193 26.378 17.3655 26.4361 17.4237L30.7717 21.7656C30.8855 21.8824 30.9491 22.0391 30.9491 22.2022C30.9491 22.3654 30.8855 22.522 30.7717 22.6389C30.715 22.6985 30.6471 22.7463 30.5719 22.7796C30.4967 22.8129 30.4157 22.831 30.3334 22.833Z" fill="black"></path><path d="M25.9915 22.833C25.8258 22.8323 25.667 22.7659 25.5502 22.6483C25.4336 22.531 25.3681 22.3723 25.3681 22.2069C25.3681 22.0415 25.4336 21.8829 25.5502 21.7656L29.8889 17.4237C29.947 17.3655 30.0161 17.3193 30.0921 17.2878C30.1681 17.2563 30.2496 17.2401 30.3318 17.2401C30.4141 17.2401 30.4956 17.2563 30.5716 17.2878C30.6476 17.3193 30.7166 17.3655 30.7748 17.4237C30.833 17.4818 30.8792 17.5509 30.9107 17.6269C30.9422 17.7029 30.9584 17.7844 30.9584 17.8667C30.9584 17.9489 30.9422 18.0304 30.9107 18.1064C30.8792 18.1824 30.833 18.2515 30.7748 18.3096L26.4361 22.6389C26.3786 22.6992 26.3097 22.7474 26.2334 22.7808C26.157 22.8141 26.0748 22.8319 25.9915 22.833V22.833Z" fill="black"></path><path d="M28.161 29C26.685 28.9996 25.2321 28.6339 23.9318 27.9356L22.3197 26.8369C21.2525 25.9188 20.4143 24.7644 19.8717 23.4654L19.7935 23.2807L12.9066 25.5033C12.846 25.5233 12.7826 25.5338 12.7188 25.5346C12.6539 25.5339 12.5895 25.5233 12.5278 25.5033L0.431996 21.6029C0.307985 21.5624 0.199691 21.4843 0.122243 21.3794C0.0447945 21.2744 0.00205783 21.1479 0 21.0175V4.51405C0.00227641 4.38325 0.0454603 4.25644 0.123504 4.15145C0.201547 4.04645 0.310534 3.96855 0.435129 3.92866L12.5341 0.0281971C12.5949 0.00930906 12.6582 -0.000191453 12.7219 2.35097e-05C12.7869 -0.000568391 12.8515 0.0100205 12.9129 0.0313272L25.0056 3.92866C25.1324 3.96708 25.2438 4.04476 25.3237 4.15052C25.4036 4.25628 25.4478 4.38466 25.4501 4.51718V11.4948L25.7287 11.4166C26.5263 11.1912 27.3509 11.0753 28.1798 11.0722C30.2207 11.0725 32.1997 11.7731 33.7863 13.0569L35.2701 14.5657C36.6808 16.3836 37.3351 18.676 37.0966 20.9647C36.858 23.2533 35.7451 25.3615 33.9898 26.8494L32.3964 27.9388L31.6044 28.3144C30.5137 28.77 29.343 29.0031 28.161 29V29ZM28.161 12.3056C26.1133 12.3114 24.1512 13.1283 22.7044 14.5774C21.2576 16.0266 20.4439 17.9899 20.4415 20.0377C20.4439 22.0876 21.2594 24.0528 22.7089 25.5023C24.1584 26.9518 26.1236 27.7672 28.1735 27.7697C30.2222 27.7631 32.185 26.9464 33.6336 25.4978C35.0822 24.0491 35.899 22.0863 35.9056 20.0377C35.9023 17.9867 35.0852 16.0208 33.6337 14.5717C32.1823 13.1226 30.2151 12.3087 28.1641 12.3087L28.161 12.3056ZM12.9285 8.99677V24.2042L19.4523 22.1006L19.4084 21.9065C19.2793 21.2888 19.2143 20.6594 19.2143 20.0283C19.1982 18.3745 19.6475 16.7496 20.5111 15.3391C21.3746 13.9287 22.6175 12.7896 24.0977 12.052L24.1979 11.9957V5.35925L12.9285 8.99677ZM1.23962 20.5792L11.6764 23.9381V8.72755L1.22084 5.35925L1.23962 20.5792ZM2.64518 4.52344L12.7282 7.77592L22.8143 4.52344L12.7282 1.27096L2.64518 4.52344Z" fill="black"></path></svg>