<svg xmlns="http://www.w3.org/2000/svg" width="44" height="52" viewBox="0 0 44 52" fill="none"><path d="M1.16589 52C1.01275 52.0001 0.86108 51.9701 0.719569 51.9115C0.578057 51.853 0.449479 51.7671 0.34119 51.6588C0.232902 51.5505 0.14703 51.422 0.0884872 51.2804C0.0299447 51.1389 -0.000118959 50.9873 1.67462e-05 50.8341V16.8071C-0.000945678 16.6293 0.0395882 16.4537 0.118396 16.2943C0.197203 16.1349 0.312111 15.9961 0.453985 15.8889L20.8207 0.237302C21.026 0.0832666 21.2758 0 21.5326 0C21.7893 0 22.0391 0.0832666 22.2445 0.237302L42.6008 15.8889C42.7419 15.9969 42.8562 16.1358 42.9349 16.2951C43.0136 16.4543 43.0546 16.6295 43.0548 16.8071V50.8341C43.0549 50.9873 43.0249 51.1389 42.9663 51.2804C42.9078 51.422 42.8219 51.5505 42.7136 51.6588C42.6053 51.7671 42.4767 51.853 42.3352 51.9115C42.1937 51.9701 42.042 52.0001 41.8889 52H1.16589ZM27.0937 33.7278C27.2468 33.7276 27.3985 33.7577 27.54 33.8162C27.6815 33.8748 27.8101 33.9607 27.9184 34.069C28.0267 34.1772 28.1125 34.3058 28.1711 34.4473C28.2296 34.5888 28.2597 34.7405 28.2595 34.8937V49.6786H40.7334V17.3849L21.5326 2.62064L2.33176 17.3746V49.6683H14.8056V34.8937C14.8054 34.7405 14.8355 34.5888 14.894 34.4473C14.9526 34.3058 15.0385 34.1772 15.1467 34.069C15.255 33.9607 15.3836 33.8748 15.5251 33.8162C15.6666 33.7577 15.8183 33.7276 15.9714 33.7278H27.0937ZM17.127 49.6786H25.9278V36.0595H17.127V49.6786Z" fill="white"></path><path d="M21.5325 28.3214C21.3295 28.3228 21.1298 28.2693 20.9547 28.1667C20.7896 28.0738 16.8277 25.7524 14.5785 21.2127C14.2243 20.4975 14.0407 19.71 14.042 18.9119C14.042 16.1881 16.1364 13.9698 18.7158 13.9698C19.6399 13.9742 20.5403 14.2623 21.2952 14.7952L21.5325 14.9603L21.7698 14.7952C22.5247 14.2623 23.4251 13.9742 24.3491 13.9698C26.9285 13.9698 29.023 16.1881 29.023 18.9119C29.0243 19.71 28.8406 20.4975 28.4864 21.2127C26.2372 25.7524 22.2857 28.0738 22.1103 28.1667C21.9351 28.2693 21.7355 28.3228 21.5325 28.3214ZM18.7158 16.2913C17.4158 16.2913 16.3634 17.4675 16.3634 18.9119C16.3635 19.3512 16.4622 19.7849 16.6523 20.181C18.0039 22.9151 20.1293 24.7516 21.2849 25.5976L21.5325 25.7833L21.7801 25.5976C22.9253 24.7516 25.0507 22.9151 26.4126 20.181C26.6108 19.7874 26.7133 19.3526 26.7118 18.9119C26.7118 17.4675 25.6595 16.2913 24.3595 16.2913C23.6269 16.2913 22.946 16.6627 22.492 17.3127C22.3839 17.4674 22.2405 17.5939 22.0736 17.6819C21.9067 17.7698 21.7211 17.8166 21.5325 17.8183C21.3434 17.8188 21.1571 17.7731 20.9898 17.6849C20.8225 17.5968 20.6794 17.469 20.573 17.3127C20.3714 17.0027 20.0965 16.7472 19.7725 16.569C19.4485 16.3908 19.0855 16.2954 18.7158 16.2913Z" fill="white"></path></svg>