<svg xmlns="http://www.w3.org/2000/svg" width="58" height="46" viewBox="0 0 58 46" fill="none"><path d="M23.0418 44.9878C18.6814 44.9878 14.4189 43.6977 10.7933 41.2807C7.16776 38.8638 4.34199 35.4284 2.67333 31.4091C1.00467 27.3898 0.568072 22.9671 1.41875 18.7002C2.26942 14.4333 4.36916 10.5139 7.45244 7.4377C10.5357 4.36146 14.4641 2.26651 18.7407 1.41778C23.0173 0.569048 27.4502 1.00465 31.4787 2.6695C35.5072 4.33435 38.9504 7.15367 41.3729 10.771C43.7954 14.3882 45.0884 18.641 45.0884 22.9915C45.0787 28.8223 42.7528 34.4115 38.6204 38.5345C34.4879 42.6575 28.8859 44.9781 23.0418 44.9878ZM23.0418 2.39055C18.9568 2.39055 14.9636 3.59927 11.5672 5.86382C8.17076 8.12836 5.52379 11.347 3.96103 15.1126C2.39828 18.8783 1.98995 23.0217 2.78769 27.0189C3.58544 31.0161 5.55342 34.6875 8.44272 37.5687C11.332 40.4498 15.0128 42.4113 19.0196 43.2051C23.0264 43.9989 27.1791 43.5893 30.9525 42.0281C34.7259 40.4669 37.9505 37.8243 40.2184 34.4344C42.4863 31.0445 43.6957 27.0598 43.6935 22.9841C43.6857 17.5228 41.5071 12.2876 37.6355 8.42696C33.7639 4.56629 28.5156 2.39541 23.0418 2.39055Z" fill="black"></path><path d="M23.0427 34.9788C20.667 34.9788 18.3446 34.276 16.3692 32.9593C14.3937 31.6426 12.854 29.7711 11.9445 27.5813C11.035 25.3916 10.7967 22.982 11.2596 20.6572C11.7225 18.3323 12.866 16.1966 14.5453 14.52C16.2247 12.8435 18.3646 11.7014 20.6945 11.238C23.0244 10.7747 25.4396 11.011 27.6349 11.9171C29.8302 12.8232 31.707 14.3583 33.0279 16.3284C34.3488 18.2985 35.0547 20.6152 35.0561 22.9855C35.0551 26.1647 33.7894 29.2136 31.5368 31.4624C29.2843 33.7111 26.2292 34.9759 23.0427 34.9788ZM23.0427 12.3876C20.9401 12.3876 18.8847 13.0097 17.1365 14.1754C15.3883 15.341 14.0259 16.9978 13.2216 18.9361C12.4173 20.8744 12.2072 23.0071 12.618 25.0645C13.0287 27.1219 14.0418 29.0116 15.5291 30.4945C17.0164 31.9773 18.9111 32.9868 20.9735 33.3952C23.0359 33.8035 25.1734 33.5925 27.1155 32.7887C29.0577 31.9849 30.7173 30.6244 31.8844 28.8794C33.0515 27.1344 33.6737 25.0833 33.6722 22.9855C33.6664 20.1753 32.5444 17.4819 30.552 15.4955C28.5596 13.509 25.8594 12.3915 23.0427 12.3876Z" fill="black"></path><path d="M23.0424 34.9788C20.2635 34.9762 17.5715 34.0126 15.4248 32.252C13.2781 30.4914 11.8095 28.0427 11.2693 25.323C10.729 22.6034 11.1505 19.781 12.4618 17.3366C13.7732 14.8922 15.8934 12.9769 18.4613 11.9171C21.0291 10.8573 23.8858 10.7184 26.5447 11.5242C29.2037 12.3299 31.5005 14.0304 33.0438 16.3361C34.5871 18.6417 35.2816 21.4099 35.0089 24.169C34.7362 26.9282 33.5132 29.5077 31.5482 31.4682C30.4343 32.5864 29.1087 33.4726 27.6485 34.0753C26.1883 34.678 24.6226 34.9851 23.0424 34.9788ZM23.0424 12.3986C20.5879 12.4001 18.2098 13.2506 16.3133 14.8052C14.4167 16.3597 13.1189 18.5222 12.6411 20.9242C12.1632 23.3263 12.5347 25.8193 13.6924 27.9788C14.8501 30.1382 16.7223 31.8304 18.9901 32.7672C21.2579 33.7039 23.7811 33.8273 26.1299 33.1163C28.4787 32.4053 30.5078 30.9039 31.8716 28.8677C33.2354 26.8316 33.8495 24.3868 33.6093 21.9496C33.3691 19.5124 32.2896 17.2337 30.5545 15.5016C29.5703 14.5143 28.3996 13.7316 27.1101 13.199C25.8206 12.6663 24.438 12.3943 23.0424 12.3986Z" fill="black"></path><path d="M23.0429 37.9129C19.5832 37.9128 16.2305 36.7159 13.5561 34.526C10.8817 32.3362 9.05112 29.2889 8.3762 25.9034C7.70128 22.5179 8.2238 19.0036 9.85474 15.9594C11.4857 12.9152 14.1241 10.5293 17.3205 9.20842C20.5169 7.88749 24.0735 7.71321 27.3842 8.71525C30.6949 9.7173 33.555 11.8337 35.4771 14.7038C37.3992 17.5739 38.2644 21.0202 37.9252 24.4554C37.5861 27.8906 36.0636 31.1022 33.6172 33.543C32.2316 34.9325 30.5836 36.0342 28.7686 36.7842C26.9535 37.5343 25.0075 37.9179 23.0429 37.9129ZM23.0429 9.47553C21.2643 9.47108 19.5026 9.81904 17.8599 10.4992C16.2172 11.1794 14.7262 12.1782 13.4734 13.4378C11.5776 15.3303 10.2867 17.741 9.76376 20.3653C9.24086 22.9895 9.50944 25.7096 10.5356 28.1816C11.5617 30.6536 13.2993 32.7667 15.5288 34.2536C17.7583 35.7406 20.3795 36.5348 23.0613 36.5358C24.8435 36.543 26.6094 36.1963 28.2561 35.5161C29.9028 34.8358 31.3974 33.8356 32.6529 32.5735C35.1915 30.0334 36.6171 26.5927 36.6171 23.0057C36.6171 19.4186 35.1915 15.9779 32.6529 13.4378C31.3952 12.1735 29.8976 11.172 28.2476 10.4917C26.5976 9.81136 24.8282 9.46593 23.0429 9.47553Z" fill="black"></path><path d="M33.2969 44.9889C33.201 44.9958 33.1048 44.983 33.0141 44.9512C32.9235 44.9193 32.8403 44.8692 32.77 44.8039C32.6996 44.7386 32.6434 44.6596 32.6051 44.5716C32.5667 44.4837 32.5469 44.3889 32.5469 44.293C32.5469 44.1971 32.5667 44.1022 32.6051 44.0143C32.6434 43.9264 32.6996 43.8474 32.77 43.7821C32.8403 43.7168 32.9235 43.6666 33.0141 43.6348C33.1048 43.603 33.201 43.5902 33.2969 43.5971H54.7657L53.7462 42.5138C53.6057 42.3647 53.5274 42.1677 53.5274 41.963C53.5274 41.7583 53.6057 41.5613 53.7462 41.4122L55.4172 39.6459L53.7462 37.8795C53.6057 37.7304 53.5274 37.5334 53.5274 37.3287C53.5274 37.124 53.6057 36.927 53.7462 36.7779L55.4172 35.0116L53.7462 33.2453C53.6104 33.0938 53.5353 32.8977 53.5353 32.6944C53.5353 32.4912 53.6104 32.2951 53.7462 32.1436L54.7657 31.0713H46.1826C46.0867 31.0783 45.9905 31.0654 45.8998 31.0336C45.8092 31.0018 45.726 30.9517 45.6557 30.8864C45.5853 30.8211 45.5292 30.742 45.4908 30.6541C45.4524 30.5662 45.4326 30.4713 45.4326 30.3754C45.4326 30.2796 45.4524 30.1847 45.4908 30.0968C45.5292 30.0089 45.5853 29.9298 45.6557 29.8645C45.726 29.7992 45.8092 29.7491 45.8998 29.7173C45.9905 29.6855 46.0867 29.6726 46.1826 29.6796H55.9913C56.1587 29.6808 56.3222 29.7307 56.4616 29.8232C56.601 29.9156 56.7104 30.0466 56.7764 30.2001C56.8424 30.3536 56.8621 30.523 56.8332 30.6875C56.8042 30.852 56.7278 31.0045 56.6134 31.1264L55.1411 32.7054L56.779 34.4497C56.928 34.61 57.0108 34.8205 57.0108 35.0391C57.0108 35.2577 56.928 35.4682 56.779 35.6285L55.1411 37.3728L56.779 39.1171C56.928 39.2773 57.0108 39.4878 57.0108 39.7064C57.0108 39.925 56.928 40.1356 56.779 40.2958L55.1522 42.0071L56.6244 43.5861C56.7379 43.7083 56.8138 43.8605 56.8432 44.0246C56.8726 44.1886 56.8541 44.3576 56.79 44.5115C56.724 44.6656 56.6142 44.797 56.4743 44.8897C56.3344 44.9823 56.1703 45.0321 56.0024 45.0329H33.2969V44.9889Z" fill="black"></path></svg>