<svg xmlns="http://www.w3.org/2000/svg" width="40" height="44" viewBox="0 0 40 44" fill="none"><path d="M16.1314 37.1739L14.4948 36.5894C14.2794 36.5186 14.0445 36.5337 13.8403 36.6316C13.636 36.7294 13.4786 36.9023 13.4014 37.1132C13.3243 37.3242 13.3336 37.5566 13.4273 37.7609C13.5211 37.9652 13.6919 38.1252 13.9034 38.2068L15.54 38.7912C15.6343 38.8246 15.7336 38.842 15.8338 38.8427C16.0386 38.8429 16.237 38.7718 16.3939 38.6418C16.5509 38.5117 16.6565 38.3312 16.692 38.1318C16.7275 37.9325 16.6908 37.7271 16.5883 37.5519C16.4857 37.3767 16.3239 37.2428 16.1314 37.1739Z" fill="black"></path><path d="M4.34889 29.6128C4.11805 29.6128 3.89667 29.7034 3.73344 29.8647C3.57022 30.026 3.47852 30.2448 3.47852 30.473V32.1896C3.47852 32.4177 3.57022 32.6365 3.73344 32.7978C3.89667 32.9591 4.11805 33.0497 4.34889 33.0497C4.57973 33.0497 4.80111 32.9591 4.96434 32.7978C5.12756 32.6365 5.21926 32.4177 5.21926 32.1896V30.473C5.21976 30.3599 5.19758 30.2478 5.15401 30.1432C5.11045 30.0386 5.04635 29.9436 4.96543 29.8636C4.88451 29.7837 4.78837 29.7203 4.68255 29.6773C4.57673 29.6342 4.46333 29.6123 4.34889 29.6128Z" fill="black"></path><path d="M9.58516 34.8287L7.94856 34.2442C7.73153 34.1662 7.49205 34.1766 7.28278 34.2731C7.07352 34.3696 6.91162 34.5443 6.8327 34.7588C6.75378 34.9733 6.76431 35.21 6.86196 35.4168C6.95962 35.6236 7.13641 35.7836 7.35343 35.8616L8.99003 36.446C9.08435 36.4794 9.1837 36.4968 9.28388 36.4975C9.4887 36.4977 9.68704 36.4266 9.84401 36.2966C10.001 36.1665 10.1065 35.986 10.1421 35.7866C10.1776 35.5873 10.1409 35.3819 10.0383 35.2067C9.9358 35.0315 9.77401 34.8976 9.58144 34.8287H9.58516Z" fill="black"></path><path d="M4.34889 22.7388C4.11805 22.7388 3.89667 22.8294 3.73344 22.9907C3.57022 23.152 3.47852 23.3708 3.47852 23.5989V25.3156C3.47852 25.5437 3.57022 25.7625 3.73344 25.9238C3.89667 26.0851 4.11805 26.1757 4.34889 26.1757C4.57973 26.1757 4.80111 26.0851 4.96434 25.9238C5.12756 25.7625 5.21926 25.5437 5.21926 25.3156V23.5989C5.21976 23.4858 5.19758 23.3738 5.15401 23.2692C5.11045 23.1646 5.04635 23.0696 4.96543 22.9896C4.88451 22.9097 4.78837 22.8463 4.68255 22.8033C4.57673 22.7602 4.46333 22.7383 4.34889 22.7388Z" fill="black"></path><path d="M24.3152 5.14608C24.5461 5.14608 24.7674 5.05546 24.9307 4.89415C25.0939 4.73284 25.1856 4.51406 25.1856 4.28593C25.1856 4.05781 25.0939 3.83902 24.9307 3.67771C24.7674 3.5164 24.5461 3.42578 24.3152 3.42578H22.5745C22.3436 3.42578 22.1223 3.5164 21.959 3.67771C21.7958 3.83902 21.7041 4.05781 21.7041 4.28593C21.7041 4.51406 21.7958 4.73284 21.959 4.89415C22.1223 5.05546 22.3436 5.14608 22.5745 5.14608H24.3152Z" fill="black"></path><path d="M17.3554 3.43701H15.6184C15.3876 3.43701 15.1662 3.52763 15.003 3.68894C14.8397 3.85025 14.748 4.06904 14.748 4.29716C14.748 4.52529 14.8397 4.74407 15.003 4.90538C15.1662 5.06669 15.3876 5.15731 15.6184 5.15731H17.3554C17.5863 5.15731 17.8077 5.06669 17.9709 4.90538C18.1341 4.74407 18.2258 4.52529 18.2258 4.29716C18.2258 4.06904 18.1341 3.85025 17.9709 3.68894C17.8077 3.52763 17.5863 3.43701 17.3554 3.43701Z" fill="black"></path><path d="M8.66237 5.14608H10.3994C10.5137 5.14608 10.6269 5.12383 10.7325 5.08061C10.8381 5.03738 10.934 4.97402 11.0148 4.89415C11.0957 4.81428 11.1598 4.71946 11.2035 4.6151C11.2473 4.51074 11.2698 4.39889 11.2698 4.28593C11.2698 4.17298 11.2473 4.06112 11.2035 3.95677C11.1598 3.85241 11.0957 3.75759 11.0148 3.67771C10.934 3.59784 10.8381 3.53448 10.7325 3.49126C10.6269 3.44803 10.5137 3.42578 10.3994 3.42578H8.66237C8.43153 3.42578 8.21015 3.5164 8.04692 3.67771C7.88369 3.83902 7.79199 4.05781 7.79199 4.28593C7.79199 4.51406 7.88369 4.73284 8.04692 4.89415C8.21015 5.05546 8.43153 5.14608 8.66237 5.14608Z" fill="black"></path><path d="M31.2703 5.14608C31.3846 5.14608 31.4978 5.12383 31.6034 5.08061C31.709 5.03738 31.8049 4.97402 31.8857 4.89415C31.9666 4.81428 32.0307 4.71946 32.0744 4.6151C32.1182 4.51074 32.1407 4.39889 32.1407 4.28593C32.1407 4.17298 32.1182 4.06112 32.0744 3.95677C32.0307 3.85241 31.9666 3.75759 31.8857 3.67771C31.8049 3.59784 31.709 3.53448 31.6034 3.49126C31.4978 3.44803 31.3846 3.42578 31.2703 3.42578H29.5296C29.2987 3.42578 29.0773 3.5164 28.9141 3.67771C28.7509 3.83902 28.6592 4.05781 28.6592 4.28593C28.6592 4.51406 28.7509 4.73284 28.9141 4.89415C29.0773 5.05546 29.2987 5.14608 29.5296 5.14608H31.2703Z" fill="black"></path><path d="M25.5054 36.5894L23.8688 37.1739C23.6762 37.2428 23.5144 37.3767 23.4119 37.5519C23.3093 37.7271 23.2726 37.9325 23.3081 38.1318C23.3437 38.3312 23.4492 38.5117 23.6062 38.6418C23.7632 38.7718 23.9615 38.8429 24.1663 38.8427C24.2665 38.842 24.3659 38.8246 24.4602 38.7912L26.0968 38.2068C26.3082 38.1252 26.479 37.9652 26.5728 37.7609C26.6666 37.5566 26.6759 37.3242 26.5987 37.1132C26.5216 36.9023 26.3641 36.7294 26.1598 36.6316C25.9556 36.5337 25.7207 36.5186 25.5054 36.5894Z" fill="black"></path><path d="M35.6516 29.6128C35.4208 29.6128 35.1994 29.7034 35.0362 29.8647C34.873 30.026 34.7812 30.2448 34.7812 30.473V32.1896C34.7812 32.4177 34.873 32.6365 35.0362 32.7978C35.1994 32.9591 35.4208 33.0497 35.6516 33.0497C35.8825 33.0497 36.1038 32.9591 36.2671 32.7978C36.4303 32.6365 36.522 32.4177 36.522 32.1896V30.473C36.5225 30.3599 36.5003 30.2478 36.4567 30.1432C36.4132 30.0386 36.3491 29.9436 36.2682 29.8636C36.1873 29.7837 36.0911 29.7203 35.9853 29.6773C35.8795 29.6342 35.7661 29.6123 35.6516 29.6128Z" fill="black"></path><path d="M32.0436 34.237L30.4145 34.8214C30.2201 34.8884 30.0562 35.0215 29.9521 35.197C29.8479 35.3725 29.8104 35.5788 29.8462 35.7792C29.882 35.9795 29.9888 36.1607 30.1474 36.2903C30.3061 36.4199 30.5062 36.4895 30.712 36.4866C30.8124 36.4877 30.9121 36.4703 31.0059 36.4351L32.6462 35.8507C32.7543 35.8129 32.8537 35.7543 32.9386 35.6781C33.0235 35.602 33.0922 35.5099 33.1407 35.4072C33.1891 35.3046 33.2164 35.1934 33.2209 35.0802C33.2255 34.967 33.2071 34.854 33.1669 34.7479C33.0858 34.5335 32.9222 34.3595 32.7118 34.2638C32.5014 34.1681 32.2612 34.1584 32.0436 34.237Z" fill="black"></path><path d="M35.6516 22.7388C35.4208 22.7388 35.1994 22.8294 35.0362 22.9907C34.873 23.152 34.7812 23.3708 34.7812 23.5989V25.3156C34.7812 25.5437 34.873 25.7625 35.0362 25.9238C35.1994 26.0851 35.4208 26.1757 35.6516 26.1757C35.8825 26.1757 36.1038 26.0851 36.2671 25.9238C36.4303 25.7625 36.522 25.5437 36.522 25.3156V23.5989C36.5225 23.4858 36.5003 23.3738 36.4567 23.2692C36.4132 23.1646 36.3491 23.0696 36.2682 22.9896C36.1873 22.9097 36.0911 22.8463 35.9853 22.8033C35.8795 22.7602 35.7661 22.7383 35.6516 22.7388Z" fill="black"></path><path d="M4.34889 16.24C4.11835 16.241 3.89754 16.3319 3.73452 16.493C3.57151 16.6541 3.47949 16.8723 3.47852 17.1001V18.8204C3.47852 19.0486 3.57022 19.2673 3.73344 19.4287C3.89667 19.59 4.11805 19.6806 4.34889 19.6806C4.57973 19.6806 4.80111 19.59 4.96434 19.4287C5.12756 19.2673 5.21926 19.0486 5.21926 18.8204V17.1001C5.21828 16.8723 5.12627 16.6541 4.96325 16.493C4.80024 16.3319 4.57942 16.241 4.34889 16.24Z" fill="black"></path><path d="M35.6516 16.24C35.4211 16.241 35.2003 16.3319 35.0373 16.493C34.8742 16.6541 34.7822 16.8723 34.7812 17.1001V18.8204C34.7812 19.0486 34.873 19.2673 35.0362 19.4287C35.1994 19.59 35.4208 19.6806 35.6516 19.6806C35.8825 19.6806 36.1038 19.59 36.2671 19.4287C36.4303 19.2673 36.522 19.0486 36.522 18.8204V17.1001C36.521 16.8723 36.429 16.6541 36.266 16.493C36.103 16.3319 35.8822 16.241 35.6516 16.24Z" fill="black"></path><path d="M4.34889 9.74463C4.11805 9.74463 3.89667 9.83525 3.73344 9.99656C3.57022 10.1579 3.47852 10.3767 3.47852 10.6048V12.3214C3.47852 12.5495 3.57022 12.7683 3.73344 12.9296C3.89667 13.0909 4.11805 13.1816 4.34889 13.1816C4.57973 13.1816 4.80111 13.0909 4.96434 12.9296C5.12756 12.7683 5.21926 12.5495 5.21926 12.3214V10.6048C5.21926 10.3767 5.12756 10.1579 4.96434 9.99656C4.80111 9.83525 4.57973 9.74463 4.34889 9.74463Z" fill="black"></path><path d="M35.6516 9.74463C35.4208 9.74463 35.1994 9.83525 35.0362 9.99656C34.873 10.1579 34.7812 10.3767 34.7812 10.6048V12.3214C34.7812 12.5495 34.873 12.7683 35.0362 12.9296C35.1994 13.0909 35.4208 13.1816 35.6516 13.1816C35.8825 13.1816 36.1038 13.0909 36.2671 12.9296C36.4303 12.7683 36.522 12.5495 36.522 12.3214V10.6048C36.522 10.3767 36.4303 10.1579 36.2671 9.99656C36.1038 9.83525 35.8825 9.74463 35.6516 9.74463Z" fill="black"></path><path d="M20.0003 38.6187C19.7694 38.6187 19.548 38.7093 19.3848 38.8706C19.2216 39.0319 19.1299 39.2507 19.1299 39.4788C19.1299 39.6489 19.1809 39.8152 19.2766 39.9567C19.3722 40.0981 19.5081 40.2084 19.6672 40.2735C19.8262 40.3386 20.0012 40.3556 20.1701 40.3224C20.3389 40.2892 20.494 40.2073 20.6157 40.087C20.7374 39.9667 20.8203 39.8135 20.8539 39.6466C20.8875 39.4798 20.8703 39.3068 20.8044 39.1496C20.7385 38.9925 20.6269 38.8581 20.4838 38.7636C20.3407 38.6691 20.1724 38.6187 20.0003 38.6187Z" fill="black"></path><path d="M39.1296 0H0.870386C0.639548 0 0.418165 0.0906227 0.254938 0.251932C0.0917116 0.413242 1.17936e-05 0.632024 1.17936e-05 0.86015V36.266C-0.000922945 36.4424 0.0537277 36.6146 0.156376 36.7589C0.259024 36.9031 0.404576 37.0122 0.572822 37.071L19.7062 43.9485C19.8959 44.0171 20.1041 44.0171 20.2939 43.9485L39.4272 37.071C39.5945 37.0108 39.7392 36.9014 39.8416 36.7575C39.944 36.6135 39.9993 36.442 40 36.266V0.86015C40 0.632024 39.9083 0.413242 39.7451 0.251932C39.5819 0.0906227 39.3605 0 39.1296 0V0ZM38.2593 3.43693H36.485C36.2542 3.43693 36.0328 3.52755 35.8696 3.68886C35.7064 3.85017 35.6147 4.06895 35.6147 4.29708C35.6147 4.5252 35.7064 4.74398 35.8696 4.90529C36.0328 5.0666 36.2542 5.15723 36.485 5.15723H38.2593V14.8652V35.6558L20 42.2282L1.74076 35.6558V5.1462H3.44431C3.67515 5.1462 3.89653 5.05558 4.05976 4.89427C4.22299 4.73296 4.31469 4.51417 4.31469 4.28605C4.31469 4.05792 4.22299 3.83914 4.05976 3.67783C3.89653 3.51652 3.67515 3.4259 3.44431 3.4259H1.74076V1.7203H38.2593V3.43693Z" fill="black"></path></svg>