<svg xmlns="http://www.w3.org/2000/svg" width="18" height="23" viewBox="0 0 18 23" fill="none"><path d="M15.6231 9.30678C15.6231 15.1561 13.3005 18.8356 8.91572 18.8356C4.66863 18.8356 2.41489 15.017 2.37598 9.47255C2.37598 3.81862 4.8093 0 9.11326 0C13.5549 0.0118407 15.6231 3.93111 15.6231 9.30678ZM5.88678 9.47255C5.85685 13.895 7.10195 16.1921 9.02646 16.1921C11.0647 16.1921 12.1422 13.7293 12.1422 9.36302C12.1422 5.13886 11.1216 2.64639 9.02646 2.64639C7.15882 2.64343 5.85685 4.92277 5.88678 9.47255V9.47255Z" fill="black"></path><path d="M0 22.012V20.6118H18V22.009L0 22.012Z" fill="black"></path></svg>