<svg xmlns="http://www.w3.org/2000/svg" width="40" height="52" viewBox="0 0 40 52" fill="none"><path d="M36.8099 21.0657L36.7836 21.0229C36.5008 20.5494 36.2015 20.0726 35.8924 19.5925L35.7412 19.3524C35.3597 18.7408 26.3167 4.29808 21.5354 0.378287C21.2482 0.140449 20.8886 0.00731676 20.5158 0.000743862C20.1429 -0.00582904 19.7789 0.114548 19.4835 0.342114C14.4556 4.20271 4.73846 19.9378 4.32413 20.6053C4.01064 21.0657 3.72126 21.5359 3.456 22.016L3.12716 22.5356H3.16662C1.61196 25.5346 0.867248 28.8876 1.00616 32.2627C1.40734 42.641 10.1281 51.0067 20.4996 51.0067H20.7331C25.8574 50.9258 30.7455 48.8378 34.3469 45.1914C37.9483 41.5451 39.9756 36.6314 39.993 31.5064C39.9996 27.5176 38.7599 24.3377 36.8099 21.0657ZM20.4766 2.5026C23.1073 4.89328 27.0895 10.4474 30.0128 14.775H10.8581C13.9097 10.2304 17.8492 4.76174 20.4766 2.5026Z" fill="white"></path></svg>