<svg xmlns="http://www.w3.org/2000/svg" width="42" height="49" viewBox="0 0 42 49" fill="none"><path d="M28.3139 19.2791C28.1318 19.2788 27.9515 19.3147 27.7835 19.3847C27.6155 19.4547 27.463 19.5574 27.3351 19.6869L19.6612 27.3607C19.467 27.5563 19.3346 27.8048 19.2807 28.0751C19.2268 28.3455 19.2538 28.6257 19.3582 28.8808C19.4626 29.1359 19.6399 29.3547 19.8678 29.5097C20.0958 29.6646 20.3644 29.749 20.64 29.7523C21.006 29.7443 21.3555 29.5987 21.6188 29.3444L29.2959 21.6674C29.5547 21.4067 29.7021 21.0558 29.707 20.6886C29.7051 20.3214 29.5585 19.9697 29.2992 19.7098C29.1721 19.5757 29.0194 19.4685 28.8502 19.3945C28.6809 19.3205 28.4986 19.2812 28.3139 19.2791Z" fill="white"></path><path d="M36.4963 15.178L36.17 14.793L38.4963 12.4732C38.7566 12.2133 38.9053 11.8622 38.9107 11.4944C38.9072 11.2181 38.8223 10.949 38.6668 10.7206C38.5112 10.4923 38.2918 10.3148 38.036 10.2104C37.7802 10.106 37.4993 10.0793 37.2283 10.1335C36.9574 10.1878 36.7085 10.3207 36.5126 10.5156L34.1994 12.8256L33.8111 12.4993C30.6139 9.83714 26.6822 8.21096 22.5386 7.83696L22.0361 7.79454V2.80589H24.4766C24.8487 2.80589 25.2055 2.6581 25.4686 2.39499C25.7318 2.13189 25.8796 1.77505 25.8796 1.40297C25.8796 1.03088 25.7318 0.674006 25.4686 0.410901C25.2055 0.147797 24.8487 0 24.4766 0H16.793C16.4209 0 16.0641 0.147797 15.801 0.410901C15.5379 0.674006 15.3901 1.03088 15.3901 1.40297C15.3901 1.77505 15.5379 2.13189 15.801 2.39499C16.0641 2.6581 16.4209 2.80589 16.793 2.80589H19.2335V7.80434L18.7278 7.84676C14.7467 8.21365 10.9582 9.72994 7.82326 12.2111C4.68837 14.6922 2.34236 18.0311 1.07078 21.8215C-0.200795 25.6118 -0.343092 29.69 0.661214 33.5597C1.66552 37.4295 3.77311 40.9238 6.72745 43.6174C9.68178 46.311 13.3554 48.0877 17.3012 48.7311C21.2471 49.3746 25.2948 48.8572 28.9519 47.2418C32.6089 45.6263 35.7175 42.9827 37.8992 39.6325C40.0809 36.2823 41.2417 32.3702 41.2402 28.3722C41.2736 23.5507 39.5922 18.8744 36.4963 15.178ZM38.4539 28.3494C38.4539 31.8722 37.4092 35.3159 35.452 38.245C33.4948 41.174 30.7129 43.4569 27.4582 44.8049C24.2034 46.1529 20.6221 46.5054 17.167 45.8179C13.7119 45.1304 10.5383 43.4337 8.04755 40.9425C5.55678 38.4513 3.86071 35.2773 3.17384 31.8221C2.48697 28.3669 2.84015 24.7857 4.18872 21.5312C5.53729 18.2767 7.82067 15.4953 10.7501 13.5386C13.6795 11.5819 17.1234 10.5378 20.6462 10.5385C25.3664 10.5462 29.8908 12.4256 33.2273 15.7645C36.5637 19.1034 38.4398 23.6292 38.4441 28.3494H38.4539Z" fill="white"></path></svg>