<svg xmlns="http://www.w3.org/2000/svg" width="40" height="38" viewBox="0 0 40 38" fill="none"><path d="M10.8801 15.0625H12.4599V20.6416H15.233V21.9508H10.8633L10.8801 15.0625Z" fill="black"></path><path d="M21.5099 21.7579C20.9404 21.9755 20.3319 22.0761 19.7217 22.0536C17.3116 22.0536 16.0713 20.5716 16.0713 18.6078C16.0713 16.2586 17.752 14.9527 19.8763 14.9527C20.4644 14.9323 21.05 15.0365 21.594 15.2584L21.2578 16.4978C20.8393 16.326 20.3901 16.239 19.9368 16.242C18.6831 16.242 17.7116 16.9863 17.7116 18.5214C17.7116 19.9004 18.5385 20.7677 19.9469 20.7677C20.3935 20.7678 20.8369 20.6925 21.2578 20.5451L21.5099 21.7579Z" fill="black"></path><path d="M24.8909 20.183L24.3934 21.9508H22.7598L24.8909 15.0625H26.9581L29.1194 21.9508H27.4388L26.9009 20.183H24.8909ZM26.6589 19.0167L26.2253 17.5546C26.1009 17.1459 25.9766 16.6375 25.8892 16.2255H25.869C25.7648 16.6342 25.664 17.1526 25.5329 17.5546L25.1194 19.0167H26.6589Z" fill="black"></path><path d="M4.73277 37.0033C3.47753 37.0016 2.27425 36.5076 1.38698 35.6299C0.499697 34.7521 0.000888983 33.5623 0 32.3214V4.6819C0.000888983 3.44103 0.499697 2.25118 1.38698 1.37344C2.27425 0.495701 3.47753 0.00175979 4.73277 0H35.2672C36.5225 0.00175979 37.7257 0.495701 38.613 1.37344C39.5003 2.25118 39.9991 3.44103 40 4.6819V28.6696C40.0021 29.3672 39.8641 30.0583 39.5941 30.7028C39.324 31.3474 38.9273 31.9325 38.4269 32.4244L35.3681 35.4482C34.87 35.9423 34.278 36.3341 33.6261 36.601C32.9742 36.8679 32.2753 37.0046 31.5697 37.0033H4.73277ZM33.9765 29.3608C33.5307 29.3608 33.1032 29.5358 32.7881 29.8474C32.4729 30.159 32.2958 30.5815 32.2958 31.0222V35.6144L33.0824 35.2821C33.5632 35.0855 33.9997 34.7964 34.3664 34.4314L37.4252 31.411C37.7923 31.0474 38.0835 30.6161 38.2824 30.1416L38.6185 29.3641L33.9765 29.3608ZM4.73277 1.39892C3.8573 1.40068 3.01824 1.74549 2.3995 2.35776C1.78076 2.97004 1.43282 3.79984 1.43193 4.66529V32.3048C1.43282 33.1703 1.78076 34.0001 2.3995 34.6123C3.01824 35.2246 3.8573 35.5694 4.73277 35.5712H30.8538V31.0521C30.8547 30.2328 31.1843 29.4473 31.7704 28.8679C32.3564 28.2886 33.151 27.9627 33.9798 27.9618H38.5681V4.6819C38.5672 3.81645 38.2192 2.98665 37.6005 2.37438C36.9818 1.7621 36.1427 1.4173 35.2672 1.41554L4.73277 1.39892Z" fill="black"></path></svg>