<svg xmlns="http://www.w3.org/2000/svg" width="32" height="32" viewBox="0 0 32 32" fill="none"><path d="M30.4011 4.26797H27.2002V5.33497H30.4011C30.5422 5.33497 30.6775 5.391 30.7772 5.49075C30.877 5.59049 30.933 5.72577 30.933 5.86683V22.4003C30.933 22.5417 30.8771 22.6773 30.7774 22.7776C30.6778 22.8778 30.5425 22.9346 30.4011 22.9355H1.60213C1.46047 22.9346 1.32486 22.8779 1.22469 22.7778C1.12451 22.6776 1.06786 22.542 1.06699 22.4003V5.86683C1.06786 5.72547 1.12463 5.59019 1.22489 5.49055C1.32515 5.3909 1.46077 5.33497 1.60213 5.33497H4.79984V4.26797H1.60213C1.17779 4.26797 0.770778 4.43632 0.470413 4.73607C0.170049 5.03582 0.000869558 5.44248 0 5.86683V22.4003C0.000869558 22.8247 0.170049 23.2313 0.470413 23.5311C0.770778 23.8308 1.17779 23.9992 1.60213 23.9992H12.8007V28.8023H11.7238C11.5828 28.8023 11.4475 28.8583 11.3477 28.9581C11.248 29.0578 11.192 29.1931 11.192 29.3341V31.4681C11.1937 31.6084 11.2504 31.7423 11.3498 31.8412C11.4493 31.94 11.5836 31.9959 11.7238 31.9967H20.2598C20.4011 31.9967 20.5368 31.9408 20.637 31.8411C20.7373 31.7415 20.794 31.6062 20.7949 31.4649V29.3309C20.7945 29.261 20.7803 29.1919 20.7532 29.1276C20.726 29.0632 20.6865 29.0048 20.6368 28.9557C20.5871 28.9067 20.5282 28.8678 20.4636 28.8415C20.3989 28.8152 20.3296 28.8019 20.2598 28.8023H19.2026V23.9992H30.4011C30.8252 23.9992 31.2319 23.8307 31.5317 23.5309C31.8315 23.231 32 22.8244 32 22.4003V5.86683C32 5.44278 31.8315 5.03611 31.5317 4.73627C31.2319 4.43642 30.8252 4.26797 30.4011 4.26797V4.26797ZM19.7345 30.933H12.2688V29.866H19.7345V30.933ZM18.1356 28.8023H13.8677V23.9992H15.4665V26.1332C15.4607 26.2067 15.4702 26.2807 15.4944 26.3504C15.5186 26.4202 15.557 26.4841 15.6071 26.5383C15.6572 26.5925 15.7179 26.6358 15.7856 26.6653C15.8532 26.6949 15.9262 26.7102 16 26.7102C16.0738 26.7102 16.1468 26.6949 16.2144 26.6653C16.2821 26.6358 16.3428 26.5925 16.3929 26.5383C16.443 26.4841 16.4814 26.4202 16.5056 26.3504C16.5298 26.2807 16.5393 26.2067 16.5335 26.1332V23.9992H18.1356V28.8023Z" fill="black"></path><path d="M5.8537 17.0686V18.1356H26.1693V17.0686H26.1496V4.79984C26.151 4.71762 26.1318 4.63636 26.0938 4.56346L23.9598 0.295478C23.9161 0.206565 23.8483 0.131719 23.7641 0.079476C23.68 0.0272325 23.5828 -0.000305399 23.4837 2.55483e-06H8.53596C8.43658 0.000218244 8.33919 0.0279364 8.25459 0.0800875C8.16999 0.132239 8.10148 0.206787 8.05663 0.295478L5.92264 4.56346C5.88606 4.63689 5.86695 4.71779 5.86683 4.79984V17.0686H5.8537ZM19.2026 17.0686V10.6568H22.4003V17.0588L19.2026 17.0686ZM21.8685 6.38884C21.8685 6.67182 21.7561 6.94322 21.556 7.14332C21.3559 7.34342 21.0845 7.45584 20.8015 7.45584C20.5185 7.45584 20.2471 7.34342 20.047 7.14332C19.8469 6.94322 19.7345 6.67182 19.7345 6.38884V5.33498H21.8685V6.38884ZM18.6675 6.38884C18.6675 6.67182 18.5551 6.94322 18.355 7.14332C18.1549 7.34342 17.8835 7.45584 17.6005 7.45584C17.3175 7.45584 17.0461 7.34342 16.846 7.14332C16.6459 6.94322 16.5335 6.67182 16.5335 6.38884V5.33498H18.6675V6.38884ZM15.4665 6.38884C15.4745 6.53372 15.453 6.67872 15.4031 6.81497C15.3532 6.95122 15.276 7.07586 15.1763 7.18127C15.0765 7.28668 14.9564 7.37064 14.8231 7.42802C14.6898 7.4854 14.5463 7.515 14.4011 7.515C14.256 7.515 14.1125 7.4854 13.9792 7.42802C13.8459 7.37064 13.7258 7.28668 13.626 7.18127C13.5263 7.07586 13.4491 6.95122 13.3992 6.81497C13.3493 6.67872 13.3277 6.53372 13.3358 6.38884V5.33498H15.4665V6.38884ZM12.2688 6.38884C12.2688 6.67182 12.1564 6.94322 11.9563 7.14332C11.7562 7.34342 11.4848 7.45584 11.2018 7.45584C10.9188 7.45584 10.6474 7.34342 10.4473 7.14332C10.2472 6.94322 10.1348 6.67182 10.1348 6.38884V5.33498H12.2688V6.38884ZM6.93383 5.33498H9.06782V6.38884C9.06782 6.67182 8.9554 6.94322 8.7553 7.14332C8.5552 7.34342 8.28381 7.45584 8.00082 7.45584C7.71784 7.45584 7.44644 7.34342 7.24634 7.14332C7.04624 6.94322 6.93383 6.67182 6.93383 6.38884V5.33498ZM18.871 4.26798H16.8651L18.4639 1.067H20.4699L18.871 4.26798ZM15.6701 4.26798H13.6641L15.263 1.067H17.2722L15.6701 4.26798ZM12.4723 4.26798H10.4631L12.0521 1.067H14.0581L12.4723 4.26798ZM22.9355 5.33498H25.0662V6.38884C25.0742 6.53372 25.0526 6.67872 25.0027 6.81497C24.9528 6.95122 24.8757 7.07586 24.7759 7.18127C24.6762 7.28668 24.556 7.37064 24.4228 7.42802C24.2895 7.4854 24.1459 7.515 24.0008 7.515C23.8557 7.515 23.7121 7.4854 23.5789 7.42802C23.4456 7.37064 23.3254 7.28668 23.2257 7.18127C23.126 7.07586 23.0488 6.95122 22.9989 6.81497C22.949 6.67872 22.9274 6.53372 22.9355 6.38884V5.33498ZM23.2638 4.26798L24.0025 2.79389L24.7379 4.26798H23.2638ZM23.4049 1.60214L22.072 4.26798H20.0628L21.6649 1.067H23.139L23.4049 1.60214ZM8.86427 1.067H10.8702L9.27136 4.26798H7.26541L8.86427 1.067ZM6.93383 8.24705C7.36001 8.4942 7.85876 8.58578 8.34495 8.50614C8.83113 8.42651 9.2746 8.18061 9.59967 7.81041C9.7844 8.02061 10.0087 8.19236 10.2598 8.31585C10.511 8.43935 10.7839 8.51217 11.0632 8.53016C11.3425 8.54814 11.6225 8.51094 11.8874 8.42068C12.1523 8.33042 12.3968 8.18887 12.607 8.00411C12.6764 7.94456 12.7411 7.8798 12.8007 7.81041C12.9851 8.0205 13.2091 8.19218 13.46 8.31563C13.7108 8.43908 13.9835 8.51189 14.2625 8.52988C14.5415 8.54787 14.8213 8.51069 15.0859 8.42047C15.3505 8.33026 15.5948 8.18877 15.8047 8.00411C15.8743 7.94375 15.9401 7.87906 16.0016 7.81041C16.1861 8.0205 16.4101 8.19218 16.661 8.31563C16.9118 8.43908 17.1845 8.51189 17.4635 8.52988C17.7425 8.54787 18.0223 8.51069 18.2869 8.42047C18.5515 8.33026 18.7957 8.18877 19.0056 8.00411C19.0753 7.94375 19.1411 7.87906 19.2026 7.81041C19.3871 8.0205 19.6111 8.19218 19.8619 8.31563C20.1128 8.43908 20.3855 8.51189 20.6645 8.52988C20.9435 8.54787 21.2233 8.51069 21.4879 8.42047C21.7525 8.33026 21.9967 8.18877 22.2066 8.00411C22.276 7.94456 22.3408 7.8798 22.4003 7.81041C22.7254 8.18061 23.1689 8.42651 23.6551 8.50614C24.1412 8.58578 24.64 8.4942 25.0662 8.24705V17.0686H23.4673V10.1348C23.4673 9.99345 23.4114 9.85783 23.3117 9.75757C23.2121 9.6573 23.0768 9.60054 22.9355 9.59967H18.6675C18.5974 9.59967 18.5279 9.61354 18.4632 9.64047C18.3984 9.66741 18.3397 9.70688 18.2902 9.75661C18.2408 9.80635 18.2017 9.86536 18.1752 9.93027C18.1486 9.99518 18.1352 10.0647 18.1356 10.1348V17.0686H6.93383V8.24705Z" fill="black"></path><path d="M15.9918 9.59967H9.06782C8.99769 9.59967 8.92826 9.61353 8.86352 9.64047C8.79878 9.6674 8.74 9.70687 8.69057 9.75661C8.64114 9.80634 8.60203 9.86536 8.5755 9.93027C8.54896 9.99518 8.53553 10.0647 8.53596 10.1348V14.9248C8.53552 14.9948 8.54898 15.0641 8.57556 15.1288C8.60213 15.1936 8.64129 15.2524 8.69077 15.3018C8.74024 15.3513 8.79904 15.3905 8.86377 15.4171C8.92849 15.4436 8.99785 15.4571 9.06782 15.4567H15.9918C16.0626 15.4584 16.133 15.4459 16.1989 15.42C16.2647 15.394 16.3247 15.355 16.3752 15.3054C16.4258 15.2558 16.4658 15.1965 16.493 15.1312C16.5202 15.0658 16.534 14.9956 16.5335 14.9248V10.1348C16.5339 10.0639 16.5202 9.99352 16.493 9.92796C16.4659 9.8624 16.4259 9.80294 16.3754 9.75307C16.325 9.7032 16.265 9.66394 16.1991 9.6376C16.1332 9.61125 16.0627 9.59835 15.9918 9.59967V9.59967ZM15.4665 14.3995H9.59967V10.6568H15.4665V14.3995Z" fill="black"></path><path d="M11.2019 19.7344H11.1986C10.9049 19.7344 10.6667 19.9726 10.6667 20.2663V20.2696C10.6667 20.5633 10.9049 20.8014 11.1986 20.8014H11.2019C11.4956 20.8014 11.7337 20.5633 11.7337 20.2696V20.2663C11.7337 19.9726 11.4956 19.7344 11.2019 19.7344Z" fill="black"></path><path d="M14.4029 19.7344H14.3996C14.1059 19.7344 13.8677 19.9726 13.8677 20.2663V20.2696C13.8677 20.5633 14.1059 20.8014 14.3996 20.8014H14.4029C14.6966 20.8014 14.9347 20.5633 14.9347 20.2696V20.2663C14.9347 19.9726 14.6966 19.7344 14.4029 19.7344Z" fill="black"></path><path d="M17.6006 19.7344H17.5973C17.3036 19.7344 17.0655 19.9726 17.0655 20.2663V20.2696C17.0655 20.5633 17.3036 20.8014 17.5973 20.8014H17.6006C17.8944 20.8014 18.1325 20.5633 18.1325 20.2696V20.2663C18.1325 19.9726 17.8944 19.7344 17.6006 19.7344Z" fill="black"></path><path d="M20.8016 19.7344H20.7983C20.5046 19.7344 20.2665 19.9726 20.2665 20.2663V20.2696C20.2665 20.5633 20.5046 20.8014 20.7983 20.8014H20.8016C21.0954 20.8014 21.3335 20.5633 21.3335 20.2696V20.2663C21.3335 19.9726 21.0954 19.7344 20.8016 19.7344Z" fill="black"></path><path d="M20.2665 14.3996C20.5602 14.3996 20.7983 14.1614 20.7983 13.8677C20.7983 13.574 20.5602 13.3358 20.2665 13.3358C19.9727 13.3358 19.7346 13.574 19.7346 13.8677C19.7346 14.1614 19.9727 14.3996 20.2665 14.3996Z" fill="black"></path></svg>