<svg xmlns="http://www.w3.org/2000/svg" width="60" height="54" viewBox="0 0 60 54" fill="none"><path d="M16.5221 28.742C16.0671 28.742 15.6308 28.5664 15.3091 28.254C14.9874 27.9415 14.8066 27.5177 14.8066 27.0759C14.8066 26.634 14.9874 26.2102 15.3091 25.8977C15.6308 25.5853 16.0671 25.4097 16.5221 25.4097H49.8434C50.6476 25.4103 51.4437 25.2531 52.1839 24.9476C52.9241 24.642 53.5931 24.1944 54.1508 23.6316C54.7085 23.0688 55.1435 22.4023 55.4295 21.6722C55.7156 20.9421 55.8468 20.1635 55.8155 19.3829C55.7531 17.9235 55.1286 16.5402 54.0656 15.507C53.0026 14.4738 51.5787 13.8661 50.0762 13.8045H49.8476C48.6218 13.8066 47.4262 14.1738 46.4219 14.8564C45.4177 15.539 44.6531 16.5044 44.2312 17.6222C44.1161 17.9574 43.8965 18.2496 43.6028 18.4582C43.3091 18.6668 42.9558 18.7815 42.592 18.7864C42.3136 18.7872 42.0391 18.7226 41.792 18.5979C41.5448 18.4733 41.3325 18.2923 41.1731 18.0706C41.0194 17.8641 40.9193 17.6247 40.8809 17.3726C40.8426 17.1206 40.8673 16.8633 40.9529 16.6225C41.5891 14.8222 42.7881 13.2599 44.3827 12.1536C45.9774 11.0473 47.888 10.4523 49.8476 10.4517C50.0467 10.4517 50.2711 10.4517 50.449 10.4517C52.8814 10.6103 55.1554 11.6799 56.7918 13.435C58.4282 15.1901 59.2992 17.4937 59.2212 19.8603C59.1432 22.2269 58.1223 24.4717 56.3737 26.1216C54.6252 27.7716 52.2855 28.6977 49.8476 28.7049H16.5263L16.5221 28.742Z" fill="white"></path><path d="M42.0877 54C41.6352 53.9891 41.2049 53.8033 40.888 53.4821C40.5712 53.1609 40.3927 52.7296 40.3906 52.2798C40.3867 51.9374 40.4877 51.602 40.6801 51.3181C40.8726 51.0342 41.1475 50.8152 41.4683 50.6903C42.599 50.2936 43.5782 49.5584 44.2712 48.5859C44.9641 47.6134 45.3367 46.4513 45.3376 45.2597V45.0741C45.3365 43.4974 44.706 41.9855 43.5845 40.8701C42.463 39.7548 40.9421 39.1272 39.3555 39.1249H11.2989C10.8431 39.1249 10.4061 38.945 10.0839 38.6248C9.76162 38.3046 9.58057 37.8702 9.58057 37.4173C9.58057 36.9644 9.76162 36.5301 10.0839 36.2099C10.4061 35.8896 10.8431 35.7097 11.2989 35.7097H39.3512C41.8496 35.7119 44.2451 36.6993 46.0117 38.455C47.7784 40.2107 48.7719 42.5912 48.7741 45.0741V45.2597C48.7724 47.1518 48.183 48.9974 47.0866 50.5443C45.9901 52.0913 44.44 53.2642 42.6478 53.9031C42.4692 53.966 42.2814 53.9988 42.0919 54H42.0877Z" fill="white"></path><path d="M1.74368 28.7419C1.28123 28.7419 0.837627 28.5584 0.510627 28.2317C0.183628 27.905 0 27.462 0 27C0 26.538 0.183628 26.0949 0.510627 25.7683C0.837627 25.4416 1.28123 25.2581 1.74368 25.2581H6.966C7.42844 25.2581 7.87195 25.4416 8.19895 25.7683C8.52594 26.0949 8.70968 26.538 8.70968 27C8.70968 27.462 8.52594 27.905 8.19895 28.2317C7.87195 28.5584 7.42844 28.7419 6.966 28.7419H1.74368Z" fill="white"></path><path d="M6.85706 19.1613C6.41714 19.139 6.00247 18.9451 5.69884 18.6196C5.39521 18.2942 5.22583 17.8621 5.22583 17.4129C5.22583 16.9636 5.39521 16.5316 5.69884 16.2062C6.00247 15.8807 6.41714 15.6868 6.85706 15.6645H24.5659C26.1506 15.6622 27.6697 15.0191 28.7903 13.8763C29.9108 12.7334 30.5413 11.184 30.5436 9.56771V9.42544C30.5413 7.85532 29.9285 6.3502 28.8396 5.24036C27.7506 4.13051 26.2745 3.50657 24.735 3.50543H24.642C23.4305 3.54043 22.2596 3.95891 21.2916 4.70287C20.3235 5.44682 19.6063 6.47943 19.2393 7.65762C19.123 7.98741 18.9094 8.27232 18.6277 8.4731C18.3461 8.67387 18.0103 8.78063 17.6667 8.77868C17.3926 8.7817 17.1218 8.7177 16.8769 8.59205C16.632 8.46639 16.4201 8.28271 16.259 8.05642C16.098 7.83013 15.9925 7.5678 15.9513 7.29137C15.9101 7.01494 15.9344 6.73246 16.0222 6.46758C16.631 4.59695 17.7984 2.9675 19.3609 1.80766C20.9234 0.647826 22.8026 0.0157357 24.735 0C24.9506 0 25.1578 -1.05209e-06 25.3988 0.0258693C27.7241 0.202875 29.8983 1.26834 31.4869 3.00931C33.0755 4.75028 33.9615 7.03853 33.9678 9.41681V9.5591C33.9655 12.102 32.9745 14.5402 31.2119 16.3387C29.4493 18.1373 27.0591 19.1493 24.5659 19.1527L6.85706 19.1613Z" fill="white"></path></svg>