<svg xmlns="http://www.w3.org/2000/svg" width="46" height="52" viewBox="0 0 46 52" fill="none"><path d="M0.0102503 51.2987V44.1811C0.0102503 44.008 0.0796028 43.8419 0.203039 43.7195C0.326474 43.5971 0.493884 43.5284 0.668449 43.5284H4.31305C4.71217 43.5284 5.03076 43.5006 5.31785 43.5006C6.01821 43.5311 6.71378 43.3725 7.33037 43.0417C7.94697 42.7109 8.46145 42.2203 8.8189 41.6223C9.17132 41.1637 9.38719 40.6164 9.44207 40.0425C9.46308 38.3933 9.46308 36.7198 9.44207 35.0984C9.44207 33.2443 9.44208 31.3312 9.47009 29.4494C9.49824 28.702 9.56837 27.9566 9.68014 27.2169C9.75016 26.6788 9.82369 26.1198 9.86571 25.5608C9.89447 25.06 9.73757 24.5661 9.42457 24.172C8.02415 22.5124 6.62374 20.8354 5.24782 19.214C4.1555 17.9224 3.02466 16.5857 1.91833 15.2663C-0.182303 12.7839 -0.549916 10.1174 0.77698 7.34323C2.10388 4.56911 4.39007 3.17684 7.61103 3.17684C11.2206 3.17684 15.1663 3.17684 20.0187 3.17684H37.5555V0.399245C37.5564 0.29363 37.5991 0.192592 37.6744 0.117909C37.7497 0.043225 37.8516 0.000906615 37.9581 0H45.5624C45.6689 0.000906615 45.7707 0.043225 45.8461 0.117909C45.9214 0.192592 45.9641 0.29363 45.965 0.399245C45.965 1.52764 45.965 2.65604 45.965 3.78096C45.965 6.50648 45.944 9.33615 46 12.1137C45.9728 13.3587 45.7761 14.5944 45.4153 15.7871C45.3138 16.1899 45.2123 16.603 45.1177 17.0197C45.0057 17.5266 44.8727 18.0404 44.7396 18.5404C44.6066 19.0404 44.4946 19.4779 44.3895 19.9501L44.3615 20.075C44.2005 20.8042 44.1199 20.8667 43.9309 20.8667H42.8246V23.4255C42.8236 23.5373 42.7782 23.6441 42.6982 23.7228C42.6182 23.8015 42.5101 23.8456 42.3974 23.8456H41.1651C41.0527 23.8456 40.945 23.8014 40.8655 23.7226C40.7861 23.6438 40.7414 23.5369 40.7414 23.4255V20.8667L39.6491 20.8875C39.4496 20.8875 39.3725 20.8493 39.208 20.1028C39.208 20.0334 39.1765 19.9605 39.159 19.891C38.9734 19.0925 38.7633 18.2904 38.5603 17.5127C38.3397 16.6655 38.1121 15.7767 37.9126 14.9191C37.769 14.2942 37.678 13.6519 37.5625 12.9748C37.517 12.6589 37.4715 12.3395 37.4189 12.0131L37.3524 11.586H17.8516L18.5518 12.4193L19.217 13.2109C19.8472 13.9609 20.4424 14.6726 21.0831 15.3566C21.2017 15.4632 21.3414 15.5441 21.4933 15.5943C21.6452 15.6445 21.8059 15.6629 21.9653 15.6483C22.0599 15.6483 22.1544 15.6483 22.2419 15.6483H22.3469H22.8231C29.3455 15.6483 34.7266 19.8459 36.1901 26.0955C36.4249 27.1818 36.5423 28.2898 36.5402 29.4008C36.5787 32.5256 36.5787 35.8518 36.5402 39.9036C36.5487 40.6218 36.8242 41.3117 37.3139 41.8409C37.7237 42.4068 38.2685 42.8632 38.8996 43.1692C39.5307 43.4752 40.2285 43.6212 40.9305 43.5943H45.3383C45.4247 43.5934 45.5104 43.6095 45.5905 43.6418C45.6705 43.674 45.7433 43.7218 45.8046 43.7822C45.8658 43.8426 45.9143 43.9146 45.9473 43.9938C45.9802 44.073 45.997 44.1579 45.9965 44.2436V51.3507C45.9956 51.5233 45.9258 51.6884 45.8025 51.8101C45.6792 51.9317 45.5123 52 45.3383 52H0.668449C0.577729 52.0003 0.487944 51.9819 0.404716 51.9461C0.321488 51.9103 0.246617 51.8578 0.184811 51.792C0.123005 51.7261 0.0755902 51.6483 0.0455514 51.5634C0.0155125 51.4785 0.0034942 51.3884 0.0102503 51.2987ZM2.24392 49.7849H43.7558V45.5942H41.5117C41.1616 45.5942 40.7905 45.6185 40.4368 45.6428C40.0832 45.6671 39.7576 45.6879 39.4355 45.6879C39.0304 45.7045 38.626 45.642 38.2452 45.5039C37.587 45.2366 37.0058 44.5665 36.4456 43.9172C36.2531 43.695 36.0535 43.4659 35.8505 43.2506C35.6184 42.9969 35.3318 42.798 35.0118 42.6688C34.6919 42.5396 34.3467 42.4834 34.0019 42.5041C32.4194 42.5041 30.851 42.5041 29.2755 42.5284C27.1749 42.5284 25.0217 42.5562 22.8931 42.5562C19.6511 42.5562 16.9833 42.5215 14.4906 42.4555H14.074C11.3992 42.4555 9.62412 43.2714 8.32173 45.0977C8.17821 45.2468 8.00613 45.366 7.81555 45.4483C7.62497 45.5305 7.41974 45.5742 7.21191 45.5768C6.64124 45.5768 6.01455 45.615 5.24432 45.615H4.00496H2.74457H2.24742L2.24392 49.7849ZM22.9736 17.7141C22.5409 17.7147 22.1085 17.7379 21.6782 17.7835C18.8878 18.1024 16.3133 19.4284 14.4453 21.5088C12.5774 23.5892 11.5467 26.2785 11.5497 29.064C11.5497 31.1125 11.5497 33.1957 11.5497 35.2094C11.5497 36.1295 11.5497 37.0531 11.5497 37.987V40.3688H34.394L34.4255 39.8932C34.4255 39.8272 34.4255 39.7647 34.4255 39.7022C34.4255 39.5738 34.4465 39.4522 34.4465 39.3238C34.4465 38.5252 34.4465 37.7232 34.4465 36.9246C34.4465 34.2686 34.4465 31.5188 34.4465 28.8175C34.4392 28.0813 34.3523 27.348 34.1875 26.6302C33.6303 24.0953 32.2127 21.8269 30.1716 20.2041C28.1306 18.5812 25.5897 17.7023 22.9736 17.7141ZM7.56902 5.27394C7.02 5.27751 6.47425 5.35818 5.94803 5.51353C5.11924 5.73647 4.36062 6.16329 3.74249 6.75445C3.12435 7.34561 2.66669 8.08196 2.41196 8.89524C2.15925 9.73569 2.12102 10.6252 2.30068 11.4839C2.48033 12.3427 2.87226 13.1437 3.44127 13.815C4.84169 15.551 6.32615 17.2558 7.74758 18.9224L9.54011 21.0298C9.75367 21.2868 9.97423 21.5367 10.2053 21.8041L11.0035 22.7277L11.3537 22.1478C12.9846 19.5228 15.4471 17.5081 18.3557 16.419L19.0209 16.1586L18.5588 15.6205C17.8061 14.7386 17.0673 13.8602 16.3321 12.9922C14.5186 10.843 12.8031 8.82579 10.9965 6.79815C10.5692 6.3111 10.0399 5.92237 9.44551 5.65911C8.8511 5.39586 8.20592 5.26442 7.555 5.27394H7.56902ZM40.1848 15.2629C40.2443 15.5129 40.3038 15.7524 40.3633 15.992C40.5314 16.6864 40.6889 17.3113 40.8745 17.9502C40.9469 18.1301 41.0648 18.2885 41.2169 18.4101C41.369 18.5317 41.5501 18.6125 41.7427 18.6446H41.8093C42.0069 18.6253 42.1945 18.5494 42.3493 18.4261C42.5042 18.3027 42.6194 18.1374 42.681 17.9502C42.8666 17.2801 43.0311 16.6204 43.1922 15.9191C43.2482 15.6934 43.3007 15.4608 43.3567 15.2247L43.4512 14.8393C43.4581 14.8109 43.4584 14.7812 43.4521 14.7527C43.4458 14.7241 43.4331 14.6973 43.4149 14.6743C43.3968 14.6513 43.3736 14.6326 43.3472 14.6197C43.3207 14.6068 43.2917 14.5999 43.2622 14.5997H40.2548C40.2253 14.5999 40.1963 14.6068 40.1698 14.6197C40.1434 14.6326 40.1202 14.6513 40.102 14.6743C40.0839 14.6973 40.0712 14.7241 40.0649 14.7527C40.0586 14.7812 40.0589 14.8109 40.0657 14.8393L40.1848 15.2629ZM40.2303 12.4853H43.3427C43.4616 12.4853 43.5756 12.4385 43.6596 12.3551C43.7436 12.2718 43.7908 12.1587 43.7908 12.0408V2.60052C43.7913 2.54187 43.78 2.4837 43.7577 2.42938C43.7354 2.37506 43.7025 2.32564 43.6608 2.28401C43.6192 2.24237 43.5696 2.20933 43.515 2.18678C43.4604 2.16423 43.4019 2.15262 43.3427 2.15262H40.2303C40.1711 2.15262 40.1126 2.16423 40.058 2.18678C40.0034 2.20933 39.9538 2.24237 39.9122 2.28401C39.8705 2.32564 39.8376 2.37506 39.8153 2.42938C39.7929 2.4837 39.7817 2.54187 39.7822 2.60052V12.0408C39.7821 12.1563 39.8274 12.2673 39.9084 12.3503C39.9895 12.4332 40.0999 12.4817 40.2163 12.4853H40.2303ZM13.3177 6.19402L13.9724 6.95784C14.4486 7.50989 14.9002 8.03417 15.3133 8.57581C15.5105 8.85038 15.7742 9.07127 16.0801 9.21812C16.3861 9.36496 16.7244 9.43305 17.0639 9.41604C20.9465 9.41604 24.7346 9.41604 27.9171 9.41604H37.538V5.37464H12.6035L13.3177 6.19402Z" fill="white"></path><path d="M7.14669 10.1402C7.19295 10.0943 7.24809 10.0582 7.30875 10.0341C7.36941 10.01 7.43433 9.9985 7.4996 10.0002C7.56487 10.0018 7.62913 10.0167 7.68848 10.0438C7.74783 10.0709 7.80104 10.1098 7.84489 10.158L7.87517 10.19C7.95851 10.282 8.00314 10.4025 7.99983 10.5264C7.99651 10.6504 7.9455 10.7683 7.85736 10.8558C7.81258 10.9015 7.7591 10.9377 7.70007 10.9625C7.64103 10.9872 7.57764 11 7.5136 11C7.44956 11 7.38616 10.9872 7.32713 10.9625C7.2681 10.9377 7.21463 10.9015 7.16984 10.8558L7.13956 10.8256C7.09468 10.7803 7.05925 10.7265 7.0353 10.6674C7.01135 10.6084 6.99936 10.5452 7.00003 10.4815C7.00069 10.4178 7.01399 10.3548 7.03916 10.2962C7.06433 10.2377 7.10088 10.1846 7.14669 10.1402Z" fill="white"></path></svg>