<svg xmlns="http://www.w3.org/2000/svg" width="38" height="43" viewBox="0 0 38 43" fill="none"><path d="M5.80704 43C4.75732 43.0088 3.72543 42.7309 2.82461 42.1969C1.92379 41.6628 1.18885 40.8932 0.700433 39.9725C-0.3294 38.0751 -0.218757 35.8656 0.989808 34.061L12.701 16.6552V2.36125H11.3392C11.0232 2.36125 10.7201 2.23686 10.4967 2.01545C10.2732 1.79404 10.1477 1.49374 10.1477 1.18062C10.1477 0.867502 10.2732 0.567206 10.4967 0.345796C10.7201 0.124387 11.0232 0 11.3392 0H26.659C26.9751 0 27.2781 0.124387 27.5016 0.345796C27.725 0.567206 27.8506 0.867502 27.8506 1.18062C27.8506 1.49374 27.725 1.79404 27.5016 2.01545C27.2781 2.23686 26.9751 2.36125 26.659 2.36125H25.2973V16.6552C25.2973 16.6552 36.302 33.0237 37.0084 34.061C37.5924 34.9257 37.9283 35.9314 37.9804 36.9706C38.0324 38.0097 37.7987 39.0434 37.3041 39.9612C36.8095 40.879 36.0726 41.6465 35.1721 42.1817C34.2716 42.7169 33.2413 42.9997 32.1912 43H5.80704ZM15.9607 25.999C13.3904 25.999 10.9647 26.4628 8.3178 27.4579L8.29226 27.4664L2.97288 35.3765C2.62843 35.8847 2.43005 36.4763 2.39902 37.0877C2.36799 37.6991 2.50546 38.3073 2.79671 38.8472C3.08796 39.3871 3.522 39.8383 4.05231 40.1524C4.58262 40.4665 5.1892 40.6317 5.80704 40.6303H32.1912C32.809 40.6317 33.4156 40.4665 33.9459 40.1524C34.4762 39.8383 34.9103 39.3871 35.2015 38.8472C35.4928 38.3073 35.6303 37.6991 35.5992 37.0877C35.5682 36.4763 35.3698 35.8847 35.0254 35.3765L29.8507 27.6856H29.8081C27.2037 27.635 24.9143 27.2134 22.7099 26.8086C20.446 26.3869 18.3182 25.999 15.9607 25.999ZM16.3011 23.6378C18.8204 23.6378 20.9737 24.0594 23.0589 24.4642C24.6334 24.7678 26.259 25.0882 28.0378 25.2232L28.208 25.24L23.1185 17.6672C23.1035 17.6432 23.0864 17.6206 23.0674 17.5997C22.8972 17.3805 22.8972 17.2624 22.9142 10.9123C22.9142 8.87154 22.9227 6.08021 22.9227 2.43714V2.35281H15.0926V2.43714C15.0926 6.07178 15.1011 8.8631 15.1011 10.9039C15.1096 17.254 15.1096 17.3805 14.9394 17.5997C14.9203 17.6206 14.9032 17.6432 14.8883 17.6672L10.386 24.363L10.5987 24.3124C12.5903 23.8654 14.4542 23.6378 16.3011 23.6378Z" fill="white"></path></svg>