<svg xmlns="http://www.w3.org/2000/svg" width="55" height="54" viewBox="0 0 55 54" fill="none"><path d="M33.1137 30.1145C33.4089 30.1088 33.6905 29.9889 33.8992 29.7801C34.108 29.5713 34.2278 29.2897 34.2336 28.9945C34.2336 28.3914 34.4731 27.8131 34.8994 27.3867C35.3257 26.9603 35.904 26.7207 36.5069 26.7207C37.1098 26.7207 37.688 26.9603 38.1144 27.3867C38.5407 27.8131 38.7802 28.3914 38.7802 28.9945C38.7802 29.296 38.9 29.5851 39.1131 29.7983C39.3263 30.0115 39.6154 30.1313 39.9169 30.1313C40.2183 30.1313 40.5074 30.0115 40.7206 29.7983C40.9338 29.5851 41.0535 29.296 41.0535 28.9945C41.0535 27.7884 40.5745 26.6317 39.7218 25.7789C38.8692 24.9261 37.7127 24.447 36.5069 24.447C35.301 24.447 34.1446 24.9261 33.2919 25.7789C32.4393 26.6317 31.9603 27.7884 31.9603 28.9945C31.9602 29.1444 31.9902 29.2929 32.0486 29.431C32.107 29.5691 32.1925 29.6941 32.3 29.7986C32.4076 29.903 32.5351 29.9848 32.6748 30.0391C32.8146 30.0934 32.9638 30.119 33.1137 30.1145Z" fill="white"></path><path d="M14.9251 30.1146C15.2221 30.1146 15.507 29.9966 15.717 29.7865C15.927 29.5765 16.045 29.2916 16.045 28.9946C16.0688 28.407 16.3189 27.8514 16.743 27.4441C17.1671 27.0367 17.7322 26.8093 18.3202 26.8093C18.9081 26.8093 19.4733 27.0367 19.8973 27.4441C20.3214 27.8514 20.5715 28.407 20.5953 28.9946C20.5953 29.2961 20.7151 29.5852 20.9283 29.7984C21.1414 30.0116 21.4305 30.1314 21.732 30.1314C22.0335 30.1314 22.3226 30.0116 22.5357 29.7984C22.7489 29.5852 22.8687 29.2961 22.8687 28.9946C22.8347 27.8106 22.3407 26.6864 21.4914 25.861C20.642 25.0355 19.5044 24.5737 18.3202 24.5737C17.1359 24.5737 15.9983 25.0355 15.149 25.861C14.2997 26.6864 13.8056 27.8106 13.7717 28.9946C13.7776 29.2956 13.902 29.5822 14.118 29.7919C14.334 30.0017 14.6241 30.1176 14.9251 30.1146Z" fill="white"></path><path d="M49.5642 24.3053C48.7397 21.1841 47.2658 18.2722 45.239 15.7599C43.2121 13.2475 40.6778 11.1914 37.8019 9.72588V9.65494C37.7964 7.29211 36.8858 5.02123 35.2573 3.30944C33.6289 1.59765 31.4065 0.57512 29.0473 0.452212C26.688 0.329304 24.3714 1.11535 22.574 2.64866C20.7765 4.18197 19.6349 6.34595 19.384 8.69542C15.9632 9.98567 12.9003 12.0753 10.451 14.7901C8.00164 17.5048 6.2368 20.766 5.30367 24.3015C3.85531 24.4341 2.50879 25.1033 1.52835 26.1777C0.547903 27.2522 0.0043335 28.6544 0.0043335 30.1091C0.0043335 31.5637 0.547903 32.9659 1.52835 34.0403C2.50879 35.1148 3.85531 35.784 5.30367 35.9165C6.58422 40.8133 9.45166 45.1474 13.4573 48.2407C17.4629 51.3339 22.3808 53.0118 27.4414 53.0118C32.502 53.0118 37.4199 51.3339 41.4255 48.2407C45.4311 45.1474 48.2986 40.8133 49.5791 35.9165C51.0235 35.7793 52.3649 35.1083 53.3412 34.0348C54.3175 32.9612 54.8584 31.5621 54.8584 30.1109C54.8584 28.6597 54.3175 27.2606 53.3412 26.187C52.3649 25.1135 51.0235 24.4425 49.5791 24.3053H49.5642ZM50.3107 30.1221C50.3094 29.0906 50.2395 28.0604 50.1017 27.0382C50.7459 27.2557 51.305 27.6708 51.6998 28.2244C52.0945 28.7781 52.3047 29.4421 52.3004 30.1221C52.2979 30.8014 52.0848 31.4633 51.6903 32.0164C51.2958 32.5694 50.7394 32.9864 50.098 33.2097C50.2404 32.1841 50.3127 31.1501 50.3145 30.1147L50.3107 30.1221ZM22.1389 7.85538C22.5458 6.38919 23.4417 5.10619 24.6778 4.21916C25.9139 3.33214 27.4161 2.89438 28.9351 2.97849C30.4542 3.06261 31.8988 3.66355 33.0295 4.68164C34.1602 5.69973 34.9089 7.07379 35.1516 8.57595C30.9763 7.07563 26.4543 6.82523 22.1389 7.85538ZM21.243 10.7526C25.7653 9.30054 30.6539 9.48423 35.0545 11.2715C34.777 12.389 34.2151 13.4156 33.4237 14.2517C32.6322 15.0877 31.6379 15.7049 30.5375 16.043C29.4371 16.3812 28.2679 16.429 27.1436 16.1817C26.0193 15.9344 24.978 15.4004 24.121 14.6317C23.8686 14.4055 23.5366 14.2888 23.1981 14.3074C22.8596 14.3259 22.5424 14.4782 22.3162 14.7307C22.09 14.9832 21.9733 15.3152 21.9918 15.6537C22.0104 15.9923 22.1626 16.3095 22.4151 16.5358C23.5674 17.5681 24.9606 18.2944 26.4666 18.6479C27.9727 19.0015 29.5434 18.9709 31.0346 18.5592C32.5258 18.1474 33.8897 17.3675 35.001 16.2911C36.1124 15.2148 36.9356 13.8765 37.3951 12.3991C41.4451 14.6803 44.5908 18.2812 46.3077 22.6013C48.0246 26.9214 48.2089 31.6997 46.8299 36.1393C45.4509 40.5789 42.5919 44.4115 38.7297 46.998C34.8675 49.5846 30.2354 50.7687 25.6059 50.353C20.9765 49.9372 16.6294 47.9467 13.2896 44.7135C9.94981 41.4802 7.81916 37.1994 7.25292 32.5852C6.68668 27.9709 7.71909 23.3019 10.178 19.3568C12.6369 15.4116 16.3736 12.4288 20.7652 10.9057C20.9354 10.8876 21.0997 10.8329 21.2467 10.7451L21.243 10.7526ZM4.76243 33.2247C4.11724 33.0032 3.55734 32.5857 3.16095 32.0304C2.76456 31.4752 2.55147 30.8099 2.55147 30.1277C2.55147 29.4454 2.76456 28.7803 3.16095 28.225C3.55734 27.6698 4.11724 27.2523 4.76243 27.0308C4.47872 29.0857 4.47872 31.1698 4.76243 33.2247Z" fill="white"></path><path d="M20.1937 40.2922C19.9824 40.5067 19.864 40.7957 19.864 41.0968C19.864 41.3979 19.9824 41.6869 20.1937 41.9014C22.1145 43.8165 24.7159 44.8919 27.428 44.8919C30.1401 44.8919 32.7416 43.8165 34.6623 41.9014C34.7679 41.7957 34.8517 41.6703 34.9089 41.5322C34.9661 41.3942 34.9955 41.2462 34.9955 41.0968C34.9955 40.9474 34.9661 40.7994 34.9089 40.6614C34.8517 40.5233 34.7679 40.3979 34.6623 40.2922C34.5567 40.1866 34.4313 40.1028 34.2932 40.0456C34.1552 39.9884 34.0073 39.959 33.8579 39.959C33.7085 39.959 33.5605 39.9884 33.4225 40.0456C33.2845 40.1028 33.1591 40.1866 33.0534 40.2922C30.0485 43.279 24.8076 43.279 21.8026 40.2922C21.6982 40.1844 21.5732 40.0987 21.435 40.0402C21.2968 39.9816 21.1483 39.9514 20.9982 39.9514C20.8481 39.9514 20.6995 39.9816 20.5614 40.0402C20.4232 40.0987 20.2982 40.1844 20.1937 40.2922Z" fill="white"></path></svg>