<svg xmlns="http://www.w3.org/2000/svg" width="50" height="37" viewBox="0 0 50 37" fill="none"><path d="M6.68627 37C4.91297 37 3.21229 36.2955 1.95838 35.0416C0.704468 33.7877 2.67953e-05 32.087 2.67953e-05 30.3137V5.24034C-0.00217143 4.55401 0.130904 3.87398 0.391648 3.23911C0.652392 2.60423 1.03569 2.02697 1.51964 1.5403C2.00359 1.05364 2.5787 0.667111 3.21211 0.402818C3.84551 0.138524 4.52479 0.00164368 5.21112 0H9.83716C10.0455 0 10.2454 0.0827722 10.3927 0.230107C10.54 0.377442 10.6228 0.577271 10.6228 0.785634V8.85509H49.1982C49.407 8.85619 49.6068 8.93989 49.754 9.08789C49.9012 9.23589 49.9839 9.43615 49.9839 9.6449V36.2144C49.9828 36.4224 49.8996 36.6216 49.7525 36.7687C49.6054 36.9158 49.4062 36.9989 49.1982 37H6.68627ZM45.2617 34.4425C45.4701 34.4425 45.6699 34.5253 45.8172 34.6726C45.9646 34.8199 46.0473 35.0198 46.0473 35.2281V35.4245H48.3917V10.4305H5.21112C4.0056 10.4309 2.83732 10.0129 1.90561 9.24791L1.58801 8.9136V30.3096C1.5891 31.6629 2.12606 32.9608 3.08145 33.9193C4.03685 34.8778 5.33293 35.419 6.68627 35.4245H44.4719V35.2156C44.4763 35.009 44.5614 34.8124 44.709 34.6679C44.8567 34.5234 45.0551 34.4425 45.2617 34.4425ZM5.21112 1.57545C4.24902 1.58096 3.32814 1.96674 2.64939 2.64863C1.97064 3.33051 1.5891 4.25315 1.58801 5.21527C1.60099 6.17657 1.98863 7.09485 2.66844 7.77466C3.34825 8.45446 4.26653 8.84211 5.22783 8.85509H9.06406V1.57545H5.21112Z" fill="black"></path><path d="M45.2617 32.0774C45.6956 32.0774 46.0473 31.7256 46.0473 31.2917C46.0473 30.8578 45.6956 30.5061 45.2617 30.5061C44.8278 30.5061 44.4761 30.8578 44.4761 31.2917C44.4761 31.7256 44.8278 32.0774 45.2617 32.0774Z" fill="black"></path><path d="M45.2621 19.2856C45.0534 19.2856 44.8531 19.2029 44.7051 19.0557C44.5571 18.9085 44.4734 18.7087 44.4723 18.4999V17.5179C44.4644 17.4096 44.4789 17.3009 44.5149 17.1985C44.5509 17.0961 44.6077 17.0022 44.6816 16.9227C44.7555 16.8432 44.845 16.7798 44.9446 16.7364C45.0441 16.693 45.1515 16.6707 45.26 16.6707C45.3686 16.6707 45.476 16.693 45.5755 16.7364C45.675 16.7798 45.7645 16.8432 45.8384 16.9227C45.9124 17.0022 45.9691 17.0961 46.0051 17.1985C46.0411 17.3009 46.0556 17.4096 46.0477 17.5179V18.4999C46.0477 18.7083 45.965 18.9081 45.8176 19.0554C45.6703 19.2028 45.4705 19.2856 45.2621 19.2856Z" fill="black"></path><path d="M45.2617 14.3669C45.6956 14.3669 46.0473 14.0152 46.0473 13.5813C46.0473 13.1474 45.6956 12.7957 45.2617 12.7957C44.8278 12.7957 44.4761 13.1474 44.4761 13.5813C44.4761 14.0152 44.8278 14.3669 45.2617 14.3669Z" fill="black"></path><path d="M45.2617 23.2221C45.6956 23.2221 46.0473 22.8704 46.0473 22.4365C46.0473 22.0026 45.6956 21.6509 45.2617 21.6509C44.8278 21.6509 44.4761 22.0026 44.4761 22.4365C44.4761 22.8704 44.8278 23.2221 45.2617 23.2221Z" fill="black"></path><path d="M45.2621 28.145C45.0526 28.145 44.8518 28.0617 44.7036 27.9136C44.5555 27.7655 44.4723 27.5646 44.4723 27.3551V26.3731C44.4644 26.2648 44.4789 26.1561 44.5149 26.0537C44.5509 25.9513 44.6077 25.8574 44.6816 25.7779C44.7555 25.6984 44.845 25.635 44.9446 25.5916C45.0441 25.5483 45.1515 25.5259 45.26 25.5259C45.3686 25.5259 45.476 25.5483 45.5755 25.5916C45.675 25.635 45.7645 25.6984 45.8384 25.7779C45.9124 25.8574 45.9691 25.9513 46.0051 26.0537C46.0411 26.1561 46.0556 26.2648 46.0477 26.3731V27.3551C46.0478 27.5639 45.9651 27.7642 45.8179 27.9122C45.6707 28.0602 45.4709 28.1439 45.2621 28.145Z" fill="black"></path><path d="M7.67193 33.0634C7.56366 33.0713 7.45493 33.0568 7.35252 33.0207C7.25011 32.9847 7.15622 32.928 7.07672 32.8541C6.99722 32.7802 6.93381 32.6906 6.89045 32.5911C6.84709 32.4916 6.82471 32.3842 6.82471 32.2756C6.82471 32.1671 6.84709 32.0597 6.89045 31.9602C6.93381 31.8607 6.99722 31.7711 7.07672 31.6972C7.15622 31.6233 7.25011 31.5666 7.35252 31.5306C7.45493 31.4946 7.56366 31.48 7.67193 31.4879H15.5408C15.6491 31.48 15.7578 31.4946 15.8602 31.5306C15.9626 31.5666 16.0565 31.6233 16.136 31.6972C16.2155 31.7711 16.2789 31.8607 16.3223 31.9602C16.3656 32.0597 16.388 32.1671 16.388 32.2756C16.388 32.3842 16.3656 32.4916 16.3223 32.5911C16.2789 32.6906 16.2155 32.7802 16.136 32.8541C16.0565 32.928 15.9626 32.9847 15.8602 33.0207C15.7578 33.0568 15.6491 33.0713 15.5408 33.0634H7.67193Z" fill="black"></path><path d="M19.478 33.0593C19.9119 33.0593 20.2636 32.7076 20.2636 32.2737C20.2636 31.8398 19.9119 31.488 19.478 31.488C19.0441 31.488 18.6924 31.8398 18.6924 32.2737C18.6924 32.7076 19.0441 33.0593 19.478 33.0593Z" fill="black"></path><path d="M23.414 33.0634C23.215 33.0489 23.0289 32.9596 22.893 32.8135C22.7572 32.6673 22.6816 32.4752 22.6816 32.2756C22.6816 32.0761 22.7572 31.884 22.893 31.7378C23.0289 31.5917 23.215 31.5024 23.414 31.4879H25.3823C25.4906 31.48 25.5993 31.4946 25.7017 31.5306C25.8041 31.5666 25.898 31.6233 25.9775 31.6972C26.057 31.7711 26.1204 31.8607 26.1638 31.9602C26.2071 32.0597 26.2295 32.1671 26.2295 32.2756C26.2295 32.3842 26.2071 32.4916 26.1638 32.5911C26.1204 32.6906 26.057 32.7802 25.9775 32.8541C25.898 32.928 25.8041 32.9847 25.7017 33.0207C25.5993 33.0568 25.4906 33.0713 25.3823 33.0634H23.414Z" fill="black"></path><path d="M33.2558 33.0635C33.0568 33.049 32.8707 32.9597 32.7348 32.8136C32.599 32.6674 32.5234 32.4753 32.5234 32.2758C32.5234 32.0762 32.599 31.8841 32.7348 31.738C32.8707 31.5918 33.0568 31.5025 33.2558 31.488H35.4372C35.6362 31.5025 35.8224 31.5918 35.9582 31.738C36.0941 31.8841 36.1696 32.0762 36.1696 32.2758C36.1696 32.4753 36.0941 32.6674 35.9582 32.8136C35.8224 32.9597 35.6362 33.049 35.4372 33.0635H33.2558Z" fill="black"></path><path d="M23.414 29.1269C23.215 29.1123 23.0289 29.0231 22.893 28.8769C22.7572 28.7308 22.6816 28.5387 22.6816 28.3391C22.6816 28.1396 22.7572 27.9475 22.893 27.8013C23.0289 27.6552 23.215 27.5659 23.414 27.5514H27.3506C27.4588 27.5435 27.5676 27.558 27.67 27.594C27.7724 27.63 27.8663 27.6868 27.9458 27.7607C28.0253 27.8346 28.0887 27.9241 28.132 28.0237C28.1754 28.1232 28.1978 28.2306 28.1978 28.3391C28.1978 28.4477 28.1754 28.5551 28.132 28.6546C28.0887 28.7541 28.0253 28.8436 27.9458 28.9176C27.8663 28.9915 27.7724 29.0482 27.67 29.0842C27.5676 29.1202 27.4588 29.1347 27.3506 29.1269H23.414Z" fill="black"></path><path d="M15.5415 29.1269C15.3425 29.1123 15.1563 29.0231 15.0205 28.8769C14.8846 28.7308 14.8091 28.5387 14.8091 28.3391C14.8091 28.1396 14.8846 27.9475 15.0205 27.8013C15.1563 27.6552 15.3425 27.5659 15.5415 27.5514H19.478C19.5863 27.5435 19.695 27.558 19.7974 27.594C19.8998 27.63 19.9937 27.6868 20.0732 27.7607C20.1527 27.8346 20.2161 27.9241 20.2595 28.0237C20.3029 28.1232 20.3252 28.2306 20.3252 28.3391C20.3252 28.4477 20.3029 28.5551 20.2595 28.6546C20.2161 28.7541 20.1527 28.8436 20.0732 28.9176C19.9937 28.9915 19.8998 29.0482 19.7974 29.0842C19.695 29.1202 19.5863 29.1347 19.478 29.1269H15.5415Z" fill="black"></path><path d="M31.2876 29.127C31.0886 29.1125 30.9024 29.0232 30.7666 28.877C30.6307 28.7309 30.5552 28.5388 30.5552 28.3392C30.5552 28.1397 30.6307 27.9476 30.7666 27.8014C30.9024 27.6553 31.0886 27.566 31.2876 27.5515H35.2241C35.4231 27.566 35.6092 27.6553 35.7451 27.8014C35.881 27.9476 35.9565 28.1397 35.9565 28.3392C35.9565 28.5388 35.881 28.7309 35.7451 28.877C35.6092 29.0232 35.4231 29.1125 35.2241 29.127H31.2876Z" fill="black"></path><path d="M7.67193 29.1269C7.56366 29.1347 7.45493 29.1202 7.35252 29.0842C7.25011 29.0482 7.15622 28.9915 7.07672 28.9176C6.99722 28.8436 6.93381 28.7541 6.89045 28.6546C6.84709 28.5551 6.82471 28.4477 6.82471 28.3391C6.82471 28.2306 6.84709 28.1232 6.89045 28.0237C6.93381 27.9241 6.99722 27.8346 7.07672 27.7607C7.15622 27.6868 7.25011 27.63 7.35252 27.594C7.45493 27.558 7.56366 27.5435 7.67193 27.5514H11.6168C11.8158 27.5659 12.002 27.6552 12.1378 27.8013C12.2737 27.9475 12.3492 28.1396 12.3492 28.3391C12.3492 28.5387 12.2737 28.7308 12.1378 28.8769C12.002 29.0231 11.8158 29.1123 11.6168 29.1269H7.67193Z" fill="black"></path><path d="M12.4536 23.2222C12.409 23.2223 12.3653 23.2103 12.327 23.1874C12.2888 23.1646 12.2574 23.1319 12.2363 23.0927L11.6805 21.9727C11.4214 21.4922 11.2626 21.1369 11.0662 20.7191C10.9199 21.1369 10.7486 21.4754 10.5313 21.9727L10.0173 23.0969C9.99849 23.1386 9.9679 23.1739 9.92928 23.1984C9.89066 23.2229 9.8457 23.2355 9.79997 23.2348H8.58391C8.54217 23.235 8.5011 23.2243 8.46481 23.2037C8.42852 23.1831 8.39828 23.1533 8.37712 23.1173C8.35596 23.0814 8.34463 23.0405 8.34425 22.9987C8.34387 22.957 8.35446 22.9159 8.37496 22.8796L10.1008 19.8624C10.1214 19.826 10.1321 19.785 10.1321 19.7433C10.1321 19.7016 10.1214 19.6605 10.1008 19.6242L8.42929 16.699C8.40896 16.6629 8.39837 16.6222 8.39856 16.5808C8.39875 16.5394 8.40972 16.4988 8.43039 16.463C8.45106 16.4271 8.48071 16.3973 8.51642 16.3764C8.55213 16.3555 8.59267 16.3442 8.63405 16.3438H9.88772C9.93275 16.3438 9.97681 16.3568 10.0146 16.3813C10.0524 16.4058 10.0824 16.4406 10.1008 16.4817L10.6399 17.6058C10.8447 18.0237 10.9993 18.3622 11.1623 18.7508H11.1999C11.3629 18.3329 11.4966 18.0028 11.6721 17.6058L12.1903 16.4817C12.2103 16.4409 12.2412 16.4064 12.2795 16.3821C12.3179 16.3578 12.3622 16.3445 12.4076 16.3438H13.6237C13.6655 16.3443 13.7065 16.3557 13.7427 16.3768C13.7788 16.398 13.8089 16.4281 13.8299 16.4643C13.8509 16.5005 13.8622 16.5415 13.8627 16.5834C13.8632 16.6252 13.8528 16.6665 13.8326 16.7031L12.161 19.5949C12.1405 19.6313 12.1298 19.6723 12.1298 19.714C12.1298 19.7558 12.1405 19.7968 12.161 19.8331L13.9329 22.8879C13.9545 22.9244 13.9659 22.9659 13.966 23.0083C13.9662 23.0506 13.9551 23.0922 13.9338 23.1289C13.9125 23.1655 13.8818 23.1957 13.8449 23.2166C13.8081 23.2374 13.7663 23.248 13.724 23.2473L12.4536 23.2222Z" fill="black"></path><path d="M18.8346 23.2222C18.7905 23.2229 18.7471 23.2111 18.7094 23.1882C18.6717 23.1653 18.6412 23.1322 18.6215 23.0927L18.0615 21.9727C17.8066 21.4922 17.6436 21.137 17.4472 20.7191H17.4263C17.2843 21.137 17.1087 21.4754 16.8914 21.9727L16.3816 23.0969C16.3631 23.1379 16.3332 23.1728 16.2954 23.1972C16.2576 23.2217 16.2135 23.2347 16.1685 23.2348H14.9608C14.9189 23.2356 14.8776 23.2252 14.8411 23.2046C14.8046 23.184 14.7744 23.154 14.7534 23.1177C14.7325 23.0814 14.7217 23.0401 14.7222 22.9983C14.7226 22.9564 14.7343 22.9154 14.756 22.8796L16.4819 19.8624C16.5024 19.826 16.5132 19.785 16.5132 19.7433C16.5132 19.7016 16.5024 19.6605 16.4819 19.6242L14.8103 16.699C14.7898 16.6626 14.7793 16.6215 14.7796 16.5798C14.78 16.538 14.7913 16.4971 14.8125 16.4612C14.8337 16.4252 14.8639 16.3954 14.9002 16.3748C14.9365 16.3542 14.9776 16.3435 15.0193 16.3438H16.273C16.318 16.3438 16.362 16.3568 16.3998 16.3813C16.4376 16.4058 16.4676 16.4406 16.4861 16.4817L17.0252 17.6058C17.2299 18.0237 17.3845 18.3622 17.5475 18.7508C17.7147 18.3329 17.8442 18.0028 18.0197 17.6058L18.5379 16.4817C18.5579 16.4409 18.5888 16.4064 18.6272 16.3821C18.6655 16.3578 18.7098 16.3445 18.7552 16.3438H19.9755C20.0173 16.3443 20.0583 16.3557 20.0945 16.3769C20.1306 16.398 20.1607 16.4281 20.1817 16.4643C20.2027 16.5005 20.214 16.5415 20.2145 16.5834C20.215 16.6252 20.2046 16.6665 20.1844 16.7031L18.5129 19.5949C18.4923 19.6313 18.4816 19.6723 18.4816 19.714C18.4816 19.7558 18.4923 19.7968 18.5129 19.8331L20.2847 22.8879C20.3061 22.9241 20.3175 22.9652 20.3178 23.0072C20.3182 23.0492 20.3074 23.0905 20.2866 23.127C20.2658 23.1635 20.2357 23.1938 20.1995 23.215C20.1632 23.2361 20.1219 23.2472 20.0799 23.2473L18.8346 23.2222Z" fill="black"></path><path d="M21.6474 16.3186H22.7381C22.8012 16.3186 22.8618 16.3437 22.9065 16.3884C22.9512 16.433 22.9763 16.4936 22.9763 16.5568V21.6718C22.9763 21.7353 23.0012 21.7964 23.0458 21.8417C23.0903 21.887 23.1509 21.9131 23.2145 21.9142H25.492C25.5234 21.9136 25.5546 21.9194 25.5838 21.9311C25.6129 21.9429 25.6394 21.9604 25.6617 21.9827C25.6839 22.0049 25.7014 22.0314 25.7132 22.0605C25.725 22.0897 25.7307 22.1209 25.7302 22.1523V22.9881C25.7307 23.0196 25.725 23.0508 25.7132 23.0799C25.7014 23.1091 25.6839 23.1356 25.6617 23.1578C25.6394 23.1801 25.6129 23.1976 25.5838 23.2093C25.5546 23.2211 25.5234 23.2269 25.492 23.2263H21.6474C21.5842 23.2263 21.5236 23.2012 21.4789 23.1566C21.4343 23.1119 21.4092 23.0513 21.4092 22.9881V16.5568C21.4103 16.494 21.4357 16.434 21.4801 16.3896C21.5246 16.3451 21.5845 16.3197 21.6474 16.3186Z" fill="black"></path></svg>