<svg xmlns="http://www.w3.org/2000/svg" width="27" height="26" viewBox="0 0 27 26" fill="none"><path d="M12.238 25.8317C10.7707 25.8552 9.31344 25.5864 7.95105 25.0411C6.58867 24.4958 5.3484 23.6849 4.3025 22.6556C3.25659 21.6262 2.42596 20.3991 1.85898 19.0456C1.29199 17.6921 1 16.2393 1 14.7718C1 13.3044 1.29199 11.8516 1.85898 10.4981C2.42596 9.14457 3.25659 7.91741 4.3025 6.88808C5.3484 5.85875 6.58867 5.04782 7.95105 4.50253C9.31344 3.95724 10.7707 3.68848 12.238 3.71192C12.3096 3.71116 12.3806 3.72475 12.4469 3.75188C12.5131 3.77901 12.5733 3.81915 12.6238 3.86991C12.6743 3.92067 12.7141 3.98103 12.7409 4.04743C12.7677 4.11383 12.7809 4.18493 12.7798 4.25652V14.2202H22.7519C22.8234 14.2202 22.8942 14.2343 22.9603 14.2616C23.0264 14.289 23.0864 14.3291 23.137 14.3797C23.1875 14.4303 23.2277 14.4903 23.255 14.5564C23.2824 14.6224 23.2965 14.6933 23.2965 14.7648C23.295 17.698 22.1297 20.5108 20.0564 22.5857C17.9831 24.6605 15.1712 25.828 12.238 25.8317V25.8317ZM11.5128 4.82087C9.60713 4.95945 7.7814 5.64258 6.25284 6.78898C4.72427 7.93537 3.55724 9.49677 2.89058 11.2874C2.22393 13.078 2.08573 15.0225 2.49243 16.8894C2.89914 18.7563 3.83361 20.467 5.18468 21.8181C6.53574 23.1691 8.2465 24.1036 10.1134 24.5103C11.9803 24.917 13.9247 24.7788 15.7154 24.1122C17.506 23.4455 19.0674 22.2785 20.2138 20.7499C21.3602 19.2214 22.0433 17.3956 22.1819 15.49V15.3094H12.238C12.1663 15.3101 12.0951 15.2966 12.0287 15.2695C11.9623 15.2424 11.9019 15.2023 11.8512 15.1515C11.8005 15.1008 11.7604 15.0405 11.7333 14.9741C11.7062 14.9077 11.6926 14.8365 11.6934 14.7648V4.80677L11.5128 4.82087Z" fill="black" stroke="black" stroke-width="0.2" stroke-miterlimit="10"></path><path d="M14.93 12.6116C14.8584 12.6124 14.7874 12.5988 14.7211 12.5716C14.6548 12.5445 14.5947 12.5044 14.5442 12.4536C14.4937 12.4029 14.4539 12.3425 14.4271 12.2761C14.4003 12.2097 14.3871 12.1386 14.3882 12.067V1.56439C14.3843 1.49117 14.3955 1.41793 14.4211 1.34921C14.4467 1.28049 14.486 1.21774 14.5368 1.16484C14.5876 1.11195 14.6487 1.07003 14.7163 1.04169C14.7839 1.01334 14.8567 0.999164 14.93 1.00004C17.8597 0.997784 20.6707 2.15792 22.746 4.22585C24.8214 6.29378 25.9915 9.10059 25.9998 12.0303V12.067C26.0006 12.1404 25.9864 12.2133 25.9581 12.281C25.9298 12.3488 25.8879 12.4101 25.8351 12.4611C25.7822 12.5121 25.7195 12.5517 25.6508 12.5776C25.5821 12.6035 25.5088 12.6151 25.4354 12.6116H14.93ZM15.4746 11.528H24.888V11.3474C24.7248 9.17245 23.857 7.10993 22.4161 5.47254C20.6909 3.51084 18.2613 2.30921 15.6552 2.12874H15.4746V11.528Z" fill="black" stroke="black" stroke-width="0.2" stroke-miterlimit="10"></path></svg>