<svg xmlns="http://www.w3.org/2000/svg" width="50" height="37" viewBox="0 0 50 37" fill="none"><path d="M6.65992 37C4.88872 36.9901 3.19357 36.279 1.94542 35.0222C0.697276 33.7655 -0.00222404 32.0655 5.3125e-06 30.2943V5.21555C0.00110767 3.83264 0.550958 2.50668 1.52882 1.52882C2.50669 0.550952 3.83264 0.00110236 5.21555 0H9.84004C10.0487 0 10.2488 0.0828868 10.3963 0.230422C10.5438 0.377958 10.6267 0.578056 10.6267 0.786703V8.85353H49.2043C49.4133 8.85463 49.6134 8.93844 49.7608 9.08663C49.9083 9.23483 49.991 9.43536 49.991 9.64439V36.2133C49.991 36.422 49.9081 36.622 49.7606 36.7696C49.6131 36.9171 49.413 37 49.2043 37H6.65992ZM45.2458 34.4567C45.4545 34.4567 45.6546 34.5396 45.8021 34.6872C45.9496 34.8347 46.0325 35.0348 46.0325 35.2435V35.4391H48.3926V10.4644H5.19475C3.99003 10.4647 2.82285 10.0452 1.89391 9.2781L1.56924 8.94926V30.2943C1.56702 31.6486 2.10146 32.9486 3.05556 33.9097C4.00965 34.8708 5.30568 35.4147 6.65992 35.4224H44.4466V35.2268C44.451 35.0189 44.5375 34.8211 44.6873 34.6768C44.8371 34.5325 45.0379 34.4534 45.2458 34.4567ZM5.19475 1.57341C4.22951 1.57451 3.30418 1.95872 2.62205 2.64163C1.93992 3.32455 1.55676 4.25031 1.55676 5.21555C1.56863 6.17671 1.95573 7.09516 2.63543 7.77486C3.31512 8.45456 4.23358 8.84166 5.19475 8.85353H9.03252V1.57341H5.19475Z" fill="black"></path><path d="M45.2462 32.08C45.6807 32.08 46.0329 31.7278 46.0329 31.2933C46.0329 30.8588 45.6807 30.5066 45.2462 30.5066C44.8117 30.5066 44.4595 30.8588 44.4595 31.2933C44.4595 31.7278 44.8117 32.08 45.2462 32.08Z" fill="black"></path><path d="M45.2462 19.2845C45.0375 19.2845 44.8374 19.2016 44.6899 19.0541C44.5424 18.9065 44.4595 18.7064 44.4595 18.4978V17.5155C44.4595 17.3068 44.5424 17.1067 44.6899 16.9592C44.8374 16.8116 45.0375 16.7288 45.2462 16.7288C45.4548 16.7288 45.6549 16.8116 45.8025 16.9592C45.95 17.1067 46.0329 17.3068 46.0329 17.5155V18.4978C46.0329 18.7064 45.95 18.9065 45.8025 19.0541C45.6549 19.2016 45.4548 19.2845 45.2462 19.2845Z" fill="black"></path><path d="M45.2462 14.3647C45.6807 14.3647 46.0329 14.0124 46.0329 13.578C46.0329 13.1435 45.6807 12.7913 45.2462 12.7913C44.8117 12.7913 44.4595 13.1435 44.4595 13.578C44.4595 14.0124 44.8117 14.3647 45.2462 14.3647Z" fill="black"></path><path d="M45.2462 23.2223C45.6807 23.2223 46.0329 22.8701 46.0329 22.4356C46.0329 22.0011 45.6807 21.6489 45.2462 21.6489C44.8117 21.6489 44.4595 22.0011 44.4595 22.4356C44.4595 22.8701 44.8117 23.2223 45.2462 23.2223Z" fill="black"></path><path d="M45.2462 28.1422C45.0375 28.1422 44.8374 28.0593 44.6899 27.9118C44.5424 27.7642 44.4595 27.5641 44.4595 27.3555V26.369C44.4595 26.1603 44.5424 25.9602 44.6899 25.8127C44.8374 25.6652 45.0375 25.5823 45.2462 25.5823C45.4548 25.5823 45.6549 25.6652 45.8025 25.8127C45.95 25.9602 46.0329 26.1603 46.0329 26.369V27.3555C46.0329 27.5641 45.95 27.7642 45.8025 27.9118C45.6549 28.0593 45.4548 28.1422 45.2462 28.1422Z" fill="black"></path><path d="M7.65487 33.0624C7.44623 33.0624 7.24612 32.9795 7.09858 32.832C6.95104 32.6845 6.86816 32.4844 6.86816 32.2757C6.86816 32.0671 6.95104 31.867 7.09858 31.7194C7.24612 31.5719 7.44623 31.489 7.65487 31.489H15.5302C15.7389 31.489 15.939 31.5719 16.0865 31.7194C16.234 31.867 16.3169 32.0671 16.3169 32.2757C16.3169 32.4844 16.234 32.6845 16.0865 32.832C15.939 32.9795 15.7389 33.0624 15.5302 33.0624H7.65487Z" fill="black"></path><path d="M19.4635 33.0624C19.8979 33.0624 20.2502 32.7102 20.2502 32.2757C20.2502 31.8412 19.8979 31.489 19.4635 31.489C19.029 31.489 18.6768 31.8412 18.6768 32.2757C18.6768 32.7102 19.029 33.0624 19.4635 33.0624Z" fill="black"></path><path d="M23.4014 33.0624C23.1928 33.0624 22.9927 32.9795 22.8452 32.832C22.6976 32.6845 22.6147 32.4844 22.6147 32.2757C22.6147 32.0671 22.6976 31.867 22.8452 31.7194C22.9927 31.5719 23.1928 31.489 23.4014 31.489H25.3911C25.5997 31.489 25.7998 31.5719 25.9474 31.7194C26.0949 31.867 26.1778 32.0671 26.1778 32.2757C26.1778 32.4844 26.0949 32.6845 25.9474 32.832C25.7998 32.9795 25.5997 33.0624 25.3911 33.0624H23.4014Z" fill="black"></path><path d="M33.2413 33.0624C33.0326 33.0624 32.8325 32.9795 32.685 32.832C32.5375 32.6845 32.4546 32.4844 32.4546 32.2757C32.4546 32.0671 32.5375 31.867 32.685 31.7194C32.8325 31.5719 33.0326 31.489 33.2413 31.489H35.4058C35.6144 31.489 35.8145 31.5719 35.9621 31.7194C36.1096 31.867 36.1925 32.0671 36.1925 32.2757C36.1925 32.4844 36.1096 32.6845 35.9621 32.832C35.8145 32.9795 35.6144 33.0624 35.4058 33.0624H33.2413Z" fill="black"></path><path d="M23.4015 29.1247C23.298 29.1252 23.1954 29.1053 23.0997 29.0659C23.0041 29.0266 22.9171 28.9686 22.8439 28.8955C22.7708 28.8223 22.7129 28.7354 22.6735 28.6397C22.6342 28.544 22.6142 28.4414 22.6148 28.338C22.6148 28.1293 22.6976 27.9292 22.8452 27.7817C22.9927 27.6341 23.1928 27.5513 23.4015 27.5513H27.335C27.5436 27.5513 27.7437 27.6341 27.8913 27.7817C28.0388 27.9292 28.1217 28.1293 28.1217 28.338C28.1222 28.4414 28.1023 28.544 28.0629 28.6397C28.0236 28.7354 27.9656 28.8223 27.8925 28.8955C27.8193 28.9686 27.7324 29.0266 27.6367 29.0659C27.541 29.1053 27.4384 29.1252 27.335 29.1247H23.4015Z" fill="black"></path><path d="M15.5301 29.1247C15.4265 29.1252 15.3237 29.1053 15.2278 29.066C15.1319 29.0267 15.0446 28.9688 14.9711 28.8957C14.8977 28.8226 14.8393 28.7357 14.7995 28.64C14.7597 28.5443 14.7393 28.4416 14.7393 28.338C14.7404 28.1289 14.8242 27.9288 14.9724 27.7814C15.1206 27.634 15.3211 27.5513 15.5301 27.5513H19.4636C19.6723 27.5513 19.8724 27.6341 20.0199 27.7817C20.1675 27.9292 20.2503 28.1293 20.2503 28.338C20.2503 28.5466 20.1675 28.7467 20.0199 28.8943C19.8724 29.0418 19.6723 29.1247 19.4636 29.1247H15.5301Z" fill="black"></path><path d="M31.2725 29.1247C31.0639 29.1247 30.8638 29.0418 30.7163 28.8943C30.5687 28.7467 30.4858 28.5466 30.4858 28.338C30.4858 28.1293 30.5687 27.9292 30.7163 27.7817C30.8638 27.6341 31.0639 27.5513 31.2725 27.5513H35.2102C35.4189 27.5513 35.619 27.6341 35.7665 27.7817C35.914 27.9292 35.9969 28.1293 35.9969 28.338C35.9969 28.5466 35.914 28.7467 35.7665 28.8943C35.619 29.0418 35.4189 29.1247 35.2102 29.1247H31.2725Z" fill="black"></path><path d="M7.65487 29.1247C7.44623 29.1247 7.24612 29.0418 7.09858 28.8943C6.95104 28.7467 6.86816 28.5466 6.86816 28.338C6.86816 28.1293 6.95104 27.9292 7.09858 27.7817C7.24612 27.6341 7.44623 27.5513 7.65487 27.5513H11.5925C11.8012 27.5513 12.0013 27.6341 12.1488 27.7817C12.2964 27.9292 12.3792 28.1293 12.3792 28.338C12.3792 28.5466 12.2964 28.7467 12.1488 28.8943C12.0013 29.0418 11.8012 29.1247 11.5925 29.1247H7.65487Z" fill="black"></path><path d="M10.0524 20.3044C10.0621 20.5439 10.0207 20.7828 9.93103 21.0052C9.84133 21.2275 9.70535 21.4282 9.53212 21.5939C9.3589 21.7597 9.15239 21.8867 8.92631 21.9665C8.70024 22.0463 8.45978 22.0771 8.22089 22.0568C7.81801 22.0851 7.41856 21.9661 7.09693 21.7218C6.77531 21.4775 6.55344 21.1247 6.47266 20.729L7.0887 20.4251C7.2552 21.1202 7.64647 21.4824 8.22089 21.4824C8.36774 21.4952 8.51566 21.4771 8.65506 21.4291C8.79446 21.3812 8.92225 21.3045 9.03015 21.2041C9.13804 21.1036 9.22365 20.9817 9.28143 20.846C9.33921 20.7104 9.36787 20.5642 9.36556 20.4168C9.35792 20.1572 9.26788 19.9068 9.1085 19.7017C8.94911 19.4967 8.72864 19.3477 8.47896 19.2763L7.78384 18.9766C7.45963 18.8806 7.17507 18.6825 6.97256 18.4117C6.77005 18.141 6.66042 17.812 6.65997 17.4739C6.65997 16.6747 7.31347 16.067 8.26667 16.067C8.57119 16.0477 8.87454 16.1199 9.13781 16.2741C9.40109 16.4284 9.61229 16.6577 9.74435 16.9328L9.18658 17.2908C9.10283 17.1016 8.96738 16.9399 8.79581 16.8243C8.62423 16.7087 8.42351 16.6439 8.21672 16.6373C8.10429 16.6322 7.992 16.65 7.88663 16.6896C7.78126 16.7291 7.68502 16.7896 7.6037 16.8675C7.52238 16.9453 7.45769 17.0388 7.41353 17.1423C7.36937 17.2458 7.34666 17.3572 7.34677 17.4698C7.34677 17.886 7.59652 18.1691 8.11266 18.3897L8.94515 18.7518C9.26955 18.8612 9.55119 19.0702 9.74997 19.349C9.94876 19.6277 10.0546 19.962 10.0524 20.3044Z" fill="black"></path><path d="M8.22071 22.3107C7.76329 22.3379 7.31124 22.2005 6.94631 21.9234C6.58138 21.6463 6.32767 21.2477 6.23106 20.7998C6.21739 20.7449 6.22269 20.6871 6.24613 20.6357C6.26957 20.5843 6.30975 20.5423 6.3601 20.5167L6.97615 20.2128C7.00983 20.1963 7.04684 20.1877 7.08436 20.1877C7.12188 20.1877 7.15891 20.1963 7.19259 20.2128C7.22576 20.2279 7.25503 20.2503 7.27813 20.2785C7.30123 20.3066 7.31754 20.3397 7.32579 20.3752C7.46731 20.9621 7.74203 21.2451 8.22071 21.2451C8.33632 21.2584 8.45344 21.2465 8.56403 21.2104C8.67463 21.1742 8.77609 21.1145 8.86148 21.0354C8.94687 20.9564 9.01417 20.8598 9.05876 20.7523C9.10334 20.6448 9.12416 20.5289 9.11981 20.4126C9.11981 20.1587 9.04488 19.7841 8.37889 19.4969L7.68792 19.2014C7.31671 19.0864 6.9922 18.8553 6.76216 18.5421C6.53212 18.2289 6.40869 17.8501 6.41005 17.4615C6.41005 16.5041 7.18843 15.7965 8.26234 15.7965C8.61321 15.7751 8.96247 15.8592 9.26514 16.0379C9.56781 16.2167 9.81002 16.482 9.96062 16.7996C9.98837 16.8531 9.99478 16.915 9.97855 16.973C9.96232 17.031 9.92466 17.0806 9.87321 17.1118L9.31544 17.474C9.25839 17.5096 9.1897 17.5215 9.12397 17.5073C9.09166 17.4995 9.0613 17.4851 9.0348 17.4651C9.0083 17.445 8.98622 17.4197 8.96995 17.3907C8.69523 16.912 8.40803 16.8579 8.21239 16.8579C8.13216 16.8509 8.05135 16.8608 7.97521 16.8871C7.89906 16.9133 7.82929 16.9553 7.77041 17.0102C7.71154 17.0652 7.66487 17.1319 7.63345 17.206C7.60203 17.2802 7.58655 17.3601 7.58803 17.4407C7.58803 17.6529 7.66295 17.9027 8.20823 18.1358L9.04072 18.4979C9.4141 18.6247 9.73809 18.8658 9.96671 19.1871C10.1953 19.5084 10.317 19.8935 10.3144 20.2878C10.3292 20.5634 10.2846 20.839 10.1836 21.096C10.0826 21.3529 9.92763 21.5851 9.72911 21.7769C9.53058 21.9687 9.29316 22.1157 9.03292 22.2078C8.77268 22.2998 8.4957 22.335 8.22071 22.3107ZM6.76802 20.8664C6.87158 21.1629 7.07004 21.417 7.33268 21.5894C7.59531 21.7617 7.90744 21.8426 8.22071 21.8196C8.42716 21.8394 8.63547 21.8147 8.83155 21.7472C9.02764 21.6796 9.20693 21.5707 9.35728 21.4278C9.50764 21.2849 9.62556 21.1115 9.70308 20.9191C9.7806 20.7267 9.81591 20.5199 9.80661 20.3127C9.80997 20.0137 9.71652 19.7216 9.54023 19.4801C9.36393 19.2385 9.11424 19.0604 8.82843 18.9724L7.99594 18.6103C7.3799 18.3481 7.08021 17.9734 7.08021 17.4656C7.07774 17.3202 7.10518 17.1758 7.16086 17.0414C7.21653 16.907 7.29925 16.7854 7.40386 16.6843C7.50847 16.5833 7.63274 16.5047 7.76897 16.4537C7.90519 16.4026 8.05045 16.3801 8.19574 16.3876C8.4025 16.3884 8.60582 16.4405 8.78745 16.5394C8.96908 16.6382 9.12332 16.7805 9.23635 16.9536L9.39453 16.8538C9.26455 16.6736 9.09093 16.5295 8.88999 16.4348C8.68904 16.3402 8.46734 16.2981 8.24569 16.3126C7.44234 16.3126 6.88457 16.7913 6.88457 17.474C6.88457 18.0692 7.1926 18.4813 7.86275 18.7601L8.55787 19.0557C8.85243 19.1464 9.11101 19.3275 9.29701 19.5732C9.48301 19.819 9.58702 20.117 9.59432 20.4251C9.59776 20.6051 9.56354 20.7837 9.49383 20.9497C9.42411 21.1156 9.32046 21.2651 9.18953 21.3886C9.0586 21.512 8.90329 21.6068 8.73358 21.6667C8.56386 21.7265 8.38349 21.7503 8.20406 21.7363C7.91516 21.739 7.63327 21.6474 7.40116 21.4753C7.16904 21.3033 6.99936 21.0603 6.91787 20.7831L6.76802 20.8664Z" fill="black"></path><path d="M16.6497 21.9237H15.9129L15.1678 20.1713H12.9035L12.1584 21.9237H11.4258L14.0148 15.9797L16.6497 21.9237ZM13.1365 19.5886H14.9597L14.0481 17.4824L13.1365 19.5886Z" fill="black"></path><path d="M16.6503 22.1693H15.9135C15.8649 22.1693 15.8174 22.1551 15.7767 22.1285C15.736 22.1019 15.704 22.064 15.6846 22.0194L15.0061 20.4169H13.0997L12.4212 22.0194C12.4018 22.064 12.3698 22.1019 12.3291 22.1285C12.2884 22.1551 12.2409 22.1693 12.1923 22.1693H11.4597C11.4184 22.1692 11.3778 22.1589 11.3415 22.1393C11.3052 22.1197 11.2743 22.0914 11.2516 22.0569C11.2323 22.0211 11.2222 21.981 11.2222 21.9404C11.2222 21.8997 11.2323 21.8596 11.2516 21.8238L13.8448 15.8798C13.8641 15.8364 13.8957 15.7995 13.9356 15.7737C13.9755 15.7478 14.022 15.7341 14.0696 15.7342C14.1172 15.7335 14.164 15.747 14.204 15.773C14.244 15.7989 14.2754 15.8361 14.2943 15.8798L16.8959 21.8238C16.9121 21.8613 16.9186 21.9023 16.915 21.943C16.9114 21.9837 16.8976 22.0229 16.8751 22.0569C16.8515 22.0945 16.8181 22.1248 16.7784 22.1447C16.7388 22.1645 16.6945 22.173 16.6503 22.1693ZM16.0759 21.6781H16.2715L14.0488 16.5958L11.8343 21.6781H12.03L12.7126 20.0756C12.7309 20.031 12.762 19.993 12.8021 19.9663C12.8421 19.9396 12.8892 19.9255 12.9374 19.9257H15.1685C15.2171 19.9257 15.2646 19.9399 15.3053 19.9665C15.3459 19.9931 15.3779 20.031 15.3974 20.0756L16.0759 21.6781ZM14.9603 19.8342H13.1372C13.0965 19.8341 13.0564 19.8238 13.0207 19.8042C12.9851 19.7845 12.955 19.7562 12.9332 19.7218C12.9063 19.6866 12.8894 19.6449 12.8843 19.6009C12.8791 19.5569 12.886 19.5124 12.9041 19.472L13.8157 17.3908C13.8344 17.3466 13.8656 17.3088 13.9056 17.2822C13.9455 17.2556 13.9924 17.2412 14.0404 17.241C14.0886 17.2407 14.1357 17.2548 14.1757 17.2815C14.2158 17.3082 14.2469 17.3463 14.2652 17.3908L15.1768 19.472C15.1961 19.5078 15.2062 19.5479 15.2062 19.5886C15.2062 19.6293 15.1961 19.6693 15.1768 19.7051C15.1538 19.7471 15.1192 19.7816 15.0771 19.8045C15.035 19.8274 14.9873 19.8377 14.9395 19.8342H14.9603ZM13.5118 19.343H14.5691L14.0321 18.0943L13.5118 19.343Z" fill="black"></path><path d="M18.4771 16.2043H19.1472V21.9236H18.4688L18.4771 16.2043Z" fill="black"></path><path d="M19.1472 22.1691H18.4688C18.4365 22.1691 18.4046 22.1628 18.3748 22.1505C18.345 22.1381 18.3179 22.12 18.2951 22.0972C18.2723 22.0744 18.2542 22.0473 18.2419 22.0175C18.2295 21.9878 18.2232 21.9558 18.2232 21.9236V16.2044C18.2226 16.172 18.2286 16.1398 18.2407 16.1097C18.2529 16.0797 18.2709 16.0524 18.2939 16.0295C18.3168 16.0065 18.3441 15.9885 18.3741 15.9763C18.4042 15.9642 18.4364 15.9582 18.4688 15.9588H19.1472C19.1797 15.9582 19.2118 15.9642 19.2419 15.9763C19.2719 15.9885 19.2992 16.0065 19.3222 16.0295C19.3451 16.0524 19.3631 16.0797 19.3753 16.1097C19.3874 16.1398 19.3934 16.172 19.3928 16.2044V21.9236C19.3928 21.9558 19.3865 21.9878 19.3741 22.0175C19.3618 22.0473 19.3437 22.0744 19.3209 22.0972C19.2981 22.12 19.271 22.1381 19.2412 22.1505C19.2114 22.1628 19.1795 22.1691 19.1472 22.1691ZM18.731 21.678H18.9183V16.4499H18.731V21.678Z" fill="black"></path><path d="M22.6814 16.8495H21.0664V16.2043H24.9791V16.8495H23.3724V21.9236H22.6814V16.8495Z" fill="black"></path><path d="M23.3724 22.1691H22.6814C22.6166 22.168 22.5548 22.1418 22.5089 22.096C22.4631 22.0502 22.4369 21.9883 22.4358 21.9235V17.0993H21.0664C21.0009 17.0982 20.9384 17.0714 20.8925 17.0247C20.8465 16.9779 20.8208 16.915 20.8208 16.8495V16.2043C20.8208 16.1392 20.8467 16.0767 20.8927 16.0307C20.9388 15.9846 21.0013 15.9587 21.0664 15.9587H24.9791C25.0442 15.9587 25.1067 15.9846 25.1527 16.0307C25.1988 16.0767 25.2247 16.1392 25.2247 16.2043V16.8495C25.2247 16.915 25.1989 16.9779 25.153 17.0247C25.1071 17.0714 25.0446 17.0982 24.9791 17.0993H23.618V21.9235C23.6169 21.9883 23.5907 22.0502 23.5448 22.096C23.499 22.1418 23.4372 22.168 23.3724 22.1691ZM22.927 21.6779H23.1226V16.8495C23.1237 16.784 23.1505 16.7215 23.1972 16.6756C23.244 16.6297 23.3069 16.6039 23.3724 16.6039H24.7335V16.4499H21.312V16.6039H22.6814C22.7465 16.6039 22.809 16.6298 22.8551 16.6759C22.9011 16.7219 22.927 16.7844 22.927 16.8495V21.6779Z" fill="black"></path><path d="M26.8936 16.2043H29.9113V16.8287H27.5762V18.4687H29.9113V19.0973H27.5762V21.2909H29.9113V21.9236H26.8936V16.2043Z" fill="black"></path><path d="M29.9118 22.1691H26.894C26.8292 22.168 26.7674 22.1418 26.7215 22.096C26.6757 22.0502 26.6495 21.9883 26.6484 21.9235V16.2043C26.6484 16.1392 26.6743 16.0767 26.7204 16.0307C26.7664 15.9846 26.8289 15.9587 26.894 15.9587H29.9118C29.9769 15.9587 30.0394 15.9846 30.0854 16.0307C30.1315 16.0767 30.1574 16.1392 30.1574 16.2043V16.8287C30.1563 16.8935 30.1301 16.9553 30.0843 17.0012C30.0384 17.047 29.9766 17.0732 29.9118 17.0743H27.8306V18.2231H29.9118C29.9773 18.2242 30.0398 18.251 30.0857 18.2977C30.1316 18.3444 30.1574 18.4073 30.1574 18.4729V19.1014C30.1574 19.1665 30.1315 19.229 30.0854 19.275C30.0394 19.3211 29.9769 19.347 29.9118 19.347H27.8306V21.0494H29.9118C29.9769 21.0494 30.0394 21.0753 30.0854 21.1213C30.1315 21.1674 30.1574 21.2299 30.1574 21.295V21.9277C30.1553 21.9918 30.1286 22.0526 30.0829 22.0975C30.0371 22.1424 29.9759 22.1681 29.9118 22.1691ZM27.1396 21.6779H29.6662V21.5531H27.585C27.5526 21.5536 27.5204 21.5477 27.4903 21.5355C27.4603 21.5234 27.433 21.5053 27.4101 21.4824C27.3872 21.4595 27.3691 21.4322 27.3569 21.4021C27.3448 21.3721 27.3388 21.3399 27.3394 21.3075V19.0972C27.3394 19.065 27.3458 19.033 27.3581 19.0032C27.3704 18.9735 27.3885 18.9464 27.4113 18.9236C27.4341 18.9008 27.4612 18.8827 27.491 18.8703C27.5208 18.858 27.5527 18.8516 27.585 18.8516H29.6662V18.7143H27.585C27.5527 18.7143 27.5208 18.7079 27.491 18.6956C27.4612 18.6832 27.4341 18.6652 27.4113 18.6423C27.3885 18.6195 27.3704 18.5925 27.3581 18.5627C27.3458 18.5329 27.3394 18.5009 27.3394 18.4687V16.8287C27.3388 16.7963 27.3448 16.7641 27.3569 16.734C27.3691 16.704 27.3872 16.6767 27.4101 16.6538C27.433 16.6309 27.4603 16.6128 27.4903 16.6007C27.5204 16.5885 27.5526 16.5825 27.585 16.5831H29.6662V16.4499H27.1396V21.6779Z" fill="black"></path><path d="M33.437 18.885L31.797 16.2043H32.6295L33.8532 18.3771L35.0354 16.2043H35.7971L34.1737 18.9474L35.9969 21.9236H35.1977L33.7866 19.4594L32.4546 21.9236H31.6763L33.437 18.885Z" fill="black"></path><path d="M35.9968 22.1691H35.1977C35.1539 22.1687 35.1109 22.157 35.073 22.1352C35.0351 22.1133 35.0035 22.082 34.9812 22.0442L33.7949 19.963L32.6669 22.0442C32.6458 22.0833 32.6146 22.1159 32.5765 22.1386C32.5384 22.1614 32.4948 22.1733 32.4504 22.1733H31.6762C31.633 22.173 31.5906 22.1613 31.5533 22.1394C31.516 22.1175 31.4852 22.0861 31.4639 22.0484C31.4415 22.0114 31.4297 21.9689 31.4297 21.9256C31.4297 21.8823 31.4415 21.8399 31.4639 21.8028L33.1289 18.8891L31.568 16.3375C31.5457 16.2997 31.5339 16.2566 31.5339 16.2127C31.5339 16.1687 31.5457 16.1256 31.568 16.0878C31.5899 16.0498 31.6215 16.0182 31.6595 15.9963C31.6975 15.9744 31.7406 15.9629 31.7844 15.9629H32.6169C32.6604 15.9623 32.7031 15.9736 32.7406 15.9956C32.778 16.0177 32.8086 16.0495 32.8292 16.0878L33.8365 17.8735L34.8064 16.0919C34.8281 16.0535 34.8595 16.0213 34.8975 15.9987C34.9354 15.9761 34.9786 15.9637 35.0228 15.9629H35.797C35.8405 15.9623 35.8832 15.9736 35.9207 15.9956C35.9581 16.0177 35.9888 16.0495 36.0093 16.0878C36.0309 16.1251 36.0422 16.1675 36.0422 16.2106C36.0422 16.2537 36.0309 16.296 36.0093 16.3334L34.4609 18.9474L36.205 21.7987C36.2273 21.8365 36.2391 21.8796 36.2391 21.9235C36.2391 21.9675 36.2273 22.0106 36.205 22.0484C36.1835 22.0847 36.1531 22.1149 36.1167 22.136C36.0802 22.1571 36.039 22.1685 35.9968 22.1691ZM35.3392 21.678H35.5556L33.9614 19.0764C33.9391 19.0378 33.9274 18.994 33.9274 18.9495C33.9274 18.9049 33.9391 18.8611 33.9614 18.8225L35.3642 16.4499H35.1644L34.053 18.4978C34.0312 18.5363 33.9999 18.5685 33.9619 18.5911C33.9239 18.6137 33.8807 18.6261 33.8365 18.6269C33.7923 18.6261 33.7491 18.6137 33.7112 18.5911C33.6732 18.5685 33.6418 18.5363 33.6201 18.4978L32.4671 16.4499H32.234L33.6451 18.7559C33.6688 18.7933 33.6813 18.8366 33.6813 18.8808C33.6813 18.925 33.6688 18.9683 33.6451 19.0057L32.1008 21.678H32.3006L33.5493 19.3428C33.5707 19.3041 33.602 19.2717 33.6401 19.249C33.6781 19.2263 33.7215 19.2142 33.7658 19.2138C33.8097 19.2133 33.853 19.2247 33.8911 19.2466C33.9291 19.2686 33.9606 19.3004 33.9822 19.3387L35.3392 21.678Z" fill="black"></path></svg>