<svg xmlns="http://www.w3.org/2000/svg" width="33" height="25" viewBox="0 0 33 25" fill="none"><path d="M3.95202 13.4229C3.95233 13.294 3.91435 13.1679 3.84287 13.0606C3.7714 12.9533 3.66966 12.8696 3.55057 12.8202C3.43148 12.7709 3.3004 12.758 3.17398 12.7832C3.04755 12.8085 2.93147 12.8707 2.84047 12.962C2.77944 13.0223 2.73099 13.094 2.69792 13.1731C2.66486 13.2522 2.64783 13.3371 2.64783 13.4229C2.64783 13.5086 2.66486 13.5935 2.69792 13.6727C2.73099 13.7518 2.77944 13.8235 2.84047 13.8838C2.93147 13.9751 3.04755 14.0373 3.17398 14.0626C3.3004 14.0878 3.43148 14.0749 3.55057 14.0255C3.66966 13.9762 3.7714 13.8925 3.84287 13.7852C3.91435 13.6779 3.95233 13.5518 3.95202 13.4229V13.4229Z" fill="black"></path><path d="M32.5843 3.77146L23.969 0.99108L20.9898 0.0301461C20.9308 0.00964283 20.8686 -0.000546955 20.8061 2.26225e-05C20.7438 -3.08362e-05 20.6819 0.00910466 20.6223 0.0271337L8.97967 3.77146C8.86033 3.81035 8.75613 3.88555 8.6816 3.98654C8.60707 4.08753 8.56595 4.20927 8.56396 4.33477V20.2158C8.56595 20.3413 8.60707 20.463 8.6816 20.564C8.75613 20.665 8.86033 20.7402 8.97967 20.7791L20.6163 24.5325C20.7355 24.5726 20.8646 24.5726 20.9838 24.5325L23.969 23.5836L32.5843 20.8062C32.7036 20.7673 32.8078 20.6921 32.8824 20.5911C32.9569 20.4901 32.998 20.3684 33 20.2429V4.33477C32.998 4.20927 32.9569 4.08753 32.8824 3.98654C32.8078 3.88555 32.7036 3.81035 32.5843 3.77146V3.77146ZM19.809 23.0263L9.74781 19.785V5.1481L19.809 8.38937V23.0263ZM20.8031 7.46458L11.0973 4.33477L20.8031 1.20495L21.755 1.50619V1.52125L30.4666 4.32874L21.755 7.14527L20.8031 7.46458ZM31.8162 19.785L21.755 23.0263L20.9928 23.2823V8.64843L23.969 7.69051V7.67544L31.8162 5.1481V19.785Z" fill="black"></path><path d="M1.58449 17.4624H0.650664C0.478097 17.4624 0.312598 17.531 0.190575 17.653C0.0685519 17.775 0 17.9405 0 18.1131C0 18.2856 0.0685519 18.4511 0.190575 18.5732C0.312598 18.6952 0.478097 18.7637 0.650664 18.7637H1.58449C1.75705 18.7637 1.92255 18.6952 2.04458 18.5732C2.1666 18.4511 2.23515 18.2856 2.23515 18.1131C2.23515 17.9405 2.1666 17.775 2.04458 17.653C1.92255 17.531 1.75705 17.4624 1.58449 17.4624Z" fill="black"></path><path d="M9.558 9.12436H2.12356C1.951 9.12436 1.7855 9.19291 1.66348 9.31493C1.54145 9.43696 1.4729 9.60246 1.4729 9.77502C1.4729 9.94759 1.54145 10.1131 1.66348 10.2351C1.7855 10.3571 1.951 10.4257 2.12356 10.4257H9.558V9.12436Z" fill="black"></path><path d="M5.25366 13.4228C5.25446 13.5956 5.32368 13.7611 5.44618 13.883C5.56868 14.005 5.73449 14.0734 5.90734 14.0734H9.55828V12.7721H5.90734C5.73449 12.7721 5.56868 12.8405 5.44618 12.9625C5.32368 13.0844 5.25446 13.2499 5.25366 13.4228V13.4228Z" fill="black"></path><path d="M9.55804 17.4624H4.16897C3.99641 17.4624 3.83091 17.531 3.70889 17.653C3.58686 17.775 3.51831 17.9405 3.51831 18.1131C3.51831 18.2856 3.58686 18.4511 3.70889 18.5732C3.83091 18.6952 3.99641 18.7637 4.16897 18.7637H9.55804V17.4624Z" fill="black"></path></svg>