<svg xmlns="http://www.w3.org/2000/svg" width="43" height="43" viewBox="0 0 43 43" fill="none"><path d="M14.9567 32.716C14.951 31.4822 14.4584 30.3007 13.586 29.4283C12.7136 28.5559 11.532 28.0633 10.2983 28.0576C9.06148 28.0586 7.87531 28.5491 6.99906 29.422C6.12281 30.2949 5.62775 31.4791 5.62207 32.716C5.62775 33.9528 6.12281 35.1371 6.99906 36.01C7.87531 36.8829 9.06148 37.3734 10.2983 37.3743C11.532 37.3686 12.7136 36.8761 13.586 36.0037C14.4584 35.1313 14.951 33.9497 14.9567 32.716V32.716ZM7.47823 32.716C7.47918 31.9721 7.77509 31.259 8.30106 30.733C8.82704 30.2071 9.54015 29.9112 10.284 29.9102C11.0272 29.9121 11.7394 30.2084 12.2646 30.7343C12.7898 31.2602 13.0852 31.9727 13.0862 32.716C13.0852 33.4592 12.7898 34.1718 12.2646 34.6976C11.7394 35.2235 11.0272 35.5198 10.284 35.5217C9.54015 35.5208 8.82704 35.2249 8.30106 34.6989C7.77509 34.1729 7.47918 33.4598 7.47823 32.716V32.716Z" fill="black"></path><path d="M42.0648 9.34532H20.5182C20.2825 6.79288 19.1029 4.42026 17.21 2.69179C15.3172 0.963313 12.8475 0.00342795 10.2842 0C7.55784 0.00189707 4.94366 1.08556 3.01552 3.01303C1.08738 4.9405 0.00284718 7.55423 0 10.2806V32.7158C0.0028457 35.4425 1.08726 38.0567 3.0153 39.9847C4.94334 41.9127 7.55751 42.9972 10.2842 43H42.0648C42.3128 43 42.5507 42.9014 42.7261 42.726C42.9015 42.5506 43 42.3128 43 42.0648V10.2806C43 10.1577 42.9758 10.0361 42.9288 9.92267C42.8818 9.8092 42.8129 9.70612 42.7261 9.61927C42.6392 9.53243 42.5361 9.46353 42.4226 9.41653C42.3092 9.36953 42.1876 9.34532 42.0648 9.34532V9.34532ZM1.87049 10.2806C1.87523 8.05123 2.76344 5.91472 4.34048 4.33902C5.91753 2.76331 8.05484 1.87692 10.2842 1.87408C12.5141 1.87787 14.6516 2.76563 16.2281 4.34278C17.8046 5.91993 18.6914 8.05779 18.6942 10.2877V26.8284C17.7487 25.4744 16.4905 24.3685 15.0264 23.6043C13.5624 22.8402 11.9356 22.4404 10.2842 22.4388C8.63209 22.4398 7.00463 22.8393 5.53991 23.6035C4.07519 24.3677 2.81643 25.474 1.87049 26.8284V10.2806ZM1.87049 32.7158C1.87239 30.4849 2.75944 28.346 4.3369 26.7686C5.91435 25.1911 8.05331 24.304 10.2842 24.3021C12.5144 24.305 14.6524 25.1925 16.2291 26.7698C17.8058 28.3472 18.6923 30.4856 18.6942 32.7158C18.6923 34.946 17.8058 37.0845 16.2291 38.6618C14.6524 40.2392 12.5144 41.1267 10.2842 41.1295C8.05331 41.1276 5.91435 40.2405 4.3369 38.6631C2.75944 37.0856 1.87239 34.9467 1.87049 32.7158V32.7158ZM41.1295 41.1295H37.3921V28.9784C37.3921 28.7304 37.2936 28.4925 37.1182 28.3171C36.9428 28.1417 36.7049 28.0432 36.4568 28.0432C36.2088 28.0432 35.9709 28.1417 35.7955 28.3171C35.6201 28.4925 35.5216 28.7304 35.5216 28.9784V41.1295H16.1716C17.5263 40.1838 18.6327 38.9251 19.3969 37.4603C20.1611 35.9955 20.5605 34.3679 20.5612 32.7158V11.2158H35.518V23.3741C35.518 23.6221 35.6165 23.86 35.7919 24.0354C35.9673 24.2108 36.2052 24.3093 36.4532 24.3093C36.7013 24.3093 36.9392 24.2108 37.1146 24.0354C37.29 23.86 37.3885 23.6221 37.3885 23.3741V11.223H41.1259L41.1295 41.1295Z" fill="black"></path></svg>