<svg xmlns="http://www.w3.org/2000/svg" width="39" height="51" viewBox="0 0 39 51" fill="none"><path d="M35.8626 21.192C35.5913 20.7392 35.304 20.2842 35.0007 19.8271L34.8501 19.5933C34.4784 19.0025 25.6673 5.12936 21.0086 1.36012C20.7284 1.13207 20.3779 1.00472 20.0146 0.998982C19.6513 0.993241 19.2968 1.10945 19.0093 1.32853C14.1103 5.03457 4.63912 20.1557 4.23861 20.7971C3.93423 21.2394 3.65229 21.6944 3.39276 22.1557L3.07235 22.6517H3.1108C1.59601 25.5331 0.870389 28.7546 1.00574 31.9974C1.39663 41.9686 9.89376 50.0063 19.9993 50.0063H20.2268C25.2192 49.9285 29.9815 47.9229 33.4905 44.4202C36.9995 40.9175 38.9751 36.1974 38.9929 31.2739C38.9993 27.4193 37.7818 24.3546 35.8626 21.192ZM29.9543 44.5246L10.1084 44.5499C8.07688 43.0862 6.40582 41.19 5.21934 39.0021C4.03287 36.8142 3.36147 34.3909 3.25499 31.9121C3.10763 28.3852 4.11901 24.9057 6.13863 21.9914L7.45228 20.0767H7.35296C9.97707 16.02 16.3051 6.5132 19.9897 3.39166C23.543 6.55111 29.5346 15.4861 31.928 19.151H31.8927L32.9661 20.7687C35.3147 24.3009 36.7693 27.2866 36.7693 31.2486C36.765 33.8328 36.1463 36.38 34.9627 38.6857C33.7791 40.9913 32.0637 42.9912 29.9543 44.5246Z" fill="white"></path></svg>