<svg xmlns="http://www.w3.org/2000/svg" width="40" height="61" viewBox="0 0 40 61" fill="none"><path d="M16.3198 16.3351H23.2648C27.0064 16.3351 30.5948 14.8536 33.2405 12.2167C35.8862 9.5797 37.3726 6.00321 37.3726 2.27398V1.12656C37.3726 0.82778 37.2535 0.54124 37.0415 0.329969C36.8295 0.118699 36.542 0 36.2423 0H32.5709C29.8433 0.00153878 27.1745 0.790442 24.8872 2.27133C22.5998 3.75222 20.7917 5.86171 19.6814 8.34486C18.4613 5.84476 16.5607 3.73675 14.1966 2.26127C11.8324 0.785794 9.09981 0.00224763 6.31042 0H3.38003C3.08026 0 2.79277 0.118699 2.58079 0.329969C2.36882 0.54124 2.24976 0.82778 2.24976 1.12656V2.31987C2.24976 4.16108 2.61371 5.98426 3.3209 7.6852C4.02809 9.38615 5.06465 10.9315 6.37128 12.2331C7.67792 13.5346 9.22906 14.5668 10.9361 15.2707C12.6431 15.9745 14.4725 16.3362 16.3198 16.3351ZM32.5709 3.0584H34.2747C34.0739 5.8331 32.8271 8.4293 30.7848 10.3255C28.7425 12.2217 26.056 13.2775 23.2648 13.2809H21.5568C21.7597 10.5061 23.0077 7.91049 25.0504 6.01455C27.0932 4.11861 29.7796 3.06263 32.5709 3.0584ZM6.31042 3.0584C9.17048 3.06206 11.932 4.10045 14.0817 5.98063C16.2314 7.8608 17.6233 10.4549 17.9985 13.2809H16.324C13.5372 13.2768 10.8556 12.2196 8.82014 10.3225C6.78465 8.42536 5.54667 5.82947 5.35594 3.0584H6.31042Z" fill="white"></path><path d="M37.3176 23.7744H36.9324L37.4599 20.257C37.4917 20.0396 37.4763 19.8179 37.4145 19.607C37.3528 19.3961 37.2462 19.2008 37.102 19.0346C36.9579 18.8684 36.7795 18.735 36.5791 18.6435C36.3786 18.5521 36.1607 18.5047 35.9403 18.5046H3.62643C3.40597 18.5047 3.18816 18.5521 2.98771 18.6435C2.78725 18.735 2.60888 18.8684 2.46473 19.0346C2.32057 19.2008 2.21399 19.3961 2.15224 19.607C2.09049 19.8179 2.07502 20.0396 2.10686 20.257L2.63428 23.7744H2.39988C1.81614 23.7647 1.24934 23.9701 0.808207 24.3512C0.367074 24.7324 0.0826881 25.2625 0.00953476 25.8398C-0.019534 26.1571 0.0180383 26.4771 0.119864 26.7792C0.221689 27.0813 0.385515 27.3589 0.600938 27.5944C0.81636 27.83 1.07862 28.0182 1.37104 28.1471C1.66347 28.276 1.97966 28.3428 2.29941 28.3432H3.32084L6.97964 52.7561C7.03383 53.1192 7.2171 53.4508 7.49602 53.6905C7.77495 53.9302 8.13096 54.0621 8.49926 54.0621H18.0942C18.0523 55.6309 18.4793 58.0927 21.0246 60.2957C21.1757 60.4288 21.3518 60.5307 21.5426 60.5956C21.7334 60.6605 21.9352 60.6871 22.1364 60.6739C22.3376 60.6607 22.5342 60.608 22.7148 60.5187C22.8954 60.4295 23.0566 60.3054 23.1889 60.1538C23.3219 60.003 23.4237 59.8274 23.4885 59.6373C23.5533 59.4472 23.5798 59.2462 23.5666 59.0458C23.5534 58.8455 23.5007 58.6497 23.4114 58.4697C23.3222 58.2897 23.1982 58.1289 23.0466 57.9967C21.372 56.5197 21.1418 54.9425 21.1795 54.0621H31.0717C31.4399 54.0621 31.796 53.9302 32.0749 53.6905C32.3538 53.4508 32.5371 53.1192 32.5913 52.7561L36.2501 28.3432H37.4097C37.7294 28.3428 38.0456 28.276 38.338 28.1471C38.6304 28.0182 38.8927 27.83 39.1082 27.5944C39.3236 27.3589 39.4874 27.0813 39.5892 26.7792C39.6911 26.4771 39.7286 26.1571 39.6996 25.8398C39.6257 25.2643 39.3422 24.736 38.903 24.3552C38.4639 23.9744 37.8996 23.7677 37.3176 23.7744ZM29.7613 51.0204H18.877H18.8268H9.84308L6.07544 25.8982C6.06787 25.7813 6.04965 25.6654 6.02102 25.5519L5.42655 21.5588H34.1821L29.7613 51.0204Z" fill="white"></path><path d="M16.3324 30.5881C16.165 29.495 15.311 28.6396 14.3942 28.6396H14.2477C14.0459 28.6605 13.8508 28.7233 13.6749 28.8239C13.4989 28.9245 13.3461 29.0607 13.2262 29.2237C13.0539 29.4624 12.9311 29.733 12.8649 30.0196C12.7988 30.3061 12.7907 30.603 12.841 30.8927L14.8337 43.6562C15.0053 44.7494 15.8551 45.6047 16.7719 45.6047H16.9184C17.1208 45.5839 17.3165 45.5212 17.4931 45.4206C17.6698 45.32 17.8234 45.1838 17.9441 45.0206C18.1159 44.7817 18.2381 44.511 18.3035 44.2244C18.3689 43.9378 18.3763 43.6411 18.3251 43.3516L16.3324 30.5881Z" fill="white"></path><path d="M25.7264 28.6438H25.5841C24.6673 28.6438 23.8133 29.4783 23.6416 30.5923L21.6489 43.3557C21.5986 43.6455 21.6067 43.9424 21.6729 44.2289C21.739 44.5155 21.8618 44.786 22.0341 45.0247C22.154 45.1878 22.3069 45.324 22.4828 45.4246C22.6587 45.5252 22.8538 45.588 23.0555 45.6089H23.202C24.1188 45.6089 24.9728 44.7744 25.1445 43.6604L27.133 30.8969C27.1851 30.6074 27.1783 30.3105 27.1128 30.0238C27.0474 29.737 26.9247 29.4664 26.752 29.2279C26.6313 29.0647 26.4777 28.9285 26.3011 28.8279C26.1245 28.7273 25.9287 28.6646 25.7264 28.6438Z" fill="white"></path></svg>