<svg xmlns="http://www.w3.org/2000/svg" width="47" height="51" viewBox="0 0 47 51" fill="none"><path d="M29.692 36.1004C29.8588 35.8744 29.9306 35.5921 29.8921 35.3139C29.8744 35.177 29.8289 35.0452 29.7583 34.9265C29.6877 34.8079 29.5935 34.7049 29.4816 34.6241L24.1524 30.6263V25.1385C24.1524 24.8577 24.0409 24.5883 23.8423 24.3897C23.6437 24.1912 23.3744 24.0796 23.0935 24.0796C22.8127 24.0796 22.5433 24.1912 22.3447 24.3897C22.1461 24.5883 22.0346 24.8577 22.0346 25.1385V30.6263L16.7123 34.6172C16.5982 34.6974 16.5015 34.7999 16.428 34.9184C16.3545 35.037 16.3057 35.1692 16.2846 35.3071C16.2611 35.5862 16.3368 35.8647 16.4985 36.0935C16.6687 36.3139 16.9182 36.4592 17.1939 36.4985C17.4696 36.5378 17.7497 36.4679 17.9748 36.3039L23.0935 32.4648L28.1916 36.3211C28.3747 36.4558 28.5955 36.5294 28.8228 36.5315C28.9909 36.5306 29.1567 36.4913 29.3073 36.4166C29.458 36.3419 29.5895 36.2337 29.692 36.1004Z" fill="white"></path><path d="M23.0931 11.0791C24.1905 11.0832 25.2644 10.7613 26.1785 10.1541C27.0926 9.54702 27.8059 8.68207 28.2277 7.669C28.6495 6.65594 28.761 5.54042 28.5479 4.46392C28.3348 3.38743 27.8068 2.39847 27.0308 1.62251C26.2549 0.84654 25.2659 0.318526 24.1894 0.105441C23.1129 -0.107645 21.9974 0.00379333 20.9843 0.425633C19.9713 0.847472 19.1063 1.56071 18.4992 2.47485C17.8921 3.38899 17.5702 4.46285 17.5743 5.56023C17.5806 7.02196 18.1641 8.42204 19.1977 9.45565C20.2313 10.4893 21.6314 11.0727 23.0931 11.0791ZM23.0931 2.11093C23.7687 2.11025 24.4292 2.30994 24.9912 2.68475C25.5532 3.05956 25.9915 3.59264 26.2504 4.21655C26.5094 4.84046 26.5775 5.52718 26.4462 6.18981C26.3148 6.85244 25.9898 7.46122 25.5124 7.93913C25.035 8.41704 24.4265 8.74264 23.764 8.87468C23.1015 9.00672 22.4147 8.93926 21.7906 8.68091C21.1664 8.42255 20.6329 7.98489 20.2575 7.42325C19.8821 6.86162 19.6818 6.20125 19.6818 5.52572C19.6845 4.62213 20.0449 3.7564 20.6842 3.11778C21.3234 2.47917 22.1895 2.11966 23.0931 2.11784V2.11093Z" fill="white"></path><path d="M8.53364 40.329C9.62517 40.329 10.6922 40.0053 11.5998 39.3989C12.5073 38.7925 13.2147 37.9305 13.6324 36.9221C14.0501 35.9137 14.1594 34.804 13.9465 33.7334C13.7335 32.6629 13.2079 31.6795 12.4361 30.9077C11.6642 30.1359 10.6809 29.6103 9.61032 29.3973C8.53977 29.1844 7.43011 29.2936 6.42166 29.7113C5.41322 30.129 4.55128 30.8364 3.94486 31.744C3.33844 32.6516 3.01477 33.7186 3.01477 34.8101C3.01477 36.2738 3.59622 37.6776 4.63121 38.7126C5.66619 39.7475 7.06995 40.329 8.53364 40.329ZM5.12228 34.7791C5.12297 34.1045 5.32362 33.4453 5.69888 32.8848C6.07414 32.3242 6.60715 31.8875 7.23056 31.6299C7.85396 31.3722 8.53976 31.3051 9.20127 31.4372C9.86278 31.5692 10.4703 31.8943 10.9471 32.3716C11.4238 32.8488 11.7483 33.4566 11.8797 34.1183C12.011 34.7799 11.9433 35.4656 11.685 36.0888C11.4267 36.7119 10.9894 37.2445 10.4285 37.6192C9.8676 37.9939 9.2082 38.1939 8.53364 38.1939C7.62886 38.1921 6.76171 37.8316 6.12225 37.1915C5.48279 36.5514 5.1232 35.6839 5.12228 34.7791Z" fill="white"></path><path d="M37.6284 40.329C38.7199 40.329 39.7869 40.0053 40.6945 39.3989C41.6021 38.7925 42.3094 37.9305 42.7271 36.9221C43.1449 35.9137 43.2541 34.804 43.0412 33.7334C42.8282 32.6629 42.3026 31.6795 41.5308 30.9077C40.759 30.1359 39.7756 29.6103 38.705 29.3973C37.6345 29.1844 36.5248 29.2936 35.5164 29.7113C34.5079 30.129 33.646 30.8364 33.0396 31.744C32.4332 32.6516 32.1095 33.7186 32.1095 34.8101C32.1095 36.2738 32.691 37.6776 33.726 38.7126C34.7609 39.7475 36.1647 40.329 37.6284 40.329ZM34.217 34.7791C34.2177 34.1045 34.4183 33.4453 34.7936 32.8848C35.1689 32.3242 35.7019 31.8875 36.3253 31.6299C36.9487 31.3722 37.6345 31.3051 38.296 31.4372C38.9575 31.5692 39.565 31.8943 40.0418 32.3716C40.5185 32.8488 40.8431 33.4566 40.9744 34.1183C41.1058 34.7799 41.038 35.4656 40.7797 36.0888C40.5214 36.7119 40.0842 37.2445 39.5233 37.6192C38.9623 37.9939 38.3029 38.1939 37.6284 38.1939C36.7236 38.1921 35.8564 37.8316 35.217 37.1915C34.5775 36.5514 34.2179 35.6839 34.217 34.7791Z" fill="white"></path><path d="M12.959 41.9985H4.0874C3.00364 41.9994 1.96452 42.4304 1.19818 43.1967C0.431838 43.9631 0.000913417 45.0022 0 46.086V50.4183H16.8739C17.0499 50.4183 17.0499 50.4183 17.0499 48.1659V46.0963C17.0503 45.5586 16.9449 45.0261 16.7395 44.5292C16.5342 44.0323 16.233 43.5807 15.8531 43.2002C15.4732 42.8197 15.0221 42.5177 14.5256 42.3115C14.029 42.1054 13.4967 41.999 12.959 41.9985ZM7.65053 48.2832L7.47807 48.3039H2.13511V46.086C2.13403 45.6729 2.26306 45.27 2.50392 44.9344C2.74477 44.5988 3.0852 44.3476 3.47689 44.2164L3.59761 44.1751V44.0923H10.7618L11.2102 44.113H12.959C13.48 44.1201 13.9777 44.3303 14.3462 44.6987C14.7147 45.0672 14.9248 45.5649 14.932 46.086V48.3039H9.58903V48.2832H7.65053Z" fill="white"></path><path d="M42.1643 41.9985H33.2927C32.209 41.9994 31.1698 42.4304 30.4035 43.1967C29.6372 43.9631 29.2062 45.0022 29.2053 46.086V50.4183H46.2552V46.086C46.2534 45.0019 45.8217 43.9628 45.0548 43.1965C44.2879 42.4303 43.2484 41.9994 42.1643 41.9985ZM40.3948 44.113H42.1436C42.6647 44.1201 43.1624 44.3303 43.5308 44.6987C43.8993 45.0672 44.1095 45.5649 44.1166 46.086V48.3039H38.7737V48.2832H36.8386L36.6661 48.3039H31.3197V46.086C31.3176 45.6727 31.4462 45.2693 31.6872 44.9335C31.9282 44.5977 32.2693 44.3467 32.6615 44.2164L32.7788 44.1751V44.0923H39.943L40.3948 44.113Z" fill="white"></path><path d="M31.561 16.7256C31.5601 15.6418 31.1291 14.6027 30.3628 13.8364C29.5965 13.07 28.5573 12.6391 27.4736 12.6382H18.6227C17.5392 12.64 16.5006 13.0713 15.7345 13.8374C14.9683 14.6035 14.5371 15.6421 14.5353 16.7256V21.0579H31.561V16.7256ZM16.6497 18.9435V16.7256C16.6475 16.3123 16.7762 15.9089 17.0172 15.5731C17.2582 15.2373 17.5992 14.9863 17.9915 14.8561L18.1087 14.8147V14.7319H25.2729L25.7248 14.7526H27.4736C27.9946 14.7597 28.4923 14.9699 28.8608 15.3384C29.2293 15.7068 29.4394 16.2045 29.4466 16.7256V18.9435H23.9277L22.1582 18.9228H21.9857L16.6497 18.9435Z" fill="white"></path></svg>