<svg xmlns="http://www.w3.org/2000/svg" width="30" height="29" viewBox="0 0 30 29" fill="none"><path d="M17.1933 23.6032V24.5879H2.16234C0.809913 24.5854 0 23.7806 0 22.4384V2.14691C0 0.812484 0.807342 0 2.13663 0H26.3826C27.7093 0 28.5166 0.812484 28.5166 2.14948C28.5166 7.38435 28.5166 12.6192 28.5166 17.8541V18.1755H27.5422V4.93918H0.984751V5.26315C0.984751 10.99 0.984751 16.7159 0.984751 22.441C0.984751 23.2329 1.355 23.6032 2.15205 23.6032H17.1933ZM27.5345 3.92615V2.17262C27.5345 1.34214 27.1694 0.98218 26.3337 0.98218H2.18291C2.10063 0.98218 2.01835 0.98218 1.92579 0.98218C1.70195 0.980376 1.48499 1.05953 1.3149 1.20505C1.14481 1.35058 1.03304 1.55267 1.00018 1.7741C0.953897 2.48373 1.00018 3.19851 1.00018 3.92101L27.5345 3.92615Z" fill="black"></path><path d="M8.86528 14.5785C8.72129 15.0567 8.60816 15.4655 8.47446 15.864C8.22763 16.6894 7.99366 17.507 7.7494 18.3246C7.61055 18.7849 7.49228 18.8877 7.0449 18.8877C5.90331 18.8877 4.76258 18.8877 3.6227 18.8877C3.13161 18.8877 2.93106 18.6614 2.95677 18.1164C3.0699 15.7098 3.19332 13.3006 3.31159 10.8914C3.36558 9.8064 3.42472 8.72137 3.47614 7.63634C3.50185 7.08869 3.67412 6.89328 4.15236 6.89328C7.25316 6.89328 10.354 6.89328 13.4548 6.89328C13.9176 6.89328 14.095 7.09126 14.1207 7.60806C14.2921 11.0243 14.4635 14.443 14.6349 17.8644C14.6349 17.9878 14.6478 18.1215 14.6478 18.2398C14.6478 18.6357 14.4472 18.8877 14.1027 18.8903C13.0511 18.8903 11.9969 18.8903 10.9453 18.8903C10.6471 18.8903 10.498 18.682 10.3848 18.394C9.94773 17.2627 9.50035 16.1366 9.05554 15.0078C8.99898 14.8844 8.95013 14.7687 8.86528 14.5785ZM4.39661 10.5032C4.28091 12.8969 4.16264 15.2752 4.04437 17.687C4.83114 17.687 5.58706 17.6638 6.33269 17.687C6.70037 17.705 6.91634 17.6124 6.97291 17.1727C7.01313 16.9794 7.06815 16.7894 7.13746 16.6045C7.51542 15.3189 7.88824 14.0334 8.27134 12.7684C8.42047 12.2721 8.84985 12.1101 9.1481 12.4341C9.23858 12.5478 9.30822 12.6767 9.3538 12.8146C9.95802 14.3393 10.5571 15.8692 11.1536 17.3939C11.1973 17.5044 11.2976 17.651 11.3747 17.651C12.0895 17.6715 12.8043 17.651 13.5396 17.651C13.4214 15.2238 13.3031 12.8455 13.1874 10.4672L4.39661 10.5032ZM13.082 8.09915H4.51232L4.46604 9.25617H13.136L13.082 8.09915Z" fill="black"></path><path d="M23.0915 17.273C23.94 17.1367 24.2794 17.2575 24.8425 17.8592C26.1127 17.4864 26.8994 17.9595 27.0588 19.1859C27.3496 19.1812 27.6402 19.2001 27.9279 19.2425C28.2223 19.3102 28.4863 19.4727 28.6795 19.7049C28.8727 19.9371 28.9844 20.2263 28.9975 20.528C29.0283 22.0425 29.09 23.562 28.6401 25.0404C28.5402 25.4155 28.4121 25.7825 28.257 26.1383C28.0782 26.5167 27.9977 26.9341 28.023 27.3519C28.0384 27.8944 28.023 28.4369 28.023 29H27.0486C27.0486 28.1592 27.0486 27.3236 27.0486 26.4854C27.0663 26.3743 27.1056 26.2678 27.1643 26.1717C27.7485 24.9445 28.0432 23.5995 28.0256 22.2404C28.0256 21.7262 28.0256 21.2351 28.0256 20.7337C28.0256 20.3763 27.8225 20.1552 27.5114 20.1629C27.4424 20.1671 27.3749 20.1851 27.3131 20.216C27.2512 20.2468 27.1962 20.2898 27.1513 20.3423C27.1064 20.3949 27.0726 20.4559 27.0519 20.5219C27.0311 20.5878 27.0239 20.6572 27.0306 20.726C27.0306 21.0114 27.0306 21.2994 27.0306 21.6105H26.0458V20.9266C26.0458 20.3635 26.0458 19.8004 26.0458 19.2373C26.0545 19.1678 26.0484 19.0973 26.0278 19.0304C26.0072 18.9635 25.9725 18.9017 25.9262 18.8492C25.8799 18.7967 25.8229 18.7546 25.7591 18.7258C25.6953 18.697 25.626 18.6821 25.556 18.6821C25.486 18.6821 25.4167 18.697 25.3529 18.7258C25.2891 18.7546 25.2321 18.7967 25.1858 18.8492C25.1395 18.9017 25.1048 18.9635 25.0842 19.0304C25.0636 19.0973 25.0575 19.1678 25.0662 19.2373C25.0662 19.8595 25.0662 20.4818 25.0662 21.122H24.0917V20.8417C24.0917 20.1552 24.0917 19.4713 24.0917 18.7848C24.0917 18.4197 23.904 18.2012 23.6058 18.196C23.3075 18.1909 23.1121 18.412 23.1095 18.7719C23.1095 19.3865 23.1095 19.9984 23.1095 20.6335H22.1248V20.2992C22.1248 19.1499 22.1248 18.0032 22.1248 16.8564C22.1248 16.4631 21.9525 16.2394 21.6491 16.2291C21.3457 16.2188 21.1349 16.4528 21.1349 16.859V23.58H20.1707V21.991C19.4148 22.1993 18.9854 23.1738 19.2682 23.9862C19.3911 24.3367 19.6284 24.6356 19.9419 24.8347C20.3713 25.1176 20.7955 25.4029 21.2275 25.6883C21.5133 25.872 21.7468 26.1264 21.9053 26.4269C22.0639 26.7274 22.1422 27.0637 22.1325 27.4033C22.1325 27.9175 22.1325 28.4472 22.1325 28.9897H21.1426C21.1426 28.4909 21.1426 27.9921 21.1426 27.4933C21.1592 27.2832 21.1152 27.0727 21.0159 26.8868C20.9165 26.7008 20.766 26.5473 20.5821 26.4443C20.1604 26.1872 19.7413 25.8966 19.3325 25.6086C18.953 25.3521 18.6478 24.9999 18.4479 24.5878C18.2479 24.1756 18.1602 23.718 18.1936 23.2611C18.227 22.8042 18.3803 22.3642 18.638 21.9854C18.8958 21.6067 19.2488 21.3027 19.6616 21.104C19.8295 21.0463 19.9724 20.9324 20.0661 20.7815C20.1598 20.6307 20.1985 20.4522 20.1759 20.2761C20.1424 19.0882 20.1579 17.9003 20.1759 16.7125C20.1773 16.3428 20.3178 15.9872 20.5696 15.7165C20.8213 15.4458 21.1658 15.2799 21.5343 15.2517C21.9029 15.2235 22.2686 15.3351 22.5586 15.5643C22.8486 15.7936 23.0416 16.1236 23.0993 16.4888C23.1161 16.75 23.1135 17.0121 23.0915 17.273V17.273Z" fill="black"></path><path d="M19.4944 18.772L18.8516 19.4508C17.9363 18.6795 17.2318 16.8103 18.0803 15.0233C18.4706 14.2081 19.1298 13.5522 19.9469 13.1659C20.764 12.7796 21.6892 12.6865 22.5669 12.9021C24.3102 13.3238 25.6035 14.959 25.552 16.6971H24.5956C24.5865 16.2942 24.497 15.8972 24.3323 15.5294C24.1676 15.1616 23.9311 14.8304 23.6365 14.5554C23.3147 14.2562 22.9299 14.0329 22.5105 13.9018C22.0911 13.7707 21.6476 13.7352 21.2127 13.7978C20.7777 13.8604 20.3623 14.0196 19.9969 14.2637C19.6315 14.5078 19.3254 14.8306 19.101 15.2084C18.5868 16.0672 18.3708 17.4608 19.4944 18.772Z" fill="black"></path></svg>