<svg xmlns="http://www.w3.org/2000/svg" width="62" height="57" viewBox="0 0 62 57" fill="none"><path d="M61.3038 22.0936L31.629 6.01987C31.4352 5.91798 31.2193 5.86475 31 5.86475C30.7807 5.86475 30.5648 5.91798 30.3709 6.01987L9.45264 17.3307C9.395 17.362 9.34028 17.3982 9.28911 17.4391L0.696147 22.0936C0.486003 22.2078 0.310563 22.3761 0.188108 22.5808C0.0656539 22.7855 0.00068692 23.0191 0 23.2572V55.6507C0.00110996 56.0018 0.142107 56.3381 0.392086 56.5859C0.642065 56.8337 0.980632 56.9729 1.3336 56.9729H60.6664C61.0193 56.9729 61.3579 56.8337 61.6079 56.5859C61.8579 56.3381 61.9989 56.0018 62 55.6507V23.2572C61.9993 23.0191 61.9343 22.7855 61.8119 22.5808C61.6894 22.3761 61.514 22.2078 61.3038 22.0936ZM36.1415 50.3373C36.2654 50.2145 36.3637 50.0686 36.4307 49.9079C36.4978 49.7473 36.5323 49.575 36.5323 49.401C36.5323 49.227 36.4978 49.0548 36.4307 48.8941C36.3637 48.7335 36.2654 48.5875 36.1415 48.4647C35.8879 48.2238 35.5507 48.0893 35.2 48.0893C34.8493 48.0893 34.5121 48.2238 34.2585 48.4647L30.2535 52.4519C30.2539 51.059 30.5384 49.6808 31.0899 48.4004C31.6413 47.1201 32.4482 45.9644 33.4617 45.0031C37.1396 41.3454 41.2159 41.6665 42.6879 41.9585C42.9807 43.6193 42.8556 45.3264 42.3236 46.9275C41.7916 48.5285 40.8693 49.9736 39.6391 51.1339C37.791 53.0523 35.2744 54.194 32.6062 54.3245H32.1239L36.1415 50.3373ZM28.0937 48.8401L25.2085 45.9748C24.9549 45.7339 24.6177 45.5995 24.267 45.5995C23.9163 45.5995 23.5791 45.7339 23.3255 45.9748C23.2016 46.0976 23.1033 46.2436 23.0362 46.4043C22.9692 46.5649 22.9346 46.7372 22.9346 46.9111C22.9346 47.0851 22.9692 47.2573 23.0362 47.418C23.1033 47.5787 23.2016 47.7246 23.3255 47.8474L27.5192 52.0181L27.5695 52.064C27.5508 52.7401 27.5873 53.4165 27.6786 54.0867C25.6413 53.6416 23.7814 52.6086 22.3316 51.1172C21.1013 49.9569 20.179 48.5118 19.647 46.9108C19.115 45.3097 18.9899 43.6026 19.2827 41.9418C20.7505 41.6707 24.8226 41.3329 28.5089 44.9864C28.8067 45.2825 29.0918 45.5953 29.3477 45.9206C28.8082 46.8371 28.3882 47.8181 28.0979 48.8401H28.0937ZM41.5137 53.0107C46.8103 47.7432 45.4138 41.6874 45.0825 40.5404C45.0278 40.3248 44.9192 40.1265 44.7667 39.9639C44.6141 39.8013 44.4227 39.6796 44.2102 39.6104C43.1382 39.3002 42.0262 39.1484 40.9098 39.16C39.1656 39.1646 37.4403 39.5189 35.8371 40.2018C34.2338 40.8848 32.7855 41.8822 31.5787 43.1346C31.3774 43.3348 31.1845 43.5517 30.9916 43.7519C30.7861 43.5267 30.5932 43.3348 30.4003 43.1346C29.1961 41.8789 27.7492 40.8782 26.1465 40.1923C24.5438 39.5064 22.8182 39.1496 21.0735 39.1433C19.9569 39.1301 18.8447 39.2819 17.773 39.5937C17.5605 39.6629 17.3691 39.7845 17.2166 39.9472C17.0641 40.1098 16.9554 40.3082 16.9007 40.5238C16.5652 41.6791 15.1687 47.7223 20.4696 52.994C20.9433 53.4657 21.4476 53.906 21.9793 54.312H8.19872V30.3307H53.7845V54.312H40.0039C40.5352 53.91 41.0396 53.474 41.5137 53.0065V53.0107ZM55.1181 27.6948H6.86512C6.51177 27.6959 6.17321 27.836 5.92335 28.0845C5.67349 28.3329 5.53263 28.6697 5.53152 29.0211V54.3287H2.65044V24.0497L12.7741 18.5653L12.9335 18.461L30.9916 8.69746L59.3328 24.0497V54.3287H56.4475V29.0211C56.448 28.8469 56.4141 28.6744 56.3476 28.5132C56.2811 28.3521 56.1833 28.2056 56.0599 28.0821C55.9364 27.9585 55.7897 27.8604 55.6281 27.7932C55.4665 27.726 55.2932 27.6912 55.1181 27.6907V27.6948Z" fill="white"></path><path d="M57.313 8.37839C57.5773 8.379 57.8358 8.29781 58.0557 8.14513C58.2755 7.99244 58.4468 7.77514 58.5478 7.52088C58.6487 7.26662 58.6748 6.98688 58.6226 6.71717C58.5705 6.44747 58.4425 6.19996 58.2549 6.00616C57.1368 4.84274 55.6206 4.18921 54.0397 4.18921C52.4588 4.18921 50.9426 4.84274 49.8245 6.00616C49.7003 6.13506 49.6017 6.28821 49.5345 6.45682C49.4672 6.62543 49.4326 6.80618 49.4326 6.98875C49.4326 7.17131 49.4672 7.35211 49.5345 7.52072C49.6017 7.68933 49.7003 7.84244 49.8245 7.97133C50.0787 8.22415 50.4168 8.36525 50.7684 8.36525C51.1201 8.36525 51.4581 8.22415 51.7124 7.97133C52.3298 7.32908 53.1668 6.96834 54.0397 6.96834C54.9125 6.96834 55.7496 7.32908 56.367 7.97133C56.491 8.10092 56.6384 8.20364 56.8008 8.27351C56.9632 8.34338 57.1373 8.37903 57.313 8.37839Z" fill="white"></path><path d="M48.4057 4.66143C49.908 3.27711 51.9419 2.49988 54.0622 2.49988C56.1824 2.49988 58.2163 3.27711 59.7187 4.66143C59.844 4.77782 59.993 4.87008 60.157 4.93283C60.3211 4.99558 60.497 5.0276 60.6745 5.02702C61.0284 5.02084 61.3655 4.8864 61.6133 4.65265C61.8612 4.41889 62 4.10446 62 3.77698C62.0006 3.61271 61.966 3.44996 61.8982 3.29815C61.8304 3.14633 61.7307 3.00846 61.6049 2.89254C59.5966 1.04015 56.8766 0 54.0409 0C51.2053 0 48.4853 1.04015 46.477 2.89254C46.3515 3.0083 46.2519 3.14585 46.184 3.29728C46.116 3.44872 46.0811 3.61105 46.0811 3.77502C46.0811 3.93898 46.116 4.10131 46.184 4.25275C46.2519 4.40418 46.3515 4.54173 46.477 4.65749C46.7343 4.89092 47.0801 5.02201 47.4404 5.02275C47.8008 5.02348 48.1472 4.8938 48.4057 4.66143Z" fill="white"></path><path d="M53.1484 9.57008C53.0032 9.71764 52.8962 9.89894 52.8368 10.098C52.7775 10.2971 52.7677 10.5079 52.8082 10.7117C52.8487 10.9156 52.9384 11.1062 53.0693 11.2669C53.2001 11.4275 53.3682 11.5533 53.5586 11.633C53.749 11.7127 53.956 11.7439 54.1612 11.724C54.3665 11.704 54.5637 11.6334 54.7355 11.5184C54.9073 11.4035 55.0484 11.2477 55.1463 11.0647C55.2443 10.8818 55.2961 10.6774 55.2972 10.4695C55.2978 10.3024 55.2655 10.1369 55.2022 9.98254C55.1389 9.82816 55.0459 9.68796 54.9285 9.57008C54.687 9.34275 54.3689 9.21631 54.0385 9.21631C53.708 9.21631 53.3899 9.34275 53.1484 9.57008Z" fill="white"></path></svg>