<svg xmlns="http://www.w3.org/2000/svg" width="34" height="27" viewBox="0 0 34 27" fill="none"><path d="M33.9937 16.1728C33.9102 15.944 33.7525 15.7498 33.5458 15.6211C33.339 15.4924 33.0952 15.4366 32.8531 15.4626H32.8091C32.3031 15.4626 31.7972 15.4626 31.2913 15.4626L28.5261 15.4846V4.66557C28.5261 4.63729 28.5261 4.60586 28.5261 4.57444C28.5393 4.51017 28.5393 4.44388 28.5261 4.37961C28.5261 3.24209 28.5261 2.10457 28.5261 0.967045C28.532 0.843014 28.5128 0.719064 28.4696 0.602651C28.4264 0.486238 28.3601 0.379769 28.2746 0.289649C28.1892 0.199528 28.0864 0.127618 27.9725 0.0782447C27.8586 0.0288716 27.7358 0.00305562 27.6116 0.00234994C27.5541 -0.000783315 27.4964 -0.000783315 27.4388 0.00234994H12.9935C12.5128 0.00234994 12.3085 0.209744 12.3085 0.69052V4.62786H3.67652C2.78725 4.62786 2.45416 4.94209 2.45416 5.83451V12.8231H1.69057C1.52403 12.8231 1.35748 12.8231 1.19094 12.8231H1.0841C0.847405 12.8055 0.611689 12.8682 0.414996 13.001C0.218303 13.1338 0.0721071 13.3291 0 13.5552V26.1245H34L33.9937 16.1728ZM3.59168 5.76852H6.41978V8.76945H9.42699V5.76538H12.2551V12.8042H3.59168V5.76852ZM17.7636 24.9902H1.13752V13.9669H7.94695V16.9489H10.9542V13.9574H17.7636V24.9902ZM18.9105 13.5709C18.9105 13.0116 18.7157 12.8231 18.1501 12.8231H13.4429V1.13045H18.9074V4.1408H21.9272V1.13673H27.4074V15.4469H18.9231L18.9105 13.5709ZM32.8625 24.9619H18.92V16.6127H24.4002V19.6168H27.4042V16.6096H32.8625V24.9619Z" fill="black"></path></svg>