<svg xmlns="http://www.w3.org/2000/svg" width="43" height="42" viewBox="0 0 43 42" fill="none"><path d="M30.1065 42C29.9305 42 29.7617 41.9301 29.6373 41.8057C29.5129 41.6812 29.443 41.5125 29.443 41.3365V34.8947L29.2885 34.9614C27.6301 35.7167 25.892 36.2831 24.107 36.6499L24.0157 36.6745V41.3365C24.0157 41.5125 23.9458 41.6812 23.8214 41.8057C23.6969 41.9301 23.5282 42 23.3522 42H18.6235C18.4475 42 18.2788 41.9301 18.1544 41.8057C18.0299 41.6812 17.96 41.5125 17.96 41.3365V36.6745L17.8723 36.6499C16.0865 36.2815 14.3475 35.7152 12.6872 34.9614L12.5328 34.8947V41.3365C12.5328 41.5125 12.4628 41.6812 12.3384 41.8057C12.214 41.9301 12.0452 42 11.8693 42H7.13707C6.96171 41.9991 6.79383 41.9288 6.67016 41.8044C6.54649 41.6801 6.47708 41.5119 6.47709 41.3365V32.0968L6.39633 32.0757C5.12885 31.6445 3.74637 31.6995 2.5172 32.2302C1.99101 32.4812 1.51513 32.8262 1.11298 33.2482C1.05095 33.3117 0.976627 33.3619 0.894538 33.3957C0.812449 33.4295 0.72432 33.4462 0.635555 33.4448C0.464499 33.4376 0.302858 33.3645 0.18444 33.2408C0.066022 33.1172 -3.61466e-06 32.9526 0.000149826 32.7813V27.4664C2.85312e-05 27.3371 0.037892 27.2106 0.10904 27.1026C0.180187 26.9947 0.28149 26.91 0.400356 26.8591C1.72678 26.2714 3.16221 25.9699 4.61299 25.9744C5.20137 25.9768 5.78851 26.0285 6.36826 26.1289L6.50166 26.1499V21.5863L6.42091 21.5652C5.86559 21.3782 5.28317 21.2845 4.69724 21.2879C3.95639 21.2895 3.2234 21.4399 2.54177 21.7302C2.02382 21.9828 1.55629 22.3278 1.16214 22.7482C1.07376 22.8519 0.955492 22.9256 0.823552 22.9594C0.691612 22.9931 0.552468 22.9852 0.425189 22.9368C0.29791 22.8883 0.188735 22.8017 0.112639 22.6887C0.0365434 22.5758 -0.00275138 22.4421 0.000149826 22.3059V16.9875C0.000479501 16.8583 0.0385259 16.732 0.109618 16.6241C0.180711 16.5162 0.281761 16.4314 0.400356 16.3801C1.7276 15.7962 3.16298 15.4983 4.61299 15.506C5.20132 15.5094 5.78838 15.5611 6.36826 15.6605L6.50166 15.6851V11.1214L6.42442 11.1003C5.16226 10.6736 3.78688 10.7286 2.56283 11.2548C2.03757 11.5073 1.56194 11.8521 1.15862 12.2728C1.0975 12.3366 1.02383 12.3869 0.942255 12.4208C0.860685 12.4546 0.773 12.4712 0.684708 12.4694C0.5967 12.4722 0.509006 12.4575 0.426753 12.426C0.3445 12.3946 0.269325 12.3471 0.205609 12.2864C0.141894 12.2256 0.09092 12.1527 0.0556447 12.0721C0.0203694 11.9914 0.00150277 11.9045 0.000149826 11.8164V6.49799C0.00333668 6.3703 0.0435058 6.24628 0.115789 6.14097C0.188072 6.03566 0.289354 5.95359 0.407362 5.90471C1.73392 5.31743 3.16926 5.01601 4.62 5.02006C5.20838 5.02243 5.79552 5.07409 6.37527 5.17452L6.50867 5.19559V0.66349C6.50865 0.489331 6.57712 0.322147 6.69928 0.198016C6.82144 0.0738862 6.98751 0.00276447 7.16164 4.06421e-08H11.9009C12.0768 4.06421e-08 12.2456 0.0699033 12.37 0.194332C12.4944 0.31876 12.5643 0.487522 12.5643 0.66349V7.51605L12.6205 7.54764C14.2848 8.45155 16.0316 9.19447 17.8372 9.7663L17.9811 9.80842V0.681043C17.9787 0.592446 17.9942 0.504278 18.0265 0.421743C18.0588 0.339207 18.1073 0.263978 18.1691 0.200496C18.2309 0.137014 18.3049 0.0865662 18.3866 0.0521304C18.4682 0.0176946 18.556 -3.09788e-05 18.6446 4.06421e-08H23.3768C23.5528 4.06421e-08 23.7215 0.0699033 23.8459 0.194332C23.9704 0.31876 24.0403 0.487522 24.0403 0.66349V9.79087L24.1842 9.74875C25.9889 9.18191 27.7356 8.4449 29.4009 7.54764L29.4535 7.51605V0.66349C29.4535 0.487522 29.5234 0.31876 29.6478 0.194332C29.7723 0.0699033 29.941 4.06421e-08 30.117 4.06421e-08H34.8492C35.0252 4.06421e-08 35.1939 0.0699033 35.3184 0.194332C35.4428 0.31876 35.5127 0.487522 35.5127 0.66349V5.18154L35.6461 5.16048C36.2258 5.05971 36.813 5.00804 37.4013 5.00602C38.8521 5.00207 40.2874 5.30349 41.614 5.89067C41.7322 5.9421 41.8328 6.02702 41.9033 6.13495C41.9738 6.24287 42.0111 6.36908 42.0107 6.49799V11.8164C42.0098 11.9072 41.9907 11.9968 41.9545 12.08C41.9183 12.1633 41.8658 12.2384 41.8001 12.3009C41.7401 12.3589 41.6692 12.4043 41.5914 12.4345C41.5136 12.4646 41.4306 12.4789 41.3472 12.4764C41.2567 12.4758 41.1673 12.4572 41.0841 12.4216C41.0009 12.3861 40.9257 12.3343 40.8627 12.2693C40.4693 11.8493 40 11.5074 39.4796 11.2618C38.2495 10.7213 36.8613 10.6624 35.5899 11.0968L35.5127 11.1179V15.6815L35.6426 15.6605C37.6594 15.3101 39.7348 15.5604 41.6105 16.3801C41.7287 16.4316 41.8293 16.5165 41.8998 16.6244C41.9702 16.7323 42.0076 16.8586 42.0072 16.9875V22.2919C42.0036 22.4667 41.9325 22.6334 41.8089 22.7571C41.6852 22.8807 41.5185 22.9518 41.3437 22.9554C41.2543 22.956 41.1657 22.9375 41.084 22.9012C41.0023 22.8649 40.9292 22.8115 40.8698 22.7447C40.4726 22.3271 40.0042 21.9836 39.4866 21.7302C38.807 21.4324 38.0732 21.2782 37.3312 21.2773C36.746 21.2798 36.1646 21.3721 35.6075 21.5512L35.5303 21.5757V26.1394L35.6637 26.1184C36.2432 26.0166 36.8305 25.9649 37.4189 25.9639C38.8691 25.9615 40.3039 26.2616 41.6316 26.845C41.7495 26.8978 41.8497 26.9835 41.9201 27.0919C41.9904 27.2003 42.028 27.3267 42.0282 27.4559V32.7603C42.0278 32.8495 42.0088 32.9377 41.9726 33.0193C41.9363 33.1009 41.8836 33.174 41.8176 33.2342C41.7567 33.2962 41.6838 33.3451 41.6033 33.3778C41.5229 33.4105 41.4365 33.4264 41.3496 33.4244C41.2628 33.4224 41.1773 33.4027 41.0983 33.3663C41.0194 33.33 40.9488 33.2779 40.8908 33.2131C40.4943 32.7948 40.0258 32.4511 39.5077 32.1986C38.8322 31.9044 38.103 31.7538 37.3663 31.7563C36.7755 31.7573 36.1888 31.8533 35.6285 32.0406L35.5513 32.0652V41.3365C35.5513 41.5125 35.4814 41.6812 35.357 41.8057C35.2325 41.9301 35.0638 42 34.8878 42H30.1065ZM33.9435 32.6936C33.7539 32.7813 33.5679 32.8726 33.3678 32.9709C32.3497 33.501 31.5669 33.8977 30.8261 34.2628L30.7594 34.2979V40.659H34.1646V32.5848L33.9435 32.6936ZM19.287 40.659H22.6922V26.3957H22.5694C22.0147 26.4483 21.4951 26.4834 20.9896 26.4834C20.4607 26.4809 19.9323 26.4516 19.4064 26.3957H19.287V40.659ZM7.80054 40.659H11.2058V34.2874L11.1391 34.2523C10.3983 33.9012 9.61549 33.501 8.59744 32.9604C8.38681 32.848 8.19022 32.7603 7.99012 32.6725L7.79002 32.5848V40.659H7.80054ZM4.56384 30.4784C5.96805 30.4784 7.5478 30.9313 9.23987 31.8054C11.9676 33.2307 14.8848 34.6805 17.8372 35.3159L17.9706 35.3511V32.1179L17.8828 32.0968C15.5062 31.4895 13.0172 30.2397 10.6757 29.0145C9.52508 28.392 8.29923 27.9201 7.02824 27.6103C7.00718 27.6103 6.99312 27.6103 6.97206 27.6103C6.20963 27.4201 5.42687 27.3234 4.64106 27.3225C3.53198 27.3208 2.43139 27.5158 1.39033 27.8982L1.31309 27.9193V31.3912L1.47809 31.2894C1.62202 31.2016 1.77648 31.1244 1.93094 31.0471C2.75592 30.6658 3.65502 30.4716 4.56384 30.4784ZM37.3592 27.319C36.5757 27.3191 35.7951 27.4157 35.0353 27.6068C35.0179 27.6109 34.9999 27.6109 34.9826 27.6068C33.7113 27.9157 32.4854 28.3877 31.3352 29.011C28.9901 30.2362 26.5047 31.4684 24.128 32.0933L24.0368 32.1143V35.323L24.1702 35.2879C27.1225 34.6595 30.0398 33.2096 32.7815 31.7773C34.463 30.8927 36.0428 30.4398 37.4575 30.4398C38.3588 30.4366 39.2496 30.6332 40.0658 31.0155C40.2308 31.0928 40.3748 31.1805 40.5187 31.2578L40.6837 31.3561V27.8982L40.6065 27.8736C39.5589 27.509 38.4579 27.3215 37.3487 27.319H37.3592ZM29.285 24.4895C27.627 25.2493 25.8889 25.8204 24.1035 26.1921L24.0122 26.2131V30.7768L24.1561 30.7347C25.961 30.1685 27.7078 29.4315 29.3728 28.5336L29.4289 28.502V24.4157L29.285 24.4895ZM12.5328 28.495L12.5889 28.5266C14.2584 29.4227 16.0085 30.1596 17.8161 30.7277L17.96 30.7698V26.2061L17.8723 26.1851C16.0848 25.8166 14.3452 25.2454 12.6872 24.4824L12.5328 24.4052V28.495ZM7.80054 26.4483L7.87778 26.4729C8.96901 26.789 10.0271 27.2098 11.0373 27.7297L11.2022 27.821V13.3084L11.1355 13.2733C10.2509 12.8415 9.35571 12.3781 8.59392 11.9814C8.38329 11.8691 8.17617 11.7708 7.97607 11.683L7.80054 11.5953V26.4483ZM33.9435 11.7041C33.7539 11.7919 33.5679 11.8831 33.3678 11.9814C32.3497 12.5115 31.5669 12.9082 30.8261 13.2733L30.7594 13.3084V27.821L30.9244 27.7297C31.9358 27.2125 32.9936 26.7918 34.0839 26.4729L34.1611 26.4483V11.6058L33.9435 11.7041ZM12.5292 22.9378L12.5959 22.9729C15.9099 24.4965 18.4199 25.1494 20.9861 25.1494C23.5523 25.1494 26.0588 24.4965 29.3728 22.9729L29.4395 22.9378V19.487L29.2745 19.5747C27.4603 20.5358 25.5333 21.2669 23.5383 21.7513L23.4505 21.7723C21.8313 22.1255 20.155 22.1255 18.5358 21.7723C18.5042 21.7723 18.4726 21.7723 18.448 21.7513C16.4525 21.2682 14.5254 20.537 12.7118 19.5747L12.5468 19.487V22.9554L12.5292 22.9378ZM37.3452 19.9539C38.2755 19.9539 39.1949 20.1539 40.0413 20.5401C40.1957 20.6174 40.3502 20.6946 40.4941 20.7823L40.6591 20.8842V17.4298L40.5819 17.4087C39.5549 17.034 38.47 16.8426 37.3768 16.8435C36.7754 16.8417 36.1755 16.9017 35.5864 17.0226L35.4986 17.0436V20.2593L35.6426 20.2277C36.1943 20.0531 36.7701 19.9666 37.3487 19.9714L37.3452 19.9539ZM4.59193 16.8154C3.50358 16.8225 2.42482 17.0197 1.40436 17.3982L1.32714 17.4193V20.8912L1.49213 20.7894C1.63606 20.7016 1.79051 20.6244 1.94498 20.5471C2.78371 20.1588 3.69574 19.9541 4.62 19.9468C5.19426 19.9465 5.7659 20.0245 6.31911 20.1785L6.46303 20.2136V17.0226L6.37527 16.998C5.78828 16.8887 5.19252 16.8335 4.59545 16.833L4.59193 16.8154ZM19.2835 20.5401H19.3713C20.4393 20.7178 21.5294 20.7178 22.5974 20.5401H22.6887V1.34102H19.2835V20.5577V20.5401ZM29.2885 13.9789C27.6302 14.7353 25.8921 15.3029 24.107 15.671L24.0157 15.6921V20.2979L24.1596 20.2558C25.9645 19.6896 27.7113 18.9525 29.3763 18.0547L29.4325 18.0231V13.9368L29.2885 13.9789ZM12.5328 18.0055L12.5889 18.0371C14.2539 18.935 16.0007 19.672 17.8056 20.2382L17.9495 20.2803V15.6956L17.8617 15.671C16.0759 15.3014 14.3368 14.7339 12.6767 13.9789L12.5222 13.9122V18.0055H12.5328ZM4.54278 9.48195C5.94699 9.48195 7.52673 9.92427 9.2153 10.8089C11.936 12.2237 14.8638 13.6841 17.8266 14.33L17.96 14.3651V11.1389L17.8723 11.1179C15.5062 10.5211 13.119 9.31695 10.6651 8.03561C9.51237 7.41786 8.28712 6.94616 7.0177 6.63139C7.00251 6.63254 6.98725 6.63254 6.97206 6.63139C6.20963 6.44117 5.42687 6.3445 4.64106 6.34353C3.53183 6.34018 2.43094 6.53515 1.39033 6.91926L1.31309 6.94032V10.4122L1.47809 10.3104C1.63255 10.2227 1.78701 10.1349 1.93094 10.0682C2.74866 9.68546 3.63993 9.4854 4.54278 9.48195ZM37.3487 6.34353C36.5652 6.34363 35.7846 6.44031 35.0247 6.63139H34.9826C33.7118 6.94182 32.486 7.41373 31.3352 8.03561C28.8778 9.31695 26.4906 10.493 24.128 11.1179L24.0368 11.1424V14.3475L24.1702 14.3124C27.1225 13.6841 30.0398 12.2342 32.7815 10.8019C34.4736 9.91725 36.0428 9.47492 37.4575 9.47492C38.3601 9.47058 39.2519 9.67103 40.0658 10.0612C40.2214 10.1331 40.3726 10.214 40.5187 10.3034L40.6837 10.4052V6.95787L40.6065 6.93681C39.5661 6.541 38.4618 6.33989 37.3487 6.34353ZM30.77 6.84203L30.935 6.75075C31.9457 6.23211 33.0036 5.81128 34.0944 5.49398L34.1717 5.46941V1.34102H30.7665V6.84203H30.77ZM7.80054 5.47994L7.87778 5.50451C8.96923 5.8154 10.0275 6.23282 11.0373 6.75075L11.2022 6.83149V1.34102H7.80054V5.47994Z" fill="black"></path></svg>