<svg xmlns="http://www.w3.org/2000/svg" width="51" height="56" viewBox="0 0 51 56" fill="none"><path d="M28.8638 13.2315C27.7637 13.2201 26.6989 13.6194 25.8775 14.3515L25.4221 14.7622L24.9667 14.3515C24.1032 13.5768 22.9713 13.1701 21.8123 13.2179C20.6532 13.2657 19.5587 13.7643 18.7619 14.6075C17.9651 15.4507 17.529 16.5718 17.5466 17.7319C17.5642 18.892 18.034 19.9994 18.856 20.818L24.6942 26.6124C24.7879 26.707 24.8996 26.7818 25.0227 26.8324C25.1458 26.8831 25.2778 26.9086 25.4109 26.9074C25.6882 26.9076 25.9552 26.8022 26.1575 26.6124L31.9956 20.818C32.6187 20.1961 33.0431 19.4032 33.2152 18.5399C33.3872 17.6765 33.2992 16.7814 32.9622 15.9681C32.6252 15.1548 32.0544 14.46 31.3221 13.9714C30.5898 13.4829 29.7291 13.2228 28.8488 13.224L28.8638 13.2315Z" fill="white"></path><path d="M26.1897 0.227717C25.9642 0.0791776 25.7001 0 25.4301 0C25.1601 0 24.8959 0.0791776 24.6704 0.227717L0 16.6029V55.2001H50.8564V16.6029L26.1897 0.227717ZM30.9043 34.6695V52.4634H19.9558V34.6695H30.9043ZM17.2197 31.9328V52.4672H2.73619V18.0814L25.4282 3.02412L48.1203 18.0889V52.4746H33.6405V31.9402L17.2197 31.9328Z" fill="white"></path></svg>