<svg xmlns="http://www.w3.org/2000/svg" width="36" height="43" viewBox="0 0 36 43" fill="none"><path d="M0.734036 42.95C0.542421 42.9501 0.358378 42.8752 0.221223 42.7414C0.0840683 42.6076 0.00467354 42.4254 0 42.2339V36.555C0.00467354 36.3634 0.0840683 36.1813 0.221223 36.0474C0.358378 35.9136 0.542421 35.8388 0.734036 35.8388H3.77044V7.11119H0.734036C0.539358 7.11119 0.352653 7.03385 0.214995 6.8962C0.0773364 6.75854 0 6.57183 0 6.37716V0.716132C0.00467354 0.524573 0.0840683 0.342436 0.221223 0.208626C0.358378 0.0748163 0.542421 -5.69703e-05 0.734036 3.25243e-08H34.6859C34.8805 3.25243e-08 35.0672 0.0773357 35.2049 0.214994C35.3426 0.352652 35.4199 0.539357 35.4199 0.734035V6.37716C35.4199 6.57183 35.3426 6.75854 35.2049 6.8962C35.0672 7.03385 34.8805 7.11119 34.6859 7.11119H31.6494V35.8209H34.6859C34.8775 35.8209 35.0615 35.8957 35.1987 36.0295C35.3358 36.1634 35.4152 36.3455 35.4199 36.537V42.2339C35.4152 42.4254 35.3358 42.6076 35.1987 42.7414C35.0615 42.8752 34.8775 42.9501 34.6859 42.95H0.734036ZM1.45017 41.4784H33.9339V37.2926H1.46807L1.45017 41.4784ZM5.22419 33.4219V35.8209H30.1599V29.8591L5.22419 33.4219ZM5.22419 27.7609V31.9359L30.1599 28.3731V24.1981L5.22419 27.7609ZM5.22419 20.2164V26.2785L30.1599 22.7157V16.6536L5.22419 20.2164ZM5.22419 14.559V18.734L30.1599 15.1713V10.9962L5.22419 14.559ZM5.22419 13.073L30.1599 9.49233V7.09329H5.24208L5.22419 13.073ZM1.46807 5.63954H33.9518V1.45375H1.46807V5.63954Z" fill="black"></path></svg>