<svg xmlns="http://www.w3.org/2000/svg" width="46" height="46" viewBox="0 0 46 46" fill="none"><path d="M22.5887 13.9309C24.304 13.9309 25.9808 14.4396 27.4071 15.3926C28.8333 16.3455 29.9449 17.7001 30.6014 19.2848C31.2578 20.8696 31.4296 22.6134 31.0949 24.2958C30.7603 25.9782 29.9343 27.5235 28.7213 28.7365C27.5084 29.9494 25.963 30.7754 24.2807 31.1101C22.5983 31.4447 20.8545 31.2729 19.2697 30.6165C17.6849 29.9601 16.3304 28.8485 15.3774 27.4222C14.4244 25.996 13.9158 24.3191 13.9158 22.6038C13.9178 20.3042 14.8322 18.0994 16.4582 16.4734C18.0843 14.8473 20.2891 13.9329 22.5887 13.9309ZM22.5887 29.8389C24.0203 29.8351 25.4186 29.4074 26.6074 28.6096C27.7961 27.8119 28.722 26.68 29.2681 25.3566C29.8142 24.0333 29.9561 22.5778 29.6759 21.1739C29.3957 19.77 28.7059 18.4806 27.6936 17.4683C26.6813 16.456 25.3919 15.7662 23.9879 15.486C22.584 15.2058 21.1286 15.3477 19.8052 15.8938C18.4819 16.4399 17.3499 17.3657 16.5522 18.5545C15.7545 19.7432 15.3268 21.1416 15.323 22.5732C15.323 24.5002 16.0885 26.3482 17.4511 27.7108C18.8136 29.0734 20.6617 29.8389 22.5887 29.8389Z" fill="black"></path><path d="M22.5886 2.93686C22.7397 2.93609 22.8872 2.9835 23.0096 3.0722C23.132 3.1609 23.2229 3.28628 23.2693 3.43016L24.0914 5.97697H26.5618C26.7028 5.97814 26.8405 6.02034 26.958 6.09843C27.0754 6.17652 27.1676 6.28712 27.2233 6.41673C27.2798 6.54787 27.2951 6.6931 27.2671 6.83312C27.2391 6.97314 27.1691 7.10133 27.0665 7.20066L25.3954 8.86793L26.252 11.43C26.2887 11.5377 26.299 11.6526 26.2822 11.7651C26.2653 11.8775 26.2217 11.9843 26.155 12.0765C26.0883 12.1686 26.0005 12.2434 25.899 12.2946C25.7974 12.3458 25.6851 12.3719 25.5713 12.3707C25.4959 12.3725 25.4208 12.3608 25.3495 12.3363L22.5886 11.4109L19.8276 12.3363C19.7563 12.3608 19.6812 12.3725 19.6059 12.3707C19.5115 12.3718 19.4179 12.3533 19.3311 12.3164C19.2442 12.2796 19.1659 12.2252 19.1011 12.1566C19.0062 12.0628 18.9394 11.9443 18.9083 11.8146C18.8772 11.6848 18.8831 11.549 18.9252 11.4224L19.7817 8.86793L18.103 7.18918C18.0015 7.08992 17.9319 6.96252 17.9034 6.8234C17.8749 6.68428 17.8887 6.53981 17.943 6.40859C17.9973 6.27737 18.0896 6.16541 18.2081 6.08712C18.3266 6.00883 18.4658 5.9678 18.6078 5.96932H21.0781L21.9079 3.42252C21.9545 3.27941 22.0458 3.15502 22.1683 3.06761C22.2908 2.9802 22.4381 2.93437 22.5886 2.93686ZM23.8926 8.90617C23.8502 8.77869 23.8446 8.64185 23.8764 8.51132C23.9081 8.38079 23.9761 8.26185 24.0723 8.16813L24.8371 7.40333H23.5675C23.4165 7.40351 23.2693 7.35588 23.1471 7.26726C23.0248 7.17864 22.9337 7.05359 22.8869 6.91003L22.5618 5.9502L22.2482 6.91003C22.2014 7.05359 22.1103 7.17864 21.9881 7.26726C21.8658 7.35588 21.7186 7.40351 21.5676 7.40333H20.3056L21.0704 8.16813C21.1667 8.26185 21.2346 8.38079 21.2664 8.51132C21.2982 8.64185 21.2926 8.77869 21.2502 8.90617L20.7072 10.539L22.3553 10.0151C22.4265 9.98952 22.5015 9.97658 22.5771 9.9769C22.654 9.97652 22.7303 9.98946 22.8027 10.0151L24.4356 10.5582L23.8926 8.90617Z" fill="black"></path><path d="M14.1488 7.82399C14.2423 7.82346 14.3349 7.84302 14.4203 7.88135C14.5522 7.9346 14.6653 8.026 14.745 8.14385C14.8247 8.26169 14.8674 8.40064 14.8677 8.5429V10.91L17.2807 12.1222C17.398 12.1829 17.4961 12.2752 17.5637 12.3888C17.6312 12.5023 17.6657 12.6325 17.6631 12.7646C17.6646 12.897 17.6298 13.0274 17.5624 13.1413C17.4949 13.2553 17.3975 13.3485 17.2807 13.4109L14.6803 14.7072L13.384 17.3076C13.3146 17.4149 13.2195 17.5032 13.1073 17.5643C12.9951 17.6254 12.8693 17.6574 12.7415 17.6574C12.6138 17.6574 12.488 17.6254 12.3758 17.5643C12.2636 17.5032 12.1684 17.4149 12.0991 17.3076L10.8869 14.8908H8.51599C8.37536 14.8899 8.238 14.8483 8.12057 14.7709C8.00313 14.6935 7.91067 14.5837 7.85442 14.4549C7.8031 14.3257 7.79099 14.1843 7.81955 14.0483C7.84811 13.9122 7.91611 13.7877 8.01505 13.69L9.7588 11.9272L8.54657 9.54098C8.47852 9.40649 8.45448 9.25401 8.47781 9.10511C8.50114 8.9562 8.57067 8.81839 8.67659 8.71116C8.73998 8.64099 8.81722 8.58472 8.90344 8.54589C8.98966 8.50706 9.08299 8.48651 9.17754 8.48554C9.29105 8.48636 9.40311 8.51112 9.5064 8.5582L11.8926 9.77042L13.6363 8.02666C13.7746 7.89548 13.9582 7.82286 14.1488 7.82399ZM13.5063 13.8392C13.5705 13.6987 13.6832 13.586 13.8237 13.5218L15.3534 12.757L13.8237 11.9922C13.7064 11.9315 13.6083 11.8391 13.5407 11.7256C13.4732 11.6121 13.4387 11.4819 13.4413 11.3497V10.2561L12.535 11.1624C12.4703 11.2294 12.3923 11.2824 12.3061 11.3179C12.2199 11.3535 12.1273 11.3708 12.0341 11.3689C11.9203 11.3667 11.8083 11.3407 11.7052 11.2924L10.8028 10.8373L11.2578 11.7398C11.3259 11.8743 11.3499 12.0268 11.3266 12.1757C11.3033 12.3246 11.2337 12.4624 11.1278 12.5696L10.2406 13.4568H11.3343C11.4659 13.4567 11.5951 13.4922 11.7082 13.5596C11.8212 13.6269 11.914 13.7235 11.9767 13.8392L12.7415 15.3688L13.5063 13.8392Z" fill="black"></path><path d="M12.7417 27.5176C12.8734 27.5171 13.0027 27.5525 13.1159 27.6198C13.229 27.6872 13.3217 27.784 13.3841 27.9L14.6805 30.5042L17.2808 31.8005C17.3985 31.8608 17.4967 31.9531 17.5644 32.0667C17.632 32.1803 17.6663 32.3107 17.6632 32.4429C17.6641 32.5747 17.6289 32.7042 17.5615 32.8174C17.4941 32.9307 17.397 33.0233 17.2808 33.0854L14.8678 34.2976V36.657C14.8676 36.7983 14.8258 36.9364 14.7476 37.054C14.6694 37.1717 14.5583 37.2637 14.4281 37.3186C14.3403 37.3577 14.245 37.3773 14.1489 37.3759C13.9603 37.3749 13.7794 37.3009 13.6441 37.1694L11.9004 35.4257L9.51419 36.6379C9.41422 36.6909 9.30228 36.7173 9.18915 36.7144C9.09493 36.7145 9.00165 36.6956 8.91491 36.6588C8.82817 36.622 8.74977 36.5681 8.68438 36.5002C8.57946 36.3924 8.51059 36.2547 8.4873 36.106C8.46401 35.9574 8.48744 35.8052 8.55435 35.6704L9.76656 33.2804L8.03046 31.5443C7.93086 31.4471 7.86268 31.3223 7.83473 31.1859C7.80679 31.0496 7.82036 30.908 7.87369 30.7795C7.92727 30.6484 8.01895 30.5364 8.13689 30.458C8.25484 30.3796 8.39362 30.3384 8.53524 30.3397H10.9023L12.1145 27.9268C12.168 27.805 12.2558 27.7015 12.3672 27.6288C12.4786 27.5561 12.6087 27.5175 12.7417 27.5176ZM13.43 33.8502C13.4292 33.7179 13.4644 33.588 13.5318 33.4741C13.5991 33.3603 13.6961 33.2669 13.8124 33.2039L15.342 32.4391L13.8124 31.6743C13.6729 31.6105 13.5605 31.4994 13.495 31.3607L12.7302 29.8311L11.9654 31.3607C11.9047 31.4781 11.8124 31.5761 11.6988 31.6437C11.5853 31.7113 11.4551 31.7458 11.3229 31.7431H10.2293L11.1165 32.6303C11.2245 32.7363 11.2954 32.8742 11.3189 33.0237C11.3423 33.1732 11.3169 33.3262 11.2465 33.4601L10.7914 34.3664L11.6939 33.8999C11.7964 33.8502 11.9088 33.8241 12.0227 33.8234C12.2102 33.8247 12.3898 33.8987 12.5237 34.0299L13.4109 34.9133V33.8502H13.43Z" fill="black"></path><path d="M22.5885 2.91288e-06C27.0587 -0.00226615 31.4292 1.32118 35.1471 3.80295C38.8651 6.28472 41.7636 9.81334 43.476 13.9425C45.1884 18.0717 45.6379 22.616 44.7674 27.0006C43.897 31.3852 41.7459 35.4132 38.586 38.5752C35.4262 41.7372 31.3997 43.8911 27.0156 44.7645C22.6316 45.6378 18.087 45.1915 13.9567 43.4819C9.82631 41.7723 6.29574 38.8762 3.81145 35.1599C1.32716 31.4436 0.000756952 27.074 0 22.6038C0.00505621 16.6131 2.38606 10.869 6.6207 6.6315C10.8553 2.394 16.5978 0.00911444 22.5885 2.91288e-06ZM22.5885 43.7698C26.7748 43.7698 30.867 42.5285 34.3477 40.2027C37.8285 37.877 40.5414 34.5713 42.1434 30.7037C43.7454 26.8361 44.1645 22.5804 43.3478 18.4746C42.5311 14.3688 40.5153 10.5973 37.5552 7.63721C34.595 4.6771 30.8236 2.66123 26.7178 1.84454C22.612 1.02784 18.3562 1.447 14.4887 3.049C10.6211 4.65101 7.3154 7.36391 4.98965 10.8446C2.6639 14.3254 1.42253 18.4176 1.42253 22.6038C1.42759 28.2159 3.65922 33.5966 7.62752 37.5649C11.5958 41.5332 16.9765 43.7648 22.5885 43.7698Z" fill="black"></path><path d="M31.0283 7.824C31.1213 7.82381 31.2134 7.84195 31.2994 7.87739C31.3853 7.91282 31.4635 7.96485 31.5293 8.0305L33.2692 9.77425L35.6592 8.56204C35.759 8.50851 35.8711 8.48213 35.9843 8.48556C36.1729 8.48663 36.3538 8.56063 36.489 8.69205C36.5955 8.79897 36.6654 8.93681 36.6887 9.08586C36.7121 9.23491 36.6877 9.38752 36.6191 9.52187L35.4107 11.9272L37.1544 13.6709C37.2552 13.7699 37.3241 13.8968 37.3522 14.0352C37.3802 14.1736 37.3662 14.3173 37.3119 14.4477C37.2576 14.5781 37.1655 14.6893 37.0475 14.7669C36.9295 14.8445 36.7909 14.885 36.6497 14.8832H34.2826L33.0704 17.2808C33.0012 17.389 32.906 17.478 32.7933 17.5397C32.6807 17.6013 32.5544 17.6336 32.426 17.6336C32.2976 17.6336 32.1713 17.6013 32.0587 17.5397C31.9461 17.478 31.8508 17.389 31.7817 17.2808L30.4853 14.6767L27.885 13.3803C27.7676 13.3196 27.6696 13.2273 27.602 13.1137C27.5344 13.0002 27.5 12.87 27.5026 12.7379C27.5017 12.6061 27.5369 12.4766 27.6043 12.3634C27.6717 12.2501 27.7687 12.1575 27.885 12.0954L30.2979 10.8832V8.51232C30.3001 8.37149 30.3427 8.23423 30.4206 8.11693C30.4986 7.99963 30.6087 7.90724 30.7377 7.85077C30.8333 7.831 30.9308 7.82202 31.0283 7.824ZM33.1354 11.3574C32.9472 11.3582 32.7661 11.2854 32.6306 11.1547L31.7396 10.2676V11.3498C31.7397 11.4814 31.7042 11.6105 31.6368 11.7236C31.5695 11.8367 31.4729 11.9295 31.3572 11.9922L29.8276 12.757L31.3572 13.5218C31.4977 13.586 31.6104 13.6987 31.6746 13.8392L32.4394 15.3688L33.2042 13.8392C33.2649 13.7218 33.3572 13.6238 33.4708 13.5562C33.5843 13.4886 33.7145 13.4542 33.8467 13.4568H34.9289L34.034 12.5505C33.9276 12.4436 33.8577 12.3057 33.8344 12.1567C33.811 12.0076 33.8354 11.855 33.904 11.7207L34.3438 10.8259L33.4566 11.2733C33.3584 11.328 33.2479 11.357 33.1354 11.3574Z" fill="black"></path><path d="M25.5714 32.8215C25.6853 32.8231 25.7972 32.8514 25.8982 32.9042C25.9991 32.957 26.0862 33.0328 26.1525 33.1255C26.2187 33.2182 26.2623 33.3251 26.2796 33.4377C26.2969 33.5503 26.2874 33.6654 26.2521 33.7737L25.3954 36.3396L27.0742 38.0184C27.1712 38.1172 27.2376 38.242 27.2655 38.3777C27.2933 38.5133 27.2813 38.6542 27.231 38.7832C27.1774 38.9143 27.0857 39.0263 26.9678 39.1047C26.8498 39.1831 26.711 39.2243 26.5694 39.223H24.0915L23.2617 41.7698C23.1975 41.895 23.1 42.0002 22.9799 42.0736C22.8598 42.147 22.7217 42.1859 22.581 42.1859C22.4402 42.1859 22.3022 42.147 22.1821 42.0736C22.062 42.0002 21.9645 41.895 21.9003 41.7698L21.0705 39.223H18.6002C18.4589 39.2228 18.3208 39.181 18.2031 39.1028C18.0855 39.0245 17.9935 38.9134 17.9386 38.7832C17.8847 38.6547 17.8709 38.513 17.8989 38.3766C17.9268 38.2401 17.9953 38.1153 18.0954 38.0184L19.7741 36.3396L18.9175 33.7737C18.8822 33.6654 18.8727 33.5503 18.89 33.4377C18.9073 33.3251 18.9509 33.2182 19.0171 33.1255C19.0834 33.0328 19.1705 32.957 19.2714 32.9042C19.3724 32.8514 19.4843 32.8231 19.5982 32.8215C19.6738 32.8212 19.7489 32.8342 19.82 32.8598L22.581 33.7852L25.3419 32.8598C25.414 32.8378 25.4885 32.8249 25.5637 32.8215H25.5714ZM22.5886 35.2536C22.512 35.2553 22.4356 35.2437 22.363 35.2192L20.734 34.6762L21.2732 36.3091C21.3147 36.4363 21.3202 36.5726 21.2892 36.7029C21.2582 36.8331 21.1917 36.9522 21.0972 37.0471L20.3324 37.8119H21.5906C21.742 37.812 21.8896 37.8602 22.0119 37.9495C22.1343 38.0389 22.225 38.1647 22.2712 38.309L22.5886 39.2689L22.8945 38.2975C22.9434 38.1552 23.035 38.0315 23.1568 37.9432C23.2786 37.8549 23.4248 37.8063 23.5752 37.8042H24.8563L24.0915 37.0394C23.9952 36.9457 23.9273 36.8268 23.8955 36.6963C23.8637 36.5657 23.8694 36.4289 23.9117 36.3014L24.4548 34.6724L22.8219 35.2116C22.7498 35.2479 22.6688 35.2625 22.5886 35.2536Z" fill="black"></path><path d="M38.4965 17.9041C38.5901 17.9039 38.6826 17.9234 38.7681 17.9614C38.8997 18.0151 39.0124 18.1066 39.0921 18.2243C39.1717 18.3421 39.2146 18.4808 39.2155 18.623V21.1048L41.7584 21.9346C41.9025 21.981 42.0281 22.0719 42.1172 22.1942C42.2063 22.3165 42.2544 22.4639 42.2544 22.6153C42.2544 22.7666 42.2063 22.914 42.1172 23.0363C42.0281 23.1587 41.9025 23.2495 41.7584 23.2959L39.2155 24.1257V26.5961C39.2143 26.7371 39.1721 26.8748 39.094 26.9923C39.0159 27.1097 38.9053 27.2019 38.7757 27.2576C38.6904 27.296 38.5978 27.3155 38.5042 27.315C38.3166 27.3145 38.1367 27.2404 38.0033 27.1085L36.3283 25.4183L33.7624 26.2787C33.6911 26.3032 33.616 26.3148 33.5406 26.3131C33.4278 26.3122 33.3168 26.2847 33.2167 26.2327C33.1166 26.1808 33.0302 26.1058 32.9646 26.0141C32.8989 25.9224 32.8559 25.8164 32.8391 25.7049C32.8222 25.5934 32.832 25.4794 32.8676 25.3724L33.7892 22.6114L32.8676 19.8543C32.8256 19.7271 32.8198 19.5907 32.8509 19.4604C32.882 19.33 32.9486 19.2109 33.0435 19.1163C33.109 19.0486 33.1874 18.9948 33.2741 18.958C33.3609 18.9212 33.4541 18.9022 33.5482 18.9021C33.6252 18.8999 33.7019 18.9129 33.7739 18.9404L36.336 19.7969L38.0147 18.1182C38.0758 18.051 38.1501 17.9973 38.2331 17.9604C38.3161 17.9235 38.4058 17.9043 38.4965 17.9041ZM37.7891 23.5904C37.7889 23.4394 37.8366 23.2922 37.9252 23.1699C38.0138 23.0476 38.1388 22.9565 38.2824 22.9097L39.2422 22.5923L38.2824 22.2787C38.1388 22.2319 38.0138 22.1408 37.9252 22.0185C37.8366 21.8963 37.7889 21.7491 37.7891 21.5981V20.34L37.0243 21.1048C36.9582 21.1755 36.8782 21.2321 36.7895 21.2709C36.7007 21.3097 36.6049 21.3299 36.508 21.3304C36.4324 21.3307 36.3574 21.3178 36.2863 21.2921L34.6534 20.753L35.1811 22.3782C35.2257 22.524 35.2257 22.6798 35.1811 22.8256L34.6381 24.4584L36.271 23.9193C36.3416 23.8918 36.417 23.8788 36.4928 23.881C36.5871 23.88 36.6806 23.8985 36.7675 23.9353C36.8544 23.9722 36.9327 24.0266 36.9975 24.0952L37.7623 24.86V23.5904H37.7891Z" fill="black"></path><path d="M32.4357 27.5176C32.5673 27.5171 32.6967 27.5525 32.8098 27.6198C32.923 27.6872 33.0157 27.784 33.0781 27.9L34.2903 30.3168H36.6497C36.7905 30.3171 36.9281 30.3586 37.0456 30.436C37.1631 30.5135 37.2555 30.6235 37.3113 30.7527C37.3636 30.8814 37.3766 31.0227 37.3487 31.1589C37.3208 31.295 37.2532 31.4198 37.1545 31.5175L35.4107 33.2613L36.623 35.6513C36.6802 35.7595 36.7082 35.8807 36.7042 36.003C36.7003 36.1254 36.6645 36.2445 36.6004 36.3488C36.5363 36.4531 36.4461 36.5388 36.3387 36.5975C36.2314 36.6563 36.1105 36.686 35.9882 36.6838C35.8759 36.6829 35.7651 36.6581 35.6631 36.6111L33.2693 35.4257L31.5294 37.1656C31.3955 37.2968 31.2159 37.3708 31.0284 37.3721C30.9349 37.3726 30.8423 37.3531 30.7569 37.3147C30.6258 37.2612 30.5138 37.1695 30.4354 37.0515C30.357 36.9336 30.3158 36.7948 30.3172 36.6532V34.2976L27.9157 33.0854C27.8006 33.0236 27.7044 32.9317 27.6374 32.8196C27.5703 32.7075 27.5349 32.5793 27.5349 32.4487C27.5349 32.318 27.5703 32.1899 27.6374 32.0777C27.7044 31.9656 27.8006 31.8738 27.9157 31.812L30.516 30.5156L31.8123 27.9153C31.868 27.7968 31.9561 27.6966 32.0664 27.6262C32.1768 27.5558 32.3048 27.5182 32.4357 27.5176ZM33.9003 33.4754C33.8328 33.3408 33.809 33.1885 33.8324 33.0397C33.8557 32.8909 33.9249 32.7531 34.0303 32.6456L34.9251 31.7584H33.8352C33.7032 31.7584 33.5735 31.7228 33.4598 31.6556C33.3462 31.5883 33.2526 31.4918 33.189 31.376L32.4242 29.8464L31.6594 31.376C31.5956 31.5155 31.4845 31.6279 31.3458 31.6934L29.8162 32.4582L31.3458 33.223C31.4635 33.2834 31.5618 33.3756 31.6294 33.4893C31.697 33.6029 31.7313 33.7333 31.7282 33.8655V34.9477L32.6154 34.0605C32.7487 33.9252 32.9302 33.8482 33.1202 33.8464C33.2328 33.8476 33.3438 33.8737 33.4452 33.9228L34.3324 34.3511L33.9003 33.4754Z" fill="black"></path><path d="M6.67302 17.9041C6.76599 17.9039 6.85809 17.922 6.94404 17.9574C7.03 17.9929 7.10813 18.0449 7.17396 18.1106L8.85272 19.7855L11.4186 18.9289C11.4898 18.9033 11.5648 18.8903 11.6404 18.8907C11.7346 18.8905 11.8279 18.9094 11.9146 18.9462C12.0014 18.983 12.0798 19.037 12.1452 19.1048C12.2397 19.1997 12.3061 19.3188 12.3371 19.449C12.3682 19.5793 12.3626 19.7156 12.3211 19.8428L11.3995 22.6038L12.3211 25.3647C12.3632 25.4913 12.369 25.6272 12.3379 25.7569C12.3069 25.8867 12.2401 26.0052 12.1452 26.0989C12.0793 26.1656 12.0006 26.2182 11.9139 26.2537C11.8271 26.2892 11.7341 26.3068 11.6404 26.3054C11.5648 26.3058 11.4898 26.2928 11.4186 26.2672L8.85272 25.4106L7.17396 27.0894C7.10863 27.1562 7.03077 27.2096 6.94481 27.2463C6.85886 27.2831 6.76649 27.3025 6.67302 27.3035C6.57945 27.304 6.48686 27.2845 6.4015 27.2462C6.26958 27.1929 6.15654 27.1015 6.07684 26.9837C5.99714 26.8658 5.95441 26.7269 5.9541 26.5846V24.1143L3.40728 23.2845C3.26323 23.2381 3.13761 23.1472 3.0485 23.0249C2.95938 22.9026 2.91138 22.7551 2.91138 22.6038C2.91138 22.4524 2.95938 22.305 3.0485 22.1827C3.13761 22.0604 3.26323 21.9695 3.40728 21.9231L5.9541 21.1048V18.623C5.95446 18.4822 5.9959 18.3447 6.07334 18.2271C6.15078 18.1096 6.26086 18.0173 6.39004 17.9614C6.47987 17.9245 6.57591 17.905 6.67302 17.9041ZM8.65769 21.3266C8.46892 21.3263 8.28775 21.2522 8.15292 21.1201L7.38811 20.3553V21.6057C7.38812 21.7583 7.33906 21.9069 7.24816 22.0294C7.15727 22.152 7.02936 22.2421 6.88333 22.2864L5.9235 22.6038L6.88333 22.9212C7.02754 22.967 7.15326 23.0578 7.24205 23.1803C7.33083 23.3028 7.378 23.4506 7.37663 23.6019V24.86L8.14143 24.0952C8.27549 23.9609 8.45652 23.8841 8.64621 23.881C8.72195 23.8788 8.79738 23.8918 8.86801 23.9193L10.5009 24.4584L9.96167 22.8256C9.91708 22.6798 9.91708 22.524 9.96167 22.3782L10.5009 20.7491L8.86801 21.2883C8.80091 21.3141 8.72957 21.3271 8.65769 21.3266Z" fill="black"></path></svg>