<svg xmlns="http://www.w3.org/2000/svg" width="56" height="56" viewBox="0 0 56 56" fill="none"><path d="M51.6769 4.41444H45.7663V1.50718C45.7663 1.10745 45.6075 0.72408 45.3248 0.441426C45.0422 0.158772 44.6588 0 44.2591 0C43.8594 0 43.476 0.158772 43.1934 0.441426C42.9107 0.72408 42.7519 1.10745 42.7519 1.50718V4.40705H12.2718V1.50718C12.2718 1.10745 12.113 0.72408 11.8304 0.441426C11.5477 0.158772 11.1643 0 10.7646 0C10.3649 0 9.98154 0.158772 9.69888 0.441426C9.41623 0.72408 9.25743 1.10745 9.25743 1.50718V4.40705H3.34686C2.45952 4.40802 1.60878 4.76098 0.981338 5.38843C0.353891 6.01587 0.000977789 6.86659 0 7.75393V51.6732C0.000977789 52.5605 0.353891 53.4112 0.981338 54.0387C1.60878 54.6661 2.45952 55.019 3.34686 55.02H51.6769C52.5642 55.019 53.4149 54.6661 54.0424 54.0387C54.6698 53.4112 55.0227 52.5605 55.0237 51.6732V7.76132C55.0227 6.87398 54.6698 6.02322 54.0424 5.39578C53.4149 4.76833 52.5642 4.41542 51.6769 4.41444ZM10.7646 11.8507C11.1643 11.8507 11.5477 11.6919 11.8304 11.4093C12.113 11.1266 12.2718 10.7432 12.2718 10.3435V7.41775H42.7519V10.3176C42.7519 10.7174 42.9107 11.1007 43.1934 11.3834C43.476 11.666 43.8594 11.8248 44.2591 11.8248C44.6588 11.8248 45.0422 11.666 45.3248 11.3834C45.6075 11.1007 45.7663 10.7174 45.7663 10.3176V7.41775H51.6769C51.765 7.41775 51.8496 7.45276 51.912 7.51511C51.9743 7.57746 52.0093 7.66205 52.0093 7.75023V16.3021H3.01438V7.75023C3.01438 7.66205 3.04941 7.57746 3.11176 7.51511C3.17411 7.45276 3.25868 7.41775 3.34686 7.41775H9.25743V10.3176C9.254 10.5177 9.29044 10.7165 9.36464 10.9024C9.43885 11.0882 9.54932 11.2574 9.68962 11.4001C9.82991 11.5429 9.99725 11.6562 10.1818 11.7335C10.3664 11.8109 10.5645 11.8507 10.7646 11.8507ZM52.0093 19.3423V51.6953C52.0093 51.7835 51.9743 51.868 51.912 51.9304C51.8496 51.9927 51.765 52.0278 51.6769 52.0278H3.34686C3.25868 52.0278 3.17411 51.9927 3.11176 51.9304C3.04941 51.868 3.01438 51.7835 3.01438 51.6953V19.3423H52.0093Z" fill="white"></path><path d="M10.1034 25.3491H9.66006C8.95007 25.3491 8.37451 25.9247 8.37451 26.6347V27.078C8.37451 27.788 8.95007 28.3635 9.66006 28.3635H10.1034C10.8133 28.3635 11.3889 27.788 11.3889 27.078V26.6347C11.3889 25.9247 10.8133 25.3491 10.1034 25.3491Z" fill="white"></path><path d="M18.9176 25.3491H18.4743C17.7643 25.3491 17.1887 25.9247 17.1887 26.6347V27.078C17.1887 27.788 17.7643 28.3635 18.4743 28.3635H18.9176C19.6276 28.3635 20.2031 27.788 20.2031 27.078V26.6347C20.2031 25.9247 19.6276 25.3491 18.9176 25.3491Z" fill="white"></path><path d="M27.7315 25.3491H27.2882C26.5782 25.3491 26.0027 25.9247 26.0027 26.6347V27.078C26.0027 27.788 26.5782 28.3635 27.2882 28.3635H27.7315C28.4415 28.3635 29.0171 27.788 29.0171 27.078V26.6347C29.0171 25.9247 28.4415 25.3491 27.7315 25.3491Z" fill="white"></path><path d="M36.5494 25.3491H36.1061C35.3961 25.3491 34.8206 25.9247 34.8206 26.6347V27.078C34.8206 27.788 35.3961 28.3635 36.1061 28.3635H36.5494C37.2594 28.3635 37.8349 27.788 37.8349 27.078V26.6347C37.8349 25.9247 37.2594 25.3491 36.5494 25.3491Z" fill="white"></path><path d="M45.3636 25.3491H44.9203C44.2103 25.3491 43.6348 25.9247 43.6348 26.6347V27.078C43.6348 27.788 44.2103 28.3635 44.9203 28.3635H45.3636C46.0736 28.3635 46.6492 27.788 46.6492 27.078V26.6347C46.6492 25.9247 46.0736 25.3491 45.3636 25.3491Z" fill="white"></path><path d="M10.1034 34.1667H9.66006C8.95007 34.1667 8.37451 34.7423 8.37451 35.4523V35.8956C8.37451 36.6056 8.95007 37.1811 9.66006 37.1811H10.1034C10.8133 37.1811 11.3889 36.6056 11.3889 35.8956V35.4523C11.3889 34.7423 10.8133 34.1667 10.1034 34.1667Z" fill="white"></path><path d="M18.9176 34.1667H18.4743C17.7643 34.1667 17.1887 34.7423 17.1887 35.4523V35.8956C17.1887 36.6056 17.7643 37.1811 18.4743 37.1811H18.9176C19.6276 37.1811 20.2031 36.6056 20.2031 35.8956V35.4523C20.2031 34.7423 19.6276 34.1667 18.9176 34.1667Z" fill="white"></path><path d="M27.7315 34.1667H27.2882C26.5782 34.1667 26.0027 34.7423 26.0027 35.4523V35.8956C26.0027 36.6056 26.5782 37.1811 27.2882 37.1811H27.7315C28.4415 37.1811 29.0171 36.6056 29.0171 35.8956V35.4523C29.0171 34.7423 28.4415 34.1667 27.7315 34.1667Z" fill="white"></path><path d="M36.5494 34.1667H36.1061C35.3961 34.1667 34.8206 34.7423 34.8206 35.4523V35.8956C34.8206 36.6056 35.3961 37.1811 36.1061 37.1811H36.5494C37.2594 37.1811 37.8349 36.6056 37.8349 35.8956V35.4523C37.8349 34.7423 37.2594 34.1667 36.5494 34.1667Z" fill="white"></path><path d="M10.1034 42.981H9.66006C8.95007 42.981 8.37451 43.5565 8.37451 44.2665V44.7098C8.37451 45.4198 8.95007 45.9953 9.66006 45.9953H10.1034C10.8133 45.9953 11.3889 45.4198 11.3889 44.7098V44.2665C11.3889 43.5565 10.8133 42.981 10.1034 42.981Z" fill="white"></path><path d="M18.9176 42.981H18.4743C17.7643 42.981 17.1887 43.5565 17.1887 44.2665V44.7098C17.1887 45.4198 17.7643 45.9953 18.4743 45.9953H18.9176C19.6276 45.9953 20.2031 45.4198 20.2031 44.7098V44.2665C20.2031 43.5565 19.6276 42.981 18.9176 42.981Z" fill="white"></path><path d="M27.7315 42.981H27.2882C26.5782 42.981 26.0027 43.5565 26.0027 44.2665V44.7098C26.0027 45.4198 26.5782 45.9953 27.2882 45.9953H27.7315C28.4415 45.9953 29.0171 45.4198 29.0171 44.7098V44.2665C29.0171 43.5565 28.4415 42.981 27.7315 42.981Z" fill="white"></path><path d="M36.5494 42.981H36.1061C35.3961 42.981 34.8206 43.5565 34.8206 44.2665V44.7098C34.8206 45.4198 35.3961 45.9953 36.1061 45.9953H36.5494C37.2594 45.9953 37.8349 45.4198 37.8349 44.7098V44.2665C37.8349 43.5565 37.2594 42.981 36.5494 42.981Z" fill="white"></path><path d="M45.3636 34.1667H44.9203C44.2103 34.1667 43.6348 34.7423 43.6348 35.4523V35.8956C43.6348 36.6056 44.2103 37.1811 44.9203 37.1811H45.3636C46.0736 37.1811 46.6492 36.6056 46.6492 35.8956V35.4523C46.6492 34.7423 46.0736 34.1667 45.3636 34.1667Z" fill="white"></path></svg>