<svg xmlns="http://www.w3.org/2000/svg" width="46" height="45" viewBox="0 0 46 45" fill="none"><path d="M0 39.6976L4.14295 35.5546L0 31.4117L4.14295 27.2687L0 23.1258L4.14295 18.9828L0 14.8399L5.29168 9.56701L9.43463 13.71L13.7132 9.43143L9.57022 5.28847L14.8619 0.015625L19.0049 4.15858L23.1478 0.015625L27.2908 4.15858L31.4337 0.015625L35.5767 4.15858L39.7196 0.015625L45.0113 5.30731L40.8683 9.45026L45.0113 13.5932L40.8683 17.7362L45.0113 21.8791L40.8683 26.0221L45.0113 30.165L39.7196 35.4379L35.5767 31.2949L31.2868 35.5659L35.4298 39.7089L30.1381 44.9817L25.9951 40.8388L21.8522 44.9817L17.7092 40.8388L13.5663 44.9817L9.42333 40.8388L5.28038 44.9817L0 39.6976ZM2.07525 39.6976L5.30298 42.9253L9.44593 38.7824L13.5889 42.9253L17.7318 38.7824L21.8748 42.9253L26.0177 38.7824L30.1607 42.9253L33.3884 39.6976L29.2455 35.5546L33.3884 31.4117L29.2455 27.2687L33.3884 23.1258L29.2455 18.9828L33.3884 14.8399L30.1607 11.6121L26.0177 15.7551L21.8748 11.6121L17.7318 15.7551L13.5889 11.6121L9.44593 15.7551L5.30298 11.6121L2.07525 14.8399L6.2182 18.9828L2.07525 23.1258L6.2182 27.2687L2.07525 31.4117L6.2182 35.5546L2.07525 39.6976ZM39.697 33.3476L42.9248 30.1198L38.7818 25.9769L42.9248 21.8339L38.7818 17.691L42.9248 13.548L38.7818 9.40506L42.9248 5.26211L39.697 2.04944L35.5541 6.19239L31.4111 2.04944L27.2682 6.19239L23.1252 2.04944L18.9823 6.19239L14.8393 2.04944L11.6116 5.27718L15.7545 9.42013L14.5907 10.5877L17.6904 13.6836L21.8334 9.54065L25.9763 13.6836L30.1193 9.54065L35.4109 14.8135L31.268 18.9565L35.4109 23.0994L31.268 27.2424L34.3639 30.342L35.5352 29.1707L39.697 33.3476Z" fill="black"></path></svg>