<svg xmlns="http://www.w3.org/2000/svg" width="57" height="53" viewBox="0 0 57 53" fill="none"><g clip-path="url(#clip0_2_1940)"><path d="M46.5316 22.5795L46.3388 22.5139V3.16177C46.3377 2.32354 46.0043 1.51991 45.4116 0.927185C44.8189 0.334465 44.0153 0.00102037 43.177 0H3.16174C2.32351 0.00102037 1.51991 0.334465 0.927185 0.927185C0.334465 1.51991 0.00102037 2.32354 0 3.16177V43.177C0.00102037 44.0153 0.334465 44.8189 0.927185 45.4116C1.51991 46.0043 2.32351 46.3378 3.16174 46.3388H28.849L28.9299 46.4506C30.3704 48.4175 32.2535 50.0179 34.4269 51.1223C36.6003 52.2268 39.0031 52.8043 41.4411 52.8083C43.879 52.8122 46.2837 52.2425 48.4607 51.1451C50.6378 50.0478 52.526 48.4535 53.9729 46.4913C55.4197 44.5291 56.3846 42.254 56.7894 39.8499C57.1943 37.4458 57.0277 34.9802 56.3033 32.6523C55.5789 30.3245 54.3169 28.1997 52.6194 26.4499C50.9218 24.7 48.8363 23.3742 46.5316 22.5795ZM16.3022 16.3524C16.5663 16.5933 16.9088 16.7303 17.2662 16.738C17.4499 16.7342 17.6314 16.6976 17.8022 16.63L23.1694 14.4823L28.5212 16.6223C28.6942 16.7012 28.8825 16.7407 29.0726 16.738C29.3645 16.7415 29.6502 16.6538 29.89 16.4873C30.0834 16.3538 30.2414 16.1753 30.3502 15.967C30.4591 15.7587 30.5155 15.527 30.5147 15.292V2.90341H43.177C43.2507 2.90341 43.3213 2.93268 43.3733 2.98475C43.4254 3.03681 43.4547 3.10739 43.4547 3.18102V21.87L43.1385 21.8391C42.5827 21.7791 42.0241 21.7483 41.4651 21.7466C38.9236 21.7474 36.4211 22.3712 34.1766 23.5634C31.9321 24.7556 30.0142 26.4799 28.5907 28.5853C27.1672 30.6907 26.2816 33.113 26.0113 35.64C25.7411 38.1671 26.0945 40.7218 27.0406 43.0806L27.1987 43.4662H3.16174C3.12529 43.4662 3.08918 43.459 3.0555 43.4451C3.02182 43.4311 2.99122 43.4107 2.96544 43.3849C2.93966 43.3591 2.91921 43.3285 2.90526 43.2948C2.89131 43.2611 2.88413 43.2251 2.88413 43.1886V3.16177C2.88413 3.08814 2.91337 3.01751 2.96544 2.96545C3.0175 2.91339 3.08812 2.88412 3.16174 2.88412H15.8241V15.2535C15.824 15.4597 15.8664 15.6637 15.9487 15.8528C16.0309 16.0418 16.1513 16.2119 16.3022 16.3524ZM54.1159 37.27C54.1167 39.7747 53.3746 42.2234 51.9835 44.3063C50.5924 46.3892 48.6149 48.0127 46.301 48.9716C43.9871 49.9305 41.4408 50.1816 38.9841 49.6931C36.5275 49.2047 34.2709 47.9986 32.4998 46.2275C30.7287 44.4564 29.5227 42.1998 29.0342 39.7432C28.5458 37.2866 28.7969 34.7403 29.7557 32.4264C30.7146 30.1125 32.3381 28.1349 34.4211 26.7438C36.504 25.3528 38.9526 24.6107 41.4574 24.6115C44.8134 24.6156 48.0307 25.9505 50.4038 28.3236C52.7768 30.6966 54.1118 33.914 54.1159 37.27ZM27.6305 13.1405L23.7208 11.5982C23.5489 11.5248 23.364 11.4869 23.1771 11.4869C22.9902 11.4869 22.8053 11.5248 22.6334 11.5982L18.7083 13.1636V2.89569H27.6305V13.1405Z" fill="white"></path><path d="M47.769 35.9436H42.7874V30.9735C42.7683 30.6034 42.6078 30.2548 42.3391 29.9997C42.0704 29.7445 41.714 29.6022 41.3434 29.6022C40.9728 29.6022 40.6164 29.7445 40.3477 29.9997C40.079 30.2548 39.9185 30.6034 39.8994 30.9735V37.3857C39.9004 37.7678 40.0527 38.134 40.3229 38.4042C40.5931 38.6744 40.9593 38.8267 41.3415 38.8277H47.769C48.1515 38.8277 48.5183 38.6758 48.7887 38.4053C49.0592 38.1349 49.2111 37.7681 49.2111 37.3857C49.2111 37.0032 49.0592 36.6364 48.7887 36.3659C48.5183 36.0955 48.1515 35.9436 47.769 35.9436Z" fill="white"></path></g><defs><clipPath id="clip0_2_1940"><rect width="57" height="52.8088" fill="white"></rect></clipPath></defs></svg>