<svg xmlns="http://www.w3.org/2000/svg" width="59" height="59" viewBox="0 0 59 59" fill="none"><path d="M48.2444 27.6509H36.7264C36.5406 27.6407 36.3547 27.6684 36.1801 27.7325C36.0054 27.7966 35.8456 27.8955 35.7105 28.0235C35.5754 28.1514 35.4677 28.3054 35.3942 28.4763C35.3206 28.6472 35.2827 28.8314 35.2827 29.0174C35.2827 29.2035 35.3206 29.3876 35.3942 29.5585C35.4677 29.7294 35.5754 29.8835 35.7105 30.0114C35.8456 30.1393 36.0054 30.2383 36.1801 30.3023C36.3547 30.3664 36.5406 30.3942 36.7264 30.384H48.2444C48.4301 30.3942 48.616 30.3664 48.7907 30.3023C48.9654 30.2383 49.1251 30.1393 49.2603 30.0114C49.3954 29.8835 49.503 29.7294 49.5766 29.5585C49.6501 29.3876 49.6881 29.2035 49.6881 29.0174C49.6881 28.8314 49.6501 28.6472 49.5766 28.4763C49.503 28.3054 49.3954 28.1514 49.2603 28.0235C49.1251 27.8955 48.9654 27.7966 48.7907 27.7325C48.616 27.6684 48.4301 27.6407 48.2444 27.6509Z" fill="white"></path><path d="M48.2441 20.7378H43.6435C43.2805 20.7378 42.9324 20.882 42.6758 21.1387C42.4191 21.3953 42.2749 21.7434 42.2749 22.1064C42.2749 22.4694 42.4191 22.8175 42.6758 23.0742C42.9324 23.3309 43.2805 23.4751 43.6435 23.4751H48.2524C48.6153 23.4751 48.9634 23.3309 49.2201 23.0742C49.4768 22.8175 49.621 22.4694 49.621 22.1064C49.621 21.7434 49.4768 21.3953 49.2201 21.1387C48.9634 20.882 48.6153 20.7378 48.2524 20.7378H48.2441Z" fill="white"></path><path d="M48.2444 6.91527H36.7264C36.5406 6.90506 36.3547 6.93283 36.1801 6.99689C36.0054 7.06096 35.8456 7.15995 35.7105 7.28785C35.5754 7.41575 35.4677 7.5699 35.3942 7.7408C35.3206 7.9117 35.2827 8.09576 35.2827 8.28182C35.2827 8.46787 35.3206 8.65198 35.3942 8.82288C35.4677 8.99378 35.5754 9.14788 35.7105 9.27578C35.8456 9.40368 36.0054 9.50272 36.1801 9.56679C36.3547 9.63085 36.5406 9.65862 36.7264 9.64841H48.2444C48.4301 9.65862 48.616 9.63085 48.7907 9.56679C48.9654 9.50272 49.1251 9.40368 49.2603 9.27578C49.3954 9.14788 49.503 8.99378 49.5766 8.82288C49.6501 8.65198 49.6881 8.46787 49.6881 8.28182C49.6881 8.09576 49.6501 7.9117 49.5766 7.7408C49.503 7.5699 49.3954 7.41575 49.2603 7.28785C49.1251 7.15995 48.9654 7.06096 48.7907 6.99689C48.616 6.93283 48.4301 6.90506 48.2444 6.91527Z" fill="white"></path><path d="M56.8847 34.5641H56.5261V2.7352H56.8847C57.0705 2.74541 57.2564 2.71765 57.4311 2.65358C57.6058 2.58952 57.7656 2.49052 57.9007 2.36262C58.0358 2.23472 58.1434 2.08057 58.217 1.90967C58.2905 1.73877 58.3285 1.55471 58.3285 1.36866C58.3285 1.1826 58.2905 0.998494 58.217 0.827595C58.1434 0.656697 58.0358 0.502597 57.9007 0.374697C57.7656 0.246796 57.6058 0.14775 57.4311 0.0836843C57.2564 0.019619 57.0705 -0.00814526 56.8847 0.00206195H28.0858C27.9 -0.00814526 27.7141 0.019619 27.5394 0.0836843C27.3648 0.14775 27.205 0.246796 27.0698 0.374697C26.9347 0.502597 26.8271 0.656697 26.7536 0.827595C26.68 0.998494 26.642 1.1826 26.642 1.36866C26.642 1.55471 26.68 1.73877 26.7536 1.90967C26.8271 2.08057 26.9347 2.23472 27.0698 2.36262C27.205 2.49052 27.3648 2.58952 27.5394 2.65358C27.7141 2.71765 27.9 2.74541 28.0858 2.7352H28.4444V12.6743H21.0984L21.5106 12.1054C22.3199 10.9441 22.7934 9.58218 22.8791 8.16933C22.9649 6.75648 22.6596 5.34733 21.9967 4.09667C21.3339 2.84601 20.3392 1.80224 19.1218 1.08001C17.9045 0.357785 16.5117 -0.0149369 15.0963 0.00276645C13.681 0.0204699 12.2979 0.427904 11.099 1.18035C9.90015 1.9328 8.93182 3.00117 8.30047 4.26801C7.66912 5.53486 7.3992 6.9512 7.52028 8.36146C7.64135 9.77172 8.14877 11.1213 8.98681 12.262L9.33308 12.732L8.76006 12.835C6.30857 13.2685 4.08763 14.5505 2.48611 16.4565C0.88459 18.3625 0.0045462 20.771 0 23.2606V35.9245C0.00326486 37.2027 0.512447 38.4276 1.41626 39.3314C2.32008 40.2352 3.54498 40.7444 4.82317 40.7477H4.95924C5.46172 40.7343 5.9587 40.6397 6.43091 40.4674L6.91324 40.2901V53.4405C6.91311 54.3716 7.18269 55.2828 7.68946 56.064C8.19623 56.8451 8.91848 57.4627 9.76882 57.8421C10.6192 58.2215 11.5612 58.3464 12.481 58.2018C13.4008 58.0571 14.2591 57.649 14.9519 57.027L15.1951 56.8126L15.4342 57.027C16.127 57.649 16.9853 58.0571 17.9051 58.2018C18.8249 58.3464 19.7669 58.2215 20.6172 57.8421C21.4676 57.4627 22.1898 56.8451 22.6966 56.064C23.2034 55.2828 23.473 54.3716 23.4728 53.4405V22.3206H28.4568V34.5641H28.0982C27.9124 34.5539 27.7265 34.5817 27.5518 34.6458C27.3771 34.7098 27.2173 34.8088 27.0822 34.9367C26.9471 35.0646 26.8395 35.2187 26.7659 35.3896C26.6924 35.5605 26.6544 35.7446 26.6544 35.9307C26.6544 36.1168 26.6924 36.3009 26.7659 36.4718C26.8395 36.6427 26.9471 36.7968 27.0822 36.9247C27.2173 37.0526 27.3771 37.1516 27.5518 37.2156C27.7265 37.2797 27.9124 37.3074 28.0982 37.2972H41.129V43.8065L32.7152 56.1242C32.5279 56.4239 32.4638 56.7845 32.5363 57.1304C32.6088 57.4763 32.8124 57.7807 33.1044 57.98C33.3963 58.1792 33.7539 58.2578 34.1025 58.1993C34.451 58.1407 34.7634 57.9496 34.9743 57.6659L41.1166 48.6503V56.8951C41.1358 57.2445 41.2882 57.5733 41.5424 57.8139C41.7965 58.0545 42.1332 58.1886 42.4832 58.1886C42.8332 58.1886 43.1699 58.0545 43.424 57.8139C43.6782 57.5733 43.8306 57.2445 43.8498 56.8951V48.6503L49.9963 57.6659C50.094 57.8223 50.2222 57.9573 50.3734 58.0628C50.5246 58.1684 50.6955 58.2423 50.876 58.2801C51.0564 58.318 51.2427 58.319 51.4235 58.283C51.6044 58.2471 51.7761 58.175 51.9284 58.0711C52.0807 57.9672 52.2104 57.8335 52.3098 57.6782C52.4091 57.5229 52.4761 57.3491 52.5066 57.1673C52.5372 56.9854 52.5306 56.7993 52.4874 56.6201C52.4443 56.4408 52.3653 56.2722 52.2553 56.1242L43.8498 43.8024V37.2931H56.8847C57.0705 37.3033 57.2564 37.2756 57.4311 37.2115C57.6058 37.1474 57.7656 37.0484 57.9007 36.9205C58.0358 36.7926 58.1434 36.6385 58.217 36.4676C58.2905 36.2967 58.3285 36.1126 58.3285 35.9266C58.3285 35.7405 58.2905 35.5564 58.217 35.3855C58.1434 35.2146 58.0358 35.0605 57.9007 34.9326C57.7656 34.8047 57.6058 34.7057 57.4311 34.6416C57.2564 34.5776 57.0705 34.5498 56.8847 34.56V34.5641ZM15.1827 34.795C14.8197 34.795 14.4716 34.9392 14.215 35.1958C13.9583 35.4525 13.8141 35.8006 13.8141 36.1636V53.4446C13.8141 53.9989 13.5939 54.5306 13.2019 54.9225C12.81 55.3145 12.2783 55.5347 11.724 55.5347C11.1697 55.5347 10.6381 55.3145 10.2462 54.9225C9.85421 54.5306 9.634 53.9989 9.634 53.4446V23.6439C9.64421 23.4581 9.61645 23.2722 9.55238 23.0976C9.48832 22.9229 9.38932 22.7631 9.26142 22.628C9.13352 22.4929 8.97937 22.3852 8.80847 22.3117C8.63757 22.2381 8.45351 22.2002 8.26746 22.2002C8.0814 22.2002 7.89729 22.2381 7.7264 22.3117C7.5555 22.3852 7.4014 22.4929 7.2735 22.628C7.1456 22.7631 7.04655 22.9229 6.98249 23.0976C6.91842 23.2722 6.89066 23.4581 6.90086 23.6439V35.8585C6.908 36.4104 6.70122 36.9435 6.32387 37.3463C5.94652 37.749 5.42789 37.9899 4.87676 38.0187H4.80671C4.25745 38.0132 3.7326 37.791 3.34652 37.4002C2.96043 37.0095 2.74441 36.482 2.74552 35.9328V23.2606C2.75312 21.1856 3.58077 19.1978 5.04801 17.7305C6.51524 16.2633 8.50307 15.4356 10.578 15.428H35.5762C36.1305 15.428 36.6621 15.6482 37.054 16.0402C37.446 16.4322 37.6662 16.9637 37.6662 17.5181C37.6662 18.0724 37.446 18.604 37.054 18.996C36.6621 19.3879 36.1305 19.6081 35.5762 19.6081H22.096C21.7337 19.6092 21.3867 19.7539 21.1309 20.0104C20.8751 20.267 20.7315 20.6145 20.7315 20.9767V53.4653C20.7315 54.0196 20.5113 54.5512 20.1193 54.9431C19.7273 55.3351 19.1957 55.5553 18.6414 55.5553C18.0871 55.5553 17.5555 55.3351 17.1635 54.9431C16.7716 54.5512 16.5514 54.0196 16.5514 53.4653V36.1842C16.5541 36.0041 16.5212 35.8253 16.4547 35.658C16.3882 35.4906 16.2893 35.338 16.1636 35.2089C16.038 35.0799 15.8882 34.9769 15.7227 34.9058C15.5572 34.8348 15.3793 34.7971 15.1992 34.795H15.1827ZM31.1776 22.3206H35.572C36.2503 22.3195 36.9208 22.1755 37.5397 21.8981C38.1587 21.6207 38.7124 21.2161 39.1646 20.7105C39.6169 20.205 39.9576 19.6099 40.1647 18.964C40.3717 18.3181 40.4405 17.6358 40.3664 16.9615L40.321 16.5493H48.2442C48.43 16.5595 48.6159 16.5318 48.7906 16.4677C48.9653 16.4036 49.125 16.3046 49.2601 16.1767C49.3953 16.0488 49.5029 15.8947 49.5765 15.7238C49.65 15.5529 49.6879 15.3688 49.6879 15.1828C49.6879 14.9967 49.65 14.8126 49.5765 14.6417C49.5029 14.4708 49.3953 14.3167 49.2601 14.1888C49.125 14.0609 48.9653 13.9619 48.7906 13.8978C48.6159 13.8337 48.43 13.806 48.2442 13.8162H38.6968L38.5979 13.7337C37.7437 13.037 36.6743 12.6581 35.572 12.6619H31.1776V2.72282H53.7888V34.5518H31.1776V22.3206ZM15.1827 2.7352C16.166 2.7352 17.1272 3.02678 17.9448 3.57307C18.7624 4.11935 19.3996 4.8958 19.7759 5.80424C20.1521 6.71268 20.2506 7.71233 20.0588 8.67673C19.867 9.64112 19.3935 10.527 18.6982 11.2223C18.0029 11.9176 17.117 12.391 16.1526 12.5829C15.1882 12.7747 14.1886 12.6763 13.2802 12.3C12.3717 11.9237 11.5953 11.2864 11.049 10.4688C10.5027 9.65127 10.2111 8.69011 10.2111 7.70682C10.2117 7.0527 10.3412 6.40509 10.5922 5.80107C10.8433 5.19706 11.211 4.64851 11.6743 4.18674C12.1376 3.72498 12.6874 3.35907 13.2923 3.11C13.8971 2.86093 14.5451 2.73358 15.1992 2.7352H15.1827Z" fill="white"></path></svg>