<svg xmlns="http://www.w3.org/2000/svg" width="36" height="28" viewBox="0 0 36 28" fill="none"><path d="M27.3025 27.906C25.8714 27.9056 24.4626 27.5538 23.2018 26.8818L21.6447 25.8245C20.6097 24.9413 19.7969 23.8304 19.2711 22.5802L19.1952 22.4025L12.5176 24.5412C12.4577 24.5603 12.3953 24.5704 12.3324 24.5714C12.2695 24.5704 12.2072 24.5603 12.1473 24.5412L0.42191 20.7879C0.3011 20.7495 0.195424 20.6746 0.119752 20.5735C0.0440793 20.4725 0.00220726 20.3505 0 20.2246V4.34376C0.00220726 4.21789 0.0440793 4.09587 0.119752 3.99484C0.195424 3.89381 0.3011 3.81884 0.42191 3.78046L12.1533 0.0271301C12.2134 0.00910123 12.2757 -3.41744e-05 12.3385 1.92838e-05C12.4005 -0.000505578 12.4621 0.00968746 12.5206 0.0301421L24.2459 3.78046C24.3672 3.819 24.4732 3.89443 24.549 3.99606C24.6247 4.09769 24.6663 4.22039 24.6679 4.34677V11.0612L24.938 10.9859C25.7114 10.7692 26.5109 10.6578 27.3146 10.6545C29.2944 10.6554 31.2141 11.3294 32.7539 12.5643L34.1896 14.0163C35.5553 15.7678 36.1867 17.9751 35.952 20.1775C35.7173 22.3799 34.6346 24.4073 32.9299 25.8365L31.388 26.8848L30.617 27.2463C29.5595 27.6848 28.4243 27.9091 27.2782 27.906H27.3025ZM27.3025 11.8414C25.3148 11.8438 23.4093 12.6284 22.0038 14.0233C20.5984 15.4181 19.8077 17.3092 19.8053 19.2818C19.8077 21.2543 20.5984 23.1454 22.0038 24.5403C23.4093 25.9351 25.3148 26.7198 27.3025 26.7222C29.2889 26.7158 31.1921 25.9299 32.5967 24.5359C34.0013 23.1419 34.7932 21.2531 34.7996 19.2818C34.7964 17.3097 34.0054 15.4194 32.6001 14.0252C31.1947 12.631 29.2896 11.8468 27.3025 11.8444V11.8414ZM12.5206 8.65738V23.2911L18.8461 21.2669L18.8067 21.0801C18.6786 20.4861 18.6155 19.8802 18.6185 19.2727C18.6022 17.6816 19.0373 16.1181 19.8741 14.7608C20.7109 13.4035 21.9156 12.3073 23.3505 11.5974L23.4689 11.5402V5.15708L12.5206 8.65738ZM1.18985 19.8029L11.3277 23.0441V8.39832L1.18985 5.15708V19.8029ZM2.54966 4.3528L12.3294 7.48258L22.1061 4.3528L12.3294 1.22301L2.54966 4.3528Z" fill="black"></path><path d="M23.1342 19.0471C23.0704 18.9838 23.0199 18.9087 22.9855 18.826C22.9511 18.7433 22.9336 18.6546 22.9339 18.5651C22.9329 18.4755 22.9501 18.3867 22.9845 18.3039C23.019 18.221 23.0699 18.146 23.1342 18.0831C23.1978 18.0194 23.2734 17.9688 23.3567 17.9341C23.4401 17.8995 23.5295 17.8816 23.6199 17.8813C23.8028 17.8812 23.9783 17.9526 24.1085 18.0801L26.7887 20.743L31.1959 16.3631C31.2591 16.2988 31.3347 16.2479 31.4181 16.2132C31.5015 16.1785 31.5911 16.1609 31.6816 16.1613C31.772 16.1612 31.8615 16.179 31.9449 16.2137C32.0283 16.2483 32.1039 16.2991 32.1672 16.3631C32.232 16.4258 32.2834 16.5008 32.3183 16.5836C32.3533 16.6664 32.371 16.7553 32.3706 16.8451C32.3704 16.9348 32.3523 17.0235 32.3174 17.1062C32.2825 17.1889 32.2315 17.264 32.1672 17.3271L26.7887 22.6889L23.1342 19.0471Z" fill="black"></path></svg>