<svg xmlns="http://www.w3.org/2000/svg" width="30" height="30" viewBox="0 0 30 30" fill="none"><path d="M28.8835 7.61873L15.2786 1.0463C15.2149 1.01582 15.1452 1 15.0745 1C15.0039 1 14.9342 1.01582 14.8705 1.0463L1.26564 7.61873C1.18562 7.65602 1.11803 7.71556 1.07093 7.79023C1.02383 7.8649 0.999213 7.95155 1.00002 8.03983V28.6933C1.00335 28.8145 1.05342 28.9297 1.13976 29.0148C1.22609 29.0999 1.342 29.1484 1.46323 29.15H4.27814C4.40271 29.15 4.52217 29.1005 4.61026 29.0124C4.69834 28.9243 4.74783 28.8049 4.74783 28.6803V14.1426H25.3948V28.6933C25.3982 28.8156 25.4491 28.9317 25.5368 29.017C25.6246 29.1023 25.7421 29.15 25.8645 29.15H28.6729C28.7975 29.15 28.9169 29.1005 29.005 29.0124C29.0931 28.9243 29.1426 28.8049 29.1426 28.6803V8.03983C29.1408 7.95213 29.1151 7.86658 29.0683 7.79238C29.0215 7.71819 28.9553 7.65815 28.877 7.61873H28.8835ZM3.80197 13.2032V12.267H26.3342V13.2032H3.80197ZM28.2097 28.2236H26.3342V14.1426H26.8006C26.9252 14.1426 27.0447 14.0931 27.1327 14.005C27.2208 13.9169 27.2703 13.7974 27.2703 13.6729V11.7974C27.2686 11.6739 27.2184 11.5561 27.1305 11.4694C27.0426 11.3827 26.9241 11.3341 26.8006 11.3341H3.33552C3.21095 11.3341 3.09148 11.3836 3.00339 11.4717C2.91531 11.5598 2.86582 11.6793 2.86582 11.8038V13.6794C2.86582 13.8039 2.91531 13.9234 3.00339 14.0115C3.09148 14.0996 3.21095 14.149 3.33552 14.149H3.80197V28.2236H1.92644V8.3346L15.0681 1.99216L28.2097 8.3346V28.2236Z" fill="black" stroke="black" stroke-width="0.5" stroke-miterlimit="10"></path><path d="M20.8988 22.5031H18.4046V17.1065C18.4046 17.0514 18.3937 16.9968 18.3725 16.9459C18.3512 16.895 18.3202 16.8488 18.281 16.8099C18.2419 16.7711 18.1954 16.7404 18.1444 16.7195C18.0933 16.6987 18.0386 16.6882 17.9835 16.6887H12.1528C12.042 16.6887 11.9357 16.7327 11.8573 16.8111C11.779 16.8894 11.735 16.9957 11.735 17.1065V22.5031H9.2375C9.12724 22.504 9.02178 22.5484 8.94412 22.6266C8.86645 22.7049 8.82287 22.8107 8.82288 22.921V28.7516C8.82785 28.8585 8.87362 28.9594 8.95076 29.0335C9.02789 29.1076 9.13052 29.1493 9.2375 29.1501H20.8664C20.9767 29.1501 21.0825 29.1065 21.1607 29.0288C21.239 28.9511 21.2834 28.8457 21.2843 28.7354V22.9048C21.2828 22.8015 21.2422 22.7026 21.1706 22.628C21.0991 22.5535 21.0019 22.5088 20.8988 22.5031V22.5031ZM18.4046 23.3356V24.5795H17.5559V23.3356H18.4046ZM14.6503 17.5212H15.486V18.765H14.6503V17.5212ZM11.735 23.3356H12.5674V24.5795H11.7479L11.735 23.3356ZM14.6503 28.3176H9.67156V23.3356H10.9154V24.9973C10.9163 25.107 10.9602 25.212 11.0378 25.2896C11.1154 25.3672 11.2203 25.4111 11.3301 25.412H12.9918C13.1015 25.4111 13.2065 25.3672 13.284 25.2896C13.3616 25.212 13.4056 25.107 13.4064 24.9973V23.3356H14.6503V28.3176V28.3176ZM12.5739 22.4869V17.5212H13.8178V19.1829C13.8178 19.2937 13.8618 19.4 13.9402 19.4784C14.0185 19.5567 14.1248 19.6008 14.2357 19.6008H15.8941C16.005 19.6008 16.1113 19.5567 16.1896 19.4784C16.268 19.4 16.312 19.2937 16.312 19.1829V17.5212H17.5559V22.5031L12.5739 22.4869ZM20.4647 28.3176H15.486V23.3356H16.7299V24.9973C16.7307 25.107 16.7747 25.212 16.8523 25.2896C16.9298 25.3672 17.0348 25.4111 17.1445 25.412H18.8062C18.9159 25.4111 19.0209 25.3672 19.0985 25.2896C19.1761 25.212 19.22 25.107 19.2209 24.9973V23.3356H20.4647V28.3176V28.3176Z" fill="black" stroke="black" stroke-width="0.5" stroke-miterlimit="10"></path></svg>