<svg xmlns="http://www.w3.org/2000/svg" width="27" height="27" viewBox="0 0 27 27" fill="none"><path d="M13.5979 15V14.2191H14.4571V15H13.5979ZM13.6364 13.1536C13.6393 12.917 13.6764 12.6821 13.7467 12.4558C13.871 12.2362 14.0469 12.0488 14.2596 11.9092L14.5828 11.6573C14.7003 11.5712 14.8033 11.4675 14.888 11.35C15.0268 11.1669 15.1039 10.9459 15.1086 10.7177C15.1157 10.4465 15.0309 10.1807 14.8675 9.96198C14.7581 9.83202 14.6178 9.7305 14.459 9.66636C14.3002 9.60222 14.1278 9.57744 13.957 9.5942C13.7768 9.5811 13.5963 9.61496 13.4337 9.69237C13.2711 9.76978 13.1322 9.88798 13.0311 10.035C12.9131 10.2126 12.8344 10.4126 12.8002 10.622H12C12.012 10.3584 12.0864 10.1011 12.2173 9.87069C12.3482 9.64025 12.532 9.44295 12.7541 9.29444C13.1005 9.08834 13.501 8.98673 13.9057 9.00224C14.4457 8.9797 14.9789 9.12804 15.4266 9.42543C15.6186 9.5626 15.7717 9.74569 15.8713 9.95731C15.971 10.1689 16.0139 10.4021 15.996 10.6346C16.004 10.9269 15.9139 11.2137 15.7396 11.4507C15.5662 11.6599 15.3652 11.8454 15.1419 12.0024L14.8393 12.2291C14.6417 12.3713 14.4938 12.5702 14.4161 12.7984C14.3835 12.9134 14.3646 13.0317 14.3597 13.151L13.6364 13.1536Z" fill="black"></path><path d="M13.5053 27C13.1693 26.9988 12.8383 26.9184 12.5392 26.7653C12.24 26.6121 11.9811 26.3905 11.7835 26.1184C11.5859 25.8464 11.4551 25.5315 11.4017 25.1994C11.3484 24.8672 11.3739 24.5272 11.4764 24.2068C11.5575 23.9352 11.6925 23.6827 11.8734 23.4646C12.0542 23.2464 12.2772 23.067 12.5289 22.9372C12.5888 22.904 12.6506 22.8743 12.714 22.8483L12.9676 22.7239V20.4385L12.714 20.4081C11.4052 20.2551 10.1655 19.7378 9.13553 18.915L8.93771 18.7601L8.49135 19.2603C8.18194 19.5676 7.86493 19.8875 7.56313 20.21C7.50475 20.2923 7.46789 20.388 7.45593 20.4882C7.44397 20.5885 7.45728 20.6901 7.49465 20.7839C7.60245 21.0814 7.64422 21.3988 7.61707 21.7141C7.58991 22.0294 7.49448 22.335 7.33741 22.6096C7.17862 22.8804 6.96267 23.1132 6.70465 23.2917C6.44663 23.4702 6.15277 23.5901 5.84363 23.6431C5.71899 23.6662 5.59252 23.6781 5.46575 23.6786C4.95443 23.6751 4.46123 23.4886 4.07521 23.1529C3.68919 22.8171 3.43579 22.3542 3.36077 21.8478C3.31827 21.573 3.33092 21.2924 3.39798 21.0225C3.46504 20.7527 3.58516 20.4989 3.75133 20.276C3.91448 20.0491 4.1208 19.8567 4.35843 19.7098C4.59606 19.563 4.86033 19.4646 5.13605 19.4203C5.24678 19.4028 5.35873 19.3943 5.47082 19.3949C5.74417 19.3976 6.01541 19.443 6.27477 19.5295C6.33621 19.5492 6.40048 19.5586 6.46498 19.5574C6.5983 19.5624 6.72863 19.5171 6.83019 19.4304C7.13959 19.1384 7.43886 18.8413 7.72544 18.5519L8.1439 18.1354L8.04245 17.9501C7.93847 17.7596 7.82942 17.5717 7.7229 17.3863C7.48323 16.9938 7.26973 16.5857 7.0838 16.165C6.91341 15.7414 6.77108 15.3071 6.65773 14.8648C6.60193 14.6541 6.5436 14.4408 6.4802 14.225L6.41933 14.0244H5.50126C5.1817 14.0244 4.84947 14.0244 4.51724 14.0244C4.30167 14.0244 4.17993 14.2351 4.10639 14.39C3.93202 14.7609 3.65576 15.0744 3.30993 15.2939C2.9641 15.5133 2.563 15.6296 2.15357 15.6292C1.86875 15.6309 1.58663 15.5739 1.32481 15.4616C1.063 15.3493 0.827114 15.1842 0.631893 14.9766C0.32735 14.6908 0.11981 14.3168 0.0383926 13.9069C-0.0430243 13.497 0.00576916 13.0719 0.177926 12.6912C0.316685 12.3016 0.572075 11.9643 0.909284 11.7253C1.24649 11.4862 1.64911 11.3572 2.06227 11.3556H2.18147C2.57802 11.3451 2.96873 11.4529 3.30384 11.6655C3.63896 11.878 3.90333 12.1856 4.06327 12.549C4.11668 12.6779 4.20833 12.7871 4.32582 12.8621C4.44331 12.937 4.58095 12.974 4.72013 12.968H4.76832C4.97628 12.968 5.18424 12.968 5.39474 12.968H6.28238H6.536L6.56643 12.7141C6.71683 11.4028 7.23273 10.1603 8.05514 9.12865L8.2073 8.93313L7.74826 8.47098C7.43632 8.15611 7.1117 7.82855 6.78707 7.51622C6.70688 7.44544 6.60217 7.40898 6.49542 7.41465C6.4089 7.41534 6.32313 7.43079 6.24181 7.46036C5.99735 7.54665 5.74017 7.59129 5.48097 7.5924C4.97505 7.59244 4.48559 7.41242 4.1 7.0845C3.71441 6.75657 3.45779 6.30209 3.37598 5.80222C3.32809 5.53387 3.33415 5.25866 3.39381 4.99269C3.45347 4.72671 3.56553 4.47533 3.72343 4.25327C3.89157 4.01413 4.1055 3.81084 4.3528 3.65521C4.60009 3.49959 4.87582 3.39474 5.16395 3.34675C5.27377 3.32852 5.38487 3.31918 5.49618 3.31882C5.99758 3.32502 6.48117 3.50582 6.8639 3.83018C7.24664 4.15454 7.50463 4.60221 7.59356 5.0963C7.65068 5.47956 7.61324 5.87099 7.48451 6.23643C7.45242 6.326 7.44258 6.42204 7.45584 6.51627C7.46909 6.6105 7.50504 6.70008 7.56059 6.77729C7.86746 7.10232 8.17433 7.40957 8.49896 7.7346L8.95546 8.19166L9.15074 8.03931C10.1867 7.21725 11.4313 6.70103 12.7444 6.54876L12.998 6.52083V5.88347C12.998 5.42895 12.998 4.96172 12.998 4.49704C12.998 4.33452 12.8738 4.19486 12.6379 4.08314C12.3434 3.94441 12.0838 3.74116 11.8784 3.48843C11.6729 3.2357 11.5269 2.93995 11.451 2.62306C11.3784 2.3117 11.3767 1.98798 11.4461 1.67588C11.5155 1.36379 11.6541 1.07133 11.8517 0.820182C12.1549 0.425379 12.588 0.150966 13.0741 0.0457067C13.1274 0.0457067 13.1806 0.0152356 13.2314 0H13.2542H13.8223C14.2244 0.0813439 14.6021 0.255208 14.9255 0.507853C15.1979 0.738796 15.4075 1.035 15.5347 1.36888C15.662 1.70276 15.7028 2.06346 15.6534 2.41738C15.6044 2.7747 15.4672 3.11416 15.2542 3.40502C15.0412 3.69588 14.7591 3.92895 14.4335 4.08314C14.1799 4.1974 14.0759 4.33706 14.0708 4.49704C14.0708 4.95918 14.0708 5.42895 14.0708 5.88093V6.52083L14.3244 6.54876C15.6372 6.70104 16.8812 7.21825 17.9156 8.04185L18.1134 8.1942L18.5927 7.7092C18.8945 7.40703 19.1811 7.1201 19.4626 6.81792C19.5266 6.73915 19.5704 6.64595 19.5903 6.54639C19.6102 6.44684 19.6055 6.34394 19.5768 6.24659C19.4492 5.88001 19.4118 5.48805 19.4677 5.10392C19.5571 4.61004 19.8152 4.16265 20.1978 3.83837C20.5805 3.5141 21.0638 3.33312 21.5651 3.32644C21.6755 3.32691 21.7858 3.33625 21.8948 3.35437C22.1845 3.40137 22.4618 3.50631 22.7102 3.66293C22.9586 3.81954 23.1729 4.02463 23.3404 4.26596C23.4933 4.49102 23.5995 4.74457 23.6527 5.01153C23.7058 5.27849 23.7048 5.55342 23.6498 5.81999C23.5649 6.31646 23.3078 6.767 22.9236 7.09219C22.5394 7.41737 22.0529 7.59632 21.5499 7.59748C21.2907 7.59786 21.0335 7.55407 20.789 7.46797C20.7075 7.43928 20.6218 7.42468 20.5354 7.42481C20.4198 7.41988 20.3065 7.45888 20.2184 7.534C19.8963 7.84125 19.5742 8.16119 19.2674 8.47098L18.8058 8.93059L18.9605 9.12865C19.7802 10.1599 20.2959 11.4 20.4492 12.709L20.4796 12.9629H22.7495L22.8636 12.709C22.8864 12.6557 22.9092 12.6049 22.9371 12.5541C23.1034 12.1907 23.3718 11.8838 23.7097 11.6709C24.0476 11.458 24.4401 11.3484 24.8392 11.3556H24.9178C25.329 11.356 25.7304 11.4806 26.0697 11.713C26.409 11.9453 26.6705 12.2748 26.8199 12.6582C26.8741 12.784 26.9182 12.9139 26.9518 13.0467C26.967 13.1051 26.9822 13.161 27 13.2194V13.7806C26.9822 13.8364 26.967 13.8923 26.9518 13.9482C26.9186 14.0819 26.8745 14.2127 26.8199 14.3392C26.6694 14.7253 26.4046 15.056 26.061 15.287C25.7174 15.518 25.3114 15.6383 24.8976 15.6317H24.8443C24.4407 15.6414 24.0435 15.5304 23.7033 15.3128C23.3631 15.0953 23.0954 14.781 22.9346 14.4103C22.8862 14.291 22.8024 14.1894 22.6944 14.1195C22.5864 14.0495 22.4595 14.0145 22.331 14.0193H22.2955C22.0748 14.0193 21.8542 14.0193 21.6336 14.0193H20.4847L20.4543 14.2732C20.3019 15.5852 19.7852 16.8282 18.963 17.8612L18.8083 18.0567L19.28 18.529C19.5996 18.8515 19.9039 19.1562 20.2235 19.4584C20.3089 19.5328 20.4198 19.571 20.5329 19.565C20.6192 19.5642 20.7048 19.5496 20.7865 19.5219C21.0309 19.4358 21.2882 19.392 21.5473 19.3924C22.0507 19.3934 22.5375 19.5723 22.9221 19.8974C23.3067 20.2226 23.5644 20.6732 23.6498 21.1698C23.7005 21.4396 23.696 21.7168 23.6368 21.9848C23.5775 22.2527 23.4646 22.5059 23.3049 22.7289C23.1364 22.97 22.9216 23.1748 22.6729 23.3313C22.4241 23.4879 22.1467 23.593 21.8567 23.6405C21.7486 23.6579 21.6391 23.6664 21.5296 23.6659C21.0286 23.6583 20.5457 23.477 20.1633 23.1529C19.7809 22.8287 19.5225 22.3819 19.4322 21.8885C19.3661 21.5176 19.402 21.1358 19.5362 20.7839C19.5883 20.6748 19.6032 20.5515 19.5784 20.4331C19.5537 20.3147 19.4907 20.2078 19.3992 20.1287C19.1253 19.8621 18.8565 19.5904 18.5801 19.3111L18.0728 18.8032L17.8776 18.9556C16.8447 19.7801 15.6012 20.2974 14.2889 20.4487L14.0353 20.4792V21.1267C14.0353 21.571 14.0353 22.0307 14.0353 22.4852C14.0353 22.6502 14.1596 22.7924 14.398 22.9143C14.7642 23.0792 15.0753 23.3463 15.2938 23.6836C15.5124 24.0209 15.6293 24.4141 15.6305 24.8162C15.6521 25.2168 15.5548 25.6148 15.3508 25.96C15.1468 26.3053 14.8453 26.5823 14.4842 26.7562C14.183 26.9172 13.8467 27.0009 13.5053 27V27ZM13.5053 23.77C13.2174 23.767 12.9401 23.8786 12.7344 24.0803C12.5287 24.282 12.4114 24.5572 12.4084 24.8454C12.4054 25.1337 12.5168 25.4113 12.7183 25.6173C12.9197 25.8232 13.1946 25.9406 13.4824 25.9437V25.9437C13.6288 25.9457 13.7741 25.9181 13.9096 25.8627C14.0451 25.8073 14.1681 25.7252 14.2712 25.6212C14.3719 25.5215 14.452 25.4029 14.5068 25.2722C14.5617 25.1415 14.5902 25.0012 14.5907 24.8594C14.5907 24.5709 14.4765 24.2942 14.273 24.09C14.0695 23.8858 13.7934 23.7707 13.5053 23.77ZM5.47082 20.4411C5.1838 20.4477 4.91099 20.5675 4.71157 20.7742C4.51216 20.981 4.40223 21.2582 4.40565 21.5457C4.40969 21.8339 4.52792 22.1087 4.73433 22.3097C4.94075 22.5106 5.21845 22.6213 5.50633 22.6172C5.79421 22.6132 6.0687 22.4948 6.26941 22.2881C6.47012 22.0815 6.58061 21.8034 6.57657 21.5152C6.56626 21.2312 6.44779 20.962 6.24547 20.7627C6.04314 20.5634 5.77232 20.4493 5.48858 20.4436H5.47082V20.4411ZM21.5346 20.4411C21.251 20.4461 20.9801 20.5602 20.778 20.7597C20.576 20.9591 20.4583 21.2287 20.4492 21.5126C20.4475 21.6554 20.4739 21.797 20.5269 21.9295C20.5799 22.062 20.6585 22.1828 20.7581 22.2849C20.8577 22.387 20.9765 22.4684 21.1075 22.5246C21.2386 22.5807 21.3794 22.6105 21.522 22.6121V22.6121C21.664 22.6148 21.8052 22.5893 21.9374 22.537C22.0695 22.4848 22.19 22.4068 22.2919 22.3076C22.3938 22.2085 22.475 22.0901 22.5309 21.9593C22.5868 21.8285 22.6163 21.6879 22.6176 21.5457C22.621 21.2585 22.511 20.9816 22.3115 20.7752C22.112 20.5688 21.8392 20.4496 21.5524 20.4436L21.5346 20.4411ZM13.5053 7.56193C12.3333 7.56394 11.1883 7.91392 10.2151 8.56761C9.2418 9.22129 8.48405 10.1493 8.03765 11.2342C7.59125 12.3192 7.47627 13.5123 7.70724 14.6627C7.93822 15.8131 8.50477 16.869 9.33524 17.697C10.1657 18.5249 11.2228 19.0876 12.3727 19.314C13.5226 19.5403 14.7138 19.4201 15.7955 18.9685C16.8772 18.5169 17.8008 17.7542 18.4495 16.777C19.0982 15.7997 19.4428 14.6518 19.4398 13.4784C19.4324 11.9071 18.804 10.4027 17.6919 9.29401C16.5799 8.18533 15.0746 7.56258 13.5053 7.56193V7.56193ZM2.16371 12.4043C1.94903 12.4043 1.73917 12.468 1.56066 12.5875C1.38216 12.7069 1.24303 12.8766 1.16088 13.0752C1.07872 13.2738 1.05723 13.4923 1.09911 13.7031C1.14099 13.914 1.24437 14.1076 1.39618 14.2596C1.54798 14.4116 1.74139 14.5151 1.95195 14.557C2.16251 14.599 2.38076 14.5774 2.5791 14.4952C2.77744 14.4129 2.94697 14.2736 3.06624 14.0949C3.18551 13.9162 3.24918 13.7061 3.24918 13.4911C3.24653 13.2037 3.13132 12.9288 2.92833 12.7255C2.72533 12.5223 2.45078 12.407 2.16371 12.4043V12.4043ZM24.8595 12.4043C24.5716 12.407 24.2963 12.523 24.0931 12.7274C23.89 12.9317 23.7754 13.2079 23.774 13.4962C23.7746 13.7107 23.8383 13.9202 23.9573 14.0985C24.0763 14.2769 24.2452 14.4161 24.4429 14.4987C24.6406 14.5813 24.8582 14.6037 25.0685 14.563C25.2788 14.5223 25.4725 14.4204 25.6251 14.2699C25.7778 14.1195 25.8828 13.9273 25.9268 13.7174C25.9708 13.5075 25.952 13.2893 25.8727 13.0901C25.7934 12.8908 25.6571 12.7195 25.4809 12.5975C25.3047 12.4755 25.0965 12.4083 24.8823 12.4043H24.8595ZM5.48858 4.38277C5.3476 4.38109 5.20769 4.40732 5.07687 4.45995C4.94605 4.51257 4.82691 4.59055 4.72628 4.68942C4.62565 4.78828 4.54553 4.90608 4.4905 5.03604C4.43548 5.166 4.40664 5.30557 4.40565 5.44672C4.40126 5.59017 4.42536 5.73306 4.47655 5.86711C4.52773 6.00116 4.60499 6.12371 4.70384 6.22764C4.80268 6.33157 4.92116 6.41482 5.05238 6.47255C5.18361 6.53029 5.32497 6.56138 5.46829 6.564V6.564C5.75512 6.56288 6.0304 6.45071 6.23651 6.25098C6.44261 6.05124 6.56356 5.77943 6.57404 5.49243C6.57681 5.35174 6.55155 5.21192 6.49973 5.08112C6.44791 4.95032 6.37057 4.83118 6.27224 4.73065C6.17376 4.62748 6.05579 4.54495 5.92518 4.48784C5.79456 4.43074 5.65391 4.4002 5.5114 4.398L5.48858 4.38277ZM21.5397 4.38277C21.3967 4.38144 21.2548 4.40832 21.1221 4.4619C20.9894 4.51548 20.8686 4.59469 20.7665 4.69502C20.5603 4.89765 20.443 5.17398 20.4403 5.46323C20.4376 5.75247 20.5498 6.03095 20.7522 6.23738C20.9545 6.44382 21.2305 6.5613 21.5194 6.564V6.564C21.7342 6.5662 21.9449 6.50468 22.1248 6.38719C22.3048 6.26971 22.446 6.10152 22.5306 5.90382C22.6152 5.70613 22.6395 5.48777 22.6004 5.27629C22.5612 5.0648 22.4604 4.86964 22.3107 4.71541C22.2117 4.61363 22.0934 4.53268 21.9628 4.4773C21.8321 4.42192 21.6917 4.39324 21.5499 4.39293L21.5397 4.38277ZM13.5053 1.04872C13.2915 1.04894 13.0825 1.11269 12.9049 1.23188C12.7273 1.35108 12.589 1.52036 12.5075 1.7183C12.4261 1.91623 12.4051 2.13392 12.4473 2.3438C12.4894 2.55368 12.5929 2.74631 12.7444 2.8973C12.8435 2.99908 12.9618 3.08021 13.0924 3.13599C13.223 3.19178 13.3633 3.22112 13.5053 3.22233C13.7935 3.21836 14.0687 3.10162 14.272 2.89709C14.4753 2.69256 14.5906 2.41647 14.5933 2.1279C14.5899 1.84096 14.4739 1.56687 14.2703 1.36491C14.0667 1.16295 13.7919 1.04936 13.5053 1.04872V1.04872Z" fill="black"></path></svg>