<svg xmlns="http://www.w3.org/2000/svg" width="28" height="28" viewBox="0 0 28 28" fill="none"><path d="M13.941 27.9971C10.2316 27.9796 6.68055 26.4914 4.06701 23.8589C1.45347 21.2265 -0.00914816 17.6648 4.30581e-05 13.9554C0.0259557 6.25933 6.25362 0 13.8834 0H13.941C17.6337 0.0311275 21.1646 1.51952 23.7653 4.14123C26.366 6.76294 27.8259 10.3057 27.8273 13.9986C27.8273 21.7176 21.5996 27.9971 13.9439 28L13.941 27.9971ZM13.8834 1.39352C12.2281 1.40014 10.5903 1.73273 9.06353 2.37231C7.53675 3.01188 6.15089 3.94592 4.98509 5.12108C2.63063 7.49443 1.31542 10.7059 1.32878 14.0489C1.34215 17.392 2.68299 20.5928 5.05634 22.9473C7.42969 25.3018 10.6411 26.617 13.9842 26.6036H14.0504C17.3935 26.5853 20.5924 25.2397 22.9433 22.8628C25.2942 20.4859 26.6047 17.2725 26.5864 13.9295C26.568 10.5864 25.2224 7.38754 22.8456 5.03659C20.4687 2.68565 17.2553 1.3752 13.9122 1.39352H13.8834Z" fill="black"></path><path d="M12.7114 21.8527C11.8649 21.8527 11.0156 21.8527 10.1605 21.8355C9.38022 21.8355 8.5942 21.8355 7.80243 21.8355V6.17274C7.83182 6.15935 7.86277 6.14968 7.89456 6.14395L9.95318 6.15835C11.8765 6.15835 13.866 6.1785 15.8181 6.23896C17.3786 6.28791 18.4928 7.05377 19.0399 8.45017C19.5869 9.84657 19.4257 11.3293 18.4842 12.4637C17.6521 13.4599 16.8834 13.6154 16.8834 13.6154C16.8834 13.6154 20.1253 14.2114 19.9727 17.9716C19.6531 20.2462 18.1531 21.7145 16.0542 21.7952C15.0637 21.8326 14.0071 21.8527 12.7114 21.8527ZM9.47523 20.5024H9.73436C10.3534 20.5024 10.9666 20.5024 11.577 20.5197C12.1874 20.537 12.7892 20.537 13.3909 20.537C14.3353 20.537 15.1184 20.5168 15.8296 20.4707C17.2864 20.3786 18.3287 19.1406 18.3633 17.462C18.3949 15.9188 17.5513 14.888 16.0599 14.6346C15.1809 14.5088 14.2932 14.453 13.4053 14.4677C13.1174 14.4677 12.8467 14.4677 12.5675 14.4677C12.2018 14.4677 11.8362 14.4677 11.4734 14.4677H9.47523V20.5024ZM9.42916 8.85326C9.42916 10.0711 9.42916 11.2199 9.4522 12.3889L9.47235 13.1116H11.1567C12.5805 13.1343 14.0047 13.0853 15.4236 12.9647C16.8862 12.8179 17.75 11.7267 17.6809 10.1172C17.6118 8.50776 16.748 7.63536 15.2422 7.54611C14.6059 7.50868 13.9178 7.49141 13.0771 7.49141C12.5358 7.49141 11.9888 7.49141 11.4331 7.49141C10.8774 7.49141 10.2814 7.5058 9.70557 7.5058H9.44644L9.42916 8.85326Z" fill="black"></path></svg>