<svg xmlns="http://www.w3.org/2000/svg" width="53" height="59" viewBox="0 0 53 59" fill="none"><path d="M51.2744 51.9275H47.2119L44.2948 38.0076C44.0578 36.8497 43.432 35.8076 42.5212 35.0543C41.6104 34.301 40.4694 33.8818 39.2875 33.8663H27.7257C26.9039 33.8864 26.1043 33.5981 25.4843 33.0583C24.8643 32.5185 24.4688 31.7661 24.3757 30.9494L23.7458 25.2649H34.4179C34.774 25.2649 35.1154 25.1234 35.3671 24.8717C35.6189 24.62 35.7603 24.2785 35.7603 23.9225C35.7603 23.5665 35.6189 23.2251 35.3671 22.9733C35.1154 22.7216 34.774 22.5801 34.4179 22.5801H23.4506L22.2696 12.0222L22.9821 11.723C24.2065 11.2158 25.2312 10.3216 25.8995 9.17711C26.5677 8.03257 26.8427 6.70066 26.6825 5.38505C26.5058 3.96547 25.8394 2.652 24.7982 1.67109C23.7569 0.690178 22.406 0.103275 20.9784 0.0115878C20.149 -0.0399317 19.318 0.0807216 18.5376 0.365939C17.7571 0.651157 17.0441 1.0948 16.4434 1.66893C15.6627 2.40556 15.0905 3.33528 14.7845 4.3641C14.4786 5.39291 14.4498 6.48432 14.7011 7.52784C14.9524 8.57135 15.4748 9.52996 16.2156 10.3067C16.9563 11.0835 17.8891 11.6508 18.9195 11.9513L19.577 12.1442L21.6988 31.2446C21.8731 32.7159 22.584 34.0711 23.6953 35.051C24.8066 36.0308 26.2403 36.5663 27.7218 36.5551H39.3033C39.8667 36.5709 40.4078 36.7785 40.8373 37.1435C41.2667 37.5086 41.5588 38.0092 41.6652 38.5627L45.031 54.6162H51.2744C51.6184 54.5976 51.9422 54.4478 52.1791 54.1977C52.416 53.9477 52.548 53.6163 52.548 53.2718C52.548 52.9273 52.416 52.596 52.1791 52.3459C51.9422 52.0958 51.6184 51.9461 51.2744 51.9275ZM24.0253 6.0976C24.0253 6.77186 23.8254 7.43094 23.4508 7.99156C23.0762 8.55218 22.5437 8.98914 21.9208 9.24717C21.2979 9.5052 20.6124 9.5727 19.9511 9.44116C19.2898 9.30962 18.6824 8.98496 18.2056 8.50819C17.7288 8.03142 17.4042 7.42397 17.2726 6.76267C17.1411 6.10137 17.2086 5.41591 17.4666 4.79298C17.7247 4.17005 18.1616 3.63763 18.7222 3.26303C19.2829 2.88843 19.9419 2.68849 20.6162 2.68849C21.52 2.68954 22.3866 3.04906 23.0257 3.68817C23.6648 4.32727 24.0243 5.19377 24.0253 6.0976Z" fill="white"></path><path d="M34.3834 43.3811C34.0844 43.38 33.7936 43.479 33.5575 43.6624C33.3213 43.8458 33.1533 44.1029 33.0803 44.3928C32.4364 46.9906 31.1271 49.3759 29.2813 51.3139C27.4355 53.2519 25.1168 54.6759 22.5535 55.4456C19.9902 56.2153 17.2707 56.3042 14.6626 55.7036C12.0545 55.1029 9.64777 53.8335 7.67932 52.0202C5.71086 50.2069 4.24855 47.9122 3.43632 45.3621C2.6241 42.8119 2.48997 40.0942 3.04713 37.4765C3.6043 34.8587 4.83353 32.4313 6.61386 30.4329C8.39419 28.4346 10.6642 26.9343 13.2005 26.0798C13.5372 25.9634 13.8139 25.718 13.9697 25.3976C14.1254 25.0772 14.1475 24.708 14.0311 24.3713C13.9147 24.0346 13.6693 23.7579 13.3489 23.6021C13.0285 23.4463 12.6594 23.4242 12.3226 23.5407C9.34274 24.5454 6.67584 26.3089 4.58453 28.6575C2.49322 31.006 1.0496 33.8588 0.395743 36.9348C-0.258111 40.0108 -0.0996321 43.2041 0.855574 46.2002C1.81078 49.1964 3.52978 51.8921 5.84336 54.0221C8.15693 56.1521 10.9853 57.6428 14.0501 58.3476C17.1148 59.0524 20.3103 58.9469 23.3219 58.0415C26.3335 57.1361 29.0573 55.462 31.2254 53.1841C33.3934 50.9062 34.9309 48.1029 35.6864 45.0502C35.7361 44.8522 35.7399 44.6454 35.6976 44.4457C35.6554 44.2459 35.5681 44.0584 35.4425 43.8975C35.3168 43.7365 35.1561 43.6064 34.9726 43.5169C34.7891 43.4274 34.5875 43.381 34.3834 43.3811Z" fill="white"></path></svg>