<svg xmlns="http://www.w3.org/2000/svg" width="51" height="49" viewBox="0 0 51 49" fill="none"><path d="M49.4401 10.5443C49.178 10.427 48.8876 10.3877 48.6037 10.4312C48.3198 10.4748 48.0545 10.5993 47.8396 10.7898L35.7351 21.788V11.8893C35.7358 11.6076 35.6563 11.3316 35.5061 11.0933C35.3559 10.8551 35.1411 10.6644 34.8867 10.5435C34.6323 10.4227 34.3488 10.3766 34.0692 10.4107C33.7896 10.4447 33.5254 10.5576 33.3075 10.736L19.6093 21.9764V11.859C19.6114 11.5794 19.5346 11.3049 19.3876 11.067C19.2407 10.8291 19.0297 10.6374 18.7788 10.5141C18.5311 10.3906 18.2535 10.3396 17.9781 10.367C17.7027 10.3944 17.4406 10.499 17.222 10.6687L13.668 13.4057V1.81231C13.6707 1.33491 13.4838 0.875942 13.1484 0.536163C12.8131 0.196384 12.3566 0.00355521 11.8792 0H5.76981C5.29211 0.00355505 4.83527 0.196275 4.49937 0.535958C4.16347 0.87564 3.9759 1.3346 3.97769 1.81231V20.8735L0.100887 23.8626L0 23.94V46.5754C0.000107957 46.8226 0.0505622 47.0673 0.148252 47.2945C0.245942 47.5217 0.388846 47.7266 0.568259 47.8967C0.733694 48.0531 0.928593 48.1749 1.14161 48.2552C1.35462 48.3354 1.58147 48.3725 1.80895 48.3641L48.5457 48.6499C49.0225 48.6463 49.4785 48.454 49.8138 48.1149C50.149 47.7759 50.3363 47.3178 50.3345 46.841V11.9061C50.3333 11.6169 50.2482 11.3342 50.0894 11.0924C49.9306 10.8507 49.7051 10.6603 49.4401 10.5443ZM11.2437 2.41751V5.90091H6.40194V2.41751H11.2437ZM11.2437 8.3151V15.2685L6.40194 19.0208V8.31846L11.2437 8.3151ZM18.0357 25.2815C18.2897 25.4032 18.5732 25.4495 18.8527 25.415C19.1322 25.3804 19.396 25.2664 19.6126 25.0865L33.3176 13.826V23.8795C33.3178 24.1711 33.4032 24.4562 33.5633 24.6999C33.7234 24.9437 33.9512 25.1353 34.2187 25.2513C34.4812 25.3644 34.7709 25.3989 35.0526 25.3506C35.3344 25.3022 35.596 25.1731 35.8057 24.979L47.9102 13.9941V46.2358L2.41082 45.9567V25.1302L17.2052 13.7386V23.9299C17.2016 24.2128 17.2791 24.4908 17.4287 24.731C17.5783 24.9712 17.7936 25.1634 18.0491 25.2849L18.0357 25.2815Z" fill="white"></path><path d="M13.0157 29.3735V37.5811C13.0157 38.0843 13.2154 38.567 13.5709 38.9232C13.9264 39.2794 14.4088 39.4799 14.9121 39.4808H19.1453C19.642 39.474 20.1169 39.2753 20.4705 38.9261C20.824 38.577 21.0286 38.1046 21.0416 37.608V29.3735C21.0407 28.8709 20.8406 28.3891 20.4852 28.0336C20.1297 27.6782 19.6479 27.4781 19.1453 27.4772H14.9121C14.4094 27.4781 13.9275 27.6782 13.5721 28.0336C13.2166 28.3891 13.0166 28.8709 13.0157 29.3735ZM18.6274 29.8914V37.0666H15.4298V29.8914H18.6274Z" fill="white"></path><path d="M25.4463 39.4841H29.6795C30.1828 39.4832 30.6651 39.2827 31.0207 38.9265C31.3762 38.5704 31.5759 38.0877 31.5759 37.5844V29.3735C31.575 28.8709 31.3749 28.3891 31.0195 28.0336C30.664 27.6782 30.1822 27.4781 29.6795 27.4772H25.4463C24.9436 27.4781 24.4618 27.6782 24.1063 28.0336C23.7509 28.3891 23.5508 28.8709 23.5499 29.3735V37.5811C23.5495 37.8305 23.5982 38.0776 23.6933 38.3083C23.7883 38.5389 23.9279 38.7486 24.104 38.9254C24.2801 39.1021 24.4893 39.2424 24.7196 39.3383C24.9499 39.4341 25.1968 39.4837 25.4463 39.4841ZM29.1449 29.8947V37.07H25.9473V29.8947H29.1449Z" fill="white"></path><path d="M36.2866 39.4841H40.5198C41.0182 39.4824 41.496 39.2853 41.8506 38.9351C42.2052 38.5849 42.4083 38.1096 42.4162 37.6113V29.3735C42.4153 28.8709 42.2153 28.3891 41.8598 28.0336C41.5044 27.6782 41.0225 27.4781 40.5198 27.4772H36.2866C35.784 27.4781 35.3021 27.6782 34.9467 28.0336C34.5913 28.3891 34.3912 28.8709 34.3903 29.3735V37.5811C34.3898 37.8305 34.4385 38.0776 34.5336 38.3083C34.6287 38.5389 34.7682 38.7486 34.9443 38.9254C35.1204 39.1021 35.3296 39.2424 35.5599 39.3383C35.7902 39.4341 36.0372 39.4837 36.2866 39.4841ZM36.8045 37.07V29.8947H40.0021V37.07H36.8045Z" fill="white"></path></svg>