<svg xmlns="http://www.w3.org/2000/svg" width="47" height="47" viewBox="0 0 47 47" fill="none"><path d="M1.20299 47C0.883939 47 0.577953 46.8731 0.352348 46.6472C0.126744 46.4213 0 46.1149 0 45.7954V39.7721C0 39.4526 0.126744 39.1462 0.352348 38.9203C0.577953 38.6944 0.883939 38.5674 1.20299 38.5674H3.1648L6.02422 9.25731C6.05257 8.96017 6.19067 8.68432 6.41147 8.48379C6.63227 8.28325 6.91987 8.17247 7.21796 8.17313H16.1016C16.4001 8.17098 16.6885 8.28125 16.9096 8.48208C17.1307 8.6829 17.2684 8.95961 17.2953 9.25731L18.3595 20.2289L24.1246 14.4559C24.2338 14.343 24.3648 14.2537 24.5095 14.1931C24.6543 14.1326 24.8099 14.1022 24.9667 14.1037C25.1258 14.1015 25.2836 14.1311 25.4311 14.1907C25.5786 14.2503 25.7127 14.3389 25.8256 14.451C25.9385 14.5632 26.0279 14.6968 26.0885 14.844C26.1492 14.9913 26.18 15.1491 26.179 15.3084V21.2946L33.0083 14.4559C33.1175 14.343 33.2484 14.2537 33.3932 14.1931C33.5379 14.1326 33.6935 14.1022 33.8504 14.1037C34.0094 14.1015 34.1673 14.1311 34.3147 14.1907C34.4622 14.2503 34.5963 14.3389 34.7092 14.451C34.8221 14.5632 34.9115 14.6968 34.9722 14.844C35.0329 14.9913 35.0636 15.1491 35.0626 15.3084V21.2946L41.8919 14.4559C42.0011 14.343 42.132 14.2537 42.2768 14.1931C42.4216 14.1326 42.5771 14.1022 42.734 14.1037C42.893 14.1015 43.0509 14.1311 43.1984 14.1907C43.3459 14.2503 43.48 14.3389 43.5928 14.451C43.7057 14.5632 43.7951 14.6968 43.8558 14.844C43.9165 14.9913 43.9473 15.1491 43.9463 15.3084V38.5674H45.797C46.1161 38.5674 46.422 38.6944 46.6477 38.9203C46.8733 39.1462 47 39.4526 47 39.7721V45.7954C47 46.1149 46.8733 46.4213 46.6477 46.6472C46.422 46.8731 46.1161 47 45.797 47H1.20299ZM2.40599 44.5907H44.6033V40.9767H2.40599V44.5907ZM18.6741 23.3332L20.1548 38.5674H41.5495V18.2088L34.7202 25.0475C34.611 25.1603 34.4801 25.2497 34.3353 25.3103C34.1906 25.3708 34.035 25.4012 33.8781 25.3997C33.7191 25.4019 33.5612 25.3723 33.4138 25.3127C33.2663 25.253 33.1322 25.1645 33.0193 25.0524C32.9064 24.9402 32.817 24.8066 32.7563 24.6593C32.6956 24.5121 32.6649 24.3543 32.6659 24.195V18.2088L25.8366 25.0475C25.7274 25.1603 25.5964 25.2497 25.4517 25.3103C25.3069 25.3708 25.1514 25.4012 24.9945 25.3997C24.8355 25.4019 24.6776 25.3723 24.5301 25.3127C24.3826 25.253 24.2485 25.1645 24.1356 25.0524C24.0228 24.9402 23.9333 24.8066 23.8727 24.6593C23.812 24.5121 23.7812 24.3543 23.7822 24.195V18.2088L18.6741 23.3332ZM5.58004 38.5674H17.7303L15.5834 16.513H7.72691L5.58004 38.5674ZM7.96751 14.1037H15.352L15.0096 10.5824H8.3099L7.96751 14.1037Z" fill="white"></path><path d="M18.5908 3.58616C17.6858 3.58138 16.7948 3.36228 15.9905 2.94677C15.3318 2.60708 14.603 2.42621 13.8621 2.41857C13.2194 2.40819 12.585 2.56462 12.0206 2.87263C11.8229 3.00367 11.5914 3.07448 11.3543 3.0765C11.1762 3.07599 11.0005 3.03588 10.8397 2.95908C10.679 2.88228 10.5373 2.7707 10.4249 2.6324C10.3124 2.49409 10.232 2.33251 10.1895 2.15932C10.147 1.98613 10.1435 1.80565 10.1791 1.63091C10.2416 1.31769 10.4244 1.04152 10.688 0.86179C10.7436 0.824724 12.0021 0 13.8899 0C14.9978 0.0100046 16.0881 0.279763 17.0732 0.787658C17.5489 1.03164 18.0748 1.1617 18.6093 1.16759C19.1005 1.16633 19.5849 1.0522 20.0251 0.833991C20.1893 0.753721 20.3699 0.712496 20.5526 0.713525C20.7135 0.71453 20.8726 0.747853 21.0204 0.81152C21.1682 0.875188 21.3018 0.967907 21.4132 1.08419C21.5462 1.21591 21.6459 1.37756 21.7039 1.55568C21.7619 1.73379 21.7766 1.9232 21.7468 2.10814C21.7169 2.29309 21.6433 2.46821 21.5322 2.61891C21.421 2.76962 21.2755 2.89156 21.1078 2.97457C20.3284 3.37349 19.4661 3.58301 18.5908 3.58616Z" fill="white"></path><path d="M29.27 9.72044C28.365 9.71566 27.474 9.49656 26.6697 9.08105C26.011 8.74136 25.2822 8.56048 24.5413 8.55285C23.4123 8.55285 22.7091 8.99765 22.6998 9.00691C22.5015 9.13671 22.2704 9.20741 22.0335 9.21078C21.8554 9.21026 21.6797 9.17016 21.5189 9.09336C21.3582 9.01656 21.2165 8.90498 21.1041 8.76668C20.9916 8.62837 20.9112 8.46679 20.8687 8.2936C20.8262 8.12041 20.8227 7.93993 20.8583 7.76519C20.9208 7.45196 21.1036 7.1758 21.3672 6.99607C21.4228 6.959 22.6813 6.13428 24.5691 6.13428C25.677 6.14428 26.7673 6.41404 27.7524 6.92194C28.2281 7.16592 28.754 7.29597 29.2885 7.30186C29.7797 7.30061 30.2641 7.18648 30.7043 6.96827C30.8685 6.888 31.0491 6.84677 31.2318 6.8478C31.3927 6.84881 31.5518 6.88213 31.6996 6.9458C31.8474 7.00947 31.981 7.10218 32.0924 7.21847C32.2254 7.35019 32.3251 7.51184 32.3831 7.68995C32.4412 7.86806 32.4558 8.05748 32.426 8.24242C32.3961 8.42737 32.3225 8.60248 32.2114 8.75319C32.1002 8.9039 31.9547 9.02584 31.787 9.10884C31.0091 9.51193 30.1458 9.7217 29.27 9.72044Z" fill="white"></path><path d="M42.688 3.58616C41.783 3.58138 40.8919 3.36228 40.0876 2.94677C39.429 2.60708 38.7001 2.42621 37.9593 2.41857C37.3166 2.40819 36.6822 2.56462 36.1178 2.87263C35.9194 3.00243 35.6884 3.07313 35.4515 3.0765C35.2734 3.07599 35.0976 3.03588 34.9369 2.95908C34.7762 2.88228 34.6345 2.7707 34.522 2.6324C34.4096 2.49409 34.3292 2.33251 34.2867 2.15932C34.2442 1.98613 34.2406 1.80565 34.2763 1.63091C34.3388 1.31769 34.5215 1.04152 34.7852 0.86179C34.8407 0.824724 36.0993 0 37.987 0C39.095 0.0100046 40.1852 0.279763 41.1703 0.787658C41.6461 1.03164 42.172 1.1617 42.7065 1.16759C43.1977 1.16633 43.6821 1.0522 44.1223 0.833991C44.2865 0.753721 44.467 0.712496 44.6498 0.713525C44.8107 0.71453 44.9698 0.747853 45.1176 0.81152C45.2654 0.875188 45.399 0.967907 45.5104 1.08419C45.6434 1.21591 45.7431 1.37756 45.8011 1.55568C45.8591 1.73379 45.8738 1.9232 45.8439 2.10814C45.8141 2.29309 45.7405 2.46821 45.6293 2.61891C45.5182 2.76962 45.3727 2.89156 45.205 2.97457C44.4256 3.37349 43.5633 3.58301 42.688 3.58616Z" fill="white"></path><path d="M23.5048 35.046C23.1857 35.046 22.8797 34.9191 22.6541 34.6932C22.4285 34.4673 22.3018 34.1609 22.3018 33.8414C22.3018 33.5219 22.4285 33.2155 22.6541 32.9896C22.8797 32.7636 23.1857 32.6367 23.5048 32.6367H26.466C26.785 32.6367 27.091 32.7636 27.3166 32.9896C27.5422 33.2155 27.669 33.5219 27.669 33.8414C27.669 34.1609 27.5422 34.4673 27.3166 34.6932C27.091 34.9191 26.785 35.046 26.466 35.046H23.5048Z" fill="white"></path><path d="M32.3885 35.046C32.0695 35.046 31.7635 34.9191 31.5379 34.6932C31.3123 34.4673 31.1855 34.1609 31.1855 33.8414C31.1855 33.5219 31.3123 33.2155 31.5379 32.9896C31.7635 32.7636 32.0695 32.6367 32.3885 32.6367H35.3498C35.6688 32.6367 35.9748 32.7636 36.2004 32.9896C36.426 33.2155 36.5527 33.5219 36.5527 33.8414C36.5527 34.1609 36.426 34.4673 36.2004 34.6932C35.9748 34.9191 35.6688 35.046 35.3498 35.046H32.3885Z" fill="white"></path></svg>