<svg xmlns="http://www.w3.org/2000/svg" width="125" height="45" viewBox="0 0 125 45" fill="none"><path d="M110.371 12.7711C110.74 12.4044 111.013 12.0634 111.327 11.7591C113.121 9.96589 115.518 8.89273 118.059 8.74509C119.977 8.60366 121.904 8.86348 123.716 9.50776C124.029 9.61775 124.085 9.76442 123.893 10.0211C122.449 12.1001 120.784 13.9334 118.468 15.0591C115.514 16.5258 112.531 16.4708 109.558 15.0298C108.243 14.4551 107.07 13.6001 106.124 12.5254C104.588 10.6628 104.152 8.52875 104.559 6.18575C104.625 5.81909 104.817 5.70542 105.175 5.81909C108.015 6.63675 109.976 8.61309 110.252 11.6858C110.286 12.0231 110.326 12.3604 110.371 12.7711ZM122.733 10.1531C122.634 10.0944 122.589 10.0651 122.541 10.0431C122.464 10.0119 122.386 9.98622 122.305 9.96609C120.686 9.55362 119.002 9.45773 117.346 9.68375C115.957 9.88166 114.627 10.3778 113.451 11.1377C112.274 11.8976 111.279 12.9029 110.533 14.0838C110.345 14.3624 110.371 14.4944 110.703 14.6228C112.418 15.3245 114.314 15.4683 116.116 15.0334C118.576 14.4468 120.44 12.9618 122.024 11.0844C122.257 10.7801 122.482 10.4721 122.733 10.1531ZM109.359 13.8931C110.149 11.0074 108.011 7.21242 105.408 6.84209C104.415 8.85142 106.903 13.3211 109.359 13.8931Z" fill="black"></path><path d="M67.9991 25.883C65.3478 26.026 63.7563 24.123 63.7083 21.8496C63.6529 19.3196 65.4143 17.5083 67.8809 17.4863C70.4878 17.4643 72.2787 19.206 72.2566 21.8203C72.2344 24.0423 70.6983 26.0003 67.9991 25.883ZM65.9423 21.6003C66.0351 22.1058 66.1584 22.6054 66.3116 23.0963C66.4014 23.3915 66.5774 23.6536 66.8173 23.8494C67.0573 24.0452 67.3503 24.1659 67.6593 24.1963C68.3979 24.2806 69.1105 24.1413 69.5056 23.43C69.7963 22.9478 69.9614 22.4012 69.9859 21.8398C70.0104 21.2783 69.8936 20.7196 69.6459 20.2143C69.5006 19.8965 69.2595 19.6313 68.9559 19.4553C68.6523 19.2793 68.3012 19.2011 67.9511 19.2316C67.6074 19.2169 67.2676 19.3081 66.9781 19.4925C66.6886 19.6769 66.4635 19.9457 66.3337 20.262C66.1684 20.6973 66.0375 21.1447 65.9423 21.6003Z" fill="black"></path><path d="M50.2747 22.3995C50.2766 22.8969 50.4749 23.3738 50.827 23.7276C51.1792 24.0814 51.657 24.2838 52.1579 24.2915C53.0509 24.3288 53.9376 24.1262 54.7243 23.7049C55.1194 23.5069 55.1674 23.5435 55.1784 23.9799C55.1659 24.2241 55.1659 24.4689 55.1784 24.7132C55.1966 24.8043 55.1964 24.898 55.1777 24.989C55.1591 25.0799 55.1224 25.1663 55.0698 25.2431C55.0172 25.3199 54.9498 25.3855 54.8715 25.4361C54.7931 25.4868 54.7054 25.5215 54.6135 25.5382C53.3055 26.0051 51.8804 26.0386 50.5517 25.6335C49.0931 25.1862 48.3361 24.0789 48.1552 22.6379C47.9903 21.6799 48.0781 20.6958 48.41 19.7815C48.7112 18.9757 49.2921 18.3029 50.0481 17.8842C50.8041 17.4655 51.6858 17.3283 52.5346 17.4972C54.3242 17.7636 55.3434 18.7964 55.592 20.5955C55.6437 20.9915 55.7065 21.3875 55.7286 21.7872C55.7619 22.3885 55.7471 22.3885 55.1526 22.3885H50.2747V22.3995ZM53.598 20.8229C53.5648 19.6275 52.8854 19.0519 51.7037 19.1362C51.2968 19.1867 50.9245 19.3892 50.6625 19.7025C50.4005 20.0158 50.2684 20.4164 50.2932 20.8229H53.598Z" fill="black"></path><path d="M101.837 25.0031C101.652 25.1728 101.453 25.3273 101.243 25.4651C99.4888 26.3781 96.771 26.0554 96.3981 23.2651C96.2804 22.527 96.3136 21.773 96.4956 21.0479C96.6777 20.3228 97.0049 19.6416 97.4579 19.0448C97.9245 18.4079 98.588 17.94 99.3473 17.7123C100.107 17.4846 100.92 17.5096 101.664 17.7834C102.176 18.0394 102.661 18.3465 103.111 18.7001C103.425 17.2334 103.754 15.6641 104.082 14.1094L104.204 14.0581C104.34 14.2396 104.496 14.4056 104.669 14.5531C105.367 15.0554 105.375 15.6714 105.186 16.4598C104.584 18.9678 104.079 21.4904 103.532 24.0131C103.444 24.4311 103.392 24.8564 103.34 25.2818C103.299 25.6044 103.17 25.7951 102.805 25.7328C102.721 25.7272 102.637 25.7272 102.554 25.7328C101.793 25.7291 101.793 25.7291 101.837 25.0031ZM102.528 20.8598C102.494 20.59 102.436 20.3237 102.354 20.0641C102.249 19.7728 102.073 19.5121 101.841 19.3053C101.609 19.0985 101.329 18.9521 101.027 18.8794C100.724 18.8067 100.407 18.8098 100.106 18.8886C99.8048 18.9674 99.5279 19.1194 99.3004 19.3308C98.8605 19.7476 98.518 20.2552 98.2973 20.8178C98.0765 21.3804 97.9828 21.9843 98.0228 22.5868C98.0228 23.6318 98.5176 24.3358 99.2561 24.5484C99.7046 24.6902 100.188 24.6776 100.628 24.5125C101.069 24.3475 101.44 24.0398 101.682 23.6391C102.227 22.8128 102.521 21.8477 102.528 20.8598Z" fill="black"></path><path d="M83.3083 14.9709L81.7058 17.6256C80.1549 20.1898 78.6052 22.7565 77.0568 25.3256C76.9966 25.4656 76.8917 25.582 76.7582 25.6569C76.6247 25.7318 76.4701 25.761 76.3183 25.7399C75.957 25.7124 75.594 25.7124 75.2327 25.7399C74.9077 25.7692 74.7822 25.6152 74.7342 25.3329C74.5249 23.9836 74.3095 22.6391 74.088 21.2996C73.8591 19.872 73.6252 18.4445 73.3864 17.0169C73.2904 16.4302 73.1981 15.8436 73.0947 15.2606C73.043 14.9599 73.1464 14.8132 73.464 14.8426C73.5328 14.8463 73.6019 14.8463 73.6707 14.8426C74.7785 14.8426 74.7453 14.8426 74.893 15.9426C75.1551 17.8676 75.4579 19.7852 75.7386 21.7102C75.842 22.4142 75.9454 23.1219 76.0672 23.9616C76.2297 23.7269 76.3331 23.5949 76.418 23.4519C78.0624 20.6995 79.6995 17.9421 81.3291 15.1799C81.3805 15.069 81.4653 14.9766 81.5718 14.9156C81.6783 14.8545 81.8012 14.8277 81.9236 14.8389C82.363 14.8572 82.8025 14.8389 83.2419 14.8389L83.3083 14.9709Z" fill="black"></path><path d="M87.9491 24.1779C87.8531 24.6692 87.7904 25.0432 87.7017 25.4099C87.6854 25.4597 87.6584 25.5054 87.6228 25.544C87.5871 25.5825 87.5435 25.6131 87.495 25.6335C86.0807 25.9415 84.6628 26.1139 83.2781 25.5382C82.8522 25.3627 82.4805 25.0787 82.2004 24.715C81.9203 24.3513 81.7418 23.9207 81.6829 23.4665C81.3136 21.4535 81.8195 19.7009 83.4627 18.3919C83.972 17.9812 84.5786 17.7066 85.2249 17.5943C85.8712 17.482 86.5357 17.5357 87.1552 17.7502C88.407 18.1169 88.9166 19.1179 89.0015 20.3389C89.0106 20.8488 88.9809 21.3587 88.9129 21.8642C88.8871 22.1869 88.6212 22.1392 88.4033 22.1392H83.8245C83.2337 22.1392 83.1968 22.1869 83.2522 22.7845C83.3593 23.9139 83.7839 24.3685 84.8954 24.5922C85.7091 24.715 86.5407 24.6382 87.3177 24.3685L87.9491 24.1779ZM83.5181 20.9402C84.7588 20.9402 85.9625 20.9402 87.1663 20.9402C87.2167 20.9305 87.2638 20.9088 87.3038 20.8768C87.3437 20.8449 87.3751 20.8037 87.3953 20.7569C87.4518 20.571 87.4706 20.3759 87.4506 20.1828C87.4306 19.9896 87.3722 19.8024 87.2788 19.6318C87.1854 19.4613 87.0588 19.3109 86.9064 19.1893C86.7539 19.0677 86.5787 18.9774 86.3909 18.9235C86.0685 18.8647 85.7375 18.8705 85.4174 18.9405C85.0973 19.0106 84.7946 19.1434 84.5269 19.3313C84.2593 19.5192 84.0321 19.7583 83.8589 20.0346C83.6856 20.3109 83.5698 20.6188 83.5181 20.9402Z" fill="black"></path><path d="M112.25 24.233C112.165 24.6767 112.099 25.0653 112.01 25.4503C111.993 25.4934 111.967 25.5322 111.933 25.5639C111.899 25.5956 111.858 25.6194 111.814 25.6337C110.415 25.9417 109 26.1177 107.631 25.5677C107.2 25.3844 106.823 25.0954 106.536 24.7279C106.248 24.3604 106.06 23.9264 105.987 23.4667C105.763 22.4854 105.839 21.4601 106.206 20.522C106.572 19.584 107.212 18.7759 108.044 18.2013C108.556 17.8625 109.14 17.6466 109.75 17.5709C110.36 17.4951 110.98 17.5616 111.559 17.765C112.667 18.1317 113.332 19.184 113.336 20.5003C113.336 20.9403 113.273 21.3803 113.243 21.8203C113.225 22.1393 113.003 22.1393 112.771 22.1393H108.177C107.553 22.1393 107.516 22.198 107.557 22.8287C107.649 24.2953 108.757 24.7573 110.285 24.6363C110.948 24.5407 111.604 24.406 112.25 24.233ZM107.859 20.8707C107.882 20.8707 107.9 20.9183 107.922 20.9183C109.104 20.9183 110.285 20.9403 111.467 20.9183C111.522 20.9045 111.572 20.8785 111.615 20.8423C111.658 20.8061 111.692 20.7606 111.714 20.7093C111.813 20.3605 111.779 19.9875 111.617 19.6625C111.456 19.3376 111.178 19.0835 110.839 18.9493C109.613 18.4983 107.967 19.5543 107.859 20.8707Z" fill="black"></path><path d="M62.6188 19.4333C62.209 19.3563 61.8803 19.272 61.5369 19.228C61.2583 19.1722 60.9709 19.1756 60.6937 19.238C60.4165 19.3005 60.1558 19.4205 59.9286 19.5903C59.7015 19.76 59.5132 19.9756 59.3761 20.2228C59.239 20.4701 59.1561 20.7434 59.1331 21.0247C58.9803 21.7721 59.0911 22.5489 59.4469 23.2247C59.9307 24.0534 60.8723 24.3834 61.921 24.1047L62.8367 23.8627C62.8736 24.4237 62.9216 24.915 62.9253 25.4064C62.9151 25.4691 62.8886 25.5281 62.8484 25.5776C62.8083 25.6271 62.7559 25.6654 62.6964 25.6887C61.4151 25.927 60.1116 26.0554 58.8894 25.52C58.386 25.2909 57.946 24.9441 57.607 24.5092C57.2681 24.0743 57.0404 23.5644 56.9434 23.023C56.6506 21.9179 56.7271 20.7483 57.1612 19.69C57.3825 19.1351 57.7441 18.6462 58.2111 18.2705C58.6781 17.8948 59.2347 17.6449 59.8273 17.545C60.7069 17.3882 61.6103 17.4233 62.4748 17.6477C62.5233 17.6505 62.5705 17.6639 62.613 17.687C62.6556 17.71 62.6925 17.7422 62.7211 17.7811C62.7497 17.82 62.7693 17.8647 62.7784 17.912C62.7875 17.9593 62.786 18.008 62.7739 18.0547C62.7186 18.513 62.6742 18.953 62.6188 19.4333Z" fill="black"></path><path d="M90.0654 25.7253C90.1947 25.0763 90.3054 24.497 90.4347 23.9213C90.8359 21.9536 91.2409 19.9821 91.6495 18.007C91.6495 17.9667 91.6495 17.8933 91.6754 17.8933C92.0963 17.8383 92.521 17.776 92.9456 17.7613C92.9899 17.7613 93.0564 18.0693 93.0823 18.2343C93.078 18.3742 93.0581 18.5131 93.0232 18.6487C93.1672 18.5423 93.2484 18.4873 93.3186 18.425C93.6473 18.1138 94.0399 17.877 94.4695 17.7308C94.8992 17.5846 95.3556 17.5324 95.8074 17.578C96.2689 17.6147 96.3354 17.7027 96.2283 18.1317C96.2283 18.1977 96.2062 18.2673 96.1914 18.337C96.04 18.9933 96.04 18.964 95.3532 18.9457C94.9612 18.9429 94.5743 19.0346 94.2258 19.2127C93.8772 19.3909 93.5774 19.6503 93.3518 19.9687C92.8245 20.684 92.4798 21.5156 92.3474 22.3923C92.1407 23.4043 91.9265 24.4163 91.6975 25.4247C91.6717 25.5347 91.5535 25.707 91.4686 25.7107C91.007 25.74 90.5824 25.7253 90.0654 25.7253Z" fill="black"></path><path d="M0.756977 44.0017C0.559373 44.0017 0.369579 43.9251 0.228137 43.788C0.0866956 43.651 0.0048196 43.4645 0 43.2684V37.453C0.0048196 37.2569 0.0866956 37.0703 0.228137 36.9333C0.369579 36.7963 0.559373 36.7196 0.756977 36.7197H3.88828V7.30202H0.756977C0.556214 7.30202 0.363674 7.22283 0.221714 7.08186C0.0797534 6.9409 0 6.74971 0 6.55035V0.753353C0.0048196 0.557193 0.0866956 0.370681 0.228137 0.233657C0.369579 0.0966329 0.559373 0.0199612 0.756977 0.0200196H35.7699C35.9706 0.0200196 36.1632 0.0992128 36.3051 0.240178C36.4471 0.381142 36.5269 0.572332 36.5269 0.771686V6.55035C36.5269 6.74971 36.4471 6.9409 36.3051 7.08186C36.1632 7.22283 35.9706 7.30202 35.7699 7.30202H32.6386V36.7014H35.7699C35.9675 36.7013 36.1573 36.778 36.2987 36.915C36.4402 37.052 36.522 37.2385 36.5269 37.4347V43.2684C36.522 43.4645 36.4402 43.651 36.2987 43.788C36.1573 43.9251 35.9675 44.0017 35.7699 44.0017H0.756977ZM1.49549 42.4947H34.9944V38.2084H1.51395L1.49549 42.4947ZM5.38746 34.2447V36.7014H31.1025V30.5964L5.38746 34.2447ZM5.38746 28.4477V32.723L31.1025 29.0747V24.7994L5.38746 28.4477ZM5.38746 20.722V26.9297L31.1025 23.2814V17.0737L5.38746 20.722ZM5.38746 14.9287V19.204L31.1025 15.5557V11.2804L5.38746 14.9287ZM5.38746 13.407L31.1025 9.74035V7.28369H5.40591L5.38746 13.407ZM1.51395 5.79502H35.0129V1.50869H1.51395V5.79502Z" fill="black"></path></svg>